<svg id="Layer_1" data-name="Layer 1" xmlns="http://www.w3.org/2000/svg" width="528.49" height="572.33" viewBox="0 0 528.49 572.33"><defs><style>.cls-1{fill:#231f20;}</style></defs><title>Bird</title><path class="cls-1" d="M217.48,211.45A13.48,13.48,0,1,0,231,198,13.48,13.48,0,0,0,217.48,211.45Z" transform="translate(-95.76 -74.39)"/><path class="cls-1" d="M369.23,639.62h3.86a0.27,0.27,0,0,0,.28-0.27c0-.28,0-1.85,0-1.85a0.27,0.27,0,0,0-.28-0.28h-1.67a0.22,0.22,0,0,1-.22-0.23c0-.22,0-6.07,0-6.07a0.22,0.22,0,0,0-.23-0.23h-2.12a0.21,0.21,0,0,0-.19.23c0,0.23,0,8.13,0,8.13A0.55,0.55,0,0,0,369.23,639.62Z" transform="translate(-95.76 -74.39)"/><path class="cls-1" d="M363,639.61h2.12a0.22,0.22,0,0,0,.23-0.23s0-5.84,0-6.07a0.23,0.23,0,0,1,.23-0.23h1.67a0.26,0.26,0,0,0,.28-0.28V631a0.26,0.26,0,0,0-.27-0.27h-3.86a0.55,0.55,0,0,0-.58.57s0,7.9,0,8.13A0.2,0.2,0,0,0,363,639.61Z" transform="translate(-95.76 -74.39)"/><path class="cls-1" d="M359.78,643.72a11.78,11.78,0,0,0,16.07-.34,11.07,11.07,0,0,0,3.46-8.17,11.67,11.67,0,0,0-11.58-11.63,11.38,11.38,0,0,0-8.25,3.36A11.52,11.52,0,0,0,359.78,643.72Zm1.15-15.29a9.27,9.27,0,0,1,6.8-2.76,9.59,9.59,0,0,1,9.49,9.54,8.93,8.93,0,0,1-2.83,6.67,9.69,9.69,0,0,1-13.24.27A9.44,9.44,0,0,1,360.94,628.43Z" transform="translate(-95.76 -74.39)"/><path class="cls-1" d="M503,557.54l121.29,6.08L623.09,554c-0.22-1.91-5.89-46.88-37.31-57.14l-1-.32-97.86-6c-9.51-31.44-21.25-59.74-35.15-84.62-20.3-36.34-45.19-65.56-74-86.85-33.2-24.53-63.75-32.82-80.88-35.63,27.81-14.13,85.81-32.46,86.46-32.67l22.22-7-93.22-36.34-0.58-.14c-13.85-3.19-26.4-28.83-29.71-37.55l-0.07-.2c-20.3-49.85-132.41-90.42-137.17-92.12l-8.44-3-18.87,72.45a150.5,150.5,0,0,0-19.25,48.92c-3.76,18.89-4.55,44,6.79,70,1.22,8.42,6.81,41.34,25.3,84a401.64,401.64,0,0,0,77.09,116.56c-3.34,14.18-11.24,51.52-11.24,87.38V560l6.07,1.63c0.4,0.1,4.44,1.19,10.79,2.58L181.18,625l-0.81,1.47H126.63c-0.92,0-11.39.94-13.5,19.13H209.6c0.82-8.17,3.2-14.58,7.1-19.13H204.5L235,568.38c4.93,0.77,10.16,1.46,15.5,2l7.18,0.72L265.57,537c7.93,21.58,13.63,34,17,37l2.34,2.1h7l-19.48,50.31H232.14c-0.91,0-11.39.94-13.5,19.13H345.33c-2.11-18.2-12.58-19.09-13.5-19.13H295.31l19.49-50.31h28.61l1.88-36.46c15.77,7.93,47.45,18.58,104.12,19.1,25.23,13.81,42.63,21.73,44.7,22.65L508,587.71l-2.42-15C504.76,567.56,503.87,562.53,503,557.54Zm-29.78-55.25a171.38,171.38,0,0,1-55.45,18.87c-9.65-6-19.7-12.46-29.93-19.43C411.9,499.3,445.55,493,465.16,477Q469.55,489.64,473.18,502.29Zm-14.2-42c-16.84,19.69-66.92,25.58-92.4,26.48-10.71-7.86-21.41-16.21-31.87-25,1.39,0.09,2.8.14,4.24,0.14,11.34,0,23.68-2.93,36.39-10.44a60.34,60.34,0,0,0,9.25.72c10.49,0,21.76-2.77,33.36-9.7a60.91,60.91,0,0,0,9.53.77,60.09,60.09,0,0,0,22.4-4.4Q454.75,449.42,459,460.24ZM369,333c31.72,23.73,55.64,55.89,73.7,91-33.45,12.3-58.76-20-59.92-21.49l-13.05,9.93a85,85,0,0,0,25.56,21.93c-30.87,7.69-53.64-20.25-54.73-21.63l-12.88,10.16a83.12,83.12,0,0,0,24.87,20.68c-30.92,8.67-53.46-14.9-54.55-16.07l0,0a347.39,347.39,0,0,1-25-28.83c-2.53-4.18-26.88-47.5,13.43-100.07C297.52,299.66,331.62,305,369,333ZM314.14,225.72l42.5,16.57c-14.34,4.89-33.37,11.69-49.76,18.58l-31.08-14.08Zm-42.27-38.65a108.88,108.88,0,0,0,12.44,19.48l-27.7-1.75a26.51,26.51,0,1,0-1,16.37L285,223,239.16,248.2,287.23,270c-2.6,1.37-4.94,2.71-7,4-4.44,2.83-24.56,15.89-24.56,15.89l-0.42.3a133.89,133.89,0,0,1-12.93,8.49c-48-11.22-77.54-29.66-87.83-54.85-9.11-22.29-.38-44.78,4.39-54.37,23,3.54,47.67-7.22,48.81-7.72l0.74-.37c17.6-10,33.63-12.07,47.59-6A43.05,43.05,0,0,1,271.88,187.07Zm-23.14,24.38A17.76,17.76,0,1,1,231,193.68,17.76,17.76,0,0,1,248.73,211.45ZM114.24,199.51a133.83,133.83,0,0,1,17.63-44.68l0.81-1.19,15-57.6a533.69,533.69,0,0,1,49.72,22.56c25.31,13.2,44.37,26.3,56.43,38.69-14.22-3.48-32.21-2.22-53.09,9.56-3,1.27-26.19,10.5-43.79,5.41l-5.82-1.69-3.31,5.07c-1,1.49-23.71,36.87-8.56,74.2,10.67,26.31,37,46.14,78.55,59.14a81.2,81.2,0,0,1-21,2.82c-33.43,0-55.93-21.81-57.05-22.92C116.24,263.42,107.65,233.35,114.24,199.51ZM245,553.23c-13.29-1.72-25.35-4.28-32.29-5.89,0.68-25.4,5.22-51.3,8.52-67.18a395.12,395.12,0,0,0,34,28.88ZM366.1,530.7c-16.3-5.62-22.56-11.26-22.56-11.26l-13-12.66-2.72,53H292.49c-4.45-8.85-14.19-35.18-21.82-57.85l-0.81-2.44-2.07-1.54c-67.25-49.88-103.53-111.33-122.13-154.09a377,377,0,0,1-15.16-41.2c7.62,6.79,31.79,25.55,66.34,25.55,22.08,0,44.08-7.71,65.46-22.89-14.64,25.85-16.39,49-14.73,65.27,2.3,22.33,11.34,36.61,11.72,37.22l0.4,0.56c27.8,36.16,64.49,68,100.59,94.28v0.61h0.82c19.77,14.34,39.33,27,57.14,37.66C393.79,538.7,376.91,534.44,366.1,530.7Zm72.37,2.9a184.43,184.43,0,0,0,39.15-15.06c3.62,14.07,6.6,27.9,9.05,41.14C475.52,554.11,458.52,545.27,438.48,533.61Zm53.21-26.36,89.92,5.5c10.18,3.82,16.37,14.56,19.8,23a88.64,88.64,0,0,1,3.42,10.44l-105.12-5.27Q496.08,523.59,491.68,507.25Z" transform="translate(-95.76 -74.39)"/></svg>