<svg id="Layer_1" data-name="Layer 1" xmlns="http://www.w3.org/2000/svg" xmlns:xlink="http://www.w3.org/1999/xlink" width="90.48" height="187.31" viewBox="0 0 90.48 187.31"><defs><style>.cls-1{clip-path:url(#clip-path);}</style><clipPath id="clip-path" transform="translate(-0.45 0)"/></defs><title>Brain_mask</title><g class="cls-1"><path d="M5.28,2C10.44-2,26.51-.58,34.69,11.57c0,0,11.91-1.69,16.35,10.87A19.32,19.32,0,0,1,63,30.21,65.6,65.6,0,0,1,69.6,41.79s10.85,5.51,8,20.05A22.73,22.73,0,0,1,83.76,85s13.77,14.54,3.16,36.71c0,0,2,20.9-13.63,29.79,0,0,.29,17.27-17.36,22.64,0,0-9,13.65-28.26,12.66,0,0-13.63,2.69-22-4.38-7.64-6.48-4.65-31.05-4.85-35.16-0.38-8.2.42-18.17,1.83-21.18,0,0-4-9.18-.91-19.06,0,0-3.39-14,2.06-25.14,0,0-.16,0-1.43-4-1.83-5.65-2.58-18.07.14-23.3,2-3.76-1.44-4.1-1-10.87s-1-19.35-.94-29.09C0.68,6.06,2.51,4.08,5.28,2" transform="translate(-0.45 0)"/></g></svg>