<?xml version="1.0" encoding="utf-8"?>
<!-- Generator: Adobe Illustrator 19.2.1, SVG Export Plug-In . SVG Version: 6.00 Build 0)  -->
<svg version="1.1" id="Layer_1" xmlns="http://www.w3.org/2000/svg" xmlns:xlink="http://www.w3.org/1999/xlink" x="0px" y="0px"
	 viewBox="0 0 90.8 187.9" style="enable-background:new 0 0 90.8 187.9;" xml:space="preserve">
<style type="text/css">
	.st0{clip-path:url(#SVGID_2_);fill:none;stroke:#000000;stroke-width:3;stroke-linejoin:round;stroke-miterlimit:10;}
	
		.st1{clip-path:url(#SVGID_2_);fill:none;stroke:#000000;stroke-width:3;stroke-linecap:round;stroke-linejoin:round;stroke-miterlimit:10;}
	.st2{clip-path:url(#SVGID_2_);fill:none;stroke:#000000;stroke-width:3;stroke-linecap:round;stroke-linejoin:round;}
</style>
<g>
	<defs>
		<rect id="SVGID_1_" width="90.8" height="187.9"/>
	</defs>
	<clipPath id="SVGID_2_">
		<use xlink:href="#SVGID_1_"  style="overflow:visible;"/>
	</clipPath>
	<path class="st0" d="M84.7,3.4c-5-3.9-20.6-2.5-28.6,9.5c0,0-11.6-1.7-15.9,10.7c0,0-6.6,0.8-11.6,7.7c-3.8,5.2-17,16.9-14.2,31.2
		c0,0-10,8.6-6,22.9c0,0-13.4,14.4-3.1,36.2c0,0-2,20.6,13.2,29.4c0,0-0.3,18.4,16.9,23.7c0,0,8.8,12.1,27.5,11.2
		c0,0,13.2,2.6,21.3-4.3c7.4-6.4,3.2-25,3.2-25s1.3-5.7,1.5-9.8c0.4-8.1-0.4-17.9-1.8-20.9c0,0,3.9-9.1,0.9-18.8
		c0,0-1.8-24.8-0.6-28.7c1.8-5.6,2.5-17.8-0.1-23c-1.9-3.7,1.4-4,1-10.7c-0.4-6.7-0.4-13.9-1.7-16.3c-0.6-1,2.7-2.8,2.6-12.4
		C89.2,7.5,87.4,5.5,84.7,3.4z"/>
	<path class="st1" d="M53.6,127.1c0,0-1.1,3.2,0,6 M87.8,154.5c-2.3,5.9-5.7,8.8-11.2,9.7 M70.6,57.5c0.4,2.2-0.7,3.5,6.4,6.2
		 M68.8,145.2c-0.8,4.4,2.1,6.4,7.4,8.5 M60.7,173.6c1.5,1.3,5.8,2.6,9.6,0 M37.1,157.9c1,5,3.5,8.2,6.8,8.1 M56.2,12.8
		c1.9,1.2,2.8,3.7,2.8,3.7 M40.3,23.5c2.9,1.7,5.1,4.3,5.6,5.8 M69.1,107.5c8.9,3.8,11.1,3.2,17.9-0.1 M53.6,166c0,0,3-7.9-1.1-11.8
		 M63,185.8c1.8,0.3,3.4-8.2,3.2-10.3 M39,166c-0.8,1.1-4.9,6.9-3.4,8.6 M18.7,150.9c1.4,0.6,7.4-1,10.3-2.7 M45.1,142.8
		c-0.2,2.8,3.5,11.9,10.4,12.2c6.9,0.3,12.4-4.2,13.4-5.4 M23.6,138.9c9.6-6.6,11-6.3,16-7.9c5.5-1.7,12.8-0.8,12.9-0.7 M32.4,114.4
		c0,0,3.1,13.6,6.6,16.2 M17.5,110.9c0,0,10.1,5.7,19.9,2 M4.4,119.1c1.8,2.7,7.9,9.7,17.2,8.7 M19.2,103c-0.1,1.1-0.1,7.8-6.9,12.6
		 M80.9,22.9c4.4,1.5,5.6,4,6.1,5.9 M77,49.5c6.1,0.2,9.7,3,10.6,6.1 M53.1,87c0,0-6.8-4.4-3.6-15.8c0,0,15.5-10.1,21.5-11.6
		 M40.3,38.1c0,0,0.5,4.3,5.1,4.4 M56.5,35.8c0,2.8-1.4,10.9,5,14.4 M65.2,24.3c2.5,2.2,8.3,5.4,7.8,13.7 M69.1,42.7
		c0.7-2.1,5.9-5.6,9.6-5.6 M57.9,25.7c2,0,12.8-1.7,16.9-11.3 M49.2,53.4c0.9-3.2,4.8-6.1,8.4-6.1 M26.8,53.5
		c1.7-0.4,10.7-0.7,14.5-11.3 M62,82.5c0,0,1.2,6.4,5.3,9.6c5.6,3.8,11.2,2.5,11.2,2.5 M39.6,88.2c0,0-1.3,5.6-0.1,8.9 M59.9,98.1
		c-3.7,3.3-3.5,10.3-1.6,13.9c0,0,3.2,5.1,6.9,6.5 M49.2,71C35.8,61.7,35.6,51,35.6,51 M8.5,85.3c0.9,2.4,3.6,6.2,7.8,8.2
		c5.3,2.5,14,5.2,23.1,3.6c0,0,7.2,4.6,15.6,2.4c8.5-2.1,11.2-6.8,11.2-6.8 M14.5,62.4c0,0,1.7,2.1,4.2,3.3c2.8,1.3,5.2,1.3,5.2,1.3
		"/>
	<path class="st2" d="M39.5,145.9c0,0,2.9-5.8,11.4-3.4"/>
	<path class="st2" d="M36.5,107c0,0-0.6,8.2,12.2,10"/>
	<path class="st2" d="M32.6,75.4c0,0-11.4,6.5-9.6,18.4"/>
	<path class="st2" d="M61.8,66.1c0,0,0.3,7.4,12.7,13.4"/>
	<path class="st1" d="M75.9,122.7c-1.7,2.2-5.2,6.8-12.4,5.6 M71.6,137.1c1.2-3.1-0.5-6.5-3.3-8.7"/>
</g>
</svg>
