<svg id="Layer_1" data-name="Layer 1" xmlns="http://www.w3.org/2000/svg" xmlns:xlink="http://www.w3.org/1999/xlink" width="65.14" height="136.99" viewBox="0 0 65.14 136.99"><defs><style>.cls-1{fill:none;}.cls-2{clip-path:url(#clip-path);}.cls-3{fill:#f595ab;}</style><clipPath id="clip-path" transform="translate(0 0)"><rect class="cls-1" width="65.14" height="136.99"/></clipPath></defs><title>Brain_mask</title><g class="cls-2"><path class="cls-3" d="M3.48,1.44c3.72-2.88,15.28-1.86,21.17,7,0,0,8.57-1.24,11.77,8A13.86,13.86,0,0,1,45,22.09a48.21,48.21,0,0,1,4.79,8.47s7.81,4,5.75,14.67A16.78,16.78,0,0,1,60,62.17S69.88,72.8,62.24,89c0,0,1.45,15.28-9.81,21.79,0,0,.21,12.63-12.5,16.56a23.28,23.28,0,0,1-20.35,9.26s-9.81,2-15.8-3.2c-5.5-4.74-3.35-22.71-3.49-25.72C0,101.71.6,94.42,1.62,92.22A22.18,22.18,0,0,1,1,78.28S-1.48,68.05,2.44,59.89a14.28,14.28,0,0,1-1-2.89c-1.32-4.13-1.86-13.22.1-17,1.41-2.75-1-3-.72-8S0.06,17.86.11,10.73C0.17,4.43,1.49,3,3.48,1.44" transform="translate(0 0)"/></g></svg>