<svg id="Layer_1" data-name="Layer 1" xmlns="http://www.w3.org/2000/svg" xmlns:xlink="http://www.w3.org/1999/xlink" width="90.93" height="187.94" viewBox="0 0 90.93 187.94"><defs><style>.cls-1,.cls-5,.cls-6{fill:none;}.cls-2{clip-path:url(#clip-path);}.cls-3{fill:#f595ab;}.cls-4{clip-path:url(#clip-path-2);}.cls-5,.cls-6{stroke:#231f20;stroke-linejoin:round;stroke-width:3px;}.cls-6{stroke-linecap:round;}</style><clipPath id="clip-path" transform="translate(0 0)"/><clipPath id="clip-path-2" transform="translate(0 0)"><rect class="cls-1" width="90.93" height="187.94"/></clipPath></defs><title>Brain</title><g class="cls-2"><path class="cls-3" d="M5.28,2C10.44-2,26.51-.58,34.69,11.57c0,0,11.91-1.69,16.35,10.87A19.32,19.32,0,0,1,63,30.21,65.6,65.6,0,0,1,69.6,41.79s10.85,5.51,8,20.05A22.73,22.73,0,0,1,83.76,85s13.77,14.54,3.16,36.71c0,0,2,20.9-13.63,29.79,0,0,.29,17.27-17.36,22.64,0,0-9,13.65-28.26,12.66,0,0-13.63,2.69-22-4.38-7.64-6.48-4.65-31.05-4.85-35.16-0.38-8.2.42-18.17,1.83-21.18,0,0-4-9.18-.91-19.06,0,0-3.39-14,2.06-25.14,0,0-.16,0-1.43-4-1.83-5.65-2.58-18.07.14-23.3,2-3.76-1.44-4.1-1-10.87s-1-19.35-.94-29.09C0.68,6.06,2.51,4.08,5.28,2" transform="translate(0 0)"/></g><g class="cls-4"><path class="cls-5" d="M6.19,3.44c5-3.89,20.63-2.51,28.58,9.48,0,0,11.57-1.67,15.89,10.74,0,0,6.55.84,11.57,7.67a65.14,65.14,0,0,1,6.46,11.43s10.55,5.44,7.76,19.8a22.65,22.65,0,0,1,6,22.87s13.39,14.36,3.07,36.25c0,0,2,20.63-13.25,29.42,0,0,.28,17.05-16.87,22.35,0,0-8.78,13.48-27.47,12.5,0,0-13.24,2.65-21.33-4.32-7.42-6.4-4.52-30.66-4.71-34.72C1.53,138.81,2.31,129,3.69,126c0,0-3.9-9.06-.88-18.82,0,0-3.3-13.8,2-24.82,0,0-.16,0-1.39-3.9-1.78-5.58-2.51-17.85.14-23,1.91-3.72-1.39-4-1-10.74s-1-19.1-.91-28.72C1.72,7.48,3.51,5.53,6.19,3.44Z" transform="translate(0 0)"/><path class="cls-6" d="M37.38,127.09a9.89,9.89,0,0,1,0,6M1.78,151.75c3.88,7.62,7.29,7.13,12.51,5.63m6-105.26c0.43,6.76-2,11.59-9.06,14.29m17.13,58c-7,3-6.47,8.34-2.6,12.47m-8.83-33.37c2.37,5.32.53,11.42-3.73,15.31m8.87,26.43c0.52,1.53-.92,5.39-3.34,5.83m11.53,19.81c-1.53,1.35-9,4.05-16.32-1.35M53.81,157.9c-1,5-3.46,8.23-6.8,8.09M34.74,12.77A8.56,8.56,0,0,0,32,16.49m18.68,7A13.71,13.71,0,0,0,45,29.28M20.37,74.56c-1.07,3.18-8,7.92-16.07,6.25m13.48,26.72c-2.14,2.35-12,1.62-15.2-1.41M22,130.58c-3-.23-14.8.69-19.39-8.11M37.35,166s-3-7.94,1.11-11.82M27.91,185.79c-1.77.26-3.45-10.88-3.24-13M51.93,166c0.79,1.12,4.94,5.58,3.44,7.29m16.87-22.35c-1.39.56-7.39-1-10.32-2.71m-16.06-5.42C46,145.6,42.36,154.7,35.48,155a18.75,18.75,0,0,1-13.39-5.44m45.24-10.68c-9.62-6.62-11-6.33-16-7.86a33.09,33.09,0,0,0-12.87-.7m20.12-15.93s-3.12,13.56-6.65,16.21m21.45-19.72s-15.19,6.8-23.92.67m37.08,7.57c-1.75,2.7-7.94,9.74-17.2,8.66M71.69,103a15.81,15.81,0,0,0,6.93,12.56M9.92,52.23c-2.51.28-5.61,0.32-6.57,3.39M40.49,84.35s3.68-4.19.93-13.11c0,0-15.51-10.08-21.55-11.62M50.63,38.14a5.07,5.07,0,0,1-5.13,4.37m-11-6.7c0,2.79,1.38,10.9-5,14.42M25.71,24.28C23.21,26.43,17.37,29.7,17.86,38m4,4.73c-0.73-2.14-5.9-5.56-9.62-5.56M33.07,25.69c-2,0-12.78-1.7-16.93-11.35m25.56,39.1c-0.93-3.16-4.82-6.1-8.41-6.1m33.53,4.79c-1.67-.37-12.51-0.81-17.2-9.9M67.5,81.09c-2.23-.14-5.44,1-6.69,2.93M26.27,82.47a11.31,11.31,0,0,1-2.59,9.61c-1.58,1.37-7.11,2.5-7.11,2.5M51.33,88.2s1.26,5.62.14,8.88M39.94,115.81c-2.42.41-7.43-1.63-8.92-2.93m0-14.82c3.67,3.3,1.8,12.59,0,14.82a10.64,10.64,0,0,1-5.29,2.93M41.71,71c13.38-9.3,13.66-21.29,13.66-21.29m8,31.42s-2-11.71-13.48-16.41M82.42,85.27a16.32,16.32,0,0,1-7.85,8.18c-5.3,2.51-14,5.2-23.1,3.62,0,0-7.16,4.56-15.62,2.42s-11.25-6.83-11.25-6.83M76.43,62.4a12.92,12.92,0,0,1-4.18,3.26A13.56,13.56,0,0,1,67.09,67" transform="translate(0 0)"/><path class="cls-6" d="M51.39,145.85S48.48,140,40,142.45" transform="translate(0 0)"/><path class="cls-6" d="M9.54,25.72s-6.51-.29-7.75-9" transform="translate(0 0)"/><path class="cls-6" d="M36.22,84.46s4.45,0.16,5.62,4.35" transform="translate(0 0)"/></g></svg>