<svg id="Layer_1" data-name="Layer 1" xmlns="http://www.w3.org/2000/svg" xmlns:xlink="http://www.w3.org/1999/xlink" width="86.51" height="67.99" viewBox="0 0 86.51 67.99"><defs><style>.cls-1,.cls-3,.cls-4{fill:none;}.cls-2{clip-path:url(#clip-path);}.cls-3,.cls-4{stroke:#231f20;stroke-width:3px;}.cls-3{stroke-linecap:round;stroke-linejoin:round;}.cls-4{stroke-miterlimit:10;}</style><clipPath id="clip-path" transform="translate(0)"><rect class="cls-1" width="86.51" height="67.99"/></clipPath></defs><title>Car</title><g class="cls-2"><path class="cls-3" d="M10.16,28.36s-5.73,0-5.73,5.73V49s0,5.73,5.73,5.73H76.34s5.73,0,5.73-5.73V34.09s0-5.73-5.73-5.73H10.16Z" transform="translate(0)"/><circle class="cls-4" cx="65.12" cy="41.52" r="6.18"/><circle class="cls-4" cx="21.37" cy="41.52" r="6.18"/><path class="cls-3" d="M77,27.83L70.7,9.31S68.06,1.5,59.81,1.5H26.68s-8.25,0-10.9,7.81L9.52,27.83" transform="translate(0)"/><path class="cls-3" d="M11.86,55.22v7.45s0,3.82,3.82,3.82h4.17s3.82,0,3.82-3.82V55.22" transform="translate(0)"/><path class="cls-3" d="M62.83,55.22v7.45s0,3.82,3.82,3.82h4.17s3.82,0,3.82-3.82V55.22" transform="translate(0)"/><path class="cls-4" d="M45.21,28.34a11.46,11.46,0,0,1,22.15,0" transform="translate(0)"/><path class="cls-3" d="M77.05,25.36h5.67A2.24,2.24,0,0,0,85,23.07v-2.5a2.24,2.24,0,0,0-2.29-2.29H74.05" transform="translate(0)"/><path class="cls-3" d="M9.46,25.36H3.79A2.24,2.24,0,0,1,1.5,23.07v-2.5a2.24,2.24,0,0,1,2.29-2.29h8.67" transform="translate(0)"/><polyline class="cls-3" points="37.05 1.5 37.05 6.97 50.46 6.97 50.46 1.5"/></g></svg>