<svg id="Layer_1" data-name="Layer 1" xmlns="http://www.w3.org/2000/svg" viewBox="0 0 77.46 94.24"><defs><style>.cls-1{fill:none;stroke:#231f20;stroke-linecap:round;stroke-linejoin:round;stroke-width:4px;}</style></defs><title>Icon-VideoCamera</title><path class="cls-1" d="M428,287.5l-14.17,11.11v-6.55a8.13,8.13,0,0,0-8.13-8.13H367.63a8.13,8.13,0,0,0-8.13,8.13v26.36a8.13,8.13,0,0,0,8.13,8.13h38.06a8.13,8.13,0,0,0,8.13-8.13v-6.55L428,323c2.21,1.73,5-.43,5-3.9V291.39C433,287.93,430.2,285.76,428,287.5Z" transform="translate(-357.5 -259.26)"/><circle class="cls-1" cx="17.81" cy="10.13" r="8.13"/><line class="cls-1" x1="33.92" y1="68.4" x2="45.04" y2="92.24"/><line class="cls-1" x1="24.9" y1="68.4" x2="13.78" y2="92.24"/><circle class="cls-1" cx="40.88" cy="10.13" r="8.13"/></svg>