<svg id="Layer_1" data-name="Layer 1" xmlns="http://www.w3.org/2000/svg" xmlns:xlink="http://www.w3.org/1999/xlink" width="48.04" height="69.39" viewBox="0 0 48.04 69.39"><defs><style>.cls-1,.cls-3{fill:none;}.cls-2{clip-path:url(#clip-path);}.cls-3{stroke:#231f20;stroke-linecap:round;stroke-linejoin:round;stroke-width:3px;}</style><clipPath id="clip-path" transform="translate(0 0)"><rect class="cls-1" width="48.04" height="69.39"/></clipPath></defs><title>Hand-Icon</title><g class="cls-2"><path class="cls-3" d="M45.38,26.18A4,4,0,0,0,38.62,29V25.16a4,4,0,0,0-7.92,0V21.54a4,4,0,0,0-7.92,0V5.46a4,4,0,0,0-7.92,0V39.73L8.43,32.44a4,4,0,1,0-5.95,5.24L15.32,52.25a9.4,9.4,0,0,0,1.43,1.43,4,4,0,0,0,2.32.85H42.32a4.23,4.23,0,0,0,4.23-4.23V29A4,4,0,0,0,45.38,26.18Z" transform="translate(0 0)"/><polyline class="cls-3" points="18.22 55.47 18.22 67.89 42.85 67.89 42.85 55.47"/></g></svg>