<svg id="Layer_1" data-name="Layer 1" xmlns="http://www.w3.org/2000/svg" xmlns:xlink="http://www.w3.org/1999/xlink" width="71.79" height="57.18" viewBox="0 0 71.79 57.18"><defs><style>.cls-1,.cls-3,.cls-4,.cls-5{fill:none;}.cls-2{clip-path:url(#clip-path);}.cls-3,.cls-4,.cls-5{stroke:#231f20;stroke-width:3px;}.cls-3{stroke-miterlimit:10;}.cls-4{stroke-linecap:round;stroke-linejoin:round;}</style><clipPath id="clip-path" transform="translate(0 0)"><rect class="cls-1" width="71.79" height="57.18"/></clipPath></defs><title>Camera</title><g class="cls-2"><circle class="cls-3" cx="13.75" cy="21.55" r="4.86"/><path class="cls-4" d="M62.27,9.69h-3.9A12,12,0,0,0,47,1.5H40.5A12,12,0,0,0,29.11,9.69H9.52a8,8,0,0,0-8,8v30a8,8,0,0,0,8,8H62.27a8,8,0,0,0,8-8v-30A8,8,0,0,0,62.27,9.69Z" transform="translate(0 0)"/><circle class="cls-5" cx="43.87" cy="31.54" r="14.85"/></g></svg>