<svg id="Layer_1" data-name="Layer 1" xmlns="http://www.w3.org/2000/svg" xmlns:xlink="http://www.w3.org/1999/xlink" width="74.16" height="72.82" viewBox="0 0 74.16 72.82"><defs><style>.cls-1,.cls-3{fill:none;}.cls-2{clip-path:url(#clip-path);}.cls-3{stroke:#231f20;stroke-linecap:round;stroke-linejoin:round;stroke-width:3px;}</style><clipPath id="clip-path" transform="translate(0 0)"><rect class="cls-1" width="74.16" height="72.82"/></clipPath></defs><title>Mixer-Icon</title><g class="cls-2"><path class="cls-3" d="M67.1,8.91v7.53H61.69V22c0,1.28,0,2.57,0,3.85a0.92,0.92,0,0,1-1.06,1.1h-1.6c-0.07.31-.12,0.51-0.16,0.71a1.49,1.49,0,0,1-1.63,1.53c-0.92.06-1.85,0-2.78,0a0.94,0.94,0,0,0-1.13,1.13c0.09,0.77-.32.94-0.94,0.93-1.58,0-3.16-.09-4.75-0.1-1.16,0-2.32.06-3.49,0.07s-1.24-.08-1.25-1.19,0-2,0-3.1H42c-0.79,0-1.37-.25-1.25-1.2,0.08-.58-0.22-0.7-0.73-0.7-2.54,0-5.08,0-7.63,0a6,6,0,0,0-5.05,2.78,2.51,2.51,0,0,0-.43,1.06c-0.47,3.94-1.06,7.88-1.33,11.84a28,28,0,0,0,3.92,16,29.17,29.17,0,0,0,10.4,10.52A0.82,0.82,0,0,0,41,67.14a4.18,4.18,0,0,1,1.48-.47,1,1,0,0,0-.45-1.34c-4.39-3.11-7.22-7.41-9.23-12.3-2.51-6.1-2.54-10.86-2.31-17.5h42.1c0,1.78.08,1.92,0,3.66a40.74,40.74,0,0,1-4.78,17.65,24.36,24.36,0,0,1-7.36,8.44c-0.7.48-.7,0.48-0.6,1.18,0.75,0.42,1.38.79,2,1.11a1.55,1.55,0,0,0,.69.13c1,0,2,0,3,0a3.56,3.56,0,0,1,3.39,3.57H1.5A4.51,4.51,0,0,1,3.29,67.6a19.54,19.54,0,0,0,5.49-6.76,28.53,28.53,0,0,0,2-7.23Q12.62,44,14.47,34.36c0.36-1.88.7-3.76,1.06-5.64a2.63,2.63,0,0,0-1.94-3.06C11.69,25.23,9.85,24.6,8,24s-2-1-2-2.87a6.92,6.92,0,0,0-.75-3.41A10.94,10.94,0,0,1,11.14,2.51a15.37,15.37,0,0,1,5.66-1c10.26,0.08,20.51,0,30.76.07A17.34,17.34,0,0,1,61.25,8.28a1.53,1.53,0,0,0,1.35.64c1.48,0,3,0,4.5,0" transform="translate(0 0)"/></g></svg>