<?xml version="1.0" encoding="utf-8"?>
<!-- Generator: Adobe Illustrator 22.0.1, SVG Export Plug-In . SVG Version: 6.00 Build 0)  -->
<svg version="1.1" id="Layer_1" xmlns="http://www.w3.org/2000/svg" xmlns:xlink="http://www.w3.org/1999/xlink" x="0px" y="0px"
	 viewBox="0 0 77.5 94.2" style="enable-background:new 0 0 77.5 94.2;" xml:space="preserve">
<title>Icon-VideoCamera</title>
<g>
	<path d="M43.7,19.5 M31.4,23.4l1.3,1.2l1.7-0.5l-0.7,1.6l1,1.4L33,27l-1.1,1.4l-0.4-1.7l-1.7-0.6l1.5-0.9L31.4,23.4L31.4,23.4z
		 M30.3,6.6l0.9,0.7L32.3,7l-0.4,1L32.5,9l-1.1-0.1l-0.7,0.9l-0.3-1.1l-1.1-0.4l1-0.6L30.3,6.6L30.3,6.6z M53.6,21.1l0.9,0.7
		l1.1-0.3l-0.4,1l0.6,0.9l-1.1-0.1l-0.7,0.9l-0.3-1.1l-1.1-0.4l1-0.6L53.6,21.1L53.6,21.1z M47.7,8l1.7,1.4l2.1-0.6l-0.9,2l1.3,1.8
		l-2.2-0.2l-1.3,1.8L47.8,12l-2.1-0.7l1.9-1.1L47.7,8L47.7,8z M48,29l2.1,1.9l2.7-0.8l-1.1,2.6l1.6,2.3l-2.8-0.2L48.8,37l-0.6-2.8
		l-2.7-0.9l2.4-1.5L48,29L48,29z M37.8,12.8l1,0.9l1.3-0.4l-0.5,1.3l0.8,1.1l-1.4-0.1l-0.8,1.1l-0.3-1.3l-1.3-0.4l1.2-0.7L37.8,12.8
		L37.8,12.8z M22.6,87.2C22.6,87.2,22.6,87.2,22.6,87.2c-0.3,0.9-0.9,1.4-1.6,1.8c-0.7,0.3-1.5,0.4-2.3,0.1c-0.1,0-0.1,0-0.1,0
		c0,0,0,0-0.1,0c-0.8-0.3-1.4-0.9-1.7-1.6c-0.3-0.7-0.4-1.5-0.1-2.3c0,0,0,0,0-0.1l22.5-56.8c0.5,0.1,1.3-0.4,1.8-0.3
		c0.5,0.2,0.7,0.9,1.2,1.1L22.6,87.2L22.6,87.2z M39.2,28.3l3.6-9.1l0,0c0.1-0.3,0.4-0.6,0.7-0.7c0.3-0.1,0.7-0.2,1,0
		c0.3,0.1,0.6,0.4,0.7,0.7c0.1,0.3,0.2,0.7,0.1,1l-3.1,9.2c-0.5-0.2-0.9-0.4-1.4-0.6C40.2,28.6,39.7,28.4,39.2,28.3L39.2,28.3z"/>
</g>
</svg>
