<svg id="Layer_1" data-name="Layer 1" xmlns="http://www.w3.org/2000/svg" xmlns:xlink="http://www.w3.org/1999/xlink" width="88.2" height="83.1" viewBox="0 0 88.2 83.1"><defs><style>.cls-1,.cls-3{fill:none;}.cls-2{clip-path:url(#clip-path);}.cls-3{stroke:#231f20;stroke-linecap:round;stroke-linejoin:round;stroke-width:3px;}</style><clipPath id="clip-path" transform="translate(0 0)"><rect class="cls-1" width="88.2" height="83.1"/></clipPath></defs><title>Tee</title><g class="cls-2"><path class="cls-3" d="M85.62,34c-3,1.54-8.95,4.66-11.84,6.14-1.12.63-2,.41-2.39-0.64-1.57-2.87-4.83-9.06-4.83-9.06V79.36c0,1.34-1,2.24-2.77,2.24H24.42c-1.7,0-2.71-.9-2.71-2.24V30.47s-3.31,6.19-4.86,9.06c-0.4,1.05-1.3,1.27-2.43.64C11.53,38.68,5.56,35.56,2.61,34,1.42,33.39,1.14,32.3,2,30.77c2.82-6,10.25-21.55,12.13-23.14,2.28-2,7.07-2.44,19.3-6.14,3.44,6.26,17.86,6.4,21.43,0,12.2,3.69,17,4.19,19.27,6.14,1.81,1.58,9.24,17.1,12,23.14C87.07,32.3,86.78,33.39,85.62,34Z" transform="translate(0 0)"/></g></svg>