<svg id="Layer_1" data-name="Layer 1" xmlns="http://www.w3.org/2000/svg" xmlns:xlink="http://www.w3.org/1999/xlink" width="58.82" height="81.35" viewBox="0 0 58.82 81.35"><defs><style>.cls-1,.cls-2,.cls-4{fill:none;}.cls-2,.cls-4{stroke:#231f20;stroke-linecap:round;stroke-linejoin:round;}.cls-2{stroke-width:2.76px;}.cls-3{clip-path:url(#clip-path);}.cls-4{stroke-width:2.07px;}</style><clipPath id="clip-path" transform="translate(0 0)"><rect class="cls-1" width="58.82" height="81.35"/></clipPath></defs><title>Filmstrip-Icon</title><rect class="cls-2" x="13.87" y="19.99" width="31.08" height="41.08"/><g class="cls-3"><polyline class="cls-2" points="13.87 1.5 13.87 11.73 44.95 11.73 44.95 1.38"/><line class="cls-2" x1="1.38" y1="1.38" x2="1.38" y2="79.71"/><line class="cls-2" x1="57.44" y1="1.38" x2="57.44" y2="79.71"/><polyline class="cls-2" points="13.87 79.85 13.87 69.62 44.95 69.62 44.95 79.97"/><rect class="cls-4" x="5.78" y="1.03" width="3.69" height="3"/></g><rect class="cls-4" x="5.78" y="9.48" width="3.69" height="3"/><rect class="cls-4" x="5.78" y="17.93" width="3.69" height="3"/><rect class="cls-4" x="5.78" y="26.38" width="3.69" height="3"/><rect class="cls-4" x="5.78" y="34.82" width="3.69" height="3"/><rect class="cls-4" x="5.78" y="43.27" width="3.69" height="3"/><rect class="cls-4" x="5.78" y="51.72" width="3.69" height="3"/><rect class="cls-4" x="5.78" y="60.16" width="3.69" height="3"/><rect class="cls-4" x="5.78" y="68.61" width="3.69" height="3"/><g class="cls-3"><rect class="cls-4" x="5.78" y="77.06" width="3.69" height="3"/><rect class="cls-4" x="49.35" y="1.3" width="3.69" height="3"/></g><rect class="cls-4" x="49.35" y="9.74" width="3.69" height="3"/><rect class="cls-4" x="49.35" y="18.19" width="3.69" height="3"/><rect class="cls-4" x="49.35" y="26.64" width="3.69" height="3"/><rect class="cls-4" x="49.35" y="35.08" width="3.69" height="3"/><rect class="cls-4" x="49.35" y="43.53" width="3.69" height="3"/><rect class="cls-4" x="49.35" y="51.98" width="3.69" height="3"/><rect class="cls-4" x="49.35" y="60.42" width="3.69" height="3"/><rect class="cls-4" x="49.35" y="68.87" width="3.69" height="3"/><g class="cls-3"><rect class="cls-4" x="49.35" y="77.32" width="3.69" height="3"/></g></svg>