<svg id="Layer_1" data-name="Layer 1" xmlns="http://www.w3.org/2000/svg" xmlns:xlink="http://www.w3.org/1999/xlink" width="85" height="31.46" viewBox="0 0 85 31.46"><defs><style>.cls-1,.cls-5{fill:none;}.cls-2{clip-path:url(#clip-path);}.cls-3{fill:#231f20;}.cls-4{fill:#fff;}.cls-5{stroke:#231f20;stroke-width:0.19px;}</style><clipPath id="clip-path" transform="translate(0 0)"><rect class="cls-1" width="85" height="31.46"/></clipPath></defs><title>Havergal</title><g class="cls-2"><path class="cls-3" d="M11.15,12.92l0,0a1.85,1.85,0,0,1,.32-0.32,1.47,1.47,0,0,0,.65-1.12,0.86,0.86,0,0,0-.21-0.6l-0.24-.35,0,0.28v0.06a1.3,1.3,0,0,0-.05-0.18,0.5,0.5,0,0,1,0-.27l0-.28-0.19.2a1.08,1.08,0,0,0-.21.31,1.42,1.42,0,0,0-.29-0.38l-0.07-.06a1.09,1.09,0,0,1,0-.41l-0.22.12a0.88,0.88,0,0,0-.29.33,3.58,3.58,0,0,0-1-1.28L9.2,9.08a1,1,0,0,1,.18.62,1.73,1.73,0,0,1,0,.3,2,2,0,0,1-.16.48,1,1,0,0,0-.64-0.73L8.35,9.69a1.58,1.58,0,0,1,.06.2,1.53,1.53,0,0,1,0,.65l0,0.09a1.7,1.7,0,0,0-1-1L7.19,9.57s0.05,0.1.09,0.2a1.19,1.19,0,0,1,0,.64,1.83,1.83,0,0,0,0,.25,1,1,0,0,0,0,.1L7.13,10.7,7,10.66l0,0.17a1.16,1.16,0,0,1-.07.48,1.49,1.49,0,0,0-.08.71,1.3,1.3,0,0,0,.84.9h3.46Z" transform="translate(0 0)"/><path class="cls-3" d="M1.17,10.07H17.71c0.27,6.52-.92,14.16-8.21,17.76C2.31,24.1.79,16.4,1.17,10.07" transform="translate(0 0)"/><path class="cls-3" d="M16.72,8.92a0.26,0.26,0,0,0-.11.23s0,0.06,0,.08v0A6.44,6.44,0,0,0,16,9.1L15.67,9l0.2,0.25a4,4,0,0,0,.28.32,1.37,1.37,0,0,1-.38,0H15.64V9.74a0.64,0.64,0,0,0,.16.43,1.31,1.31,0,0,1-.36,0A0.75,0.75,0,0,1,15,10L14.9,9.87a0.25,0.25,0,0,0-.2,0,0.29,0.29,0,0,0-.11.05,3.43,3.43,0,0,0-.34-0.57l0,0a2.67,2.67,0,0,1,.69.17s0.06,0,0,0A1.79,1.79,0,0,1,14.43,9a1.37,1.37,0,0,1,1-.33c0.06,0,0-.07,0-0.08s-0.49,0-.68,0-0.08-.06-0.05-0.11a4.93,4.93,0,0,1,.8-0.81c0.05,0,0-.09-0.06,0-0.28.12-.86,0.67-0.95,0.66a0.65,0.65,0,0,1,0-.4c0-.09-0.09-0.09-0.11,0a2.37,2.37,0,0,1-.22.6c0,0.07-.09.05-0.12,0l-0.18-.29a3.36,3.36,0,0,0,.77-1.81,0.28,0.28,0,0,0,.16.23,0.2,0.2,0,0,0,.17-0.05C15,6.6,15,6.8,15,7l0,0.22L15.24,7a4,4,0,0,0,.3-0.3l0.2-.2a0.93,0.93,0,0,1,.11.23l0.05,0.14L16,6.82a1.62,1.62,0,0,1,.66-0.21,1.51,1.51,0,0,1-.28.71l-0.1.16,0.14,0.06,0.26,0.11a1,1,0,0,1-.22.21,2.87,2.87,0,0,1-.36.19l-0.35.16,0.67,0.14L16.74,8.4h0a0.64,0.64,0,0,0,0,.09,0.26,0.26,0,0,0,.06.18,0.88,0.88,0,0,0,.15.13,1,1,0,0,0-.22.1m-5.4.29a0.75,0.75,0,0,1-.43-0.1L11.24,9a2.39,2.39,0,0,1,1-.31,1.53,1.53,0,0,1,.41,0l0,0.06-0.19.08a3.28,3.28,0,0,1-1.18.38M10.56,8.4a2.11,2.11,0,0,0-.82.21,1.73,1.73,0,0,0-.85-0.19,2.06,2.06,0,0,0-.8.2A1.73,1.73,0,0,0,7.22,8.4a2.23,2.23,0,0,0-.69.11A1.79,1.79,0,0,0,7,8.19L7,8.14a4.76,4.76,0,0,0,.46-0.46,0.62,0.62,0,0,0,.16-0.39,0.4,0.4,0,0,0-.4-0.43A0.54,0.54,0,0,0,6.86,7h0A2.16,2.16,0,0,1,6.4,5.54a2.9,2.9,0,0,1,3-2.76,3.09,3.09,0,0,1,3.14,2.85,2.34,2.34,0,0,1-.43,1.48L12,7a0.51,0.51,0,0,0-.35-0.15,0.42,0.42,0,0,0-.42.45,1.36,1.36,0,0,0,.57.81l0,0L11.9,8.22a1.74,1.74,0,0,0,.22.19,2.21,2.21,0,0,0-.68.19,1.74,1.74,0,0,0-.88-0.21m-1.41.43A3.28,3.28,0,0,1,8,9.21a0.76,0.76,0,0,1-.42-0.1L7.89,9a2.4,2.4,0,0,1,1-.31,1.57,1.57,0,0,1,.51.08l-0.25.11M4.31,9.88A0.3,0.3,0,0,0,4.2,9.83a0.25,0.25,0,0,0-.2,0L3.89,10a0.75,0.75,0,0,1-.43.25,1.31,1.31,0,0,1-.36,0,0.64,0.64,0,0,0,.16-0.43V9.6H3.14a1.37,1.37,0,0,1-.38,0A4.14,4.14,0,0,0,3,9.29l0.18-.22-0.28,0a3.8,3.8,0,0,0-.64.15v0s0-.05,0-0.08a0.26,0.26,0,0,0-.11-0.23A1,1,0,0,0,2,8.82a0.91,0.91,0,0,0,.15-0.13,0.28,0.28,0,0,0,.07-0.19s0-.06,0-0.08v0l1-.2L2.77,8a1.91,1.91,0,0,1-.35-0.2,1,1,0,0,1-.2-0.21l0.24-.1,0.16,0L2.5,7.32A1.5,1.5,0,0,1,2.22,6.6a2.48,2.48,0,0,1,.67.22L3,6.88l0-.13a1,1,0,0,1,.12-0.24L3.41,6.76A3.7,3.7,0,0,0,3.67,7L3.84,7.19l0-.23c0-.16.06-0.36,0.09-0.48a0.2,0.2,0,0,0,.17.05,0.3,0.3,0,0,0,.16-0.24,3.33,3.33,0,0,0,.76,1.83l-0.16.26c0,0.07-.1.09-0.15,0a2.57,2.57,0,0,1-.23-0.6c0-.08-0.09-0.08-0.09,0a0.63,0.63,0,0,1,0,.42c-0.09,0-.61-0.52-0.95-0.68-0.1,0-.11,0-0.06,0a5.27,5.27,0,0,1,.79.78c0,0.08,0,.12,0,0.14a5.6,5.6,0,0,1-.67,0c-0.06,0-.07.07,0,0.08a1.37,1.37,0,0,1,1,.33A1.78,1.78,0,0,1,4,9.41s0,0,0,0a1.53,1.53,0,0,1,.69-0.17l0,0a3.38,3.38,0,0,0-.35.57m2-2.06-0.06,0L7,7.16a0.35,0.35,0,0,1,.23-0.1,0.2,0.2,0,0,1,.2.23,0.43,0.43,0,0,1-.11.26A5,5,0,0,1,6.87,8L6.81,8a2.27,2.27,0,0,1-.29.24,0.56,0.56,0,0,0,0-.11,0.38,0.38,0,0,0-.2-0.34M6,8.7l-0.08.11h0a4.64,4.64,0,0,0-.51.12c-0.18,0-.27,0-0.27-0.1a1.78,1.78,0,0,1,.09-0.6A1.33,1.33,0,0,0,6,8.63L6,8.7m6.4-.38A1.09,1.09,0,0,1,12,8.07L12,8l0,0a1.32,1.32,0,0,1-.5-0.66,0.22,0.22,0,0,1,.22-0.25,0.31,0.31,0,0,1,.22.1l0.7,0.64-0.05,0a0.38,0.38,0,0,0-.19.34,0.45,0.45,0,0,0,0,.15m1.47,0.48c0,0.13-.11.18-0.31,0.13h0L13,8.81h0L13,8.7l-0.06-.09a1.34,1.34,0,0,0,.84-0.38,1.55,1.55,0,0,1,.09.56M9.4,0.86a4.84,4.84,0,0,1,3.81,1.67,5,5,0,0,1,1.23,3.15c0,1.48-.74,2.72-1.61,2.72H12.78a0.24,0.24,0,0,1-.26-0.23A0.21,0.21,0,0,1,12.61,8a0.2,0.2,0,0,1,.22,0l0.11-.15-0.68-.62a2.52,2.52,0,0,0,.49-1.62A3.31,3.31,0,0,0,9.4,2.55a3.12,3.12,0,0,0-3.21,3,2.39,2.39,0,0,0,.51,1.61l-0.78.72L6,8a0.19,0.19,0,0,1,.21,0,0.2,0.2,0,0,1,.1.18,0.21,0.21,0,0,1-.16.22L6,8.41c-0.55,0-1.57-.84-1.57-2.85A5,5,0,0,1,9.4.86M17.23,9l0.25-.06-0.25-.16A1.42,1.42,0,0,1,17,8.52h0a0.51,0.51,0,0,1,0-.06,0.56,0.56,0,0,0,0-.09,0.24,0.24,0,0,0,0-.15l0,0-0.36-.07,0.07,0A1.12,1.12,0,0,0,17,7.63l0-.12-0.38-.16a1.56,1.56,0,0,0,.26-0.8s0-.06,0-0.09V6.37h-0.1a1.6,1.6,0,0,0-.8.18l-0.22-.29-0.07,0-0.06,0a2.29,2.29,0,0,0-.32.31l-0.12.13C15.15,6.21,15.09,6.19,15,6.18a0.21,0.21,0,0,0-.18.06l0-.13a2.4,2.4,0,0,0-.12-0.33l0-.05s0,0,0-.05a5.24,5.24,0,0,0-1.29-3.29A5.05,5.05,0,0,0,9.4.64,5.17,5.17,0,0,0,4.25,5.56c0,0.05,0,.11,0,0.16l0,0.06a2.4,2.4,0,0,0-.12.33l0,0.13a0.21,0.21,0,0,0-.18-0.06c-0.06,0-.12,0-0.2.5L3.6,6.59a2.43,2.43,0,0,0-.35-0.36l-0.07,0-0.06,0a0.74,0.74,0,0,0-.23.31,1.87,1.87,0,0,0-.81-0.19L2,6.37V6.47s0,0.06,0,.09a1.56,1.56,0,0,0,.26.8L2,7.43l-0.18.08L1.92,7.63A1.29,1.29,0,0,0,2.27,8L2.36,8.1,2,8.17l0,0a0.25,0.25,0,0,0,0,.16s0,0.05,0,.07a0.51,0.51,0,0,1,0,.05,0.06,0.06,0,0,1,0,0,1.74,1.74,0,0,1-.25.22l-0.24.18L1.68,9A1.77,1.77,0,0,1,2,9.13H2s0,0,0,.06a0.72,0.72,0,0,0,0,.09,0.29,0.29,0,0,0,.08.22L2.17,9.56a1.74,1.74,0,0,1,.41-0.14,1.57,1.57,0,0,1-.27.25A1.05,1.05,0,0,0,3,9.87a0.43,0.43,0,0,1-.19.23l-0.18.11,0.18,0.1a1.21,1.21,0,0,0,.65.15,1,1,0,0,0,.59-0.31l0.08-.07h0a0.25,0.25,0,0,1,.1.11l0.14,0.24,0.08-.27a2.58,2.58,0,0,1,.38-0.68l0,0a1.93,1.93,0,0,1,.42.83H5.58a1.27,1.27,0,0,0-.14-0.58,2.66,2.66,0,0,1-.17-0.36l0.32-.12a0.94,0.94,0,0,0,.72.26,2.65,2.65,0,0,0,1-.26,0.92,0.92,0,0,0,.7.25,2.64,2.64,0,0,0,.95-0.25,0.94,0.94,0,0,0,.72.26,2.65,2.65,0,0,0,1-.26,0.92,0.92,0,0,0,.7.25,2.59,2.59,0,0,0,.94-0.25,0.93,0.93,0,0,0,.72.26,2.09,2.09,0,0,0,.66-0.14,2.87,2.87,0,0,1-.17.36,1.25,1.25,0,0,0-.14.58h0.26A2,2,0,0,1,14,9.43l0,0a2.65,2.65,0,0,1,.38.68l0.08,0.27,0.14-.24a0.25,0.25,0,0,1,.1-0.11h0l0.08,0.07a1,1,0,0,0,.59.31,1.21,1.21,0,0,0,.65-0.15l0.18-.1-0.17-.11a0.43,0.43,0,0,1-.19-0.23,1.15,1.15,0,0,0,.68-0.19s-0.2-.19-0.25-0.26l0.32,0.1,0.08,0,0.06-.06a0.3,0.3,0,0,0,.08-0.22,0.72,0.72,0,0,0,0-.09s0,0,0-.06v0A1.35,1.35,0,0,1,17.23,9" transform="translate(0 0)"/><path class="cls-4" d="M12.89,8.61L13,8.7,13,8.81h0L13.5,8.92h0c0.21,0.06.31,0,.31-0.12a1.55,1.55,0,0,0-.09-0.56,1.34,1.34,0,0,1-.84.38" transform="translate(0 0)"/><path class="cls-4" d="M6,8.41l0.15,0a0.21,0.21,0,0,0,.16-0.22A0.2,0.2,0,0,0,6.24,8,0.19,0.19,0,0,0,6,8L5.91,7.87l0.78-.72a2.39,2.39,0,0,1-.51-1.61,3.12,3.12,0,0,1,3.21-3,3.31,3.31,0,0,1,3.35,3.07,2.52,2.52,0,0,1-.49,1.62l0.68,0.62L12.83,8a0.2,0.2,0,0,0-.22,0,0.21,0.21,0,0,0-.09.18,0.25,0.25,0,0,0,.26.23h0.06c0.87,0,1.61-1.25,1.61-2.72a5,5,0,0,0-1.23-3.15A4.85,4.85,0,0,0,9.4.86a5,5,0,0,0-4.93,4.7c0,2,1,2.85,1.57,2.85" transform="translate(0 0)"/><path class="cls-4" d="M12.52,7.82l0.05,0-0.7-.64a0.32,0.32,0,0,0-.22-0.1,0.22,0.22,0,0,0-.22.25,1.33,1.33,0,0,0,.5.66l0,0L12,8.07a1.07,1.07,0,0,0,.31.24,0.45,0.45,0,0,1,0-.15,0.38,0.38,0,0,1,.2-0.34" transform="translate(0 0)"/><path class="cls-4" d="M6.81,8L6.87,8a4.84,4.84,0,0,0,.43-0.44,0.43,0.43,0,0,0,.12-0.26,0.2,0.2,0,0,0-.2-0.23,0.35,0.35,0,0,0-.24.1L6.28,7.8l0.06,0a0.38,0.38,0,0,1,.2.34,0.5,0.5,0,0,1,0,.11A2.14,2.14,0,0,0,6.81,8" transform="translate(0 0)"/><path class="cls-4" d="M7.76,13.28a0.19,0.19,0,0,1,.19-0.19h3a0.2,0.2,0,0,1,0,.39h-3a0.19,0.19,0,0,1-.19-0.2" transform="translate(0 0)"/><path class="cls-4" d="M8.26,13.82a0.1,0.1,0,0,1,.1-0.1h2.23a0.1,0.1,0,0,1,0,.2H8.36a0.1,0.1,0,0,1-.1-0.1" transform="translate(0 0)"/><path class="cls-4" d="M8.59,15.75a0.11,0.11,0,0,1,.11-0.11h1.56a0.11,0.11,0,0,1,0,.23H8.7a0.11,0.11,0,0,1-.11-0.11" transform="translate(0 0)"/><path class="cls-4" d="M8.51,16.2a0.11,0.11,0,0,1,.11-0.11h1.73a0.11,0.11,0,0,1,0,.23H8.62a0.11,0.11,0,0,1-.11-0.11" transform="translate(0 0)"/><path class="cls-4" d="M9.1,22.22L8.87,16.81a0.27,0.27,0,0,1,.07-0.19,0.25,0.25,0,0,1,.19-0.08H9.85a0.25,0.25,0,0,1,.19.08,0.27,0.27,0,0,1,.07.18h0L9.88,22.22a0.3,0.3,0,0,1-.29.29H9.39a0.3,0.3,0,0,1-.29-0.29" transform="translate(0 0)"/><path class="cls-4" d="M9,23a0.26,0.26,0,0,1,.25-0.26H9.74a0.26,0.26,0,0,1,0,.52H9.23A0.25,0.25,0,0,1,9,23" transform="translate(0 0)"/><path class="cls-4" d="M11,12.12l0,0,0.19-.19a2.81,2.81,0,0,0,.47-0.54A1.19,1.19,0,0,0,11.82,11a0.61,0.61,0,0,1,.12.39,1.27,1.27,0,0,1-.58,1,2.31,2.31,0,0,0-.31.32H10.54a2.94,2.94,0,0,1,.46-0.6" transform="translate(0 0)"/><path class="cls-4" d="M10.37,11.87l0.14-.19a1.81,1.81,0,0,0,.48-1,1.23,1.23,0,0,1,.17.59,0.62,0.62,0,0,1,0,.1,1.35,1.35,0,0,1-.38.66l-0.15.17-0.05.07a2.61,2.61,0,0,0-.31.45H9.91a3.13,3.13,0,0,1,.46-0.84" transform="translate(0 0)"/><path class="cls-4" d="M9.25,10.86l0.06-.12A2.66,2.66,0,0,0,9.56,10a1.91,1.91,0,0,0,0-.34,1.7,1.7,0,0,0,0-.27,2.41,2.41,0,0,1,.73,1.6,1.78,1.78,0,0,1-.13.66,3.07,3.07,0,0,1-.21.39,2.59,2.59,0,0,0-.3.65H8.88l0-.08a2.6,2.6,0,0,1-.42-0.88,1,1,0,0,1,0-.22,2.14,2.14,0,0,1,.13-0.64l0.09-.29a2,2,0,0,0,.05-0.44s0-.07,0-0.11a1.07,1.07,0,0,1,.39.78l0,0.36Z" transform="translate(0 0)"/><path class="cls-4" d="M10.54,11.1a2.31,2.31,0,0,0,0-.35,1.66,1.66,0,0,1,0-.23,0.52,0.52,0,0,1,.14-0.36,1.59,1.59,0,0,0,.05.22,1.05,1.05,0,0,1,.07.33h0a0.7,0.7,0,0,1-.21.49s0-.07,0-0.1" transform="translate(0 0)"/><path class="cls-4" d="M11.36,11.29a1.9,1.9,0,0,0,0-.26,1.31,1.31,0,0,1,0-.2,0.45,0.45,0,0,1,.08-0.24l0,0.12a0.73,0.73,0,0,1,.06.27h0a0.45,0.45,0,0,1-.14.35s0,0,0,0" transform="translate(0 0)"/><path class="cls-4" d="M7.47,10.72s0,0,0-.05a1.64,1.64,0,0,1,0-.22,1.76,1.76,0,0,0,0-.35,0.89,0.89,0,0,0,0-.15,0.51,0.51,0,0,1,.26.46s0,0,0,.05a1.16,1.16,0,0,1-.13.38,2.37,2.37,0,0,0-.11.25,0.83,0.83,0,0,1-.09-0.38" transform="translate(0 0)"/><path class="cls-4" d="M7.69,11.56A1.24,1.24,0,0,1,7.87,11,1.45,1.45,0,0,0,8,10.43,0.93,0.93,0,0,1,8.2,11a2.74,2.74,0,0,1,0,.29,1.7,1.7,0,0,0,0,.22,2.14,2.14,0,0,0,.44,1.17l0,0H8.34a1.62,1.62,0,0,1-.66-1.15" transform="translate(0 0)"/><path class="cls-4" d="M7.06,12a0.75,0.75,0,0,1,0-.15,1.68,1.68,0,0,1,.09-0.45A1.94,1.94,0,0,0,7.21,11l0.08,0.08a1.15,1.15,0,0,1,.15.5,1.77,1.77,0,0,0,.13.49,2.43,2.43,0,0,0,.46.65H7.75A1.13,1.13,0,0,1,7.06,12" transform="translate(0 0)"/><polygon class="cls-3" points="16.76 21.98 16.76 21.98 16.76 21.98 16.76 21.98"/><path class="cls-3" d="M6,6.63H6c0,0.07,0,.09-0.36.22L5.41,7,5,7.12,5,7.18s0.19,0.17.26,0.24h0l0.06-.06L5.29,7.28,5.23,7.21l0,0L5.71,7c0.35-.14.38-0.15,0.42-0.07h0L6.1,6.78Z" transform="translate(0 0)"/><path class="cls-3" d="M4.94,6.58a0.37,0.37,0,0,1-.15-0.23A0.3,0.3,0,0,1,5,6a0.27,0.27,0,0,1,.28.11,0.29,0.29,0,0,1,.22-0.26,0.34,0.34,0,0,1,.4.3h0a0.41,0.41,0,0,1,0,.3,0.3,0.3,0,0,1-.19.13A0.3,0.3,0,0,1,5.38,6.4a0.27,0.27,0,0,1-.21.22,0.29,0.29,0,0,1-.22,0m0.34-.33a0.18,0.18,0,0,0-.22-0.14,0.17,0.17,0,0,0-.14.22h0A0.18,0.18,0,0,0,5,6.44a0.19,0.19,0,0,0,.26-0.06,0.2,0.2,0,0,0,0-.14m0.13,0a0.2,0.2,0,0,0,.24.17A0.19,0.19,0,0,0,5.78,6.3a0.23,0.23,0,0,0,0-.17A0.2,0.2,0,0,0,5.56,6,0.19,0.19,0,0,0,5.43,6a0.22,0.22,0,0,0,0,.17h0Z" transform="translate(0 0)"/><path class="cls-3" d="M6.58,3.61s-0.06,0-.33-0.2L6.19,3.36l0.12-.15c0.06-.08.08-0.09,0.11-0.08h0l0,0h0L6.36,3,6.29,3l0,0h0V3a0.26,0.26,0,0,1-.07.11l-0.12.15L5.79,3l0.13-.17C6,2.79,6,2.76,6.06,2.78h0l0,0L5.94,2.63h0l-0.2.25L5.61,3l-0.05.07h0l0,0h0s0.06,0,.34.23L6.12,3.5c0.31,0.26.34,0.28,0.31,0.32h0l0,0,0.08-.11,0.08-.11,0,0h0Z" transform="translate(0 0)"/><path class="cls-3" d="M7.48,2.12A0.61,0.61,0,0,1,7.34,3a0.56,0.56,0,0,1-.43.1,0.58,0.58,0,0,1-.38-0.25A0.61,0.61,0,0,1,6.68,2a0.55,0.55,0,0,1,.8.15h0Zm-0.13.1a0.42,0.42,0,0,0-.6-0.12,0.44,0.44,0,0,0-.09.63,0.42,0.42,0,0,0,.78-0.15,0.49,0.49,0,0,0-.09-0.36h0Z" transform="translate(0 0)"/><path class="cls-3" d="M8.62,1.62c-0.09-.35-0.1-0.38-0.05-0.4h0v0h0l-0.12,0-0.13,0v0h0c0.05,0,.06,0,0.15.38L8.54,1.89a0.43,0.43,0,0,1,0,.29,0.3,0.3,0,0,1-.42.12A0.4,0.4,0,0,1,8,2.06L7.92,1.84c-0.1-.36-0.11-0.4-0.06-0.43h0v0l-0.13,0-0.14,0v0h0s0.06,0,.16.38L7.83,2.11a0.52,0.52,0,0,0,.18.3,0.4,0.4,0,0,0,.38.06,0.43,0.43,0,0,0,.28-0.23,0.56,0.56,0,0,0,0-.38Z" transform="translate(0 0)"/><path class="cls-3" d="M9.8,1.13v0h0s0,0,0,.15,0,0.15,0,.28,0,0.32,0,.4L9.72,1.84l0-.06L9.56,1.65,9.14,1.11h0V1.81c0,0.4,0,.45-0.06.46H9v0H9.29v0h0S9.23,2.23,9.23,2c0-.06,0-0.12,0-0.2s0-.29,0-0.37L9.4,1.66,9.78,2.14,9.92,2.32h0l0-.73c0-.37,0-0.42.06-0.42h0v0H9.8Z" transform="translate(0 0)"/><path class="cls-3" d="M11.3,2a0.6,0.6,0,0,1-.33.41,0.64,0.64,0,0,1-.44,0l-0.09,0-0.06,0-0.14,0v0h0c0.05,0,.06,0,0.17-0.41l0.06-.22c0.1-.36.11-0.4,0.06-0.42h0v0h0l0.15,0h0.05l0.11,0a0.7,0.7,0,0,1,.34.19A0.55,0.55,0,0,1,11.3,2Zm-0.48-.58-0.11,0-0.23.85h0l0.1,0a0.46,0.46,0,0,0,.32,0A0.47,0.47,0,0,0,11.15,2h0a0.49,0.49,0,0,0,0-.14,0.41,0.41,0,0,0-.08-0.25,0.51,0.51,0,0,0-.26-0.16" transform="translate(0 0)"/><path class="cls-3" d="M11.68,2.4l0.16,0.11a0.17,0.17,0,0,1,.09.09v0h0l0,0L12,2.55l0.06-.08,0,0h0s0,0-.13-0.05l-0.16-.11L12,2l0.18,0.12a0.16,0.16,0,0,1,.09.11,0.05,0.05,0,0,1,0,0h0l0,0,0.12-.17h0l-0.24-.18-0.17-.11-0.08-.05h0v0h0s0,0.06-.19.38l-0.13.19c-0.22.34-.24,0.37-0.29,0.34h0l0,0,0.07,0,0.18,0.12,0.26,0.19h0l0.09-.14,0,0,0,0h0s-0.06,0-.12,0l-0.21-.15h0v0l0.2-.31" transform="translate(0 0)"/><path class="cls-3" d="M13,3.53a0.58,0.58,0,0,1-.49.18,0.66,0.66,0,0,1-.38-0.23l-0.06-.07,0-.05-0.1-.11,0,0h0S12,3.24,12.3,3l0.17-.16c0.27-.26.29-0.28,0.26-0.32h0l0,0h0l0.11,0.11,0,0L13,2.68a0.72,0.72,0,0,1,.19.35,0.55,0.55,0,0,1-.17.5h0Zm-0.12-.75L12.8,2.7l-0.63.6h0L12.23,3.4a0.46,0.46,0,0,0,.28.16,0.45,0.45,0,0,0,.36-0.14h0A0.44,0.44,0,0,0,13,3.1a0.26,0.26,0,0,0,0,0,0.53,0.53,0,0,0-.14-0.27" transform="translate(0 0)"/><path class="cls-3" d="M14.17,6.15a0.36,0.36,0,0,1-.43.33,0.55,0.55,0,0,1-.23-0.1,1.56,1.56,0,0,1-.22-0.19L13,5.92l0-.18v0L13.33,6l0.13,0.13a0.32,0.32,0,0,1,0-.12s0,0,0-.06a0.37,0.37,0,0,1,.14-0.24,0.34,0.34,0,0,1,.27-0.07,0.39,0.39,0,0,1,.25.15,0.42,0.42,0,0,1,.07.32m-0.34-.31a0.24,0.24,0,0,0-.28.21,0.24,0.24,0,0,0,.21.28,0.24,0.24,0,0,0,.19,0A0.25,0.25,0,0,0,14,6.12h0a0.24,0.24,0,0,0-.21-0.28" transform="translate(0 0)"/><path class="cls-3" d="M13.29,6.42l0.52,0.89,0,0.07-0.7-.3L13,7.24l-0.11,0h0L13,7C12.8,7,12.77,7,12.75,7h0l0.05-.12,0.05-.13h0v0s0,0.05.18,0.11l0.2-.49h0l0.05,0m0.28,0.71-0.23-.38-0.07-.12-0.13.31,0.43,0.19" transform="translate(0 0)"/><path class="cls-4" d="M9.14,26.14a4.89,4.89,0,0,1-.45.26,0.11,0.11,0,0,0,0,.15,0.11,0.11,0,0,0,.14.05l0.37-.2V26.14" transform="translate(0 0)"/><path class="cls-4" d="M9.11,25.58a9,9,0,0,1-.82-0.83c-0.2-.23-0.35,0-0.23.17a7.31,7.31,0,0,0,1.06,1l0-.34" transform="translate(0 0)"/><path class="cls-4" d="M10.3,26.4a5.28,5.28,0,0,1-.47-0.27v0.25l0.39,0.21a0.11,0.11,0,0,0,.14,0,0.11,0.11,0,0,0,0-.15" transform="translate(0 0)"/><path class="cls-4" d="M10.7,24.75a9,9,0,0,1-.84.85l0,0.34a7.45,7.45,0,0,0,1.08-1c0.13-.16,0-0.4-0.22-0.17" transform="translate(0 0)"/><path class="cls-4" d="M9.44,26.66a0.12,0.12,0,0,1,0-.09l-0.15-3a0.09,0.09,0,0,1,0-.07H9.69a0.1,0.1,0,0,1,0,.07l-0.15,3h0a0.12,0.12,0,0,1,0,.09H9.44Z" transform="translate(0 0)"/><path class="cls-4" d="M10.3,15.21a0.28,0.28,0,0,1-.28.21H9a0.28,0.28,0,0,1-.28-0.21L8.5,14.42a0.23,0.23,0,0,1,.26-0.28h1.46a0.22,0.22,0,0,1,.25.27Z" transform="translate(0 0)"/><path class="cls-4" d="M14,15.29a0.17,0.17,0,0,1-.15.2,0.17,0.17,0,0,1-.19-0.15,0.17,0.17,0,0,1,.15-0.19,0.17,0.17,0,0,1,.19.15" transform="translate(0 0)"/><path class="cls-4" d="M13.46,18.06a0.18,0.18,0,1,1-.18-0.19,0.19,0.19,0,0,1,.18.19" transform="translate(0 0)"/><path class="cls-4" d="M13.84,20.79a0.17,0.17,0,1,1-.17-0.18,0.18,0.18,0,0,1,.17.18" transform="translate(0 0)"/><path class="cls-4" d="M12.54,20a0.16,0.16,0,1,1-.16-0.17,0.16,0.16,0,0,1,.16.17" transform="translate(0 0)"/><path class="cls-4" d="M14.76,16.87a0.18,0.18,0,1,1-.18-0.19,0.19,0.19,0,0,1,.18.19" transform="translate(0 0)"/><path class="cls-4" d="M13.42,20.11c0.13-.41.25-0.85,0.35-1.3A3.4,3.4,0,0,1,14,18.2a5.56,5.56,0,0,0,.43-0.84,2.75,2.75,0,0,0-.39.49c0,0.05-.07,0-0.07,0s0-.22.06-0.36a17.18,17.18,0,0,0,.23-1.78,0.3,0.3,0,0,0-.05-0.26,0.23,0.23,0,0,0-.08.22c0,0.17-.11.78-0.16,1.06a0.47,0.47,0,0,1-.08.25c-0.06,0-.09-0.15-0.15-0.15a0.66,0.66,0,0,0,.07.31,2.44,2.44,0,0,1-.06.73,19.23,19.23,0,0,1-1.46,4.45l0.1,0h0.07l0.06,0a0.19,0.19,0,0,1,.06.09q0.17-.37.33-0.77a6.11,6.11,0,0,1,.56-1.06A6.36,6.36,0,0,0,14,19.85a1.91,1.91,0,0,0-.49.38c-0.1.07-.11,0-0.09,0l0-.09" transform="translate(0 0)"/><path class="cls-4" d="M14.16,14.84h0a5.66,5.66,0,0,0,0-2,0.09,0.09,0,0,1,.05-0.1,0.08,0.08,0,0,1,.1.06,5.81,5.81,0,0,1,.14,2,1,1,0,0,0,.18-0.21c0.8-1.2,0-2.35-.5-3L14,11.5a2.7,2.7,0,0,0-.48,2,2.15,2.15,0,0,0,.66,1.35" transform="translate(0 0)"/><path class="cls-4" d="M14.69,16.43a6,6,0,0,1,1.19-1.76,0.08,0.08,0,0,1,.11,0,0.09,0.09,0,0,1,0,.12,5.81,5.81,0,0,0-1.07,1.78v0a2.18,2.18,0,0,0,1.31-.83,2.88,2.88,0,0,0,.69-2l-0.19.08c-0.73.3-2.08,0.86-2,2.36a1.11,1.11,0,0,0,0,.27" transform="translate(0 0)"/><path class="cls-4" d="M13.29,16.58h0a5.27,5.27,0,0,0-.86-1.67,0.09,0.09,0,0,1,0-.11,0.07,0.07,0,0,1,.11,0,5.44,5.44,0,0,1,1,1.65,1.12,1.12,0,0,0,0-.23A2.38,2.38,0,0,0,11.84,14l-0.17-.08a2.63,2.63,0,0,0,.5,1.89,2,2,0,0,0,1.12.82" transform="translate(0 0)"/><path class="cls-4" d="M12.65,19.43h0A5.28,5.28,0,0,0,12,17.67a0.09,0.09,0,0,1,0-.11,0.07,0.07,0,0,1,.11,0,5.44,5.44,0,0,1,.8,1.74,1.13,1.13,0,0,0,.07-0.22,2.4,2.4,0,0,0-1.47-2.43l-0.16-.1a2.62,2.62,0,0,0,.31,1.93,2,2,0,0,0,1,.94" transform="translate(0 0)"/><path class="cls-4" d="M12.69,23v0a0.46,0.46,0,0,1,0,.11v0A5,5,0,0,1,14,21.94a0.07,0.07,0,0,1,.1,0,0.08,0.08,0,0,1,0,.11,5,5,0,0,0-1.23,1.31h0A1.78,1.78,0,0,0,14,23a2.54,2.54,0,0,0,1-1.66l-0.17,0A2.21,2.21,0,0,0,12.69,23" transform="translate(0 0)"/><path class="cls-4" d="M14.09,19.34a1.08,1.08,0,0,0,0,.26,9.16,9.16,0,0,1,1.46-1.35,0.07,0.07,0,0,1,.11,0,0.09,0.09,0,0,1,0,.11,9.05,9.05,0,0,0-1.35,1.4,2,2,0,0,0,1.3-.49,2.62,2.62,0,0,0,1-1.71l-0.19,0a2.38,2.38,0,0,0-2.28,1.73" transform="translate(0 0)"/><path class="cls-4" d="M11.37,22.65a0.66,0.66,0,0,1,.18-0.27,5.34,5.34,0,0,0-.2-1.49,0.09,0.09,0,0,1,0-.1,0.08,0.08,0,0,1,.1,0,5.47,5.47,0,0,1,.29,1.48h0.07l0,0.07,0,0.07a2.59,2.59,0,0,0-.76-2.69l-0.12-.14a2.78,2.78,0,0,0-.22,2,2.33,2.33,0,0,0,.52,1" transform="translate(0 0)"/><path class="cls-4" d="M5,15.29a0.17,0.17,0,0,0,.15.2,0.17,0.17,0,0,0,.19-0.15,0.17,0.17,0,0,0-.15-0.19,0.17,0.17,0,0,0-.19.15" transform="translate(0 0)"/><path class="cls-4" d="M5.5,18a0.18,0.18,0,1,0,.18-0.19A0.19,0.19,0,0,0,5.5,18" transform="translate(0 0)"/><path class="cls-4" d="M5.12,20.78A0.17,0.17,0,1,0,5.3,20.6a0.18,0.18,0,0,0-.17.18" transform="translate(0 0)"/><path class="cls-4" d="M6.42,20a0.16,0.16,0,1,0,.16-0.17,0.17,0.17,0,0,0-.16.17" transform="translate(0 0)"/><path class="cls-4" d="M5.4,16.21a1.16,1.16,0,0,0,0,.23,5.41,5.41,0,0,1,1-1.62,0.07,0.07,0,0,1,.11,0,0.09,0.09,0,0,1,0,.11,5.26,5.26,0,0,0-.91,1.65h0a2,2,0,0,0,1.14-.79,2.62,2.62,0,0,0,.56-1.87L7.17,14a2.38,2.38,0,0,0-1.78,2.2" transform="translate(0 0)"/><path class="cls-4" d="M6.06,19.11a1,1,0,0,0,.07.22,5.43,5.43,0,0,1,.78-1.76,0.07,0.07,0,0,1,.11,0,0.09,0.09,0,0,1,0,.11,5.32,5.32,0,0,0-.66,1.77h0a2,2,0,0,0,1-1,2.63,2.63,0,0,0,.28-1.94l-0.16.11a2.4,2.4,0,0,0-1.44,2.45" transform="translate(0 0)"/><path class="cls-4" d="M6.51,22.22H6.59l0.1,0a19.21,19.21,0,0,1-1.46-4.44,2.45,2.45,0,0,1-.06-0.73,0.67,0.67,0,0,0,.07-0.31c-0.07,0-.09.17-0.15,0.15A0.47,0.47,0,0,1,5,16.67c-0.06-.28-0.14-0.89-0.16-1.06a0.22,0.22,0,0,0-.08-0.22,0.3,0.3,0,0,0-.05.26,17.18,17.18,0,0,0,.23,1.78c0,0.14,0,.24.06,0.36s0,0.1-.07,0a2.65,2.65,0,0,0-.39-0.49,5.78,5.78,0,0,0,.43.84,3.37,3.37,0,0,1,.23.61c0.1,0.45.22,0.89,0.35,1.3l0,0.09c0,0.06,0,.1-0.09,0A1.87,1.87,0,0,0,5,19.84a6.42,6.42,0,0,0,.53.69,6.27,6.27,0,0,1,.55,1.06q0.16,0.4.33,0.77a0.21,0.21,0,0,1,.06-0.09Z" transform="translate(0 0)"/><path class="cls-4" d="M7,22.44l0-.07,0-.08H7.21a5.43,5.43,0,0,1,.29-1.47,0.07,0.07,0,0,1,.1,0,0.09,0.09,0,0,1,0,.1,5.38,5.38,0,0,0-.2,1.49,0.68,0.68,0,0,1,.17.27,2.33,2.33,0,0,0,.52-1,2.79,2.79,0,0,0-.22-2l-0.12.14A2.59,2.59,0,0,0,7,22.44" transform="translate(0 0)"/><path class="cls-4" d="M4.07,16.57v0A5.77,5.77,0,0,0,3,14.77a0.09,0.09,0,0,1,0-.12,0.08,0.08,0,0,1,.11,0,6,6,0,0,1,1.19,1.76,1.15,1.15,0,0,0,0-.27c0-1.51-1.32-2.07-2-2.37L2.07,13.7a2.89,2.89,0,0,0,.69,2,2.18,2.18,0,0,0,1.31.83" transform="translate(0 0)"/><path class="cls-4" d="M4.56,14.84a5.81,5.81,0,0,1,.14-2,0.08,0.08,0,0,1,.1-0.06,0.09,0.09,0,0,1,.05.1,5.64,5.64,0,0,0,0,2h0a2.14,2.14,0,0,0,.66-1.35,2.69,2.69,0,0,0-.48-2l-0.12.17c-0.45.62-1.29,1.77-.49,3a1,1,0,0,0,.18.21" transform="translate(0 0)"/><path class="cls-4" d="M6.15,23.37h0a5,5,0,0,0-1.23-1.31,0.08,0.08,0,0,1,0-.11,0.07,0.07,0,0,1,.1,0A5,5,0,0,1,6.26,23.1v0a0.41,0.41,0,0,1,0-.1V22.92a2.21,2.21,0,0,0-2.15-1.59L4,21.31A2.54,2.54,0,0,0,5,23a1.78,1.78,0,0,0,1.19.41" transform="translate(0 0)"/><path class="cls-4" d="M4.71,19.76a9.05,9.05,0,0,0-1.35-1.4,0.09,0.09,0,0,1,0-.11,0.08,0.08,0,0,1,.11,0,9.1,9.1,0,0,1,1.46,1.35,1.08,1.08,0,0,0,0-.25A2.38,2.38,0,0,0,2.6,17.6l-0.19,0a2.63,2.63,0,0,0,1,1.71,2,2,0,0,0,1.3.49" transform="translate(0 0)"/><path class="cls-4" d="M4.2,16.86a0.18,0.18,0,1,0,.18-0.19,0.19,0.19,0,0,0-.18.19" transform="translate(0 0)"/><path class="cls-3" d="M11.74,24.18" transform="translate(0 0)"/></g><path class="cls-3" d="M10.17,24.68h0Z" transform="translate(0 0)"/><g class="cls-2"><path class="cls-4" d="M10.3,24.44A0.53,0.53,0,0,1,10,24c0.19,0,.32,0,0.34-0.14a1.7,1.7,0,0,1-.07-0.47,0.48,0.48,0,0,0,.16.07c0.1,0,.11-0.08.08-0.23S10.39,23.1,10.39,23s0.15-.28.14-0.44a0.61,0.61,0,0,1,.26.13,0.65,0.65,0,0,1,.24.06,4.12,4.12,0,0,0,.23.45c0.16,0.09.21-.28,0.27-0.43a0.32,0.32,0,0,1,.22-0.24,0.38,0.38,0,0,0,.19.19,2.2,2.2,0,0,0,.44-0.29,4.63,4.63,0,0,1-.08.46,0.21,0.21,0,0,0,.19.17,0.69,0.69,0,0,1-.32.45c-0.1.21,0.19,0.14,0.31,0.27a1,1,0,0,0,.1.21,0.85,0.85,0,0,0,.37.1c0.11,0.2-.39.25-0.46,0.34a0.27,0.27,0,0,0-.06.23,1.27,1.27,0,0,1-.34,0C11.78,24.71,12,25,12,25a1.79,1.79,0,0,0-.14.36A0.52,0.52,0,0,1,11.33,25c0-.07-0.18-0.42-0.06-0.4a0.29,0.29,0,0,1,.11.16L11.51,25c0,0.05.08,0.13,0.11,0a1.3,1.3,0,0,0-.2-0.55c0-.19.28-0.19,0.39-0.2a0.57,0.57,0,0,0,.3,0c0-.06-0.12-0.08-0.16-0.09a1,1,0,0,1-.47-0.08s0,0,0,0,0.4-.71.31-0.77a0.6,0.6,0,0,0-.23.24,2.42,2.42,0,0,1-.26.29c-0.16.14-.2-0.36-0.3-0.48s-0.06.1,0,.18a2.44,2.44,0,0,1,.07.37,0.18,0.18,0,0,1-.16.18,2.71,2.71,0,0,0-.38,0c-0.1.06,0,.08,0.09,0.1l0.34,0.09c0,0.17-.52.15-0.61,0.11" transform="translate(0 0)"/><polyline class="cls-3" points="6.36 23.95 6.36 23.95 6.36 23.95"/><path class="cls-3" d="M8.82,24.68" transform="translate(0 0)"/><path class="cls-4" d="M8.69,24.43A0.52,0.52,0,0,0,9,24c-0.19,0-.32,0-0.34-0.14a1.69,1.69,0,0,0,.08-0.47,0.51,0.51,0,0,1-.16.07c-0.1,0-.11-0.08-0.08-0.23A2.21,2.21,0,0,0,8.6,23c0-.21-0.15-0.27-0.14-0.44a0.6,0.6,0,0,0-.26.13,0.64,0.64,0,0,0-.24.06,4.23,4.23,0,0,1-.23.45c-0.16.09-.22-0.28-0.27-0.43a0.31,0.31,0,0,0-.22-0.24,0.38,0.38,0,0,1-.19.19,2.12,2.12,0,0,1-.44-0.29,4.49,4.49,0,0,0,.08.46,0.21,0.21,0,0,1-.19.17,0.69,0.69,0,0,0,.32.45c0.11,0.21-.19.14-0.31,0.28a1,1,0,0,1-.1.21,0.85,0.85,0,0,1-.37.1c-0.11.2,0.39,0.25,0.46,0.34a0.27,0.27,0,0,1,.06.23,1.27,1.27,0,0,0,.34,0C7.21,24.71,7,25,7,25a1.81,1.81,0,0,1,.14.36A0.51,0.51,0,0,0,7.66,25c0-.07.18-0.42,0.06-0.4a0.3,0.3,0,0,0-.11.16L7.49,25c0,0.05-.09.13-0.11,0a1.3,1.3,0,0,1,.2-0.55c0-.19-0.28-0.19-0.39-0.2a0.58,0.58,0,0,1-.3,0c0-.06.12-0.08,0.16-0.09a1,1,0,0,0,.47-0.08s0,0,0,0-0.4-.72-0.31-0.77a0.6,0.6,0,0,1,.23.24,2.43,2.43,0,0,0,.26.29C7.86,24,7.9,23.5,8,23.38s0.06,0.1,0,.18a2.43,2.43,0,0,0-.07.37,0.18,0.18,0,0,0,.16.18,2.54,2.54,0,0,1,.38,0c0.1,0.06,0,.08-0.09.1l-0.34.09c0,0.17.52,0.15,0.61,0.11" transform="translate(0 0)"/><path class="cls-3" d="M10.32,6.18c3.41-.31,5.28-2.61,5.28-4.24A1.38,1.38,0,0,0,14.28.38a0.92,0.92,0,0,0-1,.92c0,0.88.93,1.16,0.93,1.51a0.14,0.14,0,0,1-.06.11A0.14,0.14,0,0,0,14.3,3a0.2,0.2,0,0,0,.18-0.23c0-.49-0.86-0.7-0.86-1.45A0.61,0.61,0,0,1,14.23.7a1,1,0,0,1,.85,1.13A3.23,3.23,0,0,1,11.9,4.58c-1,0-1.24-.74-2-0.86a0.71,0.71,0,0,1-.17-0.44,0.73,0.73,0,0,1,.2-0.22,1.48,1.48,0,0,0-1,0,0.74,0.74,0,0,1,.19.22,0.69,0.69,0,0,1-.19.44c-0.75.19-1.09,0.9-2,.9A2.18,2.18,0,0,1,4.64,2.9a0.22,0.22,0,0,0,.17-0.22,1.58,1.58,0,0,0-1.05,0,0.22,0.22,0,0,0,.18.22C4.05,4,5.14,5.87,8.54,6.17a0.4,0.4,0,0,1,.21.35,0.34,0.34,0,0,0-.3.29,0.37,0.37,0,0,0-.29.3,0.5,0.5,0,0,0-.33.35c0,0.15.59,0.38,1.61,0.38S11,7.62,11,7.46a0.5,0.5,0,0,0-.33-0.35,0.37,0.37,0,0,0-.29-0.3,0.34,0.34,0,0,0-.3-0.29,0.4,0.4,0,0,1,.2-0.34" transform="translate(0 0)"/><path class="cls-3" d="M4.31,0a5.29,5.29,0,0,0-.57,1.67,0.6,0.6,0,0,0,.54.7,0.61,0.61,0,0,0,.53-0.69C4.81,1.1,4.26.53,4.34,0h0Z" transform="translate(0 0)"/><path class="cls-3" d="M19.26,22v0l-0.09-.06a1.42,1.42,0,0,0,0-.21v0l-2.07-1.44h0l0,0.18a5.15,5.15,0,0,1-.47,1.55,13.64,13.64,0,0,1-3,4l-0.31.3a3.37,3.37,0,0,0-1,1.19v0l0.09,0.11a0.53,0.53,0,0,0-.05.18L12.53,28a7.4,7.4,0,0,1-3,.53,8.8,8.8,0,0,1-3.32-.69l0.27-.56v0a0.35,0.35,0,0,0-.06-0.19l0-.1a1.92,1.92,0,0,0-.76-0.88,12.76,12.76,0,0,1-2.87-3.39,6.72,6.72,0,0,1-.78-2.06l0-.2L0.14,22.28s0,0.15,0,.21L0,22.63v0a3.78,3.78,0,0,0,.5,1.65,13.11,13.11,0,0,0,3.19,3.84l-0.39.59a0.29,0.29,0,0,0,0,.17l-0.09.13v0a1.71,1.71,0,0,0,1,1.07,11,11,0,0,0,5.29,1.3,9.45,9.45,0,0,0,5.71-1.66,1.16,1.16,0,0,0,.55-0.71,0.27,0.27,0,0,0-.08-0.22,0.34,0.34,0,0,0,0-.15,0.39,0.39,0,0,0-.11-0.17l-0.3-.33A17.33,17.33,0,0,0,19,23.33,2.54,2.54,0,0,0,19.26,22" transform="translate(0 0)"/><path class="cls-4" d="M6.07,27.2A2.42,2.42,0,0,1,5.52,27,2.66,2.66,0,0,0,5,26.81a0.13,0.13,0,0,0-.14,0,0.16,0.16,0,0,0,.05.18,1.7,1.7,0,0,0,.42.34,7,7,0,0,0,.63.35l0.24-.5H6.07" transform="translate(0 0)"/><path class="cls-4" d="M15.47,28.8a0.08,0.08,0,0,0-.08-0.09,2.17,2.17,0,0,0-.81.46l-0.08.05c-0.11.08-.47,0.33-0.66,0.11l0,0h0l-0.09-.11-0.91-1.08a7.48,7.48,0,0,1-3.27.64,8.59,8.59,0,0,1-4.37-1.22,2,2,0,0,1-.46-0.37h0L4.66,27.1,3.51,28.82a1.73,1.73,0,0,0,.9.86A10.72,10.72,0,0,0,9.51,31,9,9,0,0,0,15,29.34a1.08,1.08,0,0,0,.46-0.54" transform="translate(0 0)"/><path class="cls-4" d="M1.91,20.88a7.09,7.09,0,0,0,.77,1.94A13,13,0,0,0,5.6,26.26a1.9,1.9,0,0,1,.67.71,1,1,0,0,1-.66-0.16A2.85,2.85,0,0,0,5,26.6a0.32,0.32,0,0,0-.36.14l-0.07.1L4,27.76A12.82,12.82,0,0,1,.83,24a3.68,3.68,0,0,1-.48-1.58Z" transform="translate(0 0)"/><path class="cls-4" d="M13.81,29l0.09-.11,0,0h0c0.16-.17.37-0.36,0.57-0.54l0.2-.18a17.58,17.58,0,0,0,4-5.13,2.66,2.66,0,0,0,.26-1.25l-1.71-1.19A5.59,5.59,0,0,1,16.76,22a13.83,13.83,0,0,1-3.08,4.07l-0.31.3a4.6,4.6,0,0,0-.9,1Z" transform="translate(0 0)"/><path class="cls-4" d="M14.64,28.45c-0.21.19-.43,0.39-0.59,0.56a0.17,0.17,0,0,0,0,.18c0,0.05.16,0,.39-0.14L14.47,29a3,3,0,0,1,.79-0.47l-0.32-.35-0.3.27" transform="translate(0 0)"/><path class="cls-3" d="M4.82,28.42C5,28.07,5,28,5,28v0L5.08,28l0.11,0.06v0c-0.05,0-.07,0-0.25.37l-0.11.21L4.66,29s0,0,0,0l0.22,0.13L5,29.2a0.07,0.07,0,0,0,.05,0H5l-0.09.17-0.26-.15L4.43,29v0c0.06,0,.08,0,0.27-0.38Z" transform="translate(0 0)"/><path class="cls-5" d="M4.82,28.42C5,28.07,5,28,5,28v0L5.08,28l0.11,0.06v0c-0.05,0-.07,0-0.25.37l-0.11.21L4.66,29s0,0,0,0l0.22,0.13L5,29.2a0.07,0.07,0,0,0,.05,0H5l-0.09.17-0.26-.15L4.43,29v0c0.06,0,.08,0,0.27-0.38Z" transform="translate(0 0)"/><path class="cls-3" d="M6,29.32H6c0-.4,0-0.45,0-0.5H6l-0.31.37h0Zm-0.38,0c-0.19.22-.22,0.26-0.17,0.29v0l-0.12-.06-0.11,0v0a0.74,0.74,0,0,0,.38-0.36l0.51-.59h0v0.8a0.86,0.86,0,0,0,0,.53v0l-0.11,0L6,29.8v0C6,29.8,6,29.75,6,29.45Z" transform="translate(0 0)"/><path class="cls-5" d="M6,29.32H6c0-.4,0-0.45,0-0.5H6l-0.31.37h0Zm-0.38,0c-0.19.22-.22,0.26-0.17,0.29v0l-0.12-.06-0.11,0v0a0.74,0.74,0,0,0,.38-0.36l0.51-.59h0v0.8a0.86,0.86,0,0,0,0,.53v0l-0.11,0L6,29.8v0C6,29.8,6,29.75,6,29.45Z" transform="translate(0 0)"/><path class="cls-3" d="M7.06,28.83h0c0.22,0.89.23,0.94,0.25,1.05h0C7.4,29.8,7.44,29.75,8,29H8L8,29.78c0,0.44,0,.48,0,0.5v0l-0.12,0-0.14,0v0c0.07,0,.08,0,0.11-0.41s0-.33.05-0.42h0c-0.08.12-.14,0.2-0.27,0.37l-0.29.37h0l-0.12-.46c0-.2-0.07-0.31-0.1-0.45h0c0,0.09-.05.18-0.13,0.41s-0.12.4-.06,0.42v0L6.73,30,6.61,30v0c0.06,0,.08,0,0.22-0.45Z" transform="translate(0 0)"/><path class="cls-5" d="M7.06,28.83h0c0.22,0.89.23,0.94,0.25,1.05h0C7.4,29.8,7.44,29.75,8,29H8L8,29.78c0,0.44,0,.48,0,0.5v0l-0.12,0-0.14,0v0c0.07,0,.08,0,0.11-0.41s0-.33.05-0.42h0c-0.08.12-.14,0.2-0.27,0.37l-0.29.37h0l-0.12-.46c0-.2-0.07-0.31-0.1-0.45h0c0,0.09-.05.18-0.13,0.41s-0.12.4-.06,0.42v0L6.73,30,6.61,30v0c0.06,0,.08,0,0.22-0.45Z" transform="translate(0 0)"/><path class="cls-3" d="M9.14,29.55A0.24,0.24,0,0,0,9,29.33a0.3,0.3,0,0,0-.14,0H8.83l0,0.51H9a0.24,0.24,0,0,0,.1-0.08,0.29,0.29,0,0,0,.05-0.15h0Zm-0.46.07c0-.41,0-0.45,0-0.46v0H8.92a0.48,0.48,0,0,1,.2.06,0.35,0.35,0,0,1,.16.34,0.45,0.45,0,0,1-.06.18,0.31,0.31,0,0,1-.12.12,0.38,0.38,0,0,1-.17.05H8.78V30c0,0.35,0,.39,0,0.4v0H8.56v0c0.06,0,.06,0,0.1-0.48Z" transform="translate(0 0)"/><path class="cls-5" d="M9.14,29.55A0.24,0.24,0,0,0,9,29.33a0.3,0.3,0,0,0-.14,0H8.83l0,0.51H9a0.24,0.24,0,0,0,.1-0.08,0.29,0.29,0,0,0,.05-0.15h0Zm-0.46.07c0-.41,0-0.45,0-0.46v0H8.92a0.48,0.48,0,0,1,.2.06,0.35,0.35,0,0,1,.16.34,0.45,0.45,0,0,1-.06.18,0.31,0.31,0,0,1-.12.12,0.38,0.38,0,0,1-.17.05H8.78V30c0,0.35,0,.39,0,0.4v0H8.56v0c0.06,0,.06,0,0.1-0.48Z" transform="translate(0 0)"/><path class="cls-3" d="M10.18,30h0C10,29.57,10,29.53,10,29.49h0s0,0.09-.16.48h0.33Zm-0.37.13c-0.1.29-.12,0.34-0.05,0.35v0H9.51v0a0.77,0.77,0,0,0,.22-0.49L10,29.17h0l0.3,0.75a0.84,0.84,0,0,0,.23.48v0H10.3v0c0.06,0,0-.06-0.07-0.34H9.81Z" transform="translate(0 0)"/><path class="cls-5" d="M10.18,30h0C10,29.57,10,29.53,10,29.49h0s0,0.09-.16.48h0.33Zm-0.37.13c-0.1.29-.12,0.34-0.05,0.35v0H9.51v0a0.77,0.77,0,0,0,.22-0.49L10,29.17h0l0.3,0.75a0.84,0.84,0,0,0,.23.48v0H10.3v0c0.06,0,0-.06-0.07-0.34H9.81Z" transform="translate(0 0)"/><path class="cls-3" d="M11.68,29.61a0.47,0.47,0,0,0-.23-0.35,0.5,0.5,0,0,0-.31,0l-0.12,0,0.15,0.94s0,0,0,0h0.1a0.46,0.46,0,0,0,.3-0.16,0.53,0.53,0,0,0,.09-0.42h0Zm0.14,0a0.66,0.66,0,0,1-.13.55,0.64,0.64,0,0,1-.4.21l-0.16,0-0.14,0v0c0.06,0,.06-0.06,0-0.49l0-.25c-0.06-.4-0.07-0.45-0.13-0.44v0l0.14,0,0.17,0a0.67,0.67,0,0,1,.4,0,0.57,0.57,0,0,1,.31.45h0Z" transform="translate(0 0)"/><path class="cls-5" d="M11.68,29.61a0.47,0.47,0,0,0-.23-0.35,0.5,0.5,0,0,0-.31,0l-0.12,0,0.15,0.94s0,0,0,0h0.1a0.46,0.46,0,0,0,.3-0.16,0.53,0.53,0,0,0,.09-0.42h0Zm0.14,0a0.66,0.66,0,0,1-.13.55,0.64,0.64,0,0,1-.4.21l-0.16,0-0.14,0v0c0.06,0,.06-0.06,0-0.49l0-.25c-0.06-.4-0.07-0.45-0.13-0.44v0l0.14,0,0.17,0a0.67,0.67,0,0,1,.4,0,0.57,0.57,0,0,1,.31.45h0Z" transform="translate(0 0)"/><path class="cls-3" d="M12.82,29.45h0l-0.28-.39h0s0,0.1,0,.5h0Zm-0.31.23c0,0.3,0,.35,0,0.34v0l-0.12,0-0.11,0v0a0.82,0.82,0,0,0,.07-0.54l0-.8h0l0.48,0.62a0.8,0.8,0,0,0,.35.39v0l-0.11,0-0.13,0v0c0.05,0,0-.07-0.16-0.3Z" transform="translate(0 0)"/><path class="cls-5" d="M12.82,29.45h0l-0.28-.39h0s0,0.1,0,.5h0Zm-0.31.23c0,0.3,0,.35,0,0.34v0l-0.12,0-0.11,0v0a0.82,0.82,0,0,0,.07-0.54l0-.8h0l0.48,0.62a0.8,0.8,0,0,0,.35.39v0l-0.11,0-0.13,0v0c0.05,0,0-.07-0.16-0.3Z" transform="translate(0 0)"/><path class="cls-3" d="M13.39,27.13l-0.16.16a0.1,0.1,0,0,0,0,.15h0L13,27.31,13.32,27,13.41,27l0.27-.26,0.13,0.15h0c-0.05,0-.08,0-0.14,0L13.49,27l0.38,0.44c0.27,0.32.3,0.35,0.36,0.31v0l-0.1.09L14,28v0c0-.05,0-0.08-0.26-0.4Z" transform="translate(0 0)"/><path class="cls-5" d="M13.39,27.13l-0.16.16a0.1,0.1,0,0,0,0,.15h0L13,27.31,13.32,27,13.41,27l0.27-.26,0.13,0.15h0c-0.05,0-.08,0-0.14,0L13.49,27l0.38,0.44c0.27,0.32.3,0.35,0.36,0.31v0l-0.1.09L14,28v0c0-.05,0-0.08-0.26-0.4Z" transform="translate(0 0)"/><path class="cls-3" d="M14.47,26.41a0.21,0.21,0,0,0-.33,0l-0.05.06,0.32,0.34,0,0a0.3,0.3,0,0,0,.08-0.13,0.24,0.24,0,0,0-.06-0.23h0Zm-0.23.42c-0.28-.29-0.31-0.32-0.36-0.28h0l0.08-.09,0.1-.1a0.58,0.58,0,0,1,.17-0.12,0.3,0.3,0,0,1,.35.08,0.35,0.35,0,0,1,.1.31,0.38,0.38,0,0,1,0,.12h0l0.48,0.09a0.22,0.22,0,0,0,.17,0h0l-0.07.08,0,0-0.05,0-0.58-.12-0.05.05,0,0c0.26,0.27.29,0.3,0.34,0.26v0l-0.09.09-0.09.09h0s0-.08-0.29-0.39Z" transform="translate(0 0)"/><path class="cls-5" d="M14.47,26.41a0.21,0.21,0,0,0-.33,0l-0.05.06,0.32,0.34,0,0a0.3,0.3,0,0,0,.08-0.13,0.24,0.24,0,0,0-.06-0.23h0Zm-0.23.42c-0.28-.29-0.31-0.32-0.36-0.28h0l0.08-.09,0.1-.1a0.58,0.58,0,0,1,.17-0.12,0.3,0.3,0,0,1,.35.08,0.35,0.35,0,0,1,.1.31,0.38,0.38,0,0,1,0,.12h0l0.48,0.09a0.22,0.22,0,0,0,.17,0h0l-0.07.08,0,0-0.05,0-0.58-.12-0.05.05,0,0c0.26,0.27.29,0.3,0.34,0.26v0l-0.09.09-0.09.09h0s0-.08-0.29-0.39Z" transform="translate(0 0)"/><path class="cls-3" d="M15.51,25.92h0l-0.44-.2h0l0.22,0.44h0Zm-0.17.36c0.13,0.27.15,0.32,0.2,0.27h0l-0.09.09-0.09.09h0a0.79,0.79,0,0,0-.18-0.51l-0.33-.72,0,0,0.72,0.29a0.77,0.77,0,0,0,.5.16h0L16,26.06l-0.09.11h0c0-.05,0-0.07-0.28-0.18Z" transform="translate(0 0)"/><path class="cls-5" d="M15.51,25.92h0l-0.44-.2h0l0.22,0.44h0Zm-0.17.36c0.13,0.27.15,0.32,0.2,0.27h0l-0.09.09-0.09.09h0a0.79,0.79,0,0,0-.18-0.51l-0.33-.72,0,0,0.72,0.29a0.77,0.77,0,0,0,.5.16h0L16,26.06l-0.09.11h0c0-.05,0-0.07-0.28-0.18Z" transform="translate(0 0)"/><path class="cls-3" d="M16.3,24.68a0.45,0.45,0,0,0-.4-0.1,0.55,0.55,0,0,0-.26.19l-0.07.11,0.72,0.59s0,0,0,0l0.07-.08a0.5,0.5,0,0,0,.12-0.33,0.52,0.52,0,0,0-.2-0.38h0Zm0.09-.12a0.63,0.63,0,0,1,.25.49,0.68,0.68,0,0,1-.17.43l-0.11.13-0.09.11h0c0-.06,0-0.09-0.33-0.36l-0.19-.15C15.43,25,15.4,24.93,15.36,25h0l0.09-.12,0.11-.14a0.73,0.73,0,0,1,.32-0.25,0.55,0.55,0,0,1,.53.12h0Z" transform="translate(0 0)"/><path class="cls-5" d="M16.3,24.68a0.45,0.45,0,0,0-.4-0.1,0.55,0.55,0,0,0-.26.19l-0.07.11,0.72,0.59s0,0,0,0l0.07-.08a0.5,0.5,0,0,0,.12-0.33,0.52,0.52,0,0,0-.2-0.38h0Zm0.09-.12a0.63,0.63,0,0,1,.25.49,0.68,0.68,0,0,1-.17.43l-0.11.13-0.09.11h0c0-.06,0-0.09-0.33-0.36l-0.19-.15C15.43,25,15.4,24.93,15.36,25h0l0.09-.12,0.11-.14a0.73,0.73,0,0,1,.32-0.25,0.55,0.55,0,0,1,.53.12h0Z" transform="translate(0 0)"/><path class="cls-3" d="M16.5,24.2C16.18,24,16.14,23.95,16.1,24h0l0.16-.23,0.18-.27,0.16,0.12h0c-0.06,0-.09,0-0.15.09l-0.13.19,0.33,0.23L16.74,24c0.06-.09.08-0.12,0.05-0.15h0l0.08,0.06L17,23.91h0s-0.06,0-.12.09l-0.12.17L17,24.42s0,0,0,0l0.15-.21c0-.06.06-0.1,0-0.14h0l0.15,0.12-0.18.27-0.18.25h0c0-.05,0-0.08-0.35-0.32Z" transform="translate(0 0)"/><path class="cls-5" d="M16.5,24.2C16.18,24,16.14,23.95,16.1,24h0l0.16-.23,0.18-.27,0.16,0.12h0c-0.06,0-.09,0-0.15.09l-0.13.19,0.33,0.23L16.74,24c0.06-.09.08-0.12,0.05-0.15h0l0.08,0.06L17,23.91h0s-0.06,0-.12.09l-0.12.17L17,24.42s0,0,0,0l0.15-.21c0-.06.06-0.1,0-0.14h0l0.15,0.12-0.18.27-0.18.25h0c0-.05,0-0.08-0.35-0.32Z" transform="translate(0 0)"/><path class="cls-3" d="M18.13,23v0l-0.87.15-0.3,0h0l0.35,0.22c0.36,0.22.4,0.25,0.44,0.2h0l-0.08.12-0.07.11h0c0-.06,0-0.09-0.37-0.31l-0.62-.38v0L17.51,23l0.29,0h0l-0.38-.23c-0.34-.2-0.38-0.23-0.41-0.17h0L17,22.42l0.06-.11h0c0,0.05,0,.08.37,0.28Z" transform="translate(0 0)"/><path class="cls-5" d="M18.13,23v0l-0.87.15-0.3,0h0l0.35,0.22c0.36,0.22.4,0.25,0.44,0.2h0l-0.08.12-0.07.11h0c0-.06,0-0.09-0.37-0.31l-0.62-.38v0L17.51,23l0.29,0h0l-0.38-.23c-0.34-.2-0.38-0.23-0.41-0.17h0L17,22.42l0.06-.11h0c0,0.05,0,.08.37,0.28Z" transform="translate(0 0)"/><path class="cls-3" d="M18.27,21.93a0.32,0.32,0,0,1,.14.46,0.6,0.6,0,0,1-.12.18l-0.18-.09v0a0.13,0.13,0,0,0,.11,0,0.26,0.26,0,0,0,.08-0.11,0.19,0.19,0,0,0-.08-0.27,0.23,0.23,0,0,0-.21,0l-0.17.09a0.36,0.36,0,0,1-.34,0,0.32,0.32,0,0,1-.15-0.44,0.56,0.56,0,0,1,.09-0.14l0.18,0.09v0a0.1,0.1,0,0,0-.09,0,0.22,0.22,0,0,0-.06.07,0.18,0.18,0,0,0,.08.26,0.22,0.22,0,0,0,.18,0L17.91,22a0.39,0.39,0,0,1,.36,0h0Z" transform="translate(0 0)"/><path class="cls-5" d="M18.27,21.93a0.32,0.32,0,0,1,.14.46,0.6,0.6,0,0,1-.12.18l-0.18-.09v0a0.13,0.13,0,0,0,.11,0,0.26,0.26,0,0,0,.08-0.11,0.19,0.19,0,0,0-.08-0.27,0.23,0.23,0,0,0-.21,0l-0.17.09a0.36,0.36,0,0,1-.34,0,0.32,0.32,0,0,1-.15-0.44,0.56,0.56,0,0,1,.09-0.14l0.18,0.09v0a0.1,0.1,0,0,0-.09,0,0.22,0.22,0,0,0-.06.07,0.18,0.18,0,0,0,.08.26,0.22,0.22,0,0,0,.18,0L17.91,22a0.39,0.39,0,0,1,.36,0h0Z" transform="translate(0 0)"/><path class="cls-3" d="M0.93,23v0l0.52-.63A0.77,0.77,0,0,0,1.73,22h0L1.8,22.08l0.06,0.13h0c0-.06-0.07,0-0.31.27l-0.35.4h0l0.51-.07c0.37,0,.42-0.05.39-0.12h0l0.07,0.13,0.06,0.1h0a0.74,0.74,0,0,0-.5,0Z" transform="translate(0 0)"/><path class="cls-5" d="M0.93,23v0l0.52-.63A0.77,0.77,0,0,0,1.73,22h0L1.8,22.08l0.06,0.13h0c0-.06-0.07,0-0.31.27l-0.35.4h0l0.51-.07c0.37,0,.42-0.05.39-0.12h0l0.07,0.13,0.06,0.1h0a0.74,0.74,0,0,0-.5,0Z" transform="translate(0 0)"/><path class="cls-3" d="M1.88,23.78C1.53,24,1.5,24,1.52,24.08h0L1.44,24l-0.07-.11h0s0.08,0,.43-0.19L2,23.54c0.33-.21.36-0.23,0.34-0.28h0l0.06,0.11L2.5,23.46h0s-0.07,0-.4.18Z" transform="translate(0 0)"/><path class="cls-5" d="M1.88,23.78C1.53,24,1.5,24,1.52,24.08h0L1.44,24l-0.07-.11h0s0.08,0,.43-0.19L2,23.54c0.33-.21.36-0.23,0.34-0.28h0l0.06,0.11L2.5,23.46h0s-0.07,0-.4.18Z" transform="translate(0 0)"/><path class="cls-3" d="M2.82,24.11l-0.13-.18c0-.07-0.07-0.08-0.13-0.05v0l0.16-.11L2.92,24,3,24.15l0.22,0.3L3,24.57v0s0-.08,0-0.14L2.9,24.22l-0.47.34c-0.34.25-.38,0.27-0.34,0.33h0L2,24.79l-0.08-.11h0s0.08,0,.42-0.22Z" transform="translate(0 0)"/><path class="cls-5" d="M2.82,24.11l-0.13-.18c0-.07-0.07-0.08-0.13-0.05v0l0.16-.11L2.92,24,3,24.15l0.22,0.3L3,24.57v0s0-.08,0-0.14L2.9,24.22l-0.47.34c-0.34.25-.38,0.27-0.34,0.33h0L2,24.79l-0.08-.11h0s0.08,0,.42-0.22Z" transform="translate(0 0)"/><path class="cls-3" d="M3.15,25.58h0l0.24-.42h0l-0.45.17h0Zm-0.33-.21c-0.28.1-.32,0.11-0.29,0.16h0l-0.08-.1-0.07-.09h0a0.77,0.77,0,0,0,.51-0.13L3.62,25l0,0-0.37.69a0.8,0.8,0,0,0-.21.48H3L3,26.07,2.86,26h0s0.07,0,.21-0.26Z" transform="translate(0 0)"/><path class="cls-5" d="M3.15,25.58h0l0.24-.42h0l-0.45.17h0Zm-0.33-.21c-0.28.1-.32,0.11-0.29,0.16h0l-0.08-.1-0.07-.09h0a0.77,0.77,0,0,0,.51-0.13L3.62,25l0,0-0.37.69a0.8,0.8,0,0,0-.21.48H3L3,26.07,2.86,26h0s0.07,0,.21-0.26Z" transform="translate(0 0)"/><path class="cls-3" d="M3.83,26.25c-0.29.29-.32,0.32-0.28,0.38h0l-0.09-.1-0.09-.1h0s0.08,0,.37-0.28L3.9,26c0.27-.27.3-0.3,0.26-0.35h0l0.09,0.09,0.09,0.09h0s-0.08,0-.35.26Z" transform="translate(0 0)"/><path class="cls-5" d="M3.83,26.25c-0.29.29-.32,0.32-0.28,0.38h0l-0.09-.1-0.09-.1h0s0.08,0,.37-0.28L3.9,26c0.27-.27.3-0.3,0.26-0.35h0l0.09,0.09,0.09,0.09h0s-0.08,0-.35.26Z" transform="translate(0 0)"/></g><polygon class="cls-3" points="26.13 10.33 24.75 10.33 24.75 10.07 29.22 10.07 29.22 10.33 27.74 10.33 27.74 15.16 33.12 15.16 33.12 10.33 31.63 10.33 31.63 10.07 36.11 10.07 36.11 10.33 34.72 10.33 34.72 20.58 36.11 20.58 36.11 20.84 31.63 20.84 31.63 20.58 33.12 20.58 33.12 15.42 27.74 15.42 27.74 20.58 29.22 20.58 29.22 20.84 24.75 20.84 24.75 20.58 26.13 20.58 26.13 10.33"/><g class="cls-2"><path class="cls-3" d="M41.19,17.3c-1.15,0-2.58,0-2.58,1.76,0,0.9.14,1.58,1.15,1.58a1.63,1.63,0,0,0,1.7-1.23V17.3H41.19ZM42.78,20a0.56,0.56,0,0,0,.47.71A1.11,1.11,0,0,0,44.08,20l0.17,0.13a1.5,1.5,0,0,1-1.39.87,1.33,1.33,0,0,1-1.39-1h0a2.55,2.55,0,0,1-2.29,1,1.7,1.7,0,0,1-2-1.73c0-1.81,2.35-2.26,4-2.26h0.3v-2a1.06,1.06,0,0,0-1.29-.93c-0.46,0-1.53.18-1.53,0.76,0,0.39.52,0.21,0.52,0.94a0.69,0.69,0,0,1-.72.68,0.76,0.76,0,0,1-.69-0.91c0-.82.85-1.73,2.43-1.73,1.2,0,2.62.63,2.62,1.87V20Z" transform="translate(0 0)"/><path class="cls-3" d="M45.11,14.48H44.2V14.22H47.8v0.26H46.64l2,4.91,1.54-3.6a2.74,2.74,0,0,0,.27-0.89c0-.37-0.44-0.42-0.71-0.42H49.18V14.22h2.74v0.26a1,1,0,0,0-1.24.82L48.1,21.23H48Z" transform="translate(0 0)"/><path class="cls-3" d="M56.71,16.11c0-1-.27-2-1.31-2s-1.43,1-1.43,2v0.45H56.6a0.1,0.1,0,0,0,.11-0.11V16.11ZM54,18.34c0,1.15.14,2.44,1.62,2.44a2.51,2.51,0,0,0,2.52-2.23h0.25A2.78,2.78,0,0,1,55.59,21c-1.84,0-3.14-1.45-3.14-3.59,0-1.57,1.23-3.58,2.95-3.58s2.82,2.13,2.82,2.81a0.13,0.13,0,0,1-.14.14H54v1.52Z" transform="translate(0 0)"/><path class="cls-3" d="M60.67,14.48H59.35V14.22h1.32A1.8,1.8,0,0,0,62,13.86v1.91h0a2.24,2.24,0,0,1,2-1.91,1,1,0,0,1,1,1,0.7,0.7,0,0,1-.72.76,0.61,0.61,0,0,1-.69-0.71A0.78,0.78,0,0,1,64,14.17a0.35,0.35,0,0,0-.22,0c-0.65,0-1.81,1-1.81,3.15v3.31h1.43v0.26H59.35V20.58h1.32v-6.1Z" transform="translate(0 0)"/><path class="cls-3" d="M68.87,18.38c1.29,0,1.29-1,1.29-2.13s0-2.13-1.29-2.13-1.29,1.29-1.29,2.13c0,1,0,2.13,1.29,2.13M67.94,21c-0.83.25-1.5,0.6-1.5,1.4,0,1,1,1.34,2.27,1.34,1.64,0,3.24-.69,3.24-1.95,0-.66-0.66-0.79-1.5-0.79H67.94Zm2.73-1.19a1.54,1.54,0,0,1,1.74,1.6c0,1.72-1.82,2.58-3.77,2.58-1.48,0-3-.4-3-1.55,0-.67,1-1.16,1.71-1.42v0A1.24,1.24,0,0,1,66,19.58a1.45,1.45,0,0,1,1.44-1.39v0a2.07,2.07,0,0,1-1.18-1.81,2.55,2.55,0,0,1,2.62-2.48,2.5,2.5,0,0,1,1.85.68,1.69,1.69,0,0,1,1.21-.68,0.72,0.72,0,0,1,.8.72,0.56,0.56,0,0,1-.63.56,0.51,0.51,0,0,1-.5-0.49,0.6,0.6,0,0,1,.17-0.52,1.34,1.34,0,0,0-.9.59,2.48,2.48,0,0,1,.61,1.59,2.61,2.61,0,0,1-2.62,2.34,2.34,2.34,0,0,1-1.18-.29,1.29,1.29,0,0,0-1.37.89,0.55,0.55,0,0,0,.65.54h3.69Z" transform="translate(0 0)"/><path class="cls-3" d="M77.6,17.3c-1.15,0-2.58,0-2.58,1.76,0,0.9.14,1.58,1.15,1.58a1.63,1.63,0,0,0,1.7-1.23V17.3H77.6ZM79.19,20c0,0.31,0,.71.47,0.71A1.12,1.12,0,0,0,80.48,20l0.17,0.13a1.5,1.5,0,0,1-1.39.87,1.33,1.33,0,0,1-1.39-1h0a2.55,2.55,0,0,1-2.29,1,1.7,1.7,0,0,1-2-1.73c0-1.81,2.35-2.26,4-2.26h0.3v-2a1.06,1.06,0,0,0-1.29-.93c-0.46,0-1.53.18-1.53,0.76,0,0.39.52,0.21,0.52,0.94a0.69,0.69,0,0,1-.72.68,0.76,0.76,0,0,1-.69-0.91c0-.82.85-1.73,2.43-1.73,1.2,0,2.62.63,2.62,1.87V20Z" transform="translate(0 0)"/><path class="cls-3" d="M82.42,10.38H81.16V10.12h1.26a1.63,1.63,0,0,0,1.32-.4V20.58H85v0.26H81.16V20.58h1.26V10.38Z" transform="translate(0 0)"/><path class="cls-3" d="M28.88,27.67a1.08,1.08,0,0,0-1.11-1c-0.87,0-1.42.81-1.42,2.11s0.55,2.1,1.43,2.1A1.2,1.2,0,0,0,29,29.54h0.67a1.84,1.84,0,0,1-1.86,1.89c-1.31,0-2.1-1-2.1-2.67a2.9,2.9,0,0,1,.75-2.15,2,2,0,0,1,1.37-.54,1.69,1.69,0,0,1,1.41.67,2,2,0,0,1,.35.95H28.88Z" transform="translate(0 0)"/><path class="cls-3" d="M31.36,28.74c0,1.27.55,2.11,1.41,2.11s1.42-.83,1.42-2.1-0.55-2.12-1.43-2.12-1.4.84-1.4,2.11m3.52,0c0,1.59-.85,2.68-2.1,2.68s-2.11-1.09-2.11-2.67,0.85-2.7,2.13-2.7,2.08,1.1,2.08,2.69" transform="translate(0 0)"/></g><polygon class="cls-3" points="36.35 26.14 36.35 31.33 39.19 31.33 39.19 30.76 37.02 30.76 37.02 26.14 36.35 26.14"/><polygon class="cls-3" points="40.48 26.14 40.48 31.33 43.31 31.33 43.31 30.76 41.14 30.76 41.14 26.14 40.48 26.14"/><polygon class="cls-3" points="44.6 26.14 44.6 31.33 47.63 31.33 47.63 30.76 45.26 30.76 45.26 28.94 47.1 28.94 47.1 28.36 45.26 28.36 45.26 26.72 47.53 26.72 47.53 26.14 44.6 26.14"/><g class="cls-2"><path class="cls-3" d="M52.54,28.73v2.14a3,3,0,0,1-1.77.55c-1.37,0-2.2-1-2.2-2.7s0.83-2.67,2.14-2.67a1.79,1.79,0,0,1,1.42.62,1.83,1.83,0,0,1,.35.95H51.83a1.08,1.08,0,0,0-1.14-1c-0.9,0-1.43.8-1.43,2.12s0.59,2.1,1.55,2.1a2.07,2.07,0,0,0,1.11-.29V29.29h-1V28.73h1.65Z" transform="translate(0 0)"/></g><polygon class="cls-3" points="54.05 26.14 54.05 31.33 57.09 31.33 57.09 30.76 54.71 30.76 54.71 28.94 56.55 28.94 56.55 28.36 54.71 28.36 54.71 26.72 56.98 26.72 56.98 26.14 54.05 26.14"/></svg>