<svg id="Layer_1" data-name="Layer 1" xmlns="http://www.w3.org/2000/svg" xmlns:xlink="http://www.w3.org/1999/xlink" width="42.43" height="47.57" viewBox="0 0 42.43 47.57"><defs><style>.cls-1,.cls-4{fill:none;}.cls-2{clip-path:url(#clip-path);}.cls-3{fill:#231f20;}.cls-4{stroke:#231f20;stroke-width:0.66px;}</style><clipPath id="clip-path" transform="translate(0 0)"><rect class="cls-1" width="42.43" height="47.57"/></clipPath></defs><title>TSFF</title><g class="cls-2"><path class="cls-3" d="M15.84,6.73c0.45,0,.89,0,1.33,0a0.42,0.42,0,0,0,.4-0.45,0.5,0.5,0,0,0-.42-0.62c-0.44,0-.87,0-1.31-0.05V6.73Zm1.1,0.7h-1.1v7c0,0.52,0,.54.4,0.65l0.06,0v0.56H14.79V15.12L15,15.05a0.3,0.3,0,0,0,.21-0.33c0-.06,0-0.12,0-0.18V6.07s0-.09,0-0.14A0.31,0.31,0,0,0,15,5.58l-0.24-.06V5h0.1c0.67,0,1.34,0,2,0a2,2,0,0,1,.66.12,1.16,1.16,0,0,1,.62,1.32,1.06,1.06,0,0,1-.59.95,0.12,0.12,0,0,0-.07.14c0,1,.05,2,0.11,3,0,0.83.13,1.67,0.22,2.5a10.09,10.09,0,0,0,.25,1.29,0.93,0.93,0,0,0,.64.82v0.58H18.11c-0.24,0-.24,0-0.34-0.29a14.74,14.74,0,0,1-.6-3.13C17,10.7,17,9.11,16.94,7.52c0,0,0-.06,0-0.09" transform="translate(0 0)"/><path class="cls-3" d="M13.32,10.87c0-.28,0-0.56,0-0.83A14.85,14.85,0,0,0,13,7.21a3.59,3.59,0,0,0-.58-1.43,0.56,0.56,0,0,0-.63-0.26,0.82,0.82,0,0,0-.44.46,4.67,4.67,0,0,0-.42,1.56c-0.09.74-.16,1.48-0.2,2.23a15.31,15.31,0,0,0,.15,3.47,4.16,4.16,0,0,0,.46,1.39,0.75,0.75,0,0,0,1.45-.07,4.6,4.6,0,0,0,.32-1,11.22,11.22,0,0,0,.22-2.73m-3.24-.28a20.39,20.39,0,0,1,.3-3.53A4.62,4.62,0,0,1,11,5.32a1.05,1.05,0,0,1,1.82-.05A4.41,4.41,0,0,1,13.57,7a18.67,18.67,0,0,1,.33,5.29,8.36,8.36,0,0,1-.37,2.08,2.63,2.63,0,0,1-.7,1.2,1.18,1.18,0,0,1-1.67-.1A3.3,3.3,0,0,1,10.43,14a11.8,11.8,0,0,1-.35-3.12V10.59" transform="translate(0 0)"/><path class="cls-3" d="M9.69,6.16a3.16,3.16,0,0,1-.3.13,0.09,0.09,0,0,1-.1,0,0.83,0.83,0,0,0-1-.62v8.85c0,0.52,0,.54.4,0.63H8.77v0.56H7.26V15.13l0.26-.07a0.29,0.29,0,0,0,.2-0.32s0-.1,0-0.15q0-4.41,0-8.82V5.64a0.77,0.77,0,0,0-1,.56c0,0.11-.08.14-0.17,0.09a2.62,2.62,0,0,0-.26-0.12l0.29-1c0.09-.3.09-0.31,0.34-0.28a9.65,9.65,0,0,0,2.25,0,0.12,0.12,0,0,1,.11.06c0.13,0.4.24,0.81,0.37,1.23" transform="translate(0 0)"/><path class="cls-3" d="M27.91,15.73H26.39c0-.17,0-0.33,0-0.49a0.12,0.12,0,0,1,.07-0.09c0.41-.07.4-0.18,0.4-0.66q0-3.3,0-6.59a0.27,0.27,0,0,0-.11-0.25L24.9,6.27l-0.11-.08v8.29s0,0.08,0,.13c0,0.38.06,0.47,0.36,0.52,0.09,0,.12.06,0.11,0.17s0,0.27,0,.41H23.74c0-.16,0-0.33,0-0.49a0.12,0.12,0,0,1,.07-0.09c0.37-.08.39-0.11,0.39-0.61V6.16c0-.42,0-0.5-0.37-0.55l-0.1,0V5h1v0a0.59,0.59,0,0,0,.3.61c0.56,0.39,1.11.81,1.66,1.21l0.1,0.07c0-.35,0-0.69,0-1a0.23,0.23,0,0,0-.16-0.24L26.4,5.59V5h1.5V5.59l-0.23,0a0.31,0.31,0,0,0-.24.36c0,0.09,0,.19,0,0.28v8.25c0,0.48,0,.52.39,0.61a0.15,0.15,0,0,1,.08.11c0,0.15,0,.3,0,0.47" transform="translate(0 0)"/><path class="cls-3" d="M19.71,10.79a12.77,12.77,0,0,0,.24,2.79,3.17,3.17,0,0,0,.51,1.25,0.69,0.69,0,0,0,1.24-.07A3,3,0,0,0,22,14.14a7.78,7.78,0,0,0,.33-2.24c0-.81,0-1.61,0-2.42A11.66,11.66,0,0,0,22,7.17a3.52,3.52,0,0,0-.55-1.31,0.54,0.54,0,0,0-1,0A3.65,3.65,0,0,0,20,7.22a20.68,20.68,0,0,0-.29,3.56M23,11a13.36,13.36,0,0,1-.23,2.73,4.61,4.61,0,0,1-.58,1.57,1.21,1.21,0,0,1-2,.22,3.85,3.85,0,0,1-.79-1.77A12.48,12.48,0,0,1,19.1,11,24,24,0,0,1,19.26,8a8,8,0,0,1,.5-2.13,1.65,1.65,0,0,1,.82-1,1,1,0,0,1,1.27.43,4.57,4.57,0,0,1,.76,1.88A17.8,17.8,0,0,1,23,11" transform="translate(0 0)"/><path class="cls-3" d="M32.84,10.77a12.75,12.75,0,0,0,.24,2.82,3.14,3.14,0,0,0,.51,1.25,0.69,0.69,0,0,0,1.25-.08,3,3,0,0,0,.28-0.63,7.82,7.82,0,0,0,.33-2.24c0-.81,0-1.61,0-2.42a11.72,11.72,0,0,0-.32-2.31,3.54,3.54,0,0,0-.54-1.3,0.54,0.54,0,0,0-1,0,3.66,3.66,0,0,0-.45,1.33,20.56,20.56,0,0,0-.29,3.54m3.25,0.35a12.91,12.91,0,0,1-.23,2.56,4.61,4.61,0,0,1-.58,1.58,1.21,1.21,0,0,1-2,.22,3.86,3.86,0,0,1-.79-1.77A12.42,12.42,0,0,1,32.23,11,23.76,23.76,0,0,1,32.39,8a8,8,0,0,1,.5-2.13,1.6,1.6,0,0,1,.88-1A1.05,1.05,0,0,1,35,5.36a4.63,4.63,0,0,1,.76,1.86,18.74,18.74,0,0,1,.35,3.9" transform="translate(0 0)"/><path class="cls-3" d="M30.95,15.17v0.56H29.44c0-.17,0-0.33,0-0.5a0.12,0.12,0,0,1,.08-0.08c0.37-.08.39-0.12,0.39-0.6V5.7a0.83,0.83,0,0,0-1,.69l-0.38-.17c0.12-.42.24-0.83,0.36-1.23A0.13,0.13,0,0,1,29,4.95C29.49,5,30,5,30.46,5c0.31,0,.63,0,0.94-0.06a0.12,0.12,0,0,1,.1.06c0.12,0.4.24,0.81,0.36,1.23l-0.37.17a1,1,0,0,0-.44-0.62,3.23,3.23,0,0,0-.57-0.12v8.85c0,0.54,0,.56.42,0.63l0,0" transform="translate(0 0)"/><path class="cls-3" d="M10.36,28.81l-0.06,0C10,28.7,10,28.65,10,28.18V20c0-.12,0-0.24,0-0.36a0.29,0.29,0,0,1,.16-0.33l0.18-.06V18.65H9.26v0.56l0,0c0.29,0.09.3,0.11,0.3,0.65v8.21c0,0.12,0,.23,0,0.35a0.29,0.29,0,0,1-.15.32l-0.18.07v0.56h1.1V28.81Zm2.86-.76v0l0,0.11a0.6,0.6,0,0,1-.56.53H11.76v-9c0-.05,0-0.1,0-0.15a0.3,0.3,0,0,1,.15-0.32l0.19-.07V18.65H11v0.56l0.1,0,0.1,0a0.32,0.32,0,0,1,.16.36c0,0.06,0,.11,0,0.17v8.39c0,0.06,0,.12,0,0.18a0.33,0.33,0,0,1-.17.38l-0.2.07v0.56a7.56,7.56,0,0,1,2.21.18L13.33,29l0.15-.61-0.26-.3m-6.64-.51-0.19.13a0.14,0.14,0,0,0-.06.16c0,0.17,0,.34,0,0.51l0.07,1a0.26,0.26,0,0,0,.32-0.1,0.08,0.08,0,0,1,.1,0L7.1,29.44c0.47,0.31,1,0,1.32-.71a4.78,4.78,0,0,0,.23-2.22,14.08,14.08,0,0,0-.44-2.37c-0.31-1.17-.67-2.28-1-3.39a8.32,8.32,0,0,1-.24-0.87c-0.08-.37,0-0.65.19-0.68a0.3,0.3,0,0,1,.23.13c0.11,0.13.2,0.3,0.3,0.45a0.08,0.08,0,0,0,.07,0L8,19.67,7.68,18.35a0.08,0.08,0,0,0,0-.05c-0.11,0-.22-0.07-0.31.1a0.13,0.13,0,0,1-.16.08c-0.45-.11-0.75.42-0.68,1.22a4.59,4.59,0,0,0,.16.87c0.29,1,.61,2,0.91,3a15.61,15.61,0,0,1,.66,3.08,3.93,3.93,0,0,1-.07,1.44c-0.24.87-.94,1-1.28,0.26-0.11-.24-0.19-0.52-0.28-0.8" transform="translate(0 0)"/><path class="cls-3" d="M6.59,27.54c0.1,0.28.17,0.56,0.28,0.8,0.34,0.76,1,.61,1.28-0.26a3.93,3.93,0,0,0,.07-1.44,15.61,15.61,0,0,0-.66-3.08c-0.3-1-.61-2-0.91-3a4.59,4.59,0,0,1-.16-0.87c-0.07-.8.23-1.33,0.68-1.22a0.13,0.13,0,0,0,.16-0.08c0.09-.16.21-0.09,0.31-0.1a0.08,0.08,0,0,1,0,.05L8,19.67l-0.25.16a0.08,0.08,0,0,1-.07,0c-0.1-.15-0.19-0.32-0.3-0.45a0.3,0.3,0,0,0-.23-0.13c-0.19,0-.27.31-0.19,0.68a8.32,8.32,0,0,0,.24.87c0.37,1.11.73,2.22,1,3.39a14.08,14.08,0,0,1,.44,2.38,4.78,4.78,0,0,1-.23,2.22c-0.29.72-.85,1-1.32,0.71l-0.22-.17a0.08,0.08,0,0,0-.1,0,0.26,0.26,0,0,1-.32.1l-0.07-1c0-.17,0-0.34,0-0.51a0.14,0.14,0,0,1,.06-0.16l0.19-.13" transform="translate(0 0)"/><path class="cls-3" d="M13.22,28.05l0.26,0.3L13.33,29l-0.15.59A7.57,7.57,0,0,0,11,29.37V28.82l0.2-.07a0.33,0.33,0,0,0,.17-0.38c0-.06,0-0.12,0-0.18V19.8c0-.06,0-0.11,0-0.17a0.32,0.32,0,0,0-.16-0.36l-0.1,0-0.1,0V18.65H12.1v0.56l-0.19.07a0.3,0.3,0,0,0-.15.32s0,0.1,0,.15v9h0.85a0.6,0.6,0,0,0,.56-0.53l0-.11v0" transform="translate(0 0)"/><path class="cls-3" d="M10.36,28.81v0.56H9.26V28.81l0.18-.07a0.29,0.29,0,0,0,.15-0.32c0-.12,0-0.23,0-0.35V19.87c0-.54,0-0.55-0.3-0.65h0V18.65h1.1v0.56l-0.18.06a0.29,0.29,0,0,0-.16.33c0,0.12,0,.24,0,0.36v8.22c0,0.47,0,.52.28,0.6l0.06,0" transform="translate(0 0)"/><path class="cls-3" d="M21.2,19.38v9s0,0.08,0,.12a0.31,0.31,0,0,1-.15.34l-0.19.07v0.55H22V28.89l0,0c-0.29-.09-0.3-0.11-0.3-0.63V19.36a1.85,1.85,0,0,1,.33.05,0.76,0.76,0,0,1,.38.55,0.12,0.12,0,0,0,.07.09,1.56,1.56,0,0,0,.23-0.14c-0.08-.4-0.17-0.79-0.25-1.18,0-.11-0.05-0.12-0.11-0.12-0.35,0-.7.07-1,0.07a6.63,6.63,0,0,1-.67-0.07,0.09,0.09,0,0,0-.09,0c-0.09.41-.18,0.82-0.27,1.25l0.21,0.14s0.06,0,.09-0.06a2.42,2.42,0,0,1,.15-0.36,0.51,0.51,0,0,1,.56-0.26m-5.48.89c0,0.31-.07.4-0.22,0.41s-0.58,0-.88,0v-1.3a4.46,4.46,0,0,0,.49,0,0.57,0.57,0,0,1,.6.38h0L16,19.51c-0.09-.32-0.19-0.63-0.27-0.94,0-.08-0.05-0.08-0.1-0.05a1.25,1.25,0,0,1-.69.19H13.81v0.57l0.08,0c0.28,0.08.3,0.11,0.3,0.63v8.26c0,0.11,0,.22,0,0.33a0.28,0.28,0,0,1-.12.27l-0.25.1v0.56a7,7,0,0,1,2.2.18l0.3-1.18-0.25-.3L16,28.37a0.52,0.52,0,0,1-.4.41c-0.31,0-.63,0-0.94,0V21.36h0.88a0.27,0.27,0,0,1,.2.29l0,0.12H16v-1.5H15.72Zm4,8.62-0.07,0c-0.25-.08-0.28-0.13-0.28-0.59V20c0-.13,0-0.25,0-0.38a0.28,0.28,0,0,1,.13-0.28l0.2-.07V18.72H18.62c0,0.17,0,.32,0,0.48s0,0,0,.08l0.15,0c0.15,0.05.18,0.13,0.19,0.4s0,0.56,0,.84a0.56,0.56,0,0,1,0,.07l-0.09-.08c-0.4-.4-0.79-0.81-1.2-1.2a0.67,0.67,0,0,1-.22-0.61v0H16.69v0.56l0.05,0C17,19.39,17,19.4,17,19.93v8.23c0,0.12,0,.23,0,0.35a0.29,0.29,0,0,1-.15.32l-0.19.07v0.56h1.1V28.88l-0.07,0c-0.25-.08-0.27-0.13-0.27-0.58h0q0-4.1,0-8.2V19.88l0.1,0.1,1.34,1.36a0.31,0.31,0,0,1,.08.25q0,3.31,0,6.62c0,0.1,0,.2,0,0.3a0.3,0.3,0,0,1-.14.3l-0.2.07v0.56h1.11V28.89Z" transform="translate(0 0)"/><path class="cls-3" d="M19.73,28.89v0.56H18.63V28.88l0.2-.07a0.3,0.3,0,0,0,.14-0.3c0-.1,0-0.2,0-0.3q0-3.31,0-6.62a0.31,0.31,0,0,0-.08-0.25L17.55,20l-0.1-.1v0.18q0,4.1,0,8.2h0c0,0.45,0,.5.27,0.58l0.07,0v0.56h-1.1V28.88l0.19-.07A0.29,0.29,0,0,0,17,28.5c0-.12,0-0.23,0-0.35V19.93c0-.52,0-0.54-0.3-0.63l-0.05,0V18.72h0.75v0a0.67,0.67,0,0,0,.22.61c0.4,0.39.8,0.8,1.2,1.2L19,20.63a0.56,0.56,0,0,0,0-.07c0-.28,0-0.56,0-0.84s0-.34-0.19-0.4l-0.15,0s0-.06,0-0.08,0-.31,0-0.48h1.11v0.56l-0.2.07a0.28,0.28,0,0,0-.13.28c0,0.13,0,.25,0,0.38v8.26c0,0.46,0,.51.28,0.59l0.07,0" transform="translate(0 0)"/><path class="cls-3" d="M15.72,20.26H16v1.5H15.71l0-.12a0.27,0.27,0,0,0-.2-0.29H14.61v7.41l0,0c0.31,0,.63,0,0.94,0a0.52,0.52,0,0,0,.4-0.41l0.09-.22,0.25,0.3L16,29.63a7.07,7.07,0,0,0-2.2-.18V28.89l0.25-.1a0.28,0.28,0,0,0,.12-0.27c0-.11,0-0.22,0-0.33V19.93c0-.52,0-0.55-0.3-0.63l-0.08,0V18.71H14.9a1.26,1.26,0,0,0,.69-0.19s0.07,0,.09.05L16,19.51l-0.24.25h0a0.57,0.57,0,0,0-.6-0.38,4.48,4.48,0,0,1-.49,0v1.3c0.3,0,.59,0,0.88,0s0.19-.1.22-0.41" transform="translate(0 0)"/><path class="cls-3" d="M21.2,19.38a0.51,0.51,0,0,0-.56.26,2.39,2.39,0,0,0-.15.36c0,0.07,0,.09-0.09.06l-0.21-.14c0.09-.42.18-0.84,0.27-1.25a0.09,0.09,0,0,1,.09,0,6.63,6.63,0,0,0,.67.07c0.35,0,.7,0,1-0.07,0.06,0,.09,0,0.11.12,0.08,0.39.16,0.78,0.25,1.18a1.56,1.56,0,0,1-.23.14A0.12,0.12,0,0,1,22.32,20a0.76,0.76,0,0,0-.38-0.55,1.85,1.85,0,0,0-.33-0.05v8.87c0,0.52,0,.54.3,0.63l0,0v0.56h-1.1V28.89L21,28.82a0.31,0.31,0,0,0,.15-0.34s0-.08,0-0.12v-9Z" transform="translate(0 0)"/><path class="cls-3" d="M27.42,19.31l0,0c0.28,0.09.29,0.11,0.29,0.64q0,4.1,0,8.21c0,0.12,0,.23,0,0.35a0.29,0.29,0,0,1-.16.33l-0.18.07v0.56h1.1c0-.17,0-0.34,0-0.5s0,0,0-.06l0,0c-0.29-.11-0.3-0.12-0.3-0.67V20c0-.12,0-0.23,0-0.35a0.28,0.28,0,0,1,.13-0.28l0.2-.07V18.76h-1.1v0.56Zm1.72,0,0.15,0c0.17,0,.21.14,0.22,0.45,0,0,0,.06,0,0.09q0,4.2,0,8.41c0,0.07,0,.13,0,0.2a0.32,0.32,0,0,1-.16.35l-0.21.07v0.56a7.58,7.58,0,0,1,2.21.18l0.31-1.2-0.27-.3,0,0.09a0.63,0.63,0,0,1-.6.58c-0.22,0-.44,0-0.66,0H29.92v-9s0-.07,0-0.11a0.33,0.33,0,0,1,.18-0.39l0.16,0V18.76H29.14v0.56Zm-4.49,0,0.09,0C25,19.41,25,19.45,25,19.94q0,4.16,0,8.32c0,0.11,0,.21,0,0.32a0.28,0.28,0,0,1-.13.28l-0.2.07v0.56h1.1V28.92l-0.07,0c-0.26-.08-0.27-0.11-0.27-0.58V21.39h0.79c0.2,0,.27.09,0.31,0.4v0h0.24V20.3H26.54c0,0.32-.08.4-0.26,0.41H25.44V19.41a4.19,4.19,0,0,0,.48,0,0.57,0.57,0,0,1,.61.38h0l0.24-.25-0.27-.94c0-.07,0-0.08-0.09-0.06a1.4,1.4,0,0,1-.43.16c-0.42,0-.84,0-1.25,0h-0.1v0.57Zm7.4,0,0.17,0c0.15,0.05.19,0.15,0.19,0.42v8.53c0,0.05,0,.1,0,0.15,0,0.25,0,.33-0.17.39L32,28.92v0.56h1.13V28.92l-0.08,0c-0.22-.07-0.25-0.14-0.25-0.53q0-4.33,0-8.65s0-.08,0-0.14l1.06,1.69L35,19.55v8.79c0,0.06,0,.11,0,0.17a0.33,0.33,0,0,1-.15.35l-0.19.07v0.56h1.13V28.92l-0.08,0c-0.27-.08-0.29-0.12-0.29-0.6V19.9c0-.06,0-0.12,0-0.18a0.31,0.31,0,0,1,.15-0.33l0.21-.07V18.74H35a0.14,0.14,0,0,0-.08.07L34.11,20l-0.22.33c-0.28-.43-0.56-0.84-0.82-1.28a0.47,0.47,0,0,0-.47-0.31,3.82,3.82,0,0,1-.56,0v0.57Z" transform="translate(0 0)"/><path class="cls-3" d="M32,19.32V18.74a3.82,3.82,0,0,0,.56,0,0.47,0.47,0,0,1,.47.31c0.26,0.44.54,0.85,0.82,1.28L34.11,20l0.76-1.19A0.14,0.14,0,0,1,35,18.75h0.79v0.57l-0.21.07a0.31,0.31,0,0,0-.15.33c0,0.06,0,.12,0,0.18v8.39c0,0.49,0,.52.29,0.6l0.08,0v0.56H34.61V28.92l0.19-.07A0.33,0.33,0,0,0,35,28.5c0-.06,0-0.11,0-0.17V19.55l-1.06,1.7-1.06-1.69c0,0.06,0,.1,0,0.14q0,4.33,0,8.65c0,0.39,0,.47.25,0.53l0.08,0v0.56H32V28.92l0.19-.07c0.13-.05.17-0.14,0.17-0.39,0-.05,0-0.1,0-0.15V19.78c0-.28,0-0.37-0.19-0.42l-0.17,0" transform="translate(0 0)"/><path class="cls-3" d="M24.64,19.31V18.74h0.1c0.42,0,.84,0,1.25,0a1.39,1.39,0,0,0,.43-0.16s0.07,0,.09.06l0.27,0.94-0.24.25h0a0.57,0.57,0,0,0-.61-0.38,4.17,4.17,0,0,1-.48,0v1.31h0.84c0.18,0,.23-0.1.26-0.41h0.24v1.5H26.55v0c0-.31-0.11-0.4-0.31-0.4H25.44v6.93c0,0.47,0,.51.28,0.58l0.07,0v0.56h-1.1V28.92l0.2-.07A0.28,0.28,0,0,0,25,28.57c0-.11,0-0.21,0-0.32V19.94c0-.48,0-0.52-0.29-0.6l-0.09,0" transform="translate(0 0)"/><path class="cls-3" d="M29.14,19.32V18.76h1.13v0.56l-0.16,0a0.33,0.33,0,0,0-.18.39s0,0.07,0,.11v9h0.15c0.22,0,.44,0,0.66,0a0.63,0.63,0,0,0,.6-0.58l0-.09,0.27,0.3-0.31,1.2a7.61,7.61,0,0,0-2.21-.18V28.92l0.21-.07a0.32,0.32,0,0,0,.16-0.35c0-.06,0-0.13,0-0.2v-8.5c0-.31,0-0.4-0.22-0.45l-0.15,0" transform="translate(0 0)"/><path class="cls-3" d="M27.42,19.31V18.75h1.1v0.56l-0.2.07a0.28,0.28,0,0,0-.13.28c0,0.12,0,.23,0,0.35v8.22c0,0.54,0,.55.3,0.66l0,0s0,0,0,.06v0.5h-1.1V28.92l0.18-.06a0.29,0.29,0,0,0,.16-0.33c0-.12,0-0.23,0-0.35V20c0-.53,0-0.54-0.29-0.64l0,0" transform="translate(0 0)"/><path class="cls-3" d="M20.16,33.48c-0.11-.37-0.22-0.75-0.32-1.12,0-.09-0.06-0.11-0.13-0.1l-0.56.05a7.88,7.88,0,0,1-1.72-.05c-0.07,0-.1,0-0.12.1-0.08.29-.16,0.58-0.25,0.86L17,33.5l0.27,0.12c0.06,0,.1,0,0.13-0.06A0.75,0.75,0,0,1,18.29,33v8.53s0,0.1,0,.14a0.28,0.28,0,0,1-.19.29L17.85,42v0.53h1.44V42l0,0c-0.4-.1-0.4-0.1-0.4-0.63V33h0.3a0.69,0.69,0,0,1,.54.37c0.06,0.09.06,0.28,0.17,0.28a0.82,0.82,0,0,0,.28-0.12l0,0m-4.27-.16-0.38-1.25A0.09,0.09,0,0,0,15.46,32a0.41,0.41,0,0,0-.41.1,0.17,0.17,0,0,1-.19.06,0.81,0.81,0,0,0-.91,1,2.48,2.48,0,0,0,.22,1c0.38,0.93.77,1.84,1.15,2.77a11.92,11.92,0,0,1,.9,3,2.74,2.74,0,0,1-.1,1.38,0.9,0.9,0,0,1-1.66.24c-0.14-.23-0.25-0.51-0.37-0.77l-0.24.12a0.14,0.14,0,0,0-.08.17c0,0.27.05,0.54,0.08,0.82l0.06,0.65a0.5,0.5,0,0,0,.3,0,0.26,0.26,0,0,1,.39,0,0.72,0.72,0,0,0,.14.07,1.32,1.32,0,0,0,1.73-.68,3.41,3.41,0,0,0,.3-2.11,10.26,10.26,0,0,0-.58-2.26c-0.4-1.11-.88-2.17-1.36-3.23a6.2,6.2,0,0,1-.3-0.81c-0.11-.36,0-0.63.25-0.66a0.42,0.42,0,0,1,.29.12c0.14,0.12.26,0.28,0.39,0.42a0.12,0.12,0,0,0,.1,0c0.1,0,.21-0.09.32-0.15M6.4,32.88l0.11,0C6.87,33,6.89,33,6.89,33.48v7.89c0,0.11,0,.21,0,0.32a0.26,0.26,0,0,1-.18.27L6.44,42v0.53H7.88V42L7.79,42c-0.33-.07-0.35-0.11-0.35-0.55q0-3.22,0-6.44c0-.05,0-0.1,0-0.16H8.56a0.32,0.32,0,0,1,.31.33l0,0.06H9.2V33.81H8.89c0,0.31-.11.38-0.32,0.4H7.45V33c0.22,0,.44,0,0.65,0a0.79,0.79,0,0,1,.77.36l0,0,0.32-.24C9.09,32.81,9,32.53,8.86,32.24c0-.09-0.07-0.12-0.14-0.08a2,2,0,0,1-.87.18H6.4v0.54Zm3.69,0,0.1,0c0.37,0.07.39,0.1,0.39,0.59q0,3.93,0,7.86c0,0.11,0,.21,0,0.32a0.25,0.25,0,0,1-.16.27L10.1,42v0.54h1.44a5.11,5.11,0,0,1,1.44.17l0.39-1.12L13,41.33a0.79,0.79,0,0,0-.06.1,0.75,0.75,0,0,1-.77.51c-0.31,0-.62,0-0.92,0H11.14V34.86h1.12c0.18,0,.25.1,0.3,0.33l0,0.06H12.9V33.81H12.58c0,0.3-.1.37-0.3,0.4H11.14V33c0.23,0,.44,0,0.66,0a0.79,0.79,0,0,1,.76.36l0,0,0.32-.24c-0.12-.3-0.24-0.59-0.35-0.88,0-.09-0.07-0.1-0.14-0.07a2,2,0,0,1-.87.18H10.09v0.45s0,0.06,0,.09" transform="translate(0 0)"/><path class="cls-3" d="M10.09,32.88s0-.06,0-0.09V32.34h1.45a2,2,0,0,0,.88-0.18c0.07,0,.1,0,0.14.07,0.11,0.29.23,0.58,0.35,0.88l-0.32.24,0,0A0.79,0.79,0,0,0,11.8,33c-0.21,0-.43,0-0.66,0v1.24h1.14c0.21,0,.26-0.1.3-0.4H12.9v1.44H12.58l0-.06c-0.06-.23-0.12-0.32-0.3-0.33H11.14v7.08h0.14c0.31,0,.62,0,0.92,0A0.75,0.75,0,0,0,13,41.43a0.79,0.79,0,0,1,.06-0.1l0.33,0.28L13,42.74a5.11,5.11,0,0,0-1.44-.17H10.1V42l0.31-.09a0.25,0.25,0,0,0,.16-0.27c0-.11,0-0.21,0-0.32q0-3.93,0-7.86c0-.49,0-0.52-0.39-0.59l-0.1,0" transform="translate(0 0)"/><path class="cls-3" d="M6.4,32.88V32.34H7.85a2,2,0,0,0,.87-0.18c0.08,0,.11,0,0.14.08,0.11,0.29.23,0.57,0.35,0.86l-0.32.24h0A0.79,0.79,0,0,0,8.1,33c-0.21,0-.43,0-0.65,0v1.23H8.56c0.22,0,.28-0.09.32-0.4H9.2v1.44H8.89l0-.06a0.32,0.32,0,0,0-.31-0.33H7.44c0,0.06,0,.11,0,0.16q0,3.22,0,6.44c0,0.44,0,.48.35,0.55l0.09,0v0.53H6.44V42L6.71,42a0.26,0.26,0,0,0,.18-0.27c0-.11,0-0.21,0-0.32V33.48c0-.47,0-0.51-0.38-0.58l-0.11,0" transform="translate(0 0)"/><path class="cls-3" d="M15.88,33.32c-0.12.06-.22,0.11-0.32,0.15a0.12,0.12,0,0,1-.1,0c-0.13-.14-0.25-0.3-0.39-0.42a0.43,0.43,0,0,0-.29-0.12c-0.25,0-.36.3-0.25,0.66a6.21,6.21,0,0,0,.3.81c0.48,1.06,1,2.12,1.35,3.23a10.25,10.25,0,0,1,.58,2.26,3.42,3.42,0,0,1-.3,2.11,1.32,1.32,0,0,1-1.73.68,0.67,0.67,0,0,1-.14-0.08,0.26,0.26,0,0,0-.39,0,0.5,0.5,0,0,1-.3,0l-0.06-.65c0-.27-0.05-0.54-0.08-0.82a0.14,0.14,0,0,1,.08-0.17l0.24-.12c0.13,0.26.23,0.54,0.37,0.77a0.9,0.9,0,0,0,1.66-.24,2.73,2.73,0,0,0,.1-1.38,11.89,11.89,0,0,0-.9-3c-0.38-.93-0.77-1.84-1.15-2.77a2.46,2.46,0,0,1-.22-1,0.81,0.81,0,0,1,.91-1A0.17,0.17,0,0,0,15,32.12,0.41,0.41,0,0,1,15.46,32a0.09,0.09,0,0,1,.05.06l0.38,1.25" transform="translate(0 0)"/><path class="cls-3" d="M20.16,33.48l0,0a0.82,0.82,0,0,1-.28.12c-0.12,0-.12-0.18-0.17-0.28A0.69,0.69,0,0,0,19.14,33h-0.3v8.4c0,0.53,0,.53.4,0.63h0v0.53H17.85V42L18.1,42a0.28,0.28,0,0,0,.19-0.29s0-.1,0-0.14V33a0.75,0.75,0,0,0-.92.56c0,0.08-.06.1-0.13,0.06L17,33.5l0.08-.28c0.08-.29.17-0.57,0.25-0.86,0-.08.05-0.11,0.12-0.1a7.88,7.88,0,0,0,1.72.05l0.56-.06c0.07,0,.1,0,0.13.1,0.1,0.37.22,0.74,0.33,1.12" transform="translate(0 0)"/><path class="cls-3" d="M30.32,33.91L30.26,33H29.08L29,33.91h1.32ZM32,42s0,0.06,0,.09v0.44H30.58V42l0.19,0A0.29,0.29,0,0,0,31,41.64c0-.31,0-0.62-0.07-0.93q-0.14-1.59-.28-3.18c-0.09-1-.17-2-0.26-3H29c0,0.25,0,.51-0.06.77q-0.13,1.65-.26,3.3-0.11,1.41-.22,2.81c0,0.49,0,.54.38,0.59h0v0.53H27.33V42l0.18,0a0.38,0.38,0,0,0,.33-0.4c0-.28.06-0.57,0.08-0.86q0.12-1.45.24-2.9l0.21-2.61,0.14-1.75c0-.06,0-0.12,0-0.19,0-.27,0-0.34-0.24-0.37l-0.19,0V32.34h3.16V32.9l-0.2,0c-0.18,0-.23.1-0.22,0.34,0,0.39,0,.79.08,1.18,0.08,0.94.17,1.88,0.25,2.82l0.26,2.81c0,0.47.08,0.95,0.13,1.42s0.1,0.46.4,0.53L32,42" transform="translate(0 0)"/><path class="cls-3" d="M25.91,32.9V32.37h1.24v0.54a0.59,0.59,0,0,0-.41.62q-0.38,2.55-.77,5.11c-0.13.9-.26,1.79-0.39,2.69,0,0.14,0,.28,0,0.41a0.2,0.2,0,0,0,.14.25L26,42v0.53H24.21V42l0.22,0c0.16,0,.22-0.11.19-0.32-0.06-.48-0.14-1-0.21-1.44l-1-6.18-0.09-.59A0.55,0.55,0,0,0,23,32.91V32.37H24.2V32.9l-0.17,0c-0.15,0-.19.1-0.16,0.29l0.46,3L25,41a0.36,0.36,0,0,0,0,.14l0.11-.74,0.67-4.63c0.12-.84.25-1.68,0.38-2.52,0-.18,0-0.25-0.15-0.28l-0.19,0" transform="translate(0 0)"/><path class="cls-3" d="M33.75,41.95c0.43,0,.84,0,1.25,0a0.63,0.63,0,0,0,.52-0.38l0.13-.24L36,41.61l-0.4,1.14a13.43,13.43,0,0,0-2.88-.17V42L33,42a0.29,0.29,0,0,0,.21-0.33c0-.07,0-0.13,0-0.2v-8c0-.34-0.06-0.42-0.31-0.47l-0.16,0s0,0,0-.06,0-.31,0-0.47H34.2V32.9L34,33a0.28,0.28,0,0,0-.2.32s0,0.1,0,.14v8.52Z" transform="translate(0 0)"/><path class="cls-3" d="M22.31,42v0.53H20.87V42L21.12,42a0.26,0.26,0,0,0,.19-0.3c0-.11,0-0.22,0-0.33V33.52c0-.5,0-0.52-0.38-0.6H20.87V32.37h1.44V32.9L22.06,33a0.26,0.26,0,0,0-.19.29c0,0.1,0,.21,0,0.32V41.4c0,0.51,0,.52.39,0.63l0.06,0" transform="translate(0 0)"/><rect class="cls-4" x="0.33" y="0.33" width="41.77" height="46.92"/></g></svg>