<svg id="Layer_1" data-name="Layer 1" xmlns="http://www.w3.org/2000/svg" xmlns:xlink="http://www.w3.org/1999/xlink" width="76.15" height="15.42" viewBox="0 0 76.15 15.42"><defs><style>.cls-1{fill:none;}.cls-2{fill:#231f20;}.cls-3{clip-path:url(#clip-path);}</style><clipPath id="clip-path" transform="translate(0 0)"><rect class="cls-1" width="76.14" height="15.42"/></clipPath></defs><title>Dynacare</title><polygon class="cls-2" points="17.12 3.03 14.48 10 12.04 3.03 10.29 3.03 13.56 12.13 12.29 15.42 14.01 15.42 18.87 3.03 17.12 3.03"/><g class="cls-3"><path class="cls-2" d="M19.64,12.39V3h1.56V4.1a3,3,0,0,1,2.52-1.22c2.34,0,3.67,1.46,3.67,4.18v5.33H25.77v-5c0-2-.69-2.93-2.19-2.93-1.73,0-2.3,1.22-2.3,3.64v4.25H19.64Z" transform="translate(0 0)"/><path class="cls-2" d="M33.15,11a3.22,3.22,0,0,0,3-3.22,3.23,3.23,0,0,0-3.06-3.35A3.15,3.15,0,0,0,30,7.65,3.2,3.2,0,0,0,33.15,11m2.94,0.24a4,4,0,0,1-3,1.36,4.7,4.7,0,0,1-4.73-4.93,5,5,0,0,1,1.3-3.43A4.23,4.23,0,0,1,33,2.79a4.1,4.1,0,0,1,3.13,1.38V3h1.65v9.36H36.09V11.24Z" transform="translate(0 0)"/><path class="cls-2" d="M43.66,12.63a4.28,4.28,0,0,1-3.31-1.45A5.19,5.19,0,0,1,39,7.72a5,5,0,0,1,1.28-3.4,4.51,4.51,0,0,1,7.79,1.81H46.29a2.82,2.82,0,0,0-2.71-1.71A3.07,3.07,0,0,0,40.68,7.7a3.07,3.07,0,0,0,3,3.28A2.84,2.84,0,0,0,46.29,9.2h1.78a4.46,4.46,0,0,1-4.41,3.43" transform="translate(0 0)"/><path class="cls-2" d="M53.7,11a3.22,3.22,0,0,0,3-3.22,3.23,3.23,0,0,0-3.06-3.35,3.15,3.15,0,0,0-3.1,3.22A3.2,3.2,0,0,0,53.7,11m2.94,0.24a4,4,0,0,1-3,1.36,4.7,4.7,0,0,1-4.73-4.93,5,5,0,0,1,1.29-3.43,4.23,4.23,0,0,1,3.33-1.45,4.1,4.1,0,0,1,3.13,1.38V3h1.65v9.36H56.65V11.24Z" transform="translate(0 0)"/><path class="cls-2" d="M60,12.39V3h1.53V4.11a2.42,2.42,0,0,1,2.14-1.24V4.64c-1.53.12-2,.91-2,2.54v5.21H60Z" transform="translate(0 0)"/><path class="cls-2" d="M3.85,0H3.29V1.69H3.46c3,0,4.64,1.76,4.64,4.57s-1.63,4.48-4.32,4.48H1.68V4.35H0v8H3.36a6.13,6.13,0,0,0,4.09-1.1A6.08,6.08,0,0,0,9.86,6.24C9.86,2.56,7.48,0,3.85,0" transform="translate(0 0)"/><path class="cls-2" d="M68.69,4.39a2.9,2.9,0,0,1,2.84,2.42H65.76a3,3,0,0,1,2.93-2.42m0,6.57a3,3,0,0,1-3-2.63h7.6V8.07a5.65,5.65,0,0,0-.77-3.14,4.58,4.58,0,0,0-3.9-2.18,4.34,4.34,0,0,0-3.36,1.53A5,5,0,0,0,64,7.7a5.19,5.19,0,0,0,1.35,3.47,4.33,4.33,0,0,0,3.33,1.46,4.53,4.53,0,0,0,1.7-.32V10.4a2.78,2.78,0,0,1-1.7.56" transform="translate(0 0)"/><path class="cls-2" d="M75.23,3.68H75V4h0.23a0.16,0.16,0,1,0,0-.31m0.19,0.48,0.25,0.38H75.41l-0.22-.34H75V4.53H74.78V3.47h0.46a0.35,0.35,0,0,1,.4.35,0.33,0.33,0,0,1-.22.33m-0.24-1a0.82,0.82,0,0,0-.81.84A0.81,0.81,0,1,0,76,4a0.81,0.81,0,0,0-.8-0.84m0,1.84a1,1,0,0,1,0-2,1,1,0,0,1,0,2" transform="translate(0 0)"/></g></svg>