<svg id="Layer_1" data-name="Layer 1" xmlns="http://www.w3.org/2000/svg" width="351.82" height="96.42" viewBox="0 0 351.82 96.42"><defs><style>.cls-1{fill:#231f20;}</style></defs><title>Shangri-La</title><path class="cls-1" d="M167.79,572.37c-5,1.88-12.09,5.11-16.22,10.6a1,1,0,0,1-1.78-.06c-1.16-1.41-7.13-7.6-15.57-7.61a29.18,29.18,0,0,0-7.31,1.16v20.69a13.22,13.22,0,0,1,7-2c4.26,0,12.49,3.68,15.49,6.42a1.85,1.85,0,0,0,2.95,0c4.43-4.31,12.31-8.09,22.33-8.07V568.31H133.78c5-1.88,12.09-5.11,16.22-10.6a1,1,0,0,1,1.78.06c1.16,1.41,7.13,7.6,15.57,7.61a29.18,29.18,0,0,0,7.31-1.16V543.52a13.24,13.24,0,0,1-7,2c-4.26,0-12.49-3.68-15.49-6.42a1.85,1.85,0,0,0-2.95,0c-4.43,4.31-12.31,8.09-22.33,8.07v25.25h40.87Z" transform="translate(-126.91 -538.32)"/><rect class="cls-1" x="63.75" y="62.88" width="288.07" height="1.16"/><path class="cls-1" d="M280.33,578.21c0-1.11,0-2,0-5.63,0-2.14-.8-4.88-2.37-6.27s-3.74-1.88-5.63-.4c-1.74,1.36-2.33,1.83-3.28,2.6a5,5,0,0,0-2.95-3.45c-0.83-.21-1.24.14-2.28,0.79a36.1,36.1,0,0,0-3,2.14c2.13,0.42,2.79,1.77,2.79,4.61v10.52a4.21,4.21,0,0,1-.82,2.09h7.35a4.18,4.18,0,0,1-.81-2.09c0-.84,0-10.19,0-12.43,0-.11,0-0.2,0-0.3,1.88-1.79,2.92-1.53,4.09-.5a3.82,3.82,0,0,1,1.14,3.25c0,4.21,0,5.82,0,7,0,3.72,2.29,5.38,3.26,5.63s1.24-.14,2.28-0.79a36.14,36.14,0,0,0,3-2.14C281,582.39,280.33,581,280.33,578.21Z" transform="translate(-126.91 -538.32)"/><path class="cls-1" d="M358.79,573.74c-0.8.56-2.26,1.67-2.26,1.67,4.2,0.94,3.5,3.67,2,4.81a3.39,3.39,0,0,1-3.12.79,40.58,40.58,0,0,0-11.77-.09c1.81-2.63,2.78-5.57,2.78-12.13,0-.84,0-6.27,0-8.5,0-3.72-2.29-5.38-3.26-5.63s-1.25.14-2.28,0.79a36.13,36.13,0,0,0-3,2.14c2.13,0.42,2.86,1.77,2.86,4.61,0,2.23,0,9.72,0,10.56,0,4.19-.17,8.72-3.15,13l0.11,0.21c5.22-1.56,6.36-1.63,9.77-1,4,0.7,5.95,1.23,8,.33a8.43,8.43,0,0,0,2.46-2c1.18-1.27,1.94-2.11,3.1-3.4,0.81-.91,2.13-2.86-0.87-6.28C359.6,573,359.41,573.31,358.79,573.74Z" transform="translate(-126.91 -538.32)"/><path class="cls-1" d="M203.62,557.64c2.58,0.11,3.83.43,8.53,4l4.62-4.37c-4.87-2.72-10.39-5.33-13.76-2.44-2.85,2.45-3.7,3.19-6,5.38-2,1.86-1.6,6,2.2,8.31,5.15,3.11,5.87,3.45,10.46,6.31,4.08,2.54,2.18,5.53-.67,5.87-2.34.29-5.35,0.14-11.89-5.35l-6.45,4.82L191,580.6c0.93-.64,1.55-1.07,2.68-0.34,2.27,1.48,3.83,2.44,7.55,4.63a6.48,6.48,0,0,0,7.83-.81c2.3-2,3.88-3.5,6.59-6.35,1.77-1.86,1.29-5.21-1.43-6.95-4.49-2.87-6.26-3.94-11.23-6.85C198.89,561.5,200.9,557.52,203.62,557.64Z" transform="translate(-126.91 -538.32)"/><path class="cls-1" d="M258.82,577.76V564.94l-3,2.25c-3-2.25-5.29-2.94-8.1-.71-1.87,1.48-2.12,1.74-4.75,4-3,2.61-3.21,6.19-1.58,10.19,1.79,4.39,5.05,6,8.1,3.58,1.92-1.52,3.17-2.52,3.78-3a5.15,5.15,0,0,0,3.1,4.07c0.83,0.21,1.24-.14,2.28-0.79a36.12,36.12,0,0,0,3-2.14C259.49,581.94,258.82,580.59,258.82,577.76Zm-12.64-.25c-1.23-2.74-2-5.82.35-8,1.87-1.73,3.58-.28,4.42,1.26l2.13-1.56c0,4.32,0,8.42,0,10-0.13.12-.71,0.63-1.8,1.53C249.64,582.06,247.65,580.76,246.18,577.51Z" transform="translate(-126.91 -538.32)"/><path class="cls-1" d="M381.78,577.76V564.94l-3,2.25c-3-2.25-5.29-2.94-8.09-.71-1.87,1.48-2.12,1.74-4.75,4-3,2.61-3.21,6.19-1.58,10.19,1.79,4.39,5.05,6,8.1,3.58,1.92-1.52,3.17-2.52,3.78-3a5.15,5.15,0,0,0,3.1,4.07c0.83,0.21,1.24-.14,2.28-0.79a36.51,36.51,0,0,0,3-2.14C382.45,581.94,381.78,580.59,381.78,577.76Zm-12.64-.25c-1.23-2.74-2-5.82.35-8,1.88-1.73,3.58-.28,4.42,1.26L376,569.2c0,4.32,0,8.42,0,10-0.13.12-.71,0.63-1.8,1.53C372.6,582.06,370.61,580.76,369.14,577.51Z" transform="translate(-126.91 -538.32)"/><path class="cls-1" d="M298.72,567.16c-3-2.25-5.29-2.94-8.1-.71-1.87,1.48-2.12,1.74-4.75,4-3,2.61-3.21,6.19-1.58,10.19,1.79,4.39,5.05,6,8.1,3.58,1.77-1.39,3-2.37,3.63-2.9v6.52c0,2.88,0,4.38-1.16,5a2.87,2.87,0,0,1-3.53-.66c-1-1-2.06-3-1.19-4,0.19-.23.05-0.53-0.23-0.23-1.84,1.94-2.54,2.67-4,4.23a1.26,1.26,0,0,0-.37,1.72,5.18,5.18,0,0,0,4.37,2.56c2.85,0.17,6.75-2.14,10.38-6.19,1.43-1.6,1.45-3.68,1.45-7.72V564.91Zm-4.51,13.53c-1.65,1.34-3.63,0-5.1-3.21-1.23-2.73-2-5.82.35-8,1.87-1.73,3.58-.28,4.42,1.26l2.13-1.55v10C295.93,579.24,295.35,579.76,294.21,580.69Z" transform="translate(-126.91 -538.32)"/><path class="cls-1" d="M237.33,578.11c0-1.12,0-2,0-5.63,0-2.14-.8-4.89-2.37-6.28s-3.74-1.88-5.63-.4-2.39,1.88-3.45,2.74c0-3.47,0-6.41,0-7.21,0-3.72-2.29-5.38-3.26-5.63s-1.24.14-2.28,0.79a36.27,36.27,0,0,0-3,2.14c2.13,0.42,2.79,1.77,2.79,4.61v19.87a4.22,4.22,0,0,1-.81,2.09h7.35a4.18,4.18,0,0,1-.81-2.09c0-.47,0-6.68,0-12.37,2.18-2.3,3.29-2.06,4.55-.95A3.82,3.82,0,0,1,231.6,573c0,4.21,0,5.82,0,7,0,3.72,2.29,5.38,3.26,5.63s1.25-.14,2.28-0.79a36.52,36.52,0,0,0,3-2.14C238,582.3,237.33,581,237.33,578.11Z" transform="translate(-126.91 -538.32)"/><path class="cls-1" d="M415.79,578.11c0-1.12,0-2,0-5.63,0-2.14-.8-4.89-2.37-6.28s-3.74-1.88-5.63-.4-2.39,1.88-3.45,2.74c0-3.47,0-6.41,0-7.21,0-3.72-2.29-5.38-3.26-5.63s-1.25.14-2.28,0.79a36.1,36.1,0,0,0-3,2.14c2.13,0.42,2.79,1.77,2.79,4.61v19.87a4.22,4.22,0,0,1-.81,2.09h7.35a4.18,4.18,0,0,1-.81-2.09c0-.47,0-6.68,0-12.37,2.18-2.3,3.29-2.06,4.55-.95a3.83,3.83,0,0,1,1.14,3.25c0,4.21,0,5.82,0,7,0,3.72,2.29,5.38,3.26,5.63,0.82,0.21,1.24-.14,2.28-0.79a35.9,35.9,0,0,0,3-2.14C416.45,582.3,415.79,581,415.79,578.11Z" transform="translate(-126.91 -538.32)"/><path class="cls-1" d="M314.93,566.15l-3.21,2.54a5.06,5.06,0,0,0-3-3.74c-0.83-.21-1.24.14-2.28,0.79a36,36,0,0,0-3,2.14c2.13,0.42,2.79,1.77,2.79,4.61v10.61a4.21,4.21,0,0,1-.82,2.09h7.36a4.19,4.19,0,0,1-.81-2.09c0-.84,0-10.29,0-12.52,0,0,0,0,0,0,1.16-1.19,2-1.42,3-.64s1.07,1.91,1.26,3.07c0.16,1,.33,1.21,1.16.88a4.85,4.85,0,0,0,2.79-6.79C318.74,564.18,317,564.5,314.93,566.15Z" transform="translate(-126.91 -538.32)"/><polygon class="cls-1" points="205.7 32.26 203.91 35.44 209.75 35.44 211.55 32.26 205.7 32.26"/><path class="cls-1" d="M475.94,578.23V561.88c0-3.73-2.29-5.38-3.26-5.63s-1.25.14-2.28,0.79a35.82,35.82,0,0,0-3,2.14c2.13,0.42,2.8,1.78,2.8,4.62,0,0.84,0,14.1,0,16.33,0,3.73,2.29,5.39,3.27,5.63s1.25-.14,2.28-0.79a36.12,36.12,0,0,0,3-2.14C476.6,582.42,475.94,581.07,475.94,578.23Z" transform="translate(-126.91 -538.32)"/><path class="cls-1" d="M466.66,572.65c-1.25.95-2.82,2.11-2.82,2.11a4.76,4.76,0,0,1-3.11,6.82c-2.2.56-4-.45-5.48-3.83a15.42,15.42,0,0,1-.56-1.53l7.22-5.61,0.13-.08c2-1.54,3.82-3,3.82-3h0l-0.09,0a8.28,8.28,0,0,1-2.9-1.47c-2.54-1.95-3.48-1.91-6.12.24-1.87,1.53-2.12,1.81-4.75,4.16-3,2.71-3.21,6.43-1.58,10.59,1.79,4.56,4.23,5.86,8.14,4,4.15-2,11.14-6.89,8.89-12.43C467.22,572,467,572.38,466.66,572.65Zm-11.06-3.22c1.56-1.44,2.93-.59,4.45.55l-5.78,4.49A5.42,5.42,0,0,1,455.59,569.42Z" transform="translate(-126.91 -538.32)"/><path class="cls-1" d="M432.89,566.32c-2.2-1.24-3.42-2-4.63-2s-2.43.8-4.63,2c-2.86,1.61-4.66,2.57-4.66,5.24v7.11c0,2.66,1.8,3.63,4.66,5.23,2.2,1.24,3.42,2,4.63,2s2.43-.8,4.63-2c2.86-1.61,4.66-2.57,4.66-5.23v-7.11C437.55,568.89,435.75,567.92,432.89,566.32Zm-1.13,14.34c0,2.6-1.08,3.3-3.16,2-1.06-.68-1.37-0.92-2.35-1.59-1.58-1.08-1.62-1.27-1.62-3.74v-7.74c0-2.6,1.08-3.3,3.16-2,1.06,0.68,1.38.92,2.35,1.59,1.58,1.08,1.63,1.27,1.63,3.74v7.74Z" transform="translate(-126.91 -538.32)"/><path class="cls-1" d="M446.24,562.88a1.83,1.83,0,0,1,.9-1.79l-6.62-4.87c0,0.91,0,4.87,0,9.31h-3v1.58h3c0,6.1,0,12.54,0,13,0,3.73,2.28,5.39,3.26,5.64S445,585.6,446,585a36.1,36.1,0,0,0,3-2.14c-2.13-.42-2.79-1.77-2.79-4.61V567.11h3.09v-1.58h-3.09v-2.65Z" transform="translate(-126.91 -538.32)"/><path class="cls-1" d="M323.95,561.8c5.79-3.46,3.47-8,2-8.69l-4.46,3.26S324.76,558.54,323.95,561.8Z" transform="translate(-126.91 -538.32)"/><path class="cls-1" d="M328.27,562.52l-6.62,4.86a1.83,1.83,0,0,1,.9,1.79c0,2.23,0,13.1,0,13.94a4.2,4.2,0,0,1-.81,2.09h7.35a4.2,4.2,0,0,1-.81-2.09C328.28,582.27,328.27,564.75,328.27,562.52Z" transform="translate(-126.91 -538.32)"/><path d="M374.06,634.5c-0.38,0-.71-0.07-1-0.07s-0.71,0-1,.07v-15a44,44,0,0,0-5.15.28c0-.23.07-0.47,0.07-0.71s0-.45-0.07-0.71H379c0,0.26-.07.47-0.07,0.71a6.87,6.87,0,0,0,.07.71,41.11,41.11,0,0,0-4.91-.28v15Z" transform="translate(-126.91 -538.32)"/><path d="M395,626.25c0.17,2.59-1.62,7.71-6.58,7.71-3.5,0-6.42-2.49-6.42-7.26s2.49-7.9,6.63-7.9a6.22,6.22,0,0,1,4.89,2.28A7.78,7.78,0,0,1,395,626.25Zm-6.65,8.48c5.24,0,9-3.43,9-8.67,0-5.64-4.49-8-8.91-8-4.86,0-8.69,3.24-8.69,8.39S383.18,634.73,388.37,634.73Z" transform="translate(-126.91 -538.32)"/><path d="M401.79,619.25a21,21,0,0,1,3.45,0,2.74,2.74,0,0,1,2.58,3,3.42,3.42,0,0,1-3,3.36,13,13,0,0,1-3,.12v-6.46Zm-2.07,15.2c0.33,0,.68-0.07,1-0.07s0.66,0,1,.07V626.6h0.89l1.88,2.21,2.77,3.6c0.49,0.66,1,1.32,1.48,2,0.42,0,.89-0.07,1.34-0.07s0.87,0,1.36.07l-0.45-.59-1.13-1.32-4.84-6.13c2.37-.42,4.82-1.74,4.82-4.46,0-2.37-1.6-3.57-5.22-3.57h-5v16.07Z" transform="translate(-126.91 -538.32)"/><path d="M427.54,626.25c0.17,2.59-1.62,7.71-6.58,7.71-3.5,0-6.42-2.49-6.42-7.26s2.49-7.9,6.63-7.9a6.22,6.22,0,0,1,4.89,2.28A7.78,7.78,0,0,1,427.54,626.25Zm-6.65,8.48c5.24,0,9-3.43,9-8.67,0-5.64-4.49-8-8.91-8-4.86,0-8.69,3.24-8.69,8.39S415.7,634.73,420.89,634.73Z" transform="translate(-126.91 -538.32)"/><path d="M446.11,634.45H445.4c-0.26-.33-0.73-0.89-1.22-1.43L434,621.79h-0.24v12.67c-0.23,0-.45-0.07-0.66-0.07a5.63,5.63,0,0,0-.66.07V618.38h0.92l11.16,12.1h0.23v-12.1a5.46,5.46,0,0,0,.66.07c0.21,0,.42,0,0.66-0.07v16.07Z" transform="translate(-126.91 -538.32)"/><path d="M455.39,634.5c-0.38,0-.71-0.07-1-0.07s-0.7,0-1,.07v-15a44,44,0,0,0-5.15.28,6.87,6.87,0,0,0,.07-0.71c0-.23,0-0.45-0.07-0.71H460.3c0,0.26-.07.47-0.07,0.71a6.87,6.87,0,0,0,.07.71,41.11,41.11,0,0,0-4.91-.28v15Z" transform="translate(-126.91 -538.32)"/><path d="M476.35,626.25c0.17,2.59-1.62,7.71-6.58,7.71-3.5,0-6.42-2.49-6.42-7.26s2.49-7.9,6.63-7.9a6.22,6.22,0,0,1,4.89,2.28A7.78,7.78,0,0,1,476.35,626.25Zm-6.65,8.48c5.24,0,9-3.43,9-8.67,0-5.64-4.49-8-8.91-8-4.86,0-8.69,3.24-8.69,8.39S464.51,634.73,469.7,634.73Z" transform="translate(-126.91 -538.32)"/></svg>