<svg id="Layer_1" data-name="Layer 1" xmlns="http://www.w3.org/2000/svg" xmlns:xlink="http://www.w3.org/1999/xlink" width="68.17" height="45.33" viewBox="0 0 68.17 45.33"><defs><style>.cls-1{fill:none;}.cls-2{clip-path:url(#clip-path);}.cls-3{fill:#231f20;}</style><clipPath id="clip-path" transform="translate(0 0)"><rect class="cls-1" width="68.17" height="45.33"/></clipPath></defs><title>Cadillac</title><g class="cls-2"><path class="cls-3" d="M46.16,40.67A29.28,29.28,0,0,0,53.3,34.3c0.53-.75.08-1.09-0.63-0.67-2.48,1.48-5.85,4.87-6.52,7M8,36.39c5.21-.16,9.65-1.65,14.36-3.87,3-1.39,4.31-2.84,4.12-3.62s-1.17-.65-2.23-0.49c-5,.72-12,4.26-15.33,7.15-0.32.28-.62,0.55-0.92,0.83M67.42,40.7l0.11,0.44a8.56,8.56,0,0,1-3.84,2.06,3.21,3.21,0,0,1-3.06-.48,2.06,2.06,0,0,1-.3-2.2c-2.87,2.61-4.52,2.88-5.08,2.4s-0.34-1.39.23-2.14a19.87,19.87,0,0,1-2.57,1.87c-1.23.7-1.91,0.43-2-.34a2.47,2.47,0,0,1,.43-1.47C48.83,42.89,47,43.3,45.88,43a1.43,1.43,0,0,1-.93-1c-3.21,1.65-5.84,1.55-6.4-.05-2,1-3.84,1.51-4.58,1.06-0.58-.35-0.83-1.07-0.25-2.22-2,1.78-3.79,2.79-4.7,2.21-0.56-.35-0.39-1.45.16-2.19a18.92,18.92,0,0,1-2.46,1.89c-1.22.73-1.94,0.46-2.06-.31a2.79,2.79,0,0,1,.43-1.57c-2.57,2.3-4.25,2.69-4.83,2.14a1.66,1.66,0,0,1,.24-2.11,19.87,19.87,0,0,1-2.57,1.87c-1.24.7-1.91,0.43-2-.34a2.76,2.76,0,0,1,.56-1.69C13.15,43.22,9,45.34,6.26,45.33c-3.45,0-4.44-2.41-3.2-5.29a10.68,10.68,0,0,1,2.3-3.13C2.22,36.71.78,36,.19,35-0.22,34.23,0,32.9,1.44,31.7c2.25-1.82,6.51-3,9.79-3.34a15.53,15.53,0,0,1,1.74-.1l0.3,0.53c-2.9-.26-8.24,1.08-10.51,3.07-1.56,1.37-1.45,2.63-.68,3.41,0.55,0.56,1.49,1,3.84,1.12q0.37-.33.77-0.65C11.41,32,19.05,28.64,24.18,28c1.34-.18,2.59-0.11,2.84.8,0.31,1.13-.89,2.89-5.08,4.92A37.5,37.5,0,0,1,7.4,37a18.42,18.42,0,0,0-2.63,3.26c-1.54,2.51-.83,4.57,1.62,4.58,3.42,0,8.06-3,11.13-5.65a11.37,11.37,0,0,1,1.86-1.31,9.44,9.44,0,0,1,2.38-1,5.19,5.19,0,0,1,3.85.23c-0.07,0-.22.14-0.33,0.23a24,24,0,0,0-4.41,4.5,0.63,0.63,0,0,0-.1.71c0.41,0.42,2.51-.59,5.45-3.36a7.7,7.7,0,0,1,1-.84,8.94,8.94,0,0,1,2.84-1.47,4.8,4.8,0,0,1,2.78-.1c0.92-.86,2.55-2.31,3.75-3.4,0.58,0,1,0,1.61,0a2.06,2.06,0,0,0-.29.2c-0.89.78-2.72,2.36-4.24,3.76a25.77,25.77,0,0,0-4.11,4.43c-0.23.39-.31,0.66-0.12,0.8,0.44,0.34,2.3-.59,5.07-3.07,1.12-1.16,2.44-2.36,2.91-2.77h1.65a4.25,4.25,0,0,0-.51.37,33.8,33.8,0,0,0-4,4c-0.62.87-.5,1.27-0.23,1.46,0.5,0.36,2.35-.1,4.1-1A4.47,4.47,0,0,1,39.23,39a16.56,16.56,0,0,1,6.13-5.42c1-.53,1.69-0.7,2-0.37s0.26,1-.3,1.8c-1.59,2.31-4.47,4.41-7.52,6.33-0.18,1.16,1.6,2.09,5.28.13a4.26,4.26,0,0,1,.81-2.47,18.09,18.09,0,0,1,6.18-5.42c1-.53,1.66-0.73,2-0.36s0.26,1-.3,1.8c-1.5,2.18-3.77,3.9-7.6,6.39-0.21,1,.5,1.64,2.45.69a22,22,0,0,0,4.25-3l0.42-.33,0.38-.29a10.53,10.53,0,0,1,3.22-1.58,5.18,5.18,0,0,1,3.85.23c-0.07,0-.22.14-0.33,0.23a23.3,23.3,0,0,0-4.41,4.49,0.61,0.61,0,0,0-.08.71c0.31,0.3,2.09-.23,5.3-3.25a12.42,12.42,0,0,1,1.2-1,9.89,9.89,0,0,1,3.32-1.71c1.21-.34,2.41-0.3,2.56.58,0.18,1.05-1.08,2-2.33,2.41l0-.46c0.92-.6,1.73-1.55,1.36-2.06-0.22-.3-0.84-0.26-1.75.14a10.13,10.13,0,0,0-3.53,3.19c-0.58.88-.7,1.78-0.26,2.19a2.15,2.15,0,0,0,2,.28,9,9,0,0,0,3.81-2m-8.69-3.51A1,1,0,0,0,58.08,37a3.25,3.25,0,0,0-1.26.34A15,15,0,0,0,52,41.47c-0.44.63-.45,0.94-0.32,1.06a1.13,1.13,0,0,0,.94-0.24,39.88,39.88,0,0,0,6.11-5.11m-19,3.42a29,29,0,0,0,7-6.17c0.65-.88.27-1.28-0.67-0.71-2.49,1.53-5.67,4.79-6.29,6.88m-16-3.42A1,1,0,0,0,23.1,37a3.26,3.26,0,0,0-1.26.34A15,15,0,0,0,17,41.47c-0.44.63-.45,0.94-0.32,1.06a1.13,1.13,0,0,0,.94-0.24,39.88,39.88,0,0,0,6.12-5.11m8.48,0A1.11,1.11,0,0,0,31.54,37a2.93,2.93,0,0,0-1.18.38,14.09,14.09,0,0,0-4.58,4.08c-0.43.64-.43,0.92-0.31,1a1.09,1.09,0,0,0,.94-0.23,37.32,37.32,0,0,0,5.81-5.09m7.71-1.28a0.87,0.87,0,0,1-1.17.07,0.83,0.83,0,0,1,.35-1.1,0.87,0.87,0,0,1,1.17-.07,0.84,0.84,0,0,1-.35,1.1" transform="translate(0 0)"/><path class="cls-3" d="M18.22,14.87c-0.11-.73-0.23-1.61-0.35-2.51l-4.71-.54-0.1-.59H26.42v3.65h-8.2ZM55.88,4.92l-0.21.34H45.92V3.84H61.41L61,4.4ZM12.55,8.17H35.83v2.47H35.2V8.8H18.09c0.07,0.59.14,1.22,0.21,1.88H17.67c-0.05-.46-0.11-0.91-0.15-1.34l-4.87-.55-0.1-.61m4.76-.58L17.25,7l-5-.53-0.1-.6H35.83V7.59H17.31Zm42.56,0-4.92.5-0.29,2.57H45.92V7H60Zm-1.14,6.67-0.1.57-4.6.52L53.9,16H36.52v-1.8H58.73Zm0.41-2.4-4.69.48-0.17,1.34H53.64l0.23-1.81H37.15v1.82H36.52V11.22H59.25ZM40,20.33c-0.88.16-1.88,0.28-2.88,0.46V17.26H52.76C52,18.12,49.88,18.58,40,20.33m10-1.26c2-.48,2.74-0.83,3.2-1.33l4.3-.44a1.29,1.29,0,0,0,.68-0.66H36.52v4.92c3.94-.65,11.37-2,13.49-2.49M19.06,17.66l-4.49-.49a1.23,1.23,0,0,1-.46-0.56H26.42v1.51H19.6a2.19,2.19,0,0,1-.54-0.46M35.83,2.85V5.26H35.2V3.47H16.31L17.4,5.29H16.66L15.89,4,10.6,3.47l-0.45-.62H35.83ZM27.09,20V15.42h8.74v6.18Zm0-7.67h8.74v1.28H27.09V12.38Zm9.43-4.21h8.74v1.3H36.52V8.17Zm0-5.32h8.74V6.42H36.52V2.84Zm28-1.72L61.12,5.88c-0.84,4.95-1.41,8.29-1.58,9.24-0.33,1.94-.56,2.81-2.45,3.3C54,19.21,46.18,21,36.16,22.56c-10-1.59-17.86-3.35-20.93-4.14-1.89-.49-2.12-1.36-2.45-3.3-0.16-.94-0.74-4.29-1.58-9.24L7.83,1.12H64.48ZM36.14,23.64c5.58-.87,16.71-3.07,21.59-4.24,3.47-.83,3.68-2.14,4-3.62L63.57,6l4.27-6H4.45L8.71,6l1.85,9.81c0.3,1.48.51,2.8,4,3.62,4.88,1.17,16,3.37,21.59,4.24" transform="translate(0 0)"/></g></svg>