<svg id="Layer_1" data-name="Layer 1" xmlns="http://www.w3.org/2000/svg" width="456.48" height="520.65" viewBox="0 0 456.48 520.65"><title>Babsocks</title><path d="M602.69,254.32a78,78,0,0,0,8.29,5.21c2.45,1.49,2.49,2.08.25,3.91a14.23,14.23,0,0,1-1.24.94c-1.22.8-1,1.34,0.19,2,2.81,1.53,5.58,3.13,8.34,4.74,2.29,1.34,2.28,1.57.18,3.15a12.79,12.79,0,0,1-1.27.9c-1.48.85-1.24,1.54,0.08,2.36,3.23,2,6.39,4.12,9.61,6.15,1.62,1,1.42,1.71-.27,2.33-2.27.84-4.5,1.77-6.78,2.58-1.42.51-1.55,1.13-.49,2.18,2.22,2.18,4.36,4.45,6.61,6.59,1.33,1.26,1.5,2.13-.3,3.1s-3.36,2.13-5,3.18c-1.25.78-1.18,1.43,0,2.31,3.56,2.74,7.08,5.53,10.59,8.34,1.77,1.42,1.65,2.09-.43,3-0.39.18-.81,0.29-1.22,0.43-4.69,1.62-4.69,1.62-1.74,5.45,2,2.6,4,5.19,6,7.8,1.54,2,1.34,2.53-1.09,3-0.56.1-1.35-.26-1.59,0.49s0.48,1,.87,1.47c2,2.25,4.08,4.47,6.09,6.73,0.55,0.62,1.46,1.17,1.12,2.17s-1.31,1-2.17,1.13c-2.14.31-4.26,0.76-6.41,0.91a9.68,9.68,0,0,0-6.66,3.56A96.59,96.59,0,0,0,613.57,365c-4.25,7-9.55,13-16.61,17.12-8.83,5.19-18.26,8.59-28.71,8.42-5.17-.09-10.34.17-15.29-2-2.1-.91-4.52-0.16-6.63.47-3.8,1.14-7.47,2.69-11.2,4.07-1.34.5-1.13,1.46-.84,2.56a196.75,196.75,0,0,1,5,24.34c1.12,8.59,1.67,17.31.08,25.82-1.25,6.72-4.77,12.77-8.9,18.28a79.39,79.39,0,0,1-13.86,13.92c-10.64,8.61-22.52,15.43-33.35,23.76-16.74,12.87-32.6,26.75-48.13,41-2.92,2.69-6.08,5.12-9.09,7.72a47.52,47.52,0,0,1-17.23,9.22,136.4,136.4,0,0,1-46,6.45c-5.4-.2-10.85-0.34-16.08-2.28a23.48,23.48,0,0,1-11.24-8.77c-9.48-13.38-17-27.9-24.38-42.46-14.22-28-26.84-56.7-39.5-85.4-5.33-12.09-10.7-24.18-14.22-37-2.73-9.92-4.73-20-6.77-30.07-1.18-5.84-4.33-10-8.68-13.65-3.12-2.61-6.11-5.35-9.24-7.94-3.64-3-6.14-6.81-6.44-11.44-0.59-9-4.62-16.7-8.35-24.56-8.12-17.1-16.07-34.28-24.44-51.24-5.58-11.31-8-23.26-9.08-35.65-0.57-6.62-1.6-13.23-1.39-19.88,0.5-15.64,4.55-30.21,14.13-42.84a134.08,134.08,0,0,1,9.19-10.21c13.93-14.91,28-29.7,43.62-42.87,16.53-14,33.68-27.12,53-37,12.84-6.57,26.33-11.18,40.85-12.63,7.74-.77,15.48-1.64,23.23-1.74,16.32-.21,32.49.92,47.6,8a2.9,2.9,0,0,0,3.12-.22,71.36,71.36,0,0,1,36.85-10.67c10.09-.23,20,0.41,29.54,4.18A57.73,57.73,0,0,1,496.55,57c13.1,9.39,23.29,21.55,32.47,34.62,11.64,16.58,20,34.86,28.1,53.34A450.76,450.76,0,0,1,578,203.45c1,3.71,3.43,6.59,5.72,9.48,1.9,2.4,1.91,4.51.22,6.79-1.4,1.88-1.18,3.14,1,4.17s4.21,2.4,6.39,3.42c1.8,0.84,2,1.71.94,3.37-1.73,2.73-1.64,2.78,1.33,3.93,3.46,1.34,6.92,2.71,10.38,4.05,1.61,0.62,1.87,1.33.31,2.41-1,.68-1.81,1.63-2.82,2.28-2.17,1.38-1.51,2.19.38,3.08,2.18,1,4.29,2.24,6.41,3.4,0.51,0.28,1.23.46,1.23,1.2s-0.82,1-1.44,1.27C606.44,252.93,604.6,253.16,602.69,254.32ZM280.64,306.38c-2.09-8.72-2.23-17.34-2.25-26,0-.62-0.31-1.65.56-1.75s1,0.95,1.22,1.66a6.68,6.68,0,0,1,.09,1c0.45,4.2.87,8.41,1.46,12.6,1.22,8.72,3.63,16.74,11.22,22.19a3.52,3.52,0,0,1,.85,1,38.61,38.61,0,0,1,5.75,24.52c-0.66,8-4,15.55-4.1,23.89-0.12,13.64-.74,27.28-0.67,40.94,0,6.92,2.06,12.65,7.85,16.84a31.88,31.88,0,0,0,8.77,4.37c5,1.67,9.52.25,12.46-4.1,1.49-2.21,2.48-4.76,3.94-7a15.28,15.28,0,0,1,11.4-7.19c4.07-.47,8.09.52,12.16,0.5,7.11,0,10.77-5.33,8.2-11.91a60.5,60.5,0,0,0-10.47-18.08c-0.43-.49-1.2-1-0.71-1.77s1.4-.27,2.08,0,1.38,0.71,2.06,1.1c7,4,13.95,8,20.64,12.47,17,11.32,30.1,25.81,37.1,45.3,0.44,1.21,1.77,3.05.55,3.67s-2-1.51-2.67-2.61c-7.61-11.56-15.36-23-25-33a10,10,0,0,0-4.87-3.26c-6.87-1.61-11.7.6-14.34,7.15a9.84,9.84,0,0,1-7.24,6.33,44.41,44.41,0,0,1-8.21,1.06c-5.31.33-9.8,1.76-13.24,6.3a55.4,55.4,0,0,1-8.55,8.65,13.1,13.1,0,0,1-9.85,2.93,31.27,31.27,0,0,1-14.17-4.54c-1.63-1-2.36-.46-2.61,1.25a120.37,120.37,0,0,0-1.63,13.88,129.36,129.36,0,0,1-1,14.2c-0.09.65-.11,1.56-1,1.5-0.73,0-.71-0.87-0.82-1.45-2.16-11.14-3.84-22.32-2.48-33.7a5.8,5.8,0,0,0-1-4.34,16.34,16.34,0,0,1-2.81-8.21c-0.46-5.71.3-11.39,0.16-17.09-0.09-3.88.16-7.77,0.31-11.66,0.29-7.56.36-15.14,1.71-23.47-2.8,2.3-5.25,3.87-8.23,4.21a41.15,41.15,0,0,1-19.37-2.24c-0.73-.27-2.06-0.38-1.7-1.49s1.53-.51,2.31-0.39c4.39,0.66,8.77.32,13.18,0.2,7.45-.21,10-6.36,14-11a15.92,15.92,0,0,1-12.64,6.3c-5,.11-9.88-0.07-14.24-3,4.61-.28,9.19.56,13.78-0.3,4.27-.8,10.31-5,10.76-7.95a6.77,6.77,0,0,0-2.88,1.07c-6.83,3.27-13.92,3.59-21.25,2.15-2.67-.52-4.59-2.34-7-3.34-0.54-.23-1.16-0.69-1.71-0.28s-0.15,1.13,0,1.68c0.7,2.61.84,5.1-1,7.37a3.84,3.84,0,0,0-.39,3.48c1,4.29,1.94,8.59,3,12.88,3.2,13.36,6.38,26.71,11.74,39.44,15.06,35.77,30.72,71.27,48.29,105.89a339.29,339.29,0,0,0,21.25,36.19c3.66,5.43,8.69,7.88,14.81,8.86A80.89,80.89,0,0,0,375,561c12.05-1.2,24-2.72,35.48-6.91,4.79-1.75,7.53-4.41,9.09-9.19,4.06-12.4,8.49-24.67,12.77-37a2.32,2.32,0,0,1,2-2.09l-8.24,38.37c6.38-5.09,12-10.2,17.54-15.37,13.68-12.74,27.79-24.94,43-35.77,9-6.4,18.65-11.91,27.17-19,6.94-5.81,13.38-12,17.24-20.41,2.14-4.64,4.36-9.45,4.42-14.53a141.87,141.87,0,0,0-3.89-32.59c-1.53-6.81-3.93-13.49-4.13-20.54a132.73,132.73,0,0,0-4.11-29.17,40.42,40.42,0,0,1-1.24-8.43c-0.32-8.12,1.13-16,2.77-23.87a2.79,2.79,0,0,1,2.19-2.54,9.87,9.87,0,0,1-.18,3.71c-1.49,9-2.46,18.09-.24,27,2.74,11,5.4,22,5.66,33.37,0,1.57.94,1.55,2.12,1.29,6.3-1.37,12.24-3.37,17.24-7.77a23.86,23.86,0,0,0,8.5-15.74c0.47-4,.83-8.06,1.21-12.1,0.51-5.37,0-10.51-2.57-15.33-0.36-.67-1.15-1.36-0.42-2.46,2.6,0.92,3.12,3.55,4.51,5.41,0.45,0.61.6,1.7,1.41,1.71,1,0,1.21-1.15,1.53-1.88,1.94-4.34,3.78-8.72,5.71-13.06a13.83,13.83,0,0,0,1-4.24c0.67-6.19.83-12.41,1.15-18.62a305,305,0,0,0-.26-42.45,21,21,0,0,0-6.8-14.16c-3.91-3.56-5.19-3.6-9.84-1.15-1.94,1-3.51,2.85-5.92,3-2.16.1-4.31,0.23-6.47,0.31-4.16.17-4.21,0.29-2.21,4,0.6,1.1,1.1,1.64,2.35.75a15,15,0,0,1,3.24-1.62c5.39-2.08,14.76-1.7,18.11,6.36a33.27,33.27,0,0,1,2.72,10.74c0.46,7.58,1,15.17,1.37,22.75,0.32,6,.6,12.08.7,18.13a10.85,10.85,0,0,1-3.75,8.49c-3.28,3-7,5.29-10.59,7.9-0.37.27-.82,0.74-1.59-0.25,2.36-2.37,4.81-4.76,7.17-7.21a17.57,17.57,0,0,0,5.38-13.28c-0.1-2.68-.19-5.34-0.55-8-1.49-11.06-4.56-21.6-10.23-31.29-1.42-2.43-3.12-4.54-6.33-4.66-2.59-.1-3.19.63-2.3,3,0.21,0.55.68,1.11,0.17,1.68a1.63,1.63,0,0,1-1.71.2c-0.67-.15-1.33-0.38-2-0.56-1.31-.35-2.87-1.19-3.77.36-1.29,2.23-3.7,4.36-2.66,7.18,0.78,2.12,1,2.94-1.86,2.22,1.57,4.67,4.26,8.27,7.09,11.74a5.59,5.59,0,0,0,4.17,1.82c1.71,0.08,3.54.05,5.06,0.87,3.9,2.1,7.28,9.37,6.6,13.79a21,21,0,0,1-8,13.43,67.18,67.18,0,0,1-9.59,6.62,7.75,7.75,0,0,0-4.38,6A20.57,20.57,0,0,1,532.94,340c-0.65.84-1.13,2.34-2.5,1.66s-1-2-.61-3.24c0.61-1.71,1.21-3.42,1.86-5.11a25.37,25.37,0,0,0-.28-19.88,63.07,63.07,0,0,0-6.49-10.88c-0.5-.73-1.46-1.5-0.57-2.5s1.85-.45,2.82,0c2.05,1.06,3.68,2.71,5.74,4.26-0.29-6.46-.57-12.57-0.86-18.69,0-.74.12-1.81-1-1.72-3.72.27-7.49,0-11.49,1.11,2.63,3.38,5.07,6.51,7.5,9.64,2.11,2.72,2,3-1.33,3.51-2.14.3-4.26,0.74-6.4,0.94-1.82.17-2.16,0.93-1.61,2.58,1.33,4,2.52,8.09,3.85,12.1a2.35,2.35,0,0,1-1,3.09c-10.28,7.17-20.33,14.67-30.78,21.6-1.82,1.21-2.55,1.1-3-1.28-0.84-4.66-1.88-9.29-3.09-13.87-4.37-16.54-9.27-32.89-17.53-48-2.9-5.31-6.39-10.24-12.1-12.71A82.76,82.76,0,0,0,436,257.25a237.51,237.51,0,0,1-40.08-11.09,72.56,72.56,0,0,1-33-24.54c-5.17-6.79-10.33-13.39-18.71-16.54-5.74-2.16-11.48-3.57-17.67-2.51-5.7,1-10.43,4-15.28,6.83-10,5.79-20.09,11.14-31.25,14.33-12.31,3.52-24.64,4.41-37,.31-9.67-3.21-19.26,1.66-24.5,9.4-5.06,7.47-4.45,15.91-3.71,24.06,1,10.8,5.2,20.91,8.59,31.15,1.76,5.33,3.89,10.56,4.68,16.15,0.33,2.32,1.42,2.66,3.33,2.25a14.49,14.49,0,0,1,8.75,1c-1.78.92-3.49,0.71-5,1.15-6.81,1.91-6,.67-5.29,7.64,0.13,1.37.61,1.7,2,1.43a165.57,165.57,0,0,1,18.65-3c8.87-.68,17.76-1.14,26.62.17,3.74,0.55,7.46,1.21,11.79,1.92-2.91-4.16-5.83-7.35-10.76-7.83-5.33-.52-10.66-1-16-1.48-0.53-.05-1.3.11-1.31-1.14C267.35,305.48,273.92,305.69,280.64,306.38ZM467.57,183.62l0.17,0.55a14.26,14.26,0,0,0,2,0c4.26-.62,8.5-1.29,12.76-1.9,0.9-.13,2-0.51,2.58.54s-0.6,1.48-1.12,2.09c-2.07,2.44-4.18,4.84-6.25,7.27-0.34.4-1.22,0.7-.63,1.44a1.76,1.76,0,0,0,1.69.33Q490.38,193,502,192c1.14-.09,2.2-0.17,1.49,1.6-0.78,1.94,0,2.07,1.8,1.67,10.35-2.28,20.72-4.4,31.09-6.59,0.74-.16,1.63-0.68,2.1.18s-0.41,1.36-1,1.84c-0.41.32-.8,0.66-1.22,1q-15,11.3-30,22.6c-0.5.38-1.28,0.6-1.17,1.47a3.57,3.57,0,0,0,2.23.63c4.24,0.14,8.43-.5,12.64-0.79,0.77-.05,1.6-0.43,2.19.24,0.75,0.86,0,1.64-.39,2.35-0.91,1.73-1.91,3.42-3.22,5.74a37.08,37.08,0,0,1,9.82-.79c2.52,0,3.18,1.17,2,3.44-0.27.54-.65,1-0.93,1.55s-1.07,1.15-.59,1.84,1.44,0.45,2.17.32a17.43,17.43,0,0,1,5.85-.49c-9.73,7.35-19.73,13.2-29.12,20.83,2-.11,3.37-1.13,4.93.06-3.84,3.77-8.76,6.14-12.13,10.47,1.31,0.24,2.14-.94,3.2-0.38,0.3,0.76-.28,1.16-0.61,1.61-2.53,3.39-5.15,6.72-7.63,10.14s-4.6,7-3.52,11.63c0.61,2.59-1.26,4.95-1.13,7.6s0.4,5.19-.56,7.7c-0.3.79-.19,1.42,0.8,1.44,2.44,0.06,1.95,1.74,1.68,3.14-0.3,1.55-1,3.71,0,4.49,2.36,1.94,1.06,4,.95,6.06-0.09,1.63-.76,3.43.22,4.79,1.14,1.57,1.16,3.18,1.14,4.9,0,1.52,0,3,0,4.82a7.75,7.75,0,0,0,1.22-.53c6.45-4.65,12.88-9.33,19.35-14a2.28,2.28,0,0,0,.84-3.11c-1.39-3.63-2.73-7.28-4-10.94-1.08-3-.34-4.3,2.85-5,1.43-.29,2.9-0.43,4.36-0.6,1.66-.2,2.13-0.71.89-2.22-2.51-3.08-4.89-6.27-7.3-9.44-1.2-1.57-.88-2.43,1.19-2.69a86.62,86.62,0,0,1,8.79-.5c0.78,0,1.72,0,2.14-.66s-0.4-1.4-.83-2c-2.72-3.69-5.5-7.33-8.21-11-0.68-.93-2.22-2-1.5-3,0.91-1.35,2.35,0,3.47.39,3.53,1.21,7,2.57,10.49,3.88a89.64,89.64,0,0,0-5.46-10c-0.34-.56-0.95-1.16-0.34-1.86s1.16-.24,1.71-0.09c3.59,1,7.16,2,10.76,2.91,1.86,0.47,3.66,1.3,5.93,1.25l-5.6-11.69c-1.43-3-1.42-3.15,1.74-3.51a18.05,18.05,0,0,0,7.23-2.57c6.42-3.75,12.91-7.36,19.37-11,1.08-.61,2.11-1.17,3.4-0.58,2.44,1.11,4.89,2.18,7.35,3.26,0.9,0.4,1.66.93,0.67,1.88-1.3,1.25-.52,1.82.56,2.53,3.46,2.28,6.87,4.65,10.34,6.92,1.33,0.87,2.05,1.69.36,2.85-1.5,1-1.3,2,0,3,0.74,0.59,1.38,1.31,2.07,2,3.66,3.46,3.68,3.48-.09,6.87-0.85.76-1.38,1.21,0,2,2.69,1.48,2.65,1.55.26,3.37a2.51,2.51,0,0,0-.33.7l15.67,7.56c-4.39,1.73-8.88,1-13.22,2.08,1,1,2.53,1.12,3.27,2.57-0.76.26-1.46,0.53-2.17,0.74s-1.71.22-1.62,1.28c0.06,0.83.91,0.91,1.58,1.08,1.92,0.49,3.86,1,5.77,1.49s1.73,1.67.44,2.71a7.57,7.57,0,0,1-2.34,1c-1.64.55-3.3,1-4.95,1.55A40.07,40.07,0,0,0,597,290c1.37,0.39,3.58.08,3.88,1.43s-2.25,1-3.14,2.36c2.07,1,4.11,1.89,6.11,2.87,0.74,0.36,2.06.44,2,1.37-0.1,1.15-1.51.88-2.34,1.08-3.25.77-6.53,1.39-10.38,2.19,1.27,0.71,2,1.09,2.72,1.54,1.15,0.72,3.22.9,3.28,2.19s-2.06,1.48-3.16,2.24c-0.74.52-1.8,0.57-2.36,1.63l13.66,7.3c-0.68,1.21-1.63,1.15-2.43,1.36-2.26.59-4.52,1.14-6.78,1.72-0.86.22-1.68,0.67-.59,1.5,1.78,1.35,1.21,2.1-.45,2.83s1.58,3-1.1,3.38a9.89,9.89,0,0,0-2.45.83c-0.64.29-1.55,0.17-1.93,1.14,4.58,2.16,9.44,3.61,14.19,6.17-2,1.12-3.74,1-5.38,1.49-0.75.2-1.9,0-1.57,1.45,0.19,0.82-.48,1-1,1.23-1.15.59-2.26,1.26-3.41,1.86s-1.12,1.12-.08,1.84,3.3,1.19,3.1,2.35c-0.25,1.48-2.53.79-3.77,1.46a1.59,1.59,0,0,0-.2.55c4.18-1,8.15-1.06,11.93,1.1,1.27,0.72,1.34,1.24.1,1.92a162.89,162.89,0,0,0-16,9.89c2,0.39,4.15.77,6.24,1.19,1.61,0.33,2.11,1,.8,2.42a13.75,13.75,0,0,1-3,2.44,2.58,2.58,0,0,0-1.41,2.57c0.11,1.28,1.17,1,2,1.13,1.16,0.15,1.29.8,0.67,1.6-3.72,4.8-7.54,9.51-13.56,11.63-2.5.88-5,1.71-7.55,2.56a52.67,52.67,0,0,0,14.13-4c7.17-3,13.52-7.16,18.25-13.6,4-5.52,7.62-11.34,11.3-17.08,2.95-4.6,6.66-7.61,12-8.54,1.56-.27,1.76-0.83.7-2-2-2.15-4-4.28-5.94-6.51-1-1.19-2.87-2.33-2-4.14,0.82-1.63,2.66-.5,4-0.57a0.59,0.59,0,0,0,.21-0.15,1.61,1.61,0,0,0-.59-1.37c-2.09-2.87-4.24-5.68-6.29-8.58-1.34-1.89-.94-2.93,1.26-3.65,0.57-.19,1.17-0.31,1.75-0.49s1.16-.06,1.33-0.63c0.23-.77-0.56-1-1-1.31-3-2.31-6.09-4.56-9.08-6.91-2.22-1.74-2.09-2.92.37-4.19,1.69-.87,3.39-1.73,5.12-2.51,1.5-.67,1.46-1.39.39-2.49-2.47-2.54-4.89-5.13-7.31-7.72-1.86-2-1.73-2.43.8-3.27,2.08-.69,4.34-0.88,6.28-2.11a5.21,5.21,0,0,0-2.36-1.81q-3.58-2.1-7.19-4.14c-1.74-1-1.67-2-.14-3.13,1.1-.79,2.23-1.54,3.57-2.45-0.71-.44-1.12-0.74-1.57-1-2.88-1.38-5.81-2.68-8.65-4.14-1.88-1-1.86-2.09-.11-3.21,0.29-.19.61-0.32,0.91-0.49,2.5-1.38,2.51-1.44,0-3-2.7-1.71-5.43-3.38-8.13-5.09a1.9,1.9,0,0,1-1.22-1.82c0.12-1,1-1.15,1.7-1.36,1.26-.35,2.55-0.63,4.33-1.06-2.71-1.72-4.87-3.12-7.06-4.46-2-1.24-1.76-2.5-.08-3.76,1.14-.86,2.34-1.63,3.81-2.64-3.72-1.35-7.09-2.61-10.48-3.8-1.82-.64-2.43-2.1-1.4-3.42,2.33-3,.26-3.91-1.91-5-0.77-.38-1.49-0.87-2.24-1.31-5.18-3-5.25-3.09-1.89-7.89,1.17-1.67,1.24-2.87.05-4.59-2-2.82-4.43-5.42-5.43-8.77a435.13,435.13,0,0,0-17-46.18c-8.64-20.18-17.29-40.34-29-59.06a138.79,138.79,0,0,0-35.56-39c-9.85-7.26-20.55-11.45-33-10.79-6.05.32-12,.9-18,1.75a46.21,46.21,0,0,0-25.81,12.09c-1.16,1.09-2.65,1.86-3.71,3.57,4.1-.83,7.86-1.7,11.66-2.35,5.25-.9,10.45-2.22,15.83-2.29,0.74,0,1.76-.12,1.81.94,0,0.86-.92.89-1.55,1.1s-1,.27-1.5.39c-5.78,1.39-11.6,2.64-17.33,4.19-6.11,1.66-12.33,3-18.17,5.65,3.88,0.18,7.73,0,11.56.66,1.17,0.19,2.89-.11,3.11,1.19s-1.57,1.46-2.62,1.91a3.38,3.38,0,0,1-.49.18,161.24,161.24,0,0,0-21.22,7.48c-2.34,1-4.79,1.78-6.8,3.53a1.42,1.42,0,0,0,1.37,0,70.6,70.6,0,0,1,18.6-2.77c10.58,0,20.88,2.13,31.06,4.82,1,0.26,2.66.27,2.6,1.64-0.07,1.55-1.87,1.07-2.89,1.52a2.57,2.57,0,0,1-1,.07,60.79,60.79,0,0,0-11.29,1.25c-19,3.18-37.42,8.67-55.63,14.87a10.55,10.55,0,0,0-3.64,1.82,1.51,1.51,0,0,0,1.6.18c5-1.06,9.93-2.13,14.91-3.17,1-.22,2.55-0.82,2.93.49s-1.3,1.56-2.22,2.08a17.54,17.54,0,0,1-1.68.68L373,117.51A60,60,0,0,0,386.09,116c1.17-.23,3.09-1.52,3.63.13,0.43,1.31-1.71,1.61-2.82,2.09-7.49,3.25-14.58,7.33-22.29,10.39,4.85,0,.56,2.2.82,3.17,1.22,0.31,2-.33,2.84-0.71a46.48,46.48,0,0,1,5.89-2.65,107.53,107.53,0,0,1,26.38-4.74c11.55-.4,23.13-0.5,34.61,1.43,0.69,0.12,1.81-.28,1.87.84s-1,1-1.72,1.17-1.34.32-2,.48c-7.14,1.63-14.32,3.07-21.4,4.94-10.54,2.78-20.43,7.41-30.56,11.34-2.92,1.13-5.79,2.38-9,3.69,1.47,0.77,2.61-.07,4.32.61l-12.63,8.28a9.36,9.36,0,0,0,3.41.09c1.34-.17,3.21-0.93,3.84.21s-1.26,2-2.1,2.88c-2.12,2.25-4.34,4.4-7,7.08,3-.36,5.1-1.35,7.94-1.27-3.9,3.86-8.27,6.39-11.86,9.85a11.92,11.92,0,0,0,2.46-.75c7.62-3,15.41-5.59,23.27-7.91a382.49,382.49,0,0,1,47.18-10.26c3.32-.54,6.63-1.09,10-1.57,0.7-.1,1.76-0.38,2,0.6,0.3,1.14-.84,1.33-1.59,1.66-0.55.24-1.15,0.36-1.72,0.55a174,174,0,0,0-24.2,9.85,10.07,10.07,0,0,0-3.12,2.27c-0.41.46-1.4,0.75-.89,1.61a1.71,1.71,0,0,0,1.91.45c2.2-.39,4.39-0.87,6.59-1.31l11-2.22c-1.66,2.37-3.62,3.35-5.19,4.76a1.66,1.66,0,0,0-.82,1.76c0.29,0.86,1.11.66,1.78,0.68,1.17,0,2.57-.43,3.21,1,1.3,2.92,3.42,2.91,6,1.93,1.28-.49,2.64-0.79,4-1.2a489.29,489.29,0,0,1,53.11-13.43c1.07-.21,2.53-0.75,3.06.39,0.66,1.42-1.09,1.63-1.89,2.28a7.2,7.2,0,0,1-.67.4Zm-99.34-107c-7.43-3-14.83-5.89-22.38-8.37-1.06-.35-2.92-0.47-2.64-1.91s2.06-.92,3.17-0.84c12.22,0.91,24.44,1.89,36.67,2.85,1.33,0.1,2.69.54,4.2-.51-1.94-1.29-4.31-.85-6.54-2.47,9.05-3.28,18.32-3.74,27.12-7.14a12.21,12.21,0,0,0-1.46-.72c-10.35-3.18-21-3.93-31.74-3.93-6.55,0-13.11.59-19.64,1.22a182.58,182.58,0,0,0-26.56,4.31c-16.3,4.06-30.61,12.44-44.19,21.81-28.38,19.58-53.34,43.09-76.33,68.71-7,7.77-14,15.51-16.89,26.06-1.86,6.79-3.5,13.57-3.32,20.61s0.81,13.79,1.26,20.69c0.6,9.28,2.24,18.31,6.28,26.81,6.56,13.82,13,27.72,19.54,41.53,2.15,4.5,3.73,9.23,5.92,14.08,0.27-1.72-.36-2.91-0.66-4.15-1.81-7.49-5.47-14.37-7.24-21.88-3-12.87-5.81-25.71-.89-38.89-3.19,1.55-6.28,3.09-9.4,4.56-0.7.33-1.56,1.31-2.26,0.37-0.52-.7.39-1.41,0.85-2a79.94,79.94,0,0,1,10.75-11.21c3.87-3.31,8-6.07,13.1-6.95,2.81-.48,5.63-0.24,8.5-0.48-2.79-1.17-5.62-2.15-8.44-3.13-6.11-2.12-12.43-1.76-18.74-1.57-0.73,0-1.77.31-1.93-.74-0.12-.81.82-1,1.43-1.27,3-1.37,5.92-2.87,9-4.06,8-3.09,16.23-5.12,24.76-4.86a68.2,68.2,0,0,1,21.47,4.5,9.4,9.4,0,0,0,3.85,1c-1.28-1.53-2.32-2.79-3.38-4-8.09-9.44-17.49-16.67-30.37-18.07-0.73-.08-1.82,0-1.8-1s1.19-1.12,2-1.22a90.44,90.44,0,0,1,17-.73c10.63,0.64,20.4,3.35,29.05,9.69,1.35,1,2.85,1.77,4.43,2.73,0.2-1.43-.73-1.82-1.24-2.43a49.15,49.15,0,0,0-8.73-7.71c-8.36-6.09-17.45-9.91-28.09-9.78a76.23,76.23,0,0,0-23.63,4.09c-1.91.64-3.84,1.22-6.13,0.24,20.27-12,41.81-15.68,64.88-12.36-8.49-4.91-17.6-6.08-27-6.25a138,138,0,0,1,30.62-9.67,54.36,54.36,0,0,0-7.9-2.09c-1.12-.24-3,0.17-3.19-1.11s1.58-1.59,2.55-2.23c3.08-2.06,6.43-3.78,8.42-7.12,0.34-.58,1-1.15.7-1.85s-1.23-.42-1.86-0.38c-1.81.1-3.61,0.34-5.42,0.46-12.42.82-24.78,2.08-36.8,5.56-1.92.56-3.88,1.26-6.05,0.59a140.26,140.26,0,0,1,68.27-21.42,29.69,29.69,0,0,0-4.47-2.32,1.4,1.4,0,0,1-1.13-.95,1.34,1.34,0,0,1,1.28-1.09c1.83-.49,3.68-0.94,5.53-1.37l14-3.28c-5-2.7-10.15-4.76-15.18-7-1.43-.63-4-0.68-3.94-2.3s2.43-2.41,4.13-3.06q10.78-4.11,21.55-8.24c1-.4,2-0.9,3-1.35-10.59,1.48-20.64,5-31.2,6.05a1,1,0,0,1,.58-1.24c13.16-5.88,27.11-9,41.89-11.41a97.18,97.18,0,0,0-13.85-.61c-6.92,0-13.83,0-20.75-.07-0.64,0-1.6.26-1.79-.6s0.8-1.25,1.5-1.45a66.84,66.84,0,0,1,6.78-1.69c11.7-2,23.53-2.26,35.35-2.82C352.35,77.44,360.31,77.78,368.23,76.65Zm26.84-7.89-0.14-.34c-0.75.31-1.51,0.62-2.26,0.94-11.82,5.15-22.29,12.55-32.58,20.13a111.89,111.89,0,0,0-23.83,24c-8.59,11.7-12.63,25.29-15.49,39.23-1.91,9.3-2.67,18.79-3.65,28.24a158,158,0,0,0-.59,18.9c0,0.73-.52,1.86.9,2a3.67,3.67,0,0,0,4-3.33c0.13-5.52.17-11,.41-16.56a170.16,170.16,0,0,1,4.8-34.73c2.65-10.44,6.15-20.61,12-29.63,5.65-8.75,12-17.07,20.18-23.82,7-5.78,13.78-11.77,21.76-16.24C385.48,74.84,390.23,71.72,395.07,68.76ZM278,324.65a123.58,123.58,0,0,0-21.44,1,47.76,47.76,0,0,0-19.13,6.74c-2,1.3-1.86,2.41-.19,3.74,0.2,0.16.4,0.32,0.6,0.5,5,4.43,11.2,7.61,14.63,13.74a1.12,1.12,0,0,0,.79.53,0.83,0.83,0,0,0,.72-0.91,4.43,4.43,0,0,0-.63-3.22c-0.86-1.19-1.73-2.38-2.52-3.61-3.08-4.77-2-9.73,2.89-12.62,4.22-2.5,9-3.52,13.71-4.48,0.77-.16,2-0.57,2.31.39s-1,1.17-1.73,1.52c-4.09,2-8.53,3.29-12.2,6.19-2.21,1.75-2.89,3.37-2,6,0.28,0.83.56,1.79,1.49,1.94s1.19-.86,1.64-1.45c3.84-5.06,8.51-9.15,14.6-11.11a43.64,43.64,0,0,1,19.17-1.65c0.69,0.09,2,.86,2.08-0.54,0.08-1.12-.17-2.51-1.81-2.68a18,18,0,0,0-1.81,0H278Zm-3.05,20.79a10.46,10.46,0,0,1-3.54-10.88c0.3-1.32-.14-1.69-1.29-1.09-3.35,1.76-6.59,3.67-9.08,6.65-1.28,1.53-1,2.48.62,3.45C265.72,345.93,270.09,345.91,274.92,345.43Zm4.45-14.67a2.91,2.91,0,0,0-2.89,3,3,3,0,0,0,3,3.45,2.92,2.92,0,0,0,3.17-3A3.11,3.11,0,0,0,279.37,330.76Zm245.2-60.12,7.24,10c0.8-6.92.8-6.92-5-9.21Z" transform="translate(-183.04 -45.67)"/><path d="M364.91,333.77c3.08-1.1,6-1.2,8.8-1.6,7.18-1,14.36-2,21.43-3.7,7.83-1.84,11.94-8.15,13.84-15,0.73-2.66-1.19-5.28-3.82-6.34a1.9,1.9,0,0,0-1.88.35c-2.64,1.47-5.37,2.79-8,4.32-7.4,4.37-15.68,5.65-24,7A152.25,152.25,0,0,0,348.91,324a16.22,16.22,0,0,1-2.26.55,0.8,0.8,0,0,1-1.08-.41,1.19,1.19,0,0,1,.33-0.91c8.54-9.13,15.33-20.34,28.25-24.36a39,39,0,0,1,23.45-.45,3.49,3.49,0,0,1,1.18.5c4.17,3.39,9,6,12.47,10.24,0.32,0.39.59,1,1.15,0.88,0.83-.24.43-1,0.36-1.55-0.66-5.39-4.29-8.26-8.85-10.24-10.05-4.38-20.42-5.88-31.05-2.53-5.37,1.69-10.18,4.68-15.08,7.45-4,2.24-7.69,5.07-12.26,6-3.74.79-7.57,0.48-11.35,0.17-1-.08-2.17-0.23-2.56-1.45s0.77-1.78,1.5-2.45c4.19-3.84,9.21-6.44,14.13-9.12,10.31-5.62,20.66-11.24,32.29-13.83a59.43,59.43,0,0,1,17-1c7.5,0.5,15,1.18,22.4,2.3,4.37,0.66,4.71,1,4,5.3-0.84,4.91-3.13,8.94-9.13,9.07-0.54,0-1.41-.21-1.4.69s0.8,1.08,1.52,1a14.86,14.86,0,0,0,9.83-5.2c3.7-4.1,7-8.59,10.44-12.88,0.37-.46.68-1.51,1.53-0.85,0.57,0.44,0,1.12-.31,1.61-2.41,3.89-4.72,7.86-7.29,11.64-2.4,3.53-6,5.6-9.78,7.47-1,.52-2.49.85-2.11,2.49s1.84,1.46,3,1.38c6.24-.43,12.3-1.2,17.23-5.83a146.88,146.88,0,0,1,14.16-11.23c0.72,0.78.08,1.11-.21,1.42a132.66,132.66,0,0,1-15.21,13.66c-4.75,3.71-10.22,4.29-15.8,4.84l-1.55.12a1.29,1.29,0,0,0-1.26,1.38c0,0.88.67,0.85,1.25,1,8.77,2,17.55,2.92,26.35.21a10.06,10.06,0,0,1,2.75-.46c-3.53,3.31-8,4.28-12.53,5.12-5.73,1.05-11.32-.82-17-0.69-2.1,0-3.38.42-4.23,2.4-1.61,3.77-4.27,6.89-6.63,10.19s-6.13,4.15-9.69,5c-10.17,2.51-20.54,2.26-30.9,1.65A4,4,0,0,1,364.91,333.77Zm9.72-31.06A55.1,55.1,0,0,0,358,316.84a140.51,140.51,0,0,0,15.05-1.55c1.25-.2,2.9.12,3.67-0.91,1.07-1.42-1.28-1.88-1.39-3.14a9.29,9.29,0,0,0-.58-2C374.13,307.28,374.49,305.23,374.63,302.72Zm11.21,2c-0.15-2-1.14-3.26-3.2-3.39a3.12,3.12,0,0,0-3.4,3.34,3,3,0,0,0,3.28,3.18A3,3,0,0,0,385.84,304.67Z" transform="translate(-183.04 -45.67)"/><path d="M368.68,243.93c-2.46.81-4.8-.13-7.12-0.33-5.41-.46-10.79-1.51-16.21-1.74-9.16-.39-18.15.66-26.17,5.67-4.69,2.93-9.3,6-13.88,9.08-9.26,6.26-19.55,8.92-30.62,8.9a120.39,120.39,0,0,1-15-.49c-8.84-1.13-16.67,1.79-24.15,6.13a66.94,66.94,0,0,0-9.3,6.58c-0.64.54-1.18,1.3-2.19,1.35-0.68-.9.07-1.49,0.56-1.92,7.4-6.42,14.89-12.69,24.78-15a20.62,20.62,0,0,1,4.86-.63c6.65,0,13.32-.14,20,0.07a48.72,48.72,0,0,0,28.92-8.25c4.76-3.11,9.63-6.06,14.38-9.2,6.79-4.48,14.7-5.9,22.83-5.31a135.12,135.12,0,0,1,26.07,3.95C367.18,243,368.16,242.8,368.68,243.93Z" transform="translate(-183.04 -45.67)"/><path d="M356.77,226.44a6.61,6.61,0,0,1-3.74-.28,129.26,129.26,0,0,0-19.86-3.59c-10.12-.84-18.94,2.73-27,8.72-5.66,4.22-11.23,8.52-18.11,10.9a88.12,88.12,0,0,1-35.76,4.31c-11-.82-20.4,2.34-28.95,8.88-1.16.89-2.35,1.76-3.57,2.57a2.51,2.51,0,0,1-1.6.27,19.42,19.42,0,0,1,5-5.15c9.07-6.94,19.14-10.75,30.78-10.28,7,0.28,14,.43,20.95-0.61,9-1.36,16.83-5.55,24.47-10.17,3.55-2.14,7.06-4.36,10.58-6.54,9.59-5.93,20-6.53,30.75-4.62a65,65,0,0,1,13.67,3.9C355.22,225.09,356.27,225.17,356.77,226.44Z" transform="translate(-183.04 -45.67)"/><path d="M479.94,358.79a151.47,151.47,0,0,1-7.36,36.1,20.48,20.48,0,0,1-12.09,12.77c-5.39,2.26-10.81,4.62-16.73,5.29-0.79.09-1.88,0.74-2.18-.5-0.23-.93.84-1.17,1.52-1.49,3.37-1.56,6.75-3.08,10.12-4.64,6-2.79,9.81-7.89,12.89-13.37,4.47-8,6.67-16.8,8.83-25.62,0.7-2.85,1.33-5.72,2.06-8.56,0.32-1.24.09-3.3,2-3S479.63,357.86,479.94,358.79Z" transform="translate(-183.04 -45.67)"/><path d="M432.67,400.48c-1.49-.68-1.83-1.8-2.38-2.7-4.41-7.13-9-14.12-14.65-20.36-8.51-9.4-19-15.87-30.4-21.16-6-2.8-12-5.57-18.19-8.42,0.76-1.2,1.68-.82,2.39-0.6,12.7,3.86,25.79,6.69,37.39,13.54,4.15,2.45,7.19,6.32,9.8,10.19a159.73,159.73,0,0,1,15.29,27.3C432.17,398.88,432.34,399.51,432.67,400.48Z" transform="translate(-183.04 -45.67)"/><path d="M447.94,482.13c-0.72-12.72.11-25.56-2.93-38.11-2-8.14-4.87-15.82-10-22.55-0.56-.74-1.91-1.74-1-2.55s1.84,0.6,2.5,1.26c8.43,8.31,14.82,17.77,15.9,29.94a120.23,120.23,0,0,1-2.84,37c-0.14.62,0.12,1.91-1,1.7-1-.18-0.57-1.29-0.58-2C447.92,485.24,447.94,483.69,447.94,482.13Z" transform="translate(-183.04 -45.67)"/><path d="M341.49,318c-0.22,2.36-.51,4.58-0.62,6.82-0.21,4,1.08,5.86,4.83,7.25,1.29,0.48,3.36.57,3,2.47-0.31,1.74-2.14,2.08-3.79,1.92a4.62,4.62,0,0,0-4.2,2q-6.51,7.71-13.15,15.32c-0.66.75-1.24,2.53-2.38,1.72s0.15-2.17.7-3.14c2.53-4.42,5.13-8.79,7.68-13.2,0.38-.65,1.12-1.4.59-2.11-0.71-1-1.59-.07-2.31.22-2.08.83-4.11,1.78-6.18,2.66-0.56.24-1.24,0.47-1.62-.19a1.25,1.25,0,0,1,.52-1.36,1.23,1.23,0,0,1,.17-0.19c6.41-5,9.12-12.31,12.47-19.26a8.82,8.82,0,0,1,1.2-2c0.73-.83,1.58-1.9,2.81-1.37S341.33,317.25,341.49,318Z" transform="translate(-183.04 -45.67)"/><path d="M366.37,451.9c1.46-.2,4,0.43,6.58.65a2.29,2.29,0,0,1,2.37,2.27c0,1.34-1,1.95-2.18,2.13a15.64,15.64,0,0,1-2.83.28,120.47,120.47,0,0,0-38.06,4.64c-4.34,1.26-8.29,3.4-12.4,5.19-0.83.36-1.91,1.67-2.62,0.43-0.58-1,.92-1.44,1.65-1.93a78.32,78.32,0,0,1,26.64-11A112.74,112.74,0,0,1,366.37,451.9Z" transform="translate(-183.04 -45.67)"/><path d="M362.77,271.75a78.68,78.68,0,0,1,7.17-4.38c13.2-6.32,26.52-6.85,39.91-.52,2.65,1.26,5.31,2.51,7.93,3.82,0.78,0.39,1.69,1.14,1.26,2s-1.38,0-2-.19q-5-1.66-10.05-3.42c-12.12-4.22-24.12-3-36.06.77-2.59.81-5.11,1.87-7.66,2.82Z" transform="translate(-183.04 -45.67)"/><path d="M303.74,272.31a10.08,10.08,0,0,1,.25,4c-0.17,7.71.24,15.31,2.65,22.74,2.7,8.34,9.4,14.21,18.79,13.38,0.72-.06,2-0.71,2.16.56,0.16,1-1,1.28-1.77,1.61-5.3,2.24-13.9-.32-18.29-5.43a23.64,23.64,0,0,1-5.63-12.48c-1.13-7.83-.24-15.47.88-23.15A1.07,1.07,0,0,1,303.74,272.31Z" transform="translate(-183.04 -45.67)"/><path d="M394.88,532.33c0,0.61.17,1.24-.55,1.35s-1-.57-1.22-1.11c-1.45-3.69-2.77-7.44-4.33-11.09-2.1-4.91-4-9.9-7.07-14.37a70.8,70.8,0,0,0-12.34-13.89c-0.78-.68-1.56-1.37-2.31-2.08-0.37-.35-0.85-0.76-0.47-1.31s1-.25,1.36,0c7.21,5,15.73,8.65,19.44,17.57a131.75,131.75,0,0,1,5.44,17.26C393.52,527.25,394.22,529.84,394.88,532.33Z" transform="translate(-183.04 -45.67)"/><path d="M312.15,324.08c0.24,2.91.51,5.64,0.67,8.37,0.41,7.24.82,14.47,1.14,21.72a6.71,6.71,0,0,0,2.85,5.25c2,1.53,4,3,6,4.53,0.39,0.3,1,.6.73,1.22a1.07,1.07,0,0,1-1.36.43c-3.61-.84-7.29-1.5-10.52-3.47a3.9,3.9,0,0,1-1.68-3.59c-0.07-11,.58-21.92,1.15-32.86A1.74,1.74,0,0,1,312.15,324.08Z" transform="translate(-183.04 -45.67)"/><path d="M369.1,259.13c-3.05,1.67-6.41,2.08-9.7,2.56a42.2,42.2,0,0,0-26.72,14.86,86.06,86.06,0,0,1-8.79,8.18c5.37-7.18,9.95-15.13,17.79-20.06C350.05,259.4,359.57,259,369.1,259.13Z" transform="translate(-183.04 -45.67)"/><path d="M366,322.87c2.63-.16,4.92-0.41,7.22-0.42a92,92,0,0,0,14.44-.84,21.1,21.1,0,0,0,10-5c1.28-1.08,2.26-2.6,4.73-3-2,3.5-3.57,6.57-6.63,8.7-7.68,5.34-16,4.3-24.42,2.67-1.6-.31-3.17-0.77-4.75-1.18A3.4,3.4,0,0,1,366,322.87Z" transform="translate(-183.04 -45.67)"/><path d="M270,302.44c-13.23-8.41-26.76-4.15-40.34-.8a1.61,1.61,0,0,1,1.18-1.65A128.56,128.56,0,0,1,247,294.41c5.43-1.54,10.41.2,15.31,2.13a19.67,19.67,0,0,1,6.34,3.43A2.89,2.89,0,0,1,270,302.44Z" transform="translate(-183.04 -45.67)"/><path d="M325.59,376.08c0-.77-0.13-1.29.31-1.5,0.62-.3.94,0.25,1.21,0.66,0.71,1.08,1.35,2.2,2.07,3.28,2.08,3.12,4.39,3.77,7.75,2.22,0.47-.22.92-0.49,1.39-0.67s1.16-.61,1.67,0a1.2,1.2,0,0,1-.25,1.63c-1.93,2.53-3.74,5.18-5.9,7.51-2.44,2.63-4.84,1.91-5.68-1.57C327.19,383.65,326.39,379.69,325.59,376.08Z" transform="translate(-183.04 -45.67)"/><path d="M338.85,479.93c-2.63-.77-5.27-1.53-7.9-2.32a1.34,1.34,0,0,1-1.11-1.26,1.44,1.44,0,0,1,1.16-1.5c5.69-1.69,11.49-2.91,17.3-4.07a1.72,1.72,0,0,1,2,.8c0.4,0.93-.48,1.38-1.06,1.83-2.32,1.78-4.66,3.53-7,5.27A5.69,5.69,0,0,1,338.85,479.93Z" transform="translate(-183.04 -45.67)"/><path d="M333.48,453a1.08,1.08,0,0,1-.68,1.45,1.54,1.54,0,0,1-1.61-1.06,54.7,54.7,0,0,1-6.07-13.93c-0.23-.83-0.4-1.67-0.56-2.52-0.2-1-.48-2.16.87-2.62s2.7-.13,3.23,1.3C330.74,441.28,333,446.91,333.48,453Z" transform="translate(-183.04 -45.67)"/><path d="M320.39,302.29c0.27-5.33,2-9.89,6.65-12.63a142.6,142.6,0,0,1,16.3-8.39,0.78,0.78,0,0,1,1.07.13C336.42,288.34,325.25,291.61,320.39,302.29Z" transform="translate(-183.04 -45.67)"/><path d="M394.83,466.3c0,3.73-5.26,7.82-8.38,6.94-0.89-.25-1.14-0.82-0.59-1.54a8.61,8.61,0,0,1,1.69-1.59c2.72-2,3.87-4.54,2.8-7.9-0.21-.66-0.83-1.59.24-2a1.78,1.78,0,0,1,2,.86C393.8,462.74,395.2,464.36,394.83,466.3Z" transform="translate(-183.04 -45.67)"/></svg>