<svg id="Layer_1" data-name="Layer 1" xmlns="http://www.w3.org/2000/svg" viewBox="0 0 338.16 143.86"><title>Logo-TheBrainProject</title><path d="M314.3,367.2a23.11,23.11,0,0,1,3.14-2.13,10.34,10.34,0,0,1,12.74,4c2,3.22,2.42,6.78,2.15,10.46a12.74,12.74,0,0,1-3.05,7.89c-3.26,3.65-9.83,4.16-13.46,1-0.49-.42-0.89-0.94-1.5-1.6-0.06.77-.13,1.35-0.14,1.94a1,1,0,0,1-1.22,1.2c-1.68-.08-3.38-0.06-5.06,0-0.86,0-1.11-.23-1.11-1.1,0-9.75,0-19.5,0-29.25,0-1.59,0-3.19,0-4.78,0-.75.18-1.06,1-1q2.76,0.09,5.53,0c0.78,0,.95.28,0.94,1,0,3.84,0,7.69,0,11.53C314.25,366.59,314.28,366.91,314.3,367.2ZM325,377.68c-0.25-1.45-.43-3-0.81-4.5a4.84,4.84,0,0,0-4.5-3.88,4.7,4.7,0,0,0-4.87,3.09,13,13,0,0,0,.29,10,5,5,0,0,0,5.13,3.06c2-.16,3.45-1.46,4.1-3.82A39.32,39.32,0,0,0,325,377.68Z" transform="translate(-136.8 -305.52)"/><path d="M314.54,431.94c0,0.55,0,.87,0,1.2,0,3.34,0,6.69,0,10a1,1,0,0,1-1.13,1.18c-1.81,0-3.62,0-5.44,0a0.92,0.92,0,0,1-1.11-1.1q0-16.59,0-33.17a0.77,0.77,0,0,1,.91-0.95q2.76,0,5.53,0a0.75,0.75,0,0,1,.9.88c0,0.7.07,1.41,0.11,2.25a2.46,2.46,0,0,0,.49-0.33c2.21-2.87,5.26-3.58,8.62-3.14,4.77,0.61,7.68,3.47,8.71,8.73a17.47,17.47,0,0,1-1.61,12.1,10.24,10.24,0,0,1-14.33,3.74C315.7,433,315.26,432.54,314.54,431.94Zm-0.38-9.88c0,0.69,0,1.38.12,2.05a6.93,6.93,0,0,0,2.2,4.72c2.64,2.16,6.33,1.07,7.63-2.28a13.82,13.82,0,0,0,.27-9.1,6.75,6.75,0,0,0-2-3.08c-2.08-1.76-5.28-.86-6.87,1.74A11.11,11.11,0,0,0,314.16,422.05Z" transform="translate(-136.8 -305.52)"/><path d="M333.79,319.55a4.89,4.89,0,0,0,.66-0.5c2.49-2.91,5.7-3.44,9.2-2.62,3.85,0.9,5.94,3.3,6.39,7.24a56.08,56.08,0,0,1,.25,5.79c0,3.81,0,7.62,0,11.43a0.93,0.93,0,0,1-1.17,1.14c-1.78-.06-3.56-0.05-5.34,0a0.86,0.86,0,0,1-1.07-1.06q0.05-7.31,0-14.62a8.27,8.27,0,0,0-.32-2.4,3.73,3.73,0,0,0-4-2.75,4.5,4.5,0,0,0-4.33,3.51,9.57,9.57,0,0,0-.19,1.86c0,4.41,0,8.81,0,13.22,0,0.19,0,.38,0,0.56C334,342,334,342,332.3,342s-3.25,0-4.87,0a0.85,0.85,0,0,1-1.08-1q0-17.25,0-34.49a0.78,0.78,0,0,1,1-1c1.84,0,3.69.05,5.53,0,0.82,0,1,.3,1,1,0,3.94,0,7.87,0,11.81C333.79,318.7,333.79,319,333.79,319.55Z" transform="translate(-136.8 -305.52)"/><path d="M373,331.11c-2.5,0-5,0-7.5,0a0.82,0.82,0,0,0-1,1c0.05,2.74,1.14,4.77,3.22,5.43,2.5,0.79,5.13.23,6.08-2.57a0.92,0.92,0,0,1,1-.71c1.69,0,3.38.06,5.06,0,0.94,0,1.05.37,0.9,1.13a8.19,8.19,0,0,1-5.24,6.48,16.21,16.21,0,0,1-11.81,0,9.29,9.29,0,0,1-5.74-6.5,18.43,18.43,0,0,1,.74-13.18c2-4.25,5.55-6.29,10.15-6.57,3.67-.22,7,0.75,9.47,3.58a14,14,0,0,1,3.2,9c0.13,2.87.08,2.87-2.76,2.87H373Zm-3.7-4.74c1.28,0,2.55,0,3.83,0a0.85,0.85,0,0,0,.66-0.42,4.59,4.59,0,0,0-3.91-5.14c-2.7-.21-4.68,1.68-5.06,4.75-0.08.65,0.14,0.84,0.74,0.83C366.76,326.35,368,326.36,369.26,326.36Z" transform="translate(-136.8 -305.52)"/><path d="M419,423.75c-2.5,0-5,0-7.5,0-0.78,0-1.11.21-.93,1,0.15,0.67.16,1.37,0.33,2a4.73,4.73,0,0,0,7,3,5.9,5.9,0,0,0,1.83-2.13,1.15,1.15,0,0,1,1.1-.76c1.72,0,3.44,0,5.16,0,0.75,0,.9.27,0.76,1a8.32,8.32,0,0,1-6.18,6.83,16.73,16.73,0,0,1-9.33.14,9.24,9.24,0,0,1-6.72-6,18.23,18.23,0,0,1,.37-14c2.21-5,7.37-7.06,12.29-6.54,6.12,0.64,9.29,4.95,10.08,10.18,0.21,1.38.19,2.8,0.31,4.2,0.07,0.8-.28,1-1,1C424,423.73,421.47,423.75,419,423.75ZM415.33,419h2.34c2.41,0,2.45-.05,1.81-2.47a3.87,3.87,0,0,0-4-3.09c-2.53,0-4.29,1.84-4.6,4.71-0.07.64,0.12,0.86,0.74,0.85C412.83,419,414.08,419,415.33,419Z" transform="translate(-136.8 -305.52)"/><path d="M357.45,422.13a15.28,15.28,0,0,1,1.87-7.74,11,11,0,0,1,7.77-5.49,16.31,16.31,0,0,1,8.87.54,11,11,0,0,1,7,7.71,16.09,16.09,0,0,1-.31,10.31,11.88,11.88,0,0,1-11.13,7.89,14.66,14.66,0,0,1-8.31-1.75c-4.1-2.46-5.6-6.35-5.81-10.9C357.44,422.51,357.45,422.32,357.45,422.13Zm7.53-.46c0.24,1.71.35,3.18,0.68,4.6a4.72,4.72,0,0,0,4.38,3.85c2.79,0.14,4.41-.81,5.25-3.36a16.08,16.08,0,0,0,.15-9.58,4.73,4.73,0,0,0-4.62-3.57A4.55,4.55,0,0,0,365.9,417,39.21,39.21,0,0,0,365,421.67Z" transform="translate(-136.8 -305.52)"/><path d="M411.77,367.82a4.79,4.79,0,0,0,.62-0.52c2.11-2.68,5-3.51,8.23-3.34a7.57,7.57,0,0,1,6.69,3.94,10.92,10.92,0,0,1,1,5.47c0,5.19,0,10.37,0,15.56a0.79,0.79,0,0,1-1,1c-1.84,0-3.69,0-5.53,0a0.9,0.9,0,0,1-1.12-1.1c0-5.06,0-10.12,0-15.18,0-2.64-1.71-4.36-4.15-4.28a4.42,4.42,0,0,0-4.27,3.65,17.89,17.89,0,0,0-.27,2.88c0,4.28,0,8.56,0,12.84a1,1,0,0,1-1.23,1.19c-1.72-.07-3.44-0.07-5.15,0a0.91,0.91,0,0,1-1.17-1.13c0-7.19,0-14.37,0-21.56,0-.65,0-1.31-0.08-2a0.64,0.64,0,0,1,.77-0.78q2.81,0,5.62,0a0.64,0.64,0,0,1,.77.78C411.64,366.06,411.71,366.85,411.77,367.82Z" transform="translate(-136.8 -305.52)"/><path d="M374.07,387.08a11,11,0,0,1-4.34,2.9,11.2,11.2,0,0,1-7.27,0c-2.67-.92-4.56-4.28-4.35-7.44a8.77,8.77,0,0,1,6.66-8,27,27,0,0,1,7.42-.86c1.17,0,1.2,0,1.2-1.21,0-2.41-.81-3.6-2.76-4.09a3.17,3.17,0,0,0-4,2.74,0.78,0.78,0,0,1-1,.81c-1.81,0-3.63,0-5.44,0-0.89,0-1.07-.34-1-1.11a6.76,6.76,0,0,1,4.24-5.75,15.86,15.86,0,0,1,12.23-.11c3.26,1.26,4.65,3.86,4.73,7.19,0.1,3.81,0,7.62.11,11.43,0,1.83.27,3.67,0.49,5.49,0.07,0.59-.05.8-0.65,0.8-1.72,0-3.44,0-5.16,0a0.82,0.82,0,0,1-1-.91C374.22,388.36,374.13,387.72,374.07,387.08Zm-0.68-7.43c0-1.62,0-1.75-1.13-1.66a24.37,24.37,0,0,0-4.38.78A3.31,3.31,0,0,0,365.6,381a3.55,3.55,0,0,0,1.68,4.31,4,4,0,0,0,5-1.34A7.51,7.51,0,0,0,373.39,379.65Z" transform="translate(-136.8 -305.52)"/><path d="M454.32,425.24a9,9,0,0,1-4.6,8.57A13,13,0,0,1,441.8,435c-5.87-.66-8.51-5.07-9.28-9.26a18.12,18.12,0,0,1,.62-10c1.77-4.61,5.37-6.76,10.1-7.09a10.56,10.56,0,0,1,8.71,3.1,8.61,8.61,0,0,1,2.31,5.78,0.77,0.77,0,0,1-.52.55c-2.06,0-4.12,0-6.18,0a1,1,0,0,1-.64-0.59c-0.26-.7-0.34-1.46-0.62-2.15a2.68,2.68,0,0,0-2.3-1.82,2.54,2.54,0,0,0-2.66,1.4,11.74,11.74,0,0,0-1.15,3.32,18.37,18.37,0,0,0,.77,9.59,3,3,0,0,0,2.82,2.22,3.26,3.26,0,0,0,2.85-2.49,10.67,10.67,0,0,0,.28-1.09c0.28-1.29.27-1.29,1.64-1.29h5.77Z" transform="translate(-136.8 -305.52)"/><path d="M314.27,308.88c0,0.52,0,.82,0,1.13,0,1.91,0,3.81,0,5.72a0.71,0.71,0,0,0,.86.88c1.44,0,2.88,0,4.31,0a0.71,0.71,0,0,1,.87.87c0,1.09,0,2.19,0,3.28a0.75,0.75,0,0,1-.91.93c-1.4,0-2.81,0-4.22,0a0.77,0.77,0,0,0-.92.94c0,3.78,0,7.56,0,11.34,0,2,.86,2.8,2.81,2.83,0.78,0,1.56,0,2.34-.06a0.58,0.58,0,0,1,.74.69c0,1.19,0,2.38,0,3.56a1,1,0,0,1-.56.78,16.34,16.34,0,0,1-9,.18,5.08,5.08,0,0,1-3.73-4.48,11.94,11.94,0,0,1-.11-1.68c0-4.31,0-8.63,0-12.94,0-1-.3-1.26-1.23-1.19s-1.94,0-2.9,0a0.66,0.66,0,0,1-.78-0.78c0-1.16,0-2.31,0-3.47a0.68,0.68,0,0,1,.83-0.83c1.06,0,2.13,0,3.19,0a0.73,0.73,0,0,0,.9-0.93c0-1.12,0-2.25,0-3.37a1,1,0,0,1,.35-0.76C309.47,310.65,311.77,309.81,314.27,308.88Z" transform="translate(-136.8 -305.52)"/><path d="M469.07,401.86c0,2.05,0,4,0,6,0,1.44-.26,1.41,1.41,1.41h4.44v5c-1.55,0-3.11,0-4.66,0-0.92,0-1.23.19-1.21,1.18,0.07,3.53,0,7.06,0,10.59a8.76,8.76,0,0,0,.2,1.66,1.69,1.69,0,0,0,1.52,1.45,21.58,21.58,0,0,0,3.26.11c0.63,0,.93.05,0.9,0.76,0,1.15,0,2.31,0,3.47a1,1,0,0,1-.48.74c-3.19.72-6.41,1.2-9.57,0-2.43-1-3.21-3-3.23-5.42q-0.05-6.7,0-13.4c0-.88-0.25-1.16-1.11-1.1s-1.94,0-2.9,0a0.7,0.7,0,0,1-.88-0.86c0-1.09,0-2.19,0-3.28a0.71,0.71,0,0,1,.89-0.84c1.06,0,2.12,0,3.19,0a0.66,0.66,0,0,0,.8-0.83c0-1.12-.05-2.25,0-3.37a1.22,1.22,0,0,1,.55-0.92c2.12-.83,4.26-1.59,6.4-2.37A1.73,1.73,0,0,1,469.07,401.86Z" transform="translate(-136.8 -305.52)"/><path d="M396.76,424c0,4.41,0,8.81,0,13.22,0,3.83-1.75,6.06-5.16,6.92a17.74,17.74,0,0,1-4.81.31,1.14,1.14,0,0,1-.79-0.78c-0.09-1.34-.07-2.69,0-4a0.83,0.83,0,0,1,.55-0.55,2.85,2.85,0,0,0,2.7-2.75,9.86,9.86,0,0,0,.09-1.49q0-12.19,0-24.37c0-1.44,0-1.44,1.49-1.44,1.66,0,3.31,0,5,0,0.8,0,1,.25,1,1C396.75,414.68,396.76,419.33,396.76,424Z" transform="translate(-136.8 -305.52)"/><path d="M346,368.66c0.2-.34.4-0.68,0.62-1a7.11,7.11,0,0,1,5.78-3.14c1.89-.15,2-0.43,1.94,1.8,0,1.34,0,2.69,0,4a0.66,0.66,0,0,1-.81.81,14.31,14.31,0,0,0-2.71.14c-2.92.51-4.33,2.2-4.35,5.19,0,4.09,0,8.19,0,12.28,0,0.89-.22,1.2-1.14,1.17-1.81-.07-3.63,0-5.44,0a0.79,0.79,0,0,1-1-1c0-5.34,0-10.69,0-16,0-2.46-.15-4.93-0.29-7.39,0-.77.16-1.05,1-1,1.72,0.05,3.44,0,5.16,0a0.76,0.76,0,0,1,.92.93c0,1.05,0,2.1,0,3.16Z" transform="translate(-136.8 -305.52)"/><path d="M346,413.11a3,3,0,0,0,.39-0.46c1.6-2.87,4.25-3.67,7.29-3.65a1,1,0,0,1,.72.71c0.06,1.78,0,3.56,0,5.34,0,0.59-.34.59-0.79,0.64a21.36,21.36,0,0,0-4.31.61c-2,.67-2.73,2.48-2.78,4.47-0.09,3.75-.07,7.49-0.08,11.24,0,2.43,0,2.43-2.44,2.43-1.37,0-2.75,0-4.12,0-0.71,0-.89-0.23-0.89-0.92,0-5.72,0-11.43,0-17.15,0-2.18-.16-4.36-0.3-6.54,0-.62.1-0.85,0.74-0.84,1.78,0,3.56,0,5.34,0a0.82,0.82,0,0,1,1,1c0,1,0,2,0,3Z" transform="translate(-136.8 -305.52)"/><path d="M397.18,377.19c0,3.9,0,7.81,0,11.71a0.83,0.83,0,0,1-1,1c-1.84,0-3.69,0-5.53,0-0.8,0-1-.27-1-1q0-11.67,0-23.33a0.78,0.78,0,0,1,1-1q2.81,0.06,5.62,0a0.79,0.79,0,0,1,1,1C397.17,369.44,397.18,373.32,397.18,377.19Z" transform="translate(-136.8 -305.52)"/><path d="M393.07,398.33c1,0,2.06,0,3.09,0,0.72,0,.91.25,0.89,0.93,0,1.56,0,3.12,0,4.69a0.76,0.76,0,0,1-.9,1c-2.09,0-4.19,0-6.28,0a0.7,0.7,0,0,1-.84-0.82q0-2.48,0-5a0.63,0.63,0,0,1,.76-0.77C390.89,398.34,392,398.33,393.07,398.33Z" transform="translate(-136.8 -305.52)"/><path d="M393.39,353.77c1.06,0,2.13,0,3.19,0a0.69,0.69,0,0,1,.83.83q0,2.48,0,5a0.69,0.69,0,0,1-.86.8c-2.09,0-4.19,0-6.28,0a0.73,0.73,0,0,1-.87-0.88c0-1.59,0-3.19,0-4.78a0.79,0.79,0,0,1,1-.94C391.38,353.8,392.39,353.77,393.39,353.77Z" transform="translate(-136.8 -305.52)"/><path d="M240.1,449.38l-0.93-.74q-22.3-17.81-44.62-35.6a4,4,0,0,0-1.69-.67c-4.82-.91-9.64-1.79-14.46-2.68l-16.68-3c-2.12-.39-4.24-0.76-6.35-1.2a1.84,1.84,0,0,1-1.07-.75c-5.62-9.12-11.2-18.27-16.82-27.38a4.39,4.39,0,0,1-.68-2.54c0.06-3,0-6.06.11-9.09,0.18-7.52.41-15,.58-22.56a1.54,1.54,0,0,1,1-1.54q12.33-5.67,24.64-11.37l24.13-11.15c2-.94,4.05-1.94,6.13-2.8a4,4,0,0,1,2-.12c7.33,1,14.65,2.09,22,3.14,7,1,14.08,2.13,21.15,3a8.26,8.26,0,0,1,4.77,2.59q13.57,12.37,27.14,24.75a3.25,3.25,0,0,1,.8,1.43q2.67,8.83,5.26,17.68a2.55,2.55,0,0,1,0,1.37c-1.79,6-3.61,12-5.43,18-0.42,1.4-.93,2.79-1.22,4.22a8.11,8.11,0,0,1-2.32,3.76q-12.46,13.74-24.9,27.5a2.74,2.74,0,0,0-.56,1.52c-0.66,7.74-1.28,15.49-1.91,23.24C240.23,448.61,240.17,448.9,240.1,449.38Zm12.62-107.93-3.56-3.37c-3.39-3.19-6.77-6.38-10.18-9.55a2.7,2.7,0,0,0-1.29-.66c-4.43-.78-8.87-1.49-13.29-2.28a1.25,1.25,0,0,0-1.53.78q-5,8.84-10.06,17.66c-1.74,3-1.75,3,.21,5.95a1,1,0,0,0,.17.23c0.79,0.64,1.57,1.46,2.69,1.19,2.31-.55,4.58-1.22,6.87-1.83l21.86-5.91ZM169.3,359.06c1.95,1.12,3.77,2.18,5.62,3.2a1.25,1.25,0,0,0,.8-0.05q11.34-3,22.67-6.13a1.79,1.79,0,0,0,1-.73c1.5-2.56,2.94-5.15,4.43-7.71a1.07,1.07,0,0,0,0-1.27q-5.16-8.42-10.28-16.87a5.57,5.57,0,0,0-.5-0.58Zm49.19,54.16a4.57,4.57,0,0,0,.51.24c7.14,2.12,14.3,4.22,21.43,6.39a1.47,1.47,0,0,0,1.86-.61q7.91-9.87,15.86-19.7c0.18-.22.32-0.48,0.59-0.9l-3.46.31c-9.07.84-18.15,1.68-27.22,2.56a2,2,0,0,0-1.15.8c-2.65,3.36-5.27,6.74-7.89,10.12C218.85,412.65,218.69,412.91,218.49,413.21Zm-48.26-10a1.78,1.78,0,0,0,.08-0.38q-2.21-11.68-4.44-23.36a1.9,1.9,0,0,0-.36-0.84q-2.31-2.77-4.67-5.49a1.09,1.09,0,0,0-.75-0.43,3.58,3.58,0,0,0-2.45,1.15c-3.09,4-6.23,8-9.37,11.94a0.85,0.85,0,0,0-.06,1.22c3,4.35,5.94,8.72,8.95,13.06a2.5,2.5,0,0,0,1.41.91c2.28,0.5,4.59.91,6.89,1.34Zm69.24,44.1c0.05-.49.09-0.67,0.09-0.84,0-4.62-.08-9.24-0.15-13.86,0-2-.16-4.05-0.19-6.08a1,1,0,0,0-.9-1.09c-1-.26-2-0.57-3-0.86q-10.18-3-20.36-6a1.11,1.11,0,0,0-.93.28c-0.72.82-1.35,1.72-2,2.57a0.62,0.62,0,0,0,.08,1c1,0.84,1.89,1.73,2.83,2.59l20.51,18.65Zm-49-125a5.18,5.18,0,0,0-.85.16q-12.79,5.41-25.58,10.82a0.84,0.84,0,0,0-.57,1.15c0.34,1.62.64,3.25,0.94,4.87q1.14,6.07,2.29,12.14a4,4,0,0,0,.31.7Zm4.3,41.09c-0.57.1-.87,0.13-1.15,0.2l-14,3.78c-2.8.76-5.6,1.53-8.4,2.26-0.73.19-1.07,0.45-.82,1.28s0.26,1.73.48,2.57a9.25,9.25,0,0,0,1.1,3.3c2.3,3,4.8,5.75,7.23,8.6,0.56,0.65,1.13,1.29,1.81,2.08Zm14.5-3.89a7.27,7.27,0,0,0-.86.11c-1.45.38-2.88,0.81-4.34,1.15a2.35,2.35,0,0,0-1.59,1.28q-6.94,12.21-13.93,24.4c-0.13.22-.22,0.47-0.33,0.7l0.17,0.16c0.3-.19.6-0.37,0.89-0.57,3.69-2.52,7.38-5,11-7.57a2.32,2.32,0,0,1,2-.35c2,0.47,4.09.85,6.13,1.29,0.73,0.16,1,0,1-.83-0.07-1.43-.07-2.87-0.08-4.31q0-7.26-.07-14.52C209.32,360.21,209.28,359.94,209.26,359.54Zm56-6.56-14,18a2.21,2.21,0,0,0,.36.3l15.82,6c0.61,0.24.86,0,1-.56,0.6-2.17,1.23-4.32,1.79-6.5a3.09,3.09,0,0,0-.08-1.55q-2.06-7.05-4.19-14.09A13.36,13.36,0,0,0,265.24,353Zm-25.77,33.34,1,0.22,11.1,2.24c4,0.8,7.95,1.58,11.91,2.41a0.85,0.85,0,0,0,1.18-.77c0.52-2,1.07-4,1.68-5.94a1,1,0,0,0-.75-1.51c-5.8-2.18-11.59-4.41-17.37-6.65a1,1,0,0,0-1.42.38c-2.27,3-4.59,5.92-6.88,8.88A7,7,0,0,0,239.47,386.32Zm-1.8-22.44a1.37,1.37,0,0,0,.24.31c2.36,1.33,4.74,2.65,7.1,4a0.66,0.66,0,0,0,1-.3c1.27-1.66,2.56-3.31,3.85-5q5.15-6.61,10.31-13.22c0.39-.5.52-0.83,0-1.31-0.86-.72-1.63-1.55-2.45-2.32-1-1-2-1.9-3.14-2.93Zm-20.59-39.54-21.61-3.69-0.13.24L207.57,341ZM140,371.71a3.86,3.86,0,0,0,.68,0c4.52-1.21,9.05-2.41,13.57-3.65,1.09-.3,1.28-1.13.55-2l-14.64-17.2a8.56,8.56,0,0,0-.71-0.62Zm47.61,23.55c0.9,1.07,1.75,2.05,2.57,3.06a1.37,1.37,0,0,0,1.37.56c2.64-.28,5.28-0.59,7.92-0.72,2-.09,3.64-0.61,4.62-2.49a1.41,1.41,0,0,1,.18-0.22c1.62-2,3.21-4,4.86-6a2.87,2.87,0,0,0,.37-2.66c-0.07-.33-1-0.53-1.58-0.67-1.43-.34-2.88-0.57-4.3-0.92a2.16,2.16,0,0,0-1.92.35c-3.23,2.24-6.49,4.44-9.74,6.66C190.51,393.23,189.11,394.2,187.59,395.26Zm-46-52.42,0,0.32,19.23,11L161,354,157.65,336Zm80.69,40c3.36,0.68,6.47,1.29,9.58,1.95a1.23,1.23,0,0,0,1.43-.54c2.68-3.49,5.39-7,8.09-10.43a4,4,0,0,0,.31-0.56,2.72,2.72,0,0,0-.33-0.27c-2.34-1.31-4.69-2.6-7-3.94-0.58-.33-0.82-0.07-1.14.33q-3.8,4.7-7.61,9.37Zm-6.83-24.34v22.63l0.33,0.12,12.6-15.51Zm13.06,31.85a3.87,3.87,0,0,0-.54-0.23c-2.63-.52-5.31-0.87-7.88-1.6a2.69,2.69,0,0,0-3.54,1.36,5,5,0,0,0-.89,1.78c-0.11,1.33.06,2.68,0,4,0,0.7.31,0.85,0.92,0.8,2-.19,3.91-0.44,5.87-0.51a3.56,3.56,0,0,0,3.05-1.74C226.41,393,227.43,391.75,228.48,390.39Zm-5.34-34.71a1.09,1.09,0,0,0,.14.32c2.83,1.59,5.65,3.18,8.5,4.73a1,1,0,0,0,.88-0.28c2.35-2.84,4.66-5.7,7-8.56a8.25,8.25,0,0,0,.47-0.79ZM209.68,403.2c-1.36.12-2.63,0.2-3.89,0.37a1.55,1.55,0,0,0-.8.59c-0.91,1.07-1.79,2.16-2.67,3.25-0.2.25-.37,0.53-0.62,0.91l8,2.37V403.2Zm23.1-8.47,0.11,0.25,12.16-1.13a1.44,1.44,0,0,0-.33-0.24c-3-.63-6.05-1.26-9.09-1.86a0.91,0.91,0,0,0-.73.26C234.17,392.9,233.48,393.83,232.78,394.74Zm-88.54-13.58,3.94-5a45.77,45.77,0,0,0-5.79,1.34,0.7,0.7,0,0,0-.25.62C142.77,379.08,143.46,380,144.24,381.16Zm29.82,7.57-0.28.13,1.38,7.26a2.07,2.07,0,0,0,1.73-1.42c0.91-1.58.92-1.58-.26-3C175.78,390.73,174.92,389.73,174.06,388.73ZM205,415.58l-0.16.25,4.79,4.31a9.27,9.27,0,0,0,.19-2.57,0.82,0.82,0,0,0-.39-0.62C207.93,416.46,206.45,416,205,415.58Zm14-13-0.14-.25c-0.86.06-1.72,0.1-2.58,0.21a0.71,0.71,0,0,0-.5.44c0,1.12,0,2.23,0,3.35l0.32,0Zm-29.76,4.26c-0.45-1.26-1-1.66-2-1.59-0.87.06-1.74,0.15-2.61,0.24a3.81,3.81,0,0,0-.61.17l0,0.21Zm-29.09-46.13-3-1.69a0.46,0.46,0,0,0,0,.44c0.44,0.52.9,1,1.34,1.57C159.33,362.07,159.41,362.06,160.13,360.76Zm23,38.82c-0.6-1-1.09-.91-1.79.22Z" transform="translate(-136.8 -305.52)"/></svg>