<svg id="Layer_1" data-name="Layer 1" xmlns="http://www.w3.org/2000/svg" xmlns:xlink="http://www.w3.org/1999/xlink" width="45.96" height="42.86" viewBox="0 0 45.96 42.86"><defs><style>.cls-1{fill:none;}.cls-2{clip-path:url(#clip-path);}.cls-3{fill:#231f20;}</style><clipPath id="clip-path" transform="translate(0 0)"><rect class="cls-1" width="45.96" height="42.86"/></clipPath></defs><title>Royaltie</title><g class="cls-2"><path class="cls-3" d="M6.86,16.5A15.86,15.86,0,1,0,22.74.65,15.86,15.86,0,0,0,6.86,16.5m32.37,0A16.51,16.51,0,1,1,22.78,0,16.5,16.5,0,0,1,39.23,16.51" transform="translate(0 0)"/><path class="cls-3" d="M8.78,38.19a1.7,1.7,0,0,0-.82.17,2,2,0,0,0,.91,3.75,1.81,1.81,0,0,0,1.1-.41,2,2,0,0,0,.68-2.08,1.89,1.89,0,0,0-1.87-1.44m0-.75a2.74,2.74,0,0,1,2.63,2,2.74,2.74,0,0,1-4.85,2.31,2.39,2.39,0,0,1-.5-1.21,2.82,2.82,0,0,1,.07-1.21,2,2,0,0,1,.11-0.3,2.75,2.75,0,0,1,2.18-1.62l0.35,0" transform="translate(0 0)"/><path class="cls-3" d="M0.79,39.11h0c0,0.2,0,.4,0,0.6s0,0.23.24,0.23a1.85,1.85,0,0,0,.59-0.08,0.72,0.72,0,0,0,.53-0.64,0.73,0.73,0,0,0-.59-0.88,2.57,2.57,0,0,0-.68-0.05c-0.08,0-.09,0-0.09.1,0,0.24,0,.48,0,0.72m1,1.43a0.28,0.28,0,0,0,.08.16l1.37,1.88,0.09,0.13a0,0,0,0,1,0,.05H2.5a0.14,0.14,0,0,1-.13-0.07L2.3,42.6,1,40.79,1,40.67a0.11,0.11,0,0,0-.11,0,0.05,0.05,0,0,0-.06.05q0,0.08,0,.16v1.74c0,0.17,0,.18-0.17.18H0.09C0,42.76,0,42.75,0,42.68s0-.08,0-0.12v-4.8c0-.24,0-0.22.22-0.22s0.73,0,1.09,0A2.52,2.52,0,0,1,2,37.7a1.32,1.32,0,0,1,.9,1,1.52,1.52,0,0,1-.34,1.38,1.39,1.39,0,0,1-.58.39l-0.17.05" transform="translate(0 0)"/><path class="cls-3" d="M22.9,39a0.26,0.26,0,0,0-.07.11l-0.67,1.47,0,0.08s0,0.07,0,.07h1.45a0,0,0,0,0,0,0l0-.1L23,39.14A0.24,0.24,0,0,0,22.9,39m-2.54,3.72a0.2,0.2,0,0,1,0,0l2.53-5.43a0.12,0.12,0,0,1,.09.11l0.66,1.46,1.67,3.71,0.06,0.15s0,0.07,0,.07H24.61a0.1,0.1,0,0,1-.09-0.07l-0.11-.26L24,41.6a0.13,0.13,0,0,0-.15-0.1h-2a0.17,0.17,0,0,0-.2.13c-0.14.32-.29,0.64-0.44,1l-0.05.11a0.1,0.1,0,0,1-.1.07H20.4l0,0" transform="translate(0 0)"/><path class="cls-3" d="M43.08,40.14v-2.4c0-.21,0-0.2.2-0.2h2.49c0.21,0,.2,0,0.2.19s0,0.28,0,.42,0,0.13-.13.13H44.06c-0.22,0-.2,0-0.2.2s0,0.59,0,.88c0,0,0,.06,0,0.09a0.07,0.07,0,0,0,.07.08H45.7c0.21,0,.2,0,0.2.2s0,0.31,0,.46a0.06,0.06,0,0,1-.07.08H44c-0.16,0-.16,0-0.16.17,0,0.47,0,.94,0,1.41,0,0,0,.07,0,0.1a0.06,0.06,0,0,0,.06.06h1.83c0.22,0,.2,0,0.2.2s0,0.29,0,.44,0,0.09-.09.1H43.29c-0.23,0-.21,0-0.21-0.21V40.14" transform="translate(0 0)"/><path class="cls-3" d="M16.09,39.6a0.33,0.33,0,0,0,.1-0.14l1-1.74c0.11-.2.08-0.17,0.3-0.17h0.6c0.07,0,.09,0,0.06.09l-0.07.12-1.49,2.58a0.72,0.72,0,0,0-.1.38c0,0.62,0,1.23,0,1.85,0,0.21,0,.2-0.2.2H15.78c-0.07,0-.09,0-0.09-0.1s0-.09,0-0.14c0-.62,0-1.25,0-1.87a0.54,0.54,0,0,0-.08-0.28L14.1,37.75c-0.11-.2-0.13-0.2.12-0.2h0.58a0.13,0.13,0,0,1,.13.07L15,37.72l1,1.71a0.5,0.5,0,0,0,.11.16" transform="translate(0 0)"/><path class="cls-3" d="M34.85,40.53v2.06c0,0.17,0,.18-0.17.18H34.19c-0.11,0-.11,0-0.12-0.12s0-.1,0-0.14v-4c0-.05,0-0.11,0-0.16A0.06,0.06,0,0,0,34,38.29H32.94a0.06,0.06,0,0,1-.07-0.06q0-.31,0-0.62a0.06,0.06,0,0,1,.06-0.06h2.95c0.2,0,.18,0,0.18.19s0,0.32,0,.48a0.07,0.07,0,0,1-.07.08H34.9a0,0,0,0,0,0,0c0,0.05,0,.11,0,0.16v2" transform="translate(0 0)"/><path class="cls-3" d="M28.21,40.15V37.79c0-.05,0-0.11,0-0.16a0.07,0.07,0,0,1,.09-0.08h0.6c0.08,0,.09,0,0.1.09s0,0.11,0,.16v4c0,0.06,0,.12,0,0.18a0,0,0,0,0,0,0h1.32c0.16,0,.16,0,0.16.17s0,0.32,0,.48,0,0.09-.09.1h-2c-0.21,0-.2,0-0.2-0.2V40.15" transform="translate(0 0)"/><path class="cls-3" d="M39.68,40.14v2.43c0,0.19,0,.19-0.19.19H39a0.07,0.07,0,0,1-.09-0.08s0-.09,0-0.14V37.76c0-.24,0-0.22.22-0.22h0.48c0.08,0,.09,0,0.1.09s0,0.09,0,.14v2.36" transform="translate(0 0)"/><path class="cls-3" d="M23.05,16.14V21c0,0.06,0,.12,0,0.18a0,0,0,0,0,0,0l0.06,0,0.53-.32a25.22,25.22,0,0,0,4.56-3.66,11.75,11.75,0,0,0,1.6-2,7.92,7.92,0,0,0,.74-1.5,4.75,4.75,0,0,0,.31-2.11,3.53,3.53,0,0,0-.38-1.28,3.12,3.12,0,0,0-.73-0.9,4.58,4.58,0,0,0-1.12-.76,3.1,3.1,0,0,0-2.1-.21A4.48,4.48,0,0,0,25.2,9a8.33,8.33,0,0,0-2.09,2,0.25,0.25,0,0,0-.06.18s0,0.09,0,.14v4.8m-0.65,0q0-2.43,0-4.85A0.34,0.34,0,0,0,22.28,11a8.84,8.84,0,0,0-1.35-1.44,5.82,5.82,0,0,0-1.49-.94,3.54,3.54,0,0,0-1.28-.29,3.21,3.21,0,0,0-1.73.47,5.27,5.27,0,0,0-1,.78,2.88,2.88,0,0,0-.57.8A3.58,3.58,0,0,0,14.5,12a4.92,4.92,0,0,0,.25,1.4,8,8,0,0,0,.88,1.8,11.9,11.9,0,0,0,1.61,2,25.44,25.44,0,0,0,5,3.9l0.09,0.05a0,0,0,0,0,.05,0c0-.06,0-0.12,0-0.18V16.18m0.67,6.19a0.51,0.51,0,0,0,0,.2q0,1.46,0,2.91a0.72,0.72,0,0,1,0,.23,0.32,0.32,0,0,1-.58.07,0.35,0.35,0,0,1,0-.17c0-.05,0-0.11,0-0.16q0-1.45,0-2.9a0.55,0.55,0,0,0,0-.19,0.18,0.18,0,0,0-.14,0c-0.49.25-1,.49-1.47,0.72a26,26,0,0,1-5.65,1.81c-0.44.09-.89,0.16-1.34,0.23H13.61a0.3,0.3,0,0,1-.3-0.25,0.32,0.32,0,0,1,.17-0.35,0.47,0.47,0,0,1,.15,0,25.71,25.71,0,0,0,3.07-.63,25.48,25.48,0,0,0,5.18-2L22,21.81a0,0,0,0,0,0-.06l-0.14-.08a26.44,26.44,0,0,1-4.48-3.39c-0.38-.36-0.75-0.73-1.1-1.12A11.31,11.31,0,0,1,14.71,15,7.23,7.23,0,0,1,14,13,4.64,4.64,0,0,1,14,10.71a3.86,3.86,0,0,1,.45-1,3.28,3.28,0,0,1,.47-0.59,5.87,5.87,0,0,1,1.16-.91,3.93,3.93,0,0,1,1.61-.53,3.84,3.84,0,0,1,1.47.15,5.21,5.21,0,0,1,1.21.54,8,8,0,0,1,1.69,1.38q0.27,0.29.52,0.6l0.08,0.09a0,0,0,0,0,.06,0l0.09-.11A9.13,9.13,0,0,1,24.52,8.7a5.66,5.66,0,0,1,1.59-.83,3.94,3.94,0,0,1,1.48-.2A3.76,3.76,0,0,1,28.91,8a5.42,5.42,0,0,1,1.51,1.06,3.57,3.57,0,0,1,.86,1.3,4.36,4.36,0,0,1,.27,2,6.43,6.43,0,0,1-.67,2.25,11,11,0,0,1-1.77,2.56A23.44,23.44,0,0,1,26,20a26.75,26.75,0,0,1-2.44,1.65l-0.14.08a0,0,0,0,0,0,.06l0.11,0.06a25.43,25.43,0,0,0,6,2.25c0.73,0.17,1.47.31,2.22,0.42a0.48,0.48,0,0,1,.15,0,0.32,0.32,0,0,1,.17.35,0.31,0.31,0,0,1-.3.25,2.28,2.28,0,0,1-.42-0.05,26.33,26.33,0,0,1-3.86-.9,26.42,26.42,0,0,1-4.28-1.78l-0.14-.07h0" transform="translate(0 0)"/></g></svg>