<svg id="Layer_1" data-name="Layer 1" xmlns="http://www.w3.org/2000/svg" width="405.31" height="414.84" viewBox="0 0 405.31 414.84"><defs><style>.cls-1{fill:#df5036;}</style></defs><title>Extracurriculars</title><path class="cls-1" d="M309.81,451.41l-17.66,30.13a1.71,1.71,0,0,1-1.11.82,1.81,1.81,0,0,1-1.39-.2l-11.84-6.95a1.81,1.81,0,0,1-.87-1.14,1.72,1.72,0,0,1,.16-1.35,1.8,1.8,0,0,1,1.14-.87,1.82,1.82,0,0,1,1.42.2l10.31,6,8-13.72-7.76-4.55a1.74,1.74,0,0,1-.85-1.13,1.82,1.82,0,0,1,.21-1.39,1.78,1.78,0,0,1,1.1-.84,1.73,1.73,0,0,1,1.4.19l7.76,4.55,5.87-10-10.31-6a1.86,1.86,0,0,1-.67-2.56,1.7,1.7,0,0,1,1.11-.81,1.82,1.82,0,0,1,1.41.21l11.84,6.94a1.79,1.79,0,0,1,.87,1.12A1.73,1.73,0,0,1,309.81,451.41Z" transform="translate(-184.02 -103.58)"/><path class="cls-1" d="M263.32,416.48l-14.5,4.76-3.1,1-8.45,14.87a2,2,0,0,1-1.12.89,1.59,1.59,0,0,1-1.37-.18,2,2,0,0,1-.53-0.45,1.85,1.85,0,0,1-.35-0.66,1.6,1.6,0,0,1,.18-1.38l6.47-11.3-12.41,4a1.6,1.6,0,0,1-1.37-.08,1.77,1.77,0,0,1-.57-0.45,2,2,0,0,1-.33-0.61,1.68,1.68,0,0,1,.08-1.4,1.91,1.91,0,0,1,1.07-.94l16.26-5.32,9.13-16.08a1.83,1.83,0,0,1,.43-0.51,1.81,1.81,0,0,1,.7-0.34,1.68,1.68,0,0,1,1.4.2,1.41,1.41,0,0,1,.46.41,2,2,0,0,1,.45,1,1.54,1.54,0,0,1-.24,1.06l-7.14,12.6L262.18,413a1.53,1.53,0,0,1,1.1,0,2,2,0,0,1,.87.63,1.61,1.61,0,0,1,.32.55,1.67,1.67,0,0,1-.09,1.41,1.52,1.52,0,0,1-.49.6A1.48,1.48,0,0,1,263.32,416.48Z" transform="translate(-184.02 -103.58)"/><path class="cls-1" d="M200.42,379.57a1.76,1.76,0,0,1-1.42-.08,1.83,1.83,0,0,1-.94-1.08l-5.38-15.34a1.7,1.7,0,0,1,.09-1.37,1.8,1.8,0,0,1,1.05-.93,1.75,1.75,0,0,1,1.39.09,1.72,1.72,0,0,1,.93,1l2.08,5.92,31.19-10.94a1.73,1.73,0,0,1,1.39.06,1.79,1.79,0,0,1,.91,1.06,1.74,1.74,0,0,1-.07,1.36,1.71,1.71,0,0,1-1,.92L199.4,371.19l2.11,6a1.8,1.8,0,0,1-.07,1.43A1.74,1.74,0,0,1,200.42,379.57Z" transform="translate(-184.02 -103.58)"/><path class="cls-1" d="M220.7,310.56l-34.87-.46a1.77,1.77,0,0,1-1.31-.56,1.74,1.74,0,0,1-.51-1.26l0.1-7.72a5.7,5.7,0,0,1,1-3.17,9.52,9.52,0,0,1,2.85-2.66,14.24,14.24,0,0,1,3.7-1.56,15,15,0,0,1,4.09-.52,15.38,15.38,0,0,1,4.14.62,14.25,14.25,0,0,1,3.67,1.66,8.58,8.58,0,0,1,2.8,2.82l13.81-5.82a2,2,0,0,1,.79-0.17,1.63,1.63,0,0,1,.63.13,1.52,1.52,0,0,1,.95,1,1.29,1.29,0,0,1,.12.38,2.35,2.35,0,0,1,0,.33,2,2,0,0,1-.27,1,1.71,1.71,0,0,1-.84.68l-14.32,6-0.07,5.4,13.53,0.18a1.69,1.69,0,0,1,1.28.55,1.84,1.84,0,0,1,.49,1.32A1.76,1.76,0,0,1,220.7,310.56Zm-17.09-3.84,0.08-5.88a2.39,2.39,0,0,0-.55-1.44A5.64,5.64,0,0,0,201.6,298a9.84,9.84,0,0,0-2.7-1.27,11.22,11.22,0,0,0-3.14-.48,11,11,0,0,0-3.08.4,9.92,9.92,0,0,0-2.73,1.19,5.42,5.42,0,0,0-1.6,1.36,2.44,2.44,0,0,0-.56,1.4l-0.08,5.88Z" transform="translate(-184.02 -103.58)"/><path class="cls-1" d="M228.59,254l-30.9-19.42a1,1,0,0,1-.23-0.19l0,0,0,0a0.73,0.73,0,0,1-.24-0.36l-0.1,0,0,0,0,0,0-.05,0,0,0-.05,0,0,0-.05a1.35,1.35,0,0,1-.08-0.26,1.3,1.3,0,0,1,0-.32l0,0,0,0a0.5,0.5,0,0,1,0-.23,0.51,0.51,0,0,0,0-.23l0,0,0-.09,0,0a0.52,0.52,0,0,0,.13-0.21,0.52,0.52,0,0,1,.13-0.21l0,0,0,0a1.39,1.39,0,0,1,.23-0.29,1.48,1.48,0,0,1,.24-0.16l0-.05,0,0,0-.05,0,0,0-.06,0,0h0.11a0.55,0.55,0,0,0,.21-0.07,0.59,0.59,0,0,1,.22-0.07l0,0,0,0a0.46,0.46,0,0,1,.28.05l36,6a1.52,1.52,0,0,1,.37.09,1.58,1.58,0,0,1,.77.62,1.73,1.73,0,0,1,.32,1.29l-0.11.29a1.7,1.7,0,0,1-.75.87,1.55,1.55,0,0,1-1.12.21l-6.79-1.08-3,7.9,5.81,3.63a1.56,1.56,0,0,1,.71.89,1.69,1.69,0,0,1,0,1.17l-0.11.28a1.59,1.59,0,0,1-1.08.7,1.67,1.67,0,0,1-.95-0.07Zm-6.9-8.27,2.5-6.59-17.63-2.87Z" transform="translate(-184.02 -103.58)"/><path class="cls-1" d="M249.87,198.11l-0.71-.61L234,184.55a10.62,10.62,0,0,1-2.67-3.26,8.57,8.57,0,0,1-1-3.36,7.6,7.6,0,0,1,.47-3.14,8.86,8.86,0,0,1,1.55-2.65,12.55,12.55,0,0,1,1.94-1.71,6.94,6.94,0,0,1,3.32-1.26,8.91,8.91,0,0,1,7.38,2.43,1.77,1.77,0,0,1,.65,1.27,1.8,1.8,0,0,1-.45,1.35,1.85,1.85,0,0,1-2.61.21,6.47,6.47,0,0,0-2.69-1.52,4.33,4.33,0,0,0-3.77.79,7.44,7.44,0,0,0-.94.86,4.81,4.81,0,0,0-.87,1.49,3.61,3.61,0,0,0-.21,1.61,5.65,5.65,0,0,0,2.26,4.06l15.24,13,0.12,0.1,0.42,0.36a7.61,7.61,0,0,0,1,.69,9,9,0,0,0,1.4.68,4.09,4.09,0,0,0,1.65.27,4.34,4.34,0,0,0,3.13-1.75,4.38,4.38,0,0,0,1.27-3.47,4.29,4.29,0,0,0-.47-1.53,8.14,8.14,0,0,0-.79-1.21,6.26,6.26,0,0,0-.79-0.84l-0.35-.3a1.78,1.78,0,0,1-.73-1.23,1.85,1.85,0,0,1,.37-1.39,1.9,1.9,0,0,1,2.56-.39l0.6,0.51a8.44,8.44,0,0,1,1.16,1.29,8.27,8.27,0,0,1,2.13,4.67,8.06,8.06,0,0,1-2.13,6.31,7.8,7.8,0,0,1-5.86,3,6.45,6.45,0,0,1-2.53-.31A12.31,12.31,0,0,1,251.2,199,10.08,10.08,0,0,1,249.87,198.11Z" transform="translate(-184.02 -103.58)"/><path class="cls-1" d="M295.91,157.22l-0.44-.8-13.19-23.91a1.7,1.7,0,0,1-.13-1.37A1.79,1.79,0,0,1,283,130a1.82,1.82,0,0,1,1.43-.17,1.72,1.72,0,0,1,1.08.83l13.22,24,0.07,0.13,0.25,0.51a5.8,5.8,0,0,0,.69,1,11.23,11.23,0,0,0,1.11,1.17,3.77,3.77,0,0,0,1.45.85,4.39,4.39,0,0,0,3.58-.56,4.32,4.32,0,0,0,2.65-4.51,5.86,5.86,0,0,0-.35-1.5,6.3,6.3,0,0,0-.68-1.44l-0.07-.13L294.11,126a1.78,1.78,0,0,1-.17-1.41,1.75,1.75,0,0,1,.87-1.08,1.71,1.71,0,0,1,1.37-.13,1.79,1.79,0,0,1,1.1.88l13.34,24.18,0.39,0.75a12,12,0,0,1,.58,1.42,8.55,8.55,0,0,1,.33,5.19,8.13,8.13,0,0,1-4.27,5.21,7.73,7.73,0,0,1-6.55.75,9,9,0,0,1-4.27-3.25A10.35,10.35,0,0,1,295.91,157.22Z" transform="translate(-184.02 -103.58)"/><path class="cls-1" d="M354.13,141.35L349,106.85a1.77,1.77,0,0,1,.34-1.38,1.74,1.74,0,0,1,1.16-.71l7.64-1.13a5.7,5.7,0,0,1,3.29.52,9.56,9.56,0,0,1,3.08,2.4,14.35,14.35,0,0,1,2.12,3.41,15,15,0,0,1,1.16,4,15.26,15.26,0,0,1,0,4.19,14.31,14.31,0,0,1-1.05,3.89,8.6,8.6,0,0,1-2.34,3.21l7.94,12.71a2,2,0,0,1,.29.75,1.61,1.61,0,0,1,0,.64,1.52,1.52,0,0,1-.84,1.09,1.25,1.25,0,0,1-.36.18l-0.32.07a2,2,0,0,1-1.05-.1,1.69,1.69,0,0,1-.81-0.72l-8.24-13.18-5.34.79,2,13.38a1.7,1.7,0,0,1-.34,1.35,1.85,1.85,0,0,1-1.22.69,1.74,1.74,0,0,1-1.31-.32A1.71,1.71,0,0,1,354.13,141.35Zm1.08-17.49L361,123a2.4,2.4,0,0,0,1.33-.77,5.66,5.66,0,0,0,1.12-1.74,9.85,9.85,0,0,0,.82-2.87,11.23,11.23,0,0,0,0-3.18,11,11,0,0,0-.89-3,9.94,9.94,0,0,0-1.61-2.51,5.42,5.42,0,0,0-1.6-1.36,2.45,2.45,0,0,0-1.47-.33l-5.82.86Z" transform="translate(-184.02 -103.58)"/><path class="cls-1" d="M413.21,140.22l7.37-34.08a1.76,1.76,0,0,1,.81-1.17,1.73,1.73,0,0,1,1.33-.25l7.55,1.63a5.71,5.71,0,0,1,2.9,1.65,9.51,9.51,0,0,1,2,3.33,14.26,14.26,0,0,1,.79,3.93,15,15,0,0,1-.31,4.11,15.28,15.28,0,0,1-1.43,3.93,14.28,14.28,0,0,1-2.35,3.27,8.62,8.62,0,0,1-3.32,2.18l3,14.69a2,2,0,0,1,0,.8,1.67,1.67,0,0,1-.26.59,1.52,1.52,0,0,1-1.17.73,1.18,1.18,0,0,1-.4,0l-0.33,0a2,2,0,0,1-.95-0.46,1.7,1.7,0,0,1-.5-1l-3.08-15.23-5.28-1.14L416.75,141a1.7,1.7,0,0,1-.8,1.15,1.84,1.84,0,0,1-1.39.22,1.74,1.74,0,0,1-1.11-.76A1.72,1.72,0,0,1,413.21,140.22Zm7.16-16,5.75,1.24a2.39,2.39,0,0,0,1.52-.25,5.67,5.67,0,0,0,1.65-1.23,9.87,9.87,0,0,0,1.78-2.4,11.22,11.22,0,0,0,1.1-3,11,11,0,0,0,.22-3.1,9.89,9.89,0,0,0-.63-2.91,5.42,5.42,0,0,0-1-1.84,2.43,2.43,0,0,0-1.26-.83l-5.75-1.24Z" transform="translate(-184.02 -103.58)"/><path class="cls-1" d="M469.42,160.44l17.73-30.09a1.76,1.76,0,0,1,1.08-.83,1.83,1.83,0,0,1,2,2.66l-17.73,30.08a1.71,1.71,0,0,1-1.11.81,1.75,1.75,0,0,1-1.36-.18,1.72,1.72,0,0,1-.84-1.12A1.75,1.75,0,0,1,469.42,160.44Z" transform="translate(-184.02 -103.58)"/><path class="cls-1" d="M511.61,184.3l0.71-.61,15-13.08a10.64,10.64,0,0,1,3.62-2.16,8.56,8.56,0,0,1,3.46-.45,7.58,7.58,0,0,1,3,.93,8.88,8.88,0,0,1,2.39,1.92,12.48,12.48,0,0,1,1.4,2.17,7,7,0,0,1,.76,3.47,8.92,8.92,0,0,1-3.49,6.95,1.78,1.78,0,0,1-1.35.46,1.81,1.81,0,0,1-1.27-.65,1.85,1.85,0,0,1,.17-2.61,6.5,6.5,0,0,0,1.9-2.44,4.33,4.33,0,0,0-.23-3.84,7.28,7.28,0,0,0-.71-1.05,4.79,4.79,0,0,0-1.34-1.08,3.57,3.57,0,0,0-1.56-.45,5.65,5.65,0,0,0-4.35,1.64l-15.12,13.16-0.11.1-0.42.36a8,8,0,0,0-.82.87,8.8,8.8,0,0,0-.88,1.28,4.06,4.06,0,0,0-.51,1.59,4.33,4.33,0,0,0,1.27,3.35,4.38,4.38,0,0,0,3.25,1.77,4.31,4.31,0,0,0,1.59-.24,8.36,8.36,0,0,0,1.32-.61,6.64,6.64,0,0,0,1-.66l0.34-.3a1.77,1.77,0,0,1,1.33-.54,1.84,1.84,0,0,1,1.32.57,1.9,1.9,0,0,1,0,2.59l-0.59.52a8.37,8.37,0,0,1-1.45,1,8.24,8.24,0,0,1-4.93,1.42,8,8,0,0,1-5.92-3,7.8,7.8,0,0,1-2.15-6.24,6.52,6.52,0,0,1,.68-2.45,12.47,12.47,0,0,1,1.55-2.37A10.23,10.23,0,0,1,511.61,184.3Z" transform="translate(-184.02 -103.58)"/><path class="cls-1" d="M545.34,235.83l0.85-.32,25.57-9.58a1.7,1.7,0,0,1,1.37.07,1.79,1.79,0,0,1,.95,1,1.82,1.82,0,0,1,0,1.44,1.71,1.71,0,0,1-1,1L547.43,239l-0.14.05-0.54.18a5.7,5.7,0,0,0-1.13.53,10.82,10.82,0,0,0-1.32.93,3.77,3.77,0,0,0-1,1.31,4.39,4.39,0,0,0,0,3.62,4.76,4.76,0,0,0,2.47,2.92,4.81,4.81,0,0,0,1.6.36,5.86,5.86,0,0,0,1.53-.13,6.3,6.3,0,0,0,1.53-.47l0.14-.05,25.87-9.7a1.82,1.82,0,0,1,2.37,1.06,1.72,1.72,0,0,1-.07,1.37,1.79,1.79,0,0,1-1,1l-25.86,9.69-0.8.27a11.87,11.87,0,0,1-1.5.37,8.55,8.55,0,0,1-5.18-.43,8.13,8.13,0,0,1-4.54-5,7.73,7.73,0,0,1,.2-6.59,9,9,0,0,1,3.83-3.75A10.3,10.3,0,0,1,545.34,235.83Z" transform="translate(-184.02 -103.58)"/><path class="cls-1" d="M552.62,297.51l34.92,0.14a1.71,1.71,0,0,1,1.26.54,1.74,1.74,0,0,1,.53,1.27,1.7,1.7,0,0,1-.55,1.29,1.78,1.78,0,0,1-1.25.51l-33-.13,0,12a1.75,1.75,0,0,1-.55,1.27,1.79,1.79,0,0,1-1.33.54,1.7,1.7,0,0,1-1.26-.55,1.77,1.77,0,0,1-.53-1.28l0.06-13.78a1.77,1.77,0,0,1,.54-1.27A1.7,1.7,0,0,1,552.62,297.51Z" transform="translate(-184.02 -103.58)"/><path class="cls-1" d="M545.09,353.58l31,19.25a1,1,0,0,1,.23.19l0,0,0,0a0.75,0.75,0,0,1,.24.36l0.1,0,0,0,0,0,0,0.05,0,0,0,0.05,0,0,0,0a1.29,1.29,0,0,1,.08.26,1.23,1.23,0,0,1,0,.32l0,0,0,0a0.51,0.51,0,0,1,0,.23,0.49,0.49,0,0,0,0,.23l0,0,0,0.09,0,0a0.56,0.56,0,0,0-.13.21,0.53,0.53,0,0,1-.13.21l0,0,0,0a1.42,1.42,0,0,1-.23.29,1.37,1.37,0,0,1-.23.16l0,0.05,0,0,0,0.05,0,0,0,0.06,0,0h-0.11a0.53,0.53,0,0,0-.21.07,0.54,0.54,0,0,1-.21.07l0,0,0,0a0.45,0.45,0,0,1-.28-0.05l-36-5.81a1.65,1.65,0,0,1-.37-0.09,1.58,1.58,0,0,1-.77-0.61,1.72,1.72,0,0,1-.33-1.29l0.11-.29a1.71,1.71,0,0,1,.74-0.88,1.56,1.56,0,0,1,1.12-.22l6.79,1,2.95-7.91-5.83-3.6a1.57,1.57,0,0,1-.71-0.89,1.69,1.69,0,0,1,0-1.17l0.1-.28a1.59,1.59,0,0,1,1.07-.71,1.68,1.68,0,0,1,.95.06Zm6.94,8.23-2.46,6.6,17.65,2.77Z" transform="translate(-184.02 -103.58)"/><path class="cls-1" d="M518.79,404.94l26.61,22.54a1.77,1.77,0,0,1,.65,1.26,1.73,1.73,0,0,1-.4,1.3l-5,5.9a5.69,5.69,0,0,1-2.82,1.78,9.61,9.61,0,0,1-3.9.24,14.41,14.41,0,0,1-3.84-1.15,15,15,0,0,1-3.48-2.21,15.22,15.22,0,0,1-2.8-3.11,14.29,14.29,0,0,1-1.78-3.61,8.57,8.57,0,0,1-.36-4l-14.35-4.3a1.94,1.94,0,0,1-.71-0.37,1.63,1.63,0,0,1-.4-0.5,1.51,1.51,0,0,1-.1-1.37,1.24,1.24,0,0,1,.15-0.37,2.19,2.19,0,0,1,.19-0.27,2,2,0,0,1,.86-0.62,1.69,1.69,0,0,1,1.09,0l14.89,4.45,3.49-4.12-10.32-8.74a1.69,1.69,0,0,1-.64-1.24,1.83,1.83,0,0,1,.46-1.33A1.76,1.76,0,0,1,518.79,404.94Zm10.74,13.84-3.8,4.49a2.39,2.39,0,0,0-.49,1.46,5.6,5.6,0,0,0,.31,2,9.88,9.88,0,0,0,1.28,2.7,11.25,11.25,0,0,0,2.12,2.37,11,11,0,0,0,2.63,1.65,9.88,9.88,0,0,0,2.87.82,5.41,5.41,0,0,0,2.1,0,2.44,2.44,0,0,0,1.33-.72l3.8-4.49Z" transform="translate(-184.02 -103.58)"/><path class="cls-1" d="M479.41,450.58a1.72,1.72,0,0,1,.16,1.4,1.85,1.85,0,0,1-.9,1.1,1.67,1.67,0,0,1-1.33.16,1.79,1.79,0,0,1-1.08-.89,6.87,6.87,0,0,0-1.81-2.21,4.25,4.25,0,0,0-1.94-.84,4.63,4.63,0,0,0-1.91.13,8.12,8.12,0,0,0-1.75.72,12.92,12.92,0,0,0-1.23.84,4.74,4.74,0,0,0-1.31,1.54,5.28,5.28,0,0,0-.61,2.25,5.6,5.6,0,0,0,.89,3,9.58,9.58,0,0,0,2.13,2.68,8.72,8.72,0,0,0,2.58,1.53,14.46,14.46,0,0,0,2.94.75l3.27,0.37,3.11,0.4a16.22,16.22,0,0,1,3.07.77,10.21,10.21,0,0,1,5.39,4.51c0.07,0.12.19,0.37,0.38,0.75a11.65,11.65,0,0,1,.54,1.35,8.51,8.51,0,0,1,.35,4.85,8.33,8.33,0,0,1-4.24,5.2,7.82,7.82,0,0,1-6.58.89,7.08,7.08,0,0,1-2.08-1.15,8.05,8.05,0,0,1-1.71-1.88,10.8,10.8,0,0,1-.84-1.34,3,3,0,0,1-.3-0.68,6.12,6.12,0,0,1-.25-1.22,3.29,3.29,0,0,1,.17-0.92,1.3,1.3,0,0,1,.84-0.72,1.4,1.4,0,0,1,1.16,0,2.56,2.56,0,0,1,.79.58,3.24,3.24,0,0,1,.66,1,4.81,4.81,0,0,0,.68,1.21,12,12,0,0,0,.89,1,3.53,3.53,0,0,0,1.19.77,4.28,4.28,0,0,0,3.62-.62,4.56,4.56,0,0,0,2.47-2.93,3.72,3.72,0,0,0,.11-1.56,7.17,7.17,0,0,0-.29-1.3,5.09,5.09,0,0,0-.61-1.29l-0.07-.13a6.17,6.17,0,0,0-1.51-1.82,7,7,0,0,0-2-1.1,12.7,12.7,0,0,0-2.43-.62q-1.35-.22-3-0.42t-3.58-.4a17.19,17.19,0,0,1-3.6-1,12.45,12.45,0,0,1-6.44-5.73,9.62,9.62,0,0,1-1.31-4,8.23,8.23,0,0,1,.46-3.52,8.77,8.77,0,0,1,1.8-2.91,11,11,0,0,1,2.7-2.14,9.24,9.24,0,0,1,6.32-1.2,9.46,9.46,0,0,1,2.93,1.24A9.29,9.29,0,0,1,479.41,450.58Z" transform="translate(-184.02 -103.58)"/><polygon class="cls-1" points="196.51 414.84 218.35 370.11 198.33 372.08 196.51 414.84"/><polygon class="cls-1" points="208.86 340.04 187.01 384.76 207.04 382.79 208.86 340.04"/><path class="cls-1" d="M388,393.85c-40.94,0-62.37-13.33-62.37-26.49S347.1,340.87,388,340.87s62.37,13.33,62.37,26.49S429,393.85,388,393.85Zm0-44.29c-34.56,0-53.67,10.52-53.67,17.8s19.11,17.8,53.67,17.8,53.67-10.52,53.67-17.8S422.6,349.56,388,349.56Z" transform="translate(-184.02 -103.58)"/><path class="cls-1" d="M444.78,239.66a4.35,4.35,0,0,1-4.35-4.35,5.33,5.33,0,0,1,1.33-3.46c-5-7.76-25.64-15.46-53.76-15.46-28,0-48.66,7.7-53.73,15.43a5.49,5.49,0,0,1,1.3,3.49,4.35,4.35,0,0,1-8.36,1.68l0,0c-0.77-.74-3.12-3-2.06-6.16,4.62-13.61,30.47-23.12,62.86-23.12,32.74,0,58.63,9.64,63,23.44,1,3.19-1.45,5.34-2.27,6.06A4.35,4.35,0,0,1,444.78,239.66Z" transform="translate(-184.02 -103.58)"/><path class="cls-1" d="M332.14,365.08a4.35,4.35,0,0,1-4.35-4.35v-132a4.35,4.35,0,1,1,8.69,0v132A4.35,4.35,0,0,1,332.14,365.08Z" transform="translate(-184.02 -103.58)"/><path class="cls-1" d="M443.94,364.32a4.35,4.35,0,0,1-4.35-4.35V228.76a4.35,4.35,0,1,1,8.69,0V360A4.35,4.35,0,0,1,443.94,364.32Z" transform="translate(-184.02 -103.58)"/><path class="cls-1" d="M334.53,324a3.71,3.71,0,0,0,2.37-.85c9.29-7.67,28.42-12.44,49.94-12.44,10,0,23.27,2.18,32.33,4.22a3.72,3.72,0,0,0,4.54-3.63V258a3.73,3.73,0,0,0-2.91-3.63c-9.45-2.13-23.34-4.4-34-4.4-23.52,0-44,5.29-54.68,14.14a3.73,3.73,0,1,0,4.74,5.74c9.29-7.67,28.42-12.44,49.94-12.44,9,0,20.59,1.76,29.43,3.59v45.75c-9-1.8-20.39-3.44-29.43-3.44-23.52,0-44,5.29-54.68,14.14A3.73,3.73,0,0,0,334.53,324Z" transform="translate(-184.02 -103.58)"/></svg>