<svg id="Layer_1" data-name="Layer 1" xmlns="http://www.w3.org/2000/svg" xmlns:xlink="http://www.w3.org/1999/xlink" width="76.15" height="29.53" viewBox="0 0 76.15 29.53"><defs><style>.cls-1{fill:none;}.cls-2{clip-path:url(#clip-path);}.cls-3{fill:#231f20;}</style><clipPath id="clip-path" transform="translate(0 0)"><rect class="cls-1" width="76.14" height="29.53"/></clipPath></defs><title>Whirlpool</title><g class="cls-2"><path class="cls-3" d="M74.89,7.68c0.18,0,.33,0,0.33-0.22s-0.17-.19-0.31-0.19H74.63V7.68h0.26Zm-0.26.8H74.4V7.07h0.54c0.34,0,.52.12,0.52,0.41a0.36,0.36,0,0,1-.37.39l0.4,0.62H75.22l-0.37-.61H74.63V8.48Zm0.26-1.79a1,1,0,0,0-1,1.06,1,1,0,1,0,2,0,1,1,0,0,0-1-1.06m0,2.34a1.24,1.24,0,0,1-1.27-1.28A1.26,1.26,0,1,1,74.88,9" transform="translate(0 0)"/></g><polygon class="cls-3" points="47.67 23.54 47.26 23.54 47.26 22.73 46.52 22.73 46.52 23.54 46.11 23.54 46.11 21.66 46.52 21.66 46.52 22.41 47.26 22.41 47.26 21.66 47.67 21.66 47.67 23.54"/><g class="cls-2"><path class="cls-3" d="M49.5,22.6c0-.5-0.17-0.65-0.43-0.65s-0.44.18-.45,0.65,0.16,0.66.44,0.66,0.44-.16.44-0.66m-1.31,0a0.88,0.88,0,1,1,1.74,0,0.88,0.88,0,1,1-1.74,0" transform="translate(0 0)"/></g><polygon class="cls-3" points="50.46 21.66 50.94 21.66 51.51 23.06 51.52 23.06 52.07 21.66 52.52 21.66 52.62 23.54 52.21 23.54 52.16 22.32 52.13 22.32 52.09 22.45 51.67 23.54 51.3 23.54 50.89 22.45 50.85 22.33 50.82 22.33 50.75 23.54 50.36 23.54 50.46 21.66"/><polygon class="cls-3" points="53.07 21.66 54.27 21.66 54.27 22 53.48 22 53.48 22.41 54.17 22.41 54.17 22.73 53.48 22.73 53.48 23.2 54.29 23.2 54.29 23.54 53.07 23.54 53.07 21.66"/><path class="cls-3" d="M56.28,22.85l-0.19-.65,0-.11h0l0,0.11-0.2.65h0.46Zm-1.1.65,0.67-1.85h0.4L57,23.5v0H56.52l-0.16-.42H55.77l-0.14.42H55.19v0Z" transform="translate(0 0)"/><g class="cls-2"><path class="cls-3" d="M57.8,22.61h0.15a0.29,0.29,0,0,0,.36-0.31A0.27,0.27,0,0,0,58,22H57.8v0.61Zm-0.41-.95H57.9c0.56,0,.83.13,0.83,0.61a0.6,0.6,0,0,1-.73.62H57.8v0.65H57.39V21.66Z" transform="translate(0 0)"/><path class="cls-3" d="M59.51,22.61h0.15A0.29,0.29,0,0,0,60,22.3a0.27,0.27,0,0,0-.34-0.3H59.51v0.61Zm-0.41-.95h0.51c0.56,0,.83.13,0.83,0.61a0.6,0.6,0,0,1-.73.62H59.51v0.65H59.1V21.66Z" transform="translate(0 0)"/></g><polygon class="cls-3" points="60.86 21.66 61.27 21.66 61.27 23.2 62.08 23.2 62.08 23.54 60.86 23.54 60.86 21.66"/><rect class="cls-3" x="62.49" y="21.66" width="0.41" height="1.88"/><path class="cls-3" d="M64.45,22.85l-0.19-.65,0-.11h0l0,0.11-0.2.65h0.46Zm-1.1.65L64,21.65h0.4l0.71,1.85v0H64.68l-0.16-.42H63.93l-0.14.42H63.35v0Z" transform="translate(0 0)"/><polygon class="cls-3" points="65.55 21.66 65.91 21.66 66.61 22.65 66.71 22.81 66.73 22.81 66.73 21.66 67.14 21.66 67.14 23.54 66.79 23.54 66.07 22.52 65.99 22.38 65.96 22.38 65.96 23.54 65.55 23.54 65.55 21.66"/><g class="cls-2"><path class="cls-3" d="M69.1,23.51a2.76,2.76,0,0,1-.49.06,0.83,0.83,0,0,1-1-1,0.91,0.91,0,0,1,1-1,1.29,1.29,0,0,1,.39.06V22a1.89,1.89,0,0,0-.4-0.05,0.5,0.5,0,0,0-.6.62,0.5,0.5,0,0,0,.58.62,2.08,2.08,0,0,0,.44-0.06v0.35Z" transform="translate(0 0)"/></g><polygon class="cls-3" points="69.55 21.66 70.75 21.66 70.75 22 69.96 22 69.96 22.41 70.66 22.41 70.66 22.73 69.96 22.73 69.96 23.2 70.77 23.2 70.77 23.54 69.55 23.54 69.55 21.66"/><g class="cls-2"><path class="cls-3" d="M71.22,23.21a2.57,2.57,0,0,0,.57.08c0.23,0,.38,0,0.38-0.21,0-.39-1-0.29-1-0.92,0-.44.36-0.55,0.81-0.55a2.35,2.35,0,0,1,.48.06V22a1.72,1.72,0,0,0-.53-0.08c-0.25,0-.37,0-0.37.19,0,0.33,1,.27,1,1,0,0.43-.34.53-0.81,0.53a3,3,0,0,1-.54-0.07V23.21Z" transform="translate(0 0)"/></g><polygon class="cls-3" points="18.98 6.65 15.37 19.77 13.28 19.77 10.73 10.24 8.14 19.77 6.04 19.77 2.44 6.65 4.51 6.65 7.08 16.18 9.67 6.65 11.73 6.65 14.33 16.18 16.9 6.65 18.98 6.65"/><g class="cls-2"><path class="cls-3" d="M19.94,6.69L22,6.52V9.74l0,1.2h0.08a7.25,7.25,0,0,1,2.68-.53c1.68,0,2.81.75,2.81,3.63v5.73H25.47V14.21c0-1.73-.85-2-1.81-2a5.79,5.79,0,0,0-1.64.28v7.24H19.94V6.69Z" transform="translate(0 0)"/><path class="cls-3" d="M29.36,10.54h2.08v9.23H29.36V10.54Zm1-3.72a1.1,1.1,0,0,1,1.25,1.32A1.14,1.14,0,0,1,30.4,9.47a1.12,1.12,0,0,1-1.23-1.34A1.1,1.1,0,0,1,30.4,6.82" transform="translate(0 0)"/><path class="cls-3" d="M33.2,10.54h1.42L34.9,11.3H35a3.89,3.89,0,0,1,2.55-.88,3.66,3.66,0,0,1,.43,0v2a8,8,0,0,0-1.17-.11,3.62,3.62,0,0,0-1.57.38v7H33.2V10.54Z" transform="translate(0 0)"/></g><polygon class="cls-3" points="38.9 19.77 38.9 6.69 40.98 6.52 40.98 19.77 38.9 19.77"/><g class="cls-2"><path class="cls-3" d="M57.71,15.2c0-1.75-.28-3.18-1.94-3.18s-2.1,1.37-2.1,3.18,0.34,3.12,2,3.12,2-1.37,2-3.12m-2-4.79c2.95,0,4.08,1.73,4.08,4.79,0,2.88-1.06,4.75-4.12,4.75s-4.14-1.88-4.14-4.75c0-3.06,1.23-4.79,4.17-4.79" transform="translate(0 0)"/><path class="cls-3" d="M67,15.2c0-1.75-.28-3.18-1.94-3.18S63,13.4,63,15.2s0.34,3.12,2,3.12S67,17,67,15.2m-2-4.79c2.95,0,4.08,1.73,4.08,4.79C69.14,18.08,68.08,20,65,20s-4.14-1.88-4.14-4.75c0-3.06,1.23-4.79,4.17-4.79" transform="translate(0 0)"/></g><polygon class="cls-3" points="70.52 19.77 70.52 6.69 72.59 6.52 72.59 19.77 70.52 19.77"/><g class="cls-2"><path class="cls-3" d="M56.25,0.49C54.52-1.34,48,2.14,41.44,7.56v0.7C47.91,2.89,54-.27,55.4,1.21c0.71,0.75.09,3.11-1.53,5.84a1.91,1.91,0,0,0-.73.67,64.48,64.48,0,0,1-8.33,9.57C36.39,25.19,28.24,30,26.59,28.24c-0.94-1,.6-4.2,3.42-8H29.23c-3,4-4.6,7.54-3.41,8.81,2.08,2.19,11.51-3.17,19.91-11a57.78,57.78,0,0,0,8.48-9.29c0.51-.78.54-1.33,0.32-1.57,2-3.12,2.74-5.55,1.71-6.63" transform="translate(0 0)"/><path class="cls-3" d="M44.74,12.67a4.88,4.88,0,0,1,1.55-.26,1.73,1.73,0,0,1,2,1.34q0.81-.89,1.56-1.78a2.83,2.83,0,0,0-2.63-1.55,6.11,6.11,0,0,0-2.72.81H44.42l-0.17-.68H42.68v8.69q1-.87,2-1.8c0.07-2,.07-2.94.07-4.76" transform="translate(0 0)"/><path class="cls-3" d="M48.38,15.45c-0.14,2.09-.95,2.65-2.11,2.65H45.62c-1,.91-2,1.78-2.94,2.62v3.46l2.08-.22V19.71h0.06a9.86,9.86,0,0,0,1.81.19c2.42,0,3.87-1.6,3.87-4.83a9,9,0,0,0-.14-1.66q-0.93,1-2,2" transform="translate(0 0)"/><path class="cls-3" d="M16.67,4.23a0.46,0.46,0,0,0,.18-0.29,0.25,0.25,0,0,0-.19-0.27,1.15,1.15,0,0,0-.72.07l-0.34.11C15.36,3.91,15.1,4,14.84,4L14,4.17l-0.89.09-0.9,0H11.14L10,4.23l-1-.1L8.12,4C7.84,3.94,7.58,3.89,7.35,3.83S6.94,3.71,6.77,3.65A0.73,0.73,0,0,0,6.5,3.59a0.27,0.27,0,0,0-.24.1,0.21,0.21,0,0,0,.06.24,0.6,0.6,0,0,0,.22.15l0.13,0c0.19,0.07.4,0.14,0.63,0.2L8,4.51,8.84,4.66,9.73,4.77l0.94,0.07,1,0h1l1-.05,0.71-.07,0.17,0a0.31,0.31,0,0,0,.25.22,1,1,0,0,0,.36,0c0.51,0,1-.09,1.49-0.15s1-.13,1.4-0.22,0.86-.18,1.25-0.28a10.53,10.53,0,0,0,1-.33,5.67,5.67,0,0,0,.81-0.38,2.47,2.47,0,0,0,.55-0.41,1,1,0,0,0,.26-0.44,0.68,0.68,0,0,0,0-.45,1.31,1.31,0,0,0-.35-0.44,3.34,3.34,0,0,0-.66-0.42,7.32,7.32,0,0,0-.95-0.39C19.58,1,19.18.85,18.73,0.74S17.8,0.54,17.28.45,16.22,0.29,15.64.23,14.47,0.11,13.85.07,12.6,0,12,0,10.68,0,10,0s-1.28.05-1.9,0.1S6.91,0.23,6.32.31,5.17,0.47,4.64.57s-1,.22-1.49.34a12.37,12.37,0,0,0-1.25.4,6.59,6.59,0,0,0-1,.46,2.8,2.8,0,0,0-.64.5A1.12,1.12,0,0,0,0,2.8a0.82,0.82,0,0,0,.07.53,1.64,1.64,0,0,0,.44.53,4.19,4.19,0,0,0,.8.5,8.92,8.92,0,0,0,1.14.46C2.91,5,3.4,5.1,3.93,5.23S5,5.47,5.66,5.57s1.27,0.19,2,.26S9,6,9.74,6l0.32,0a0.6,0.6,0,0,0,.28,0,0.27,0.27,0,0,0,.17-0.2,0.23,0.23,0,0,0-.15-0.21,0.66,0.66,0,0,0-.28-0.07L9,5.42c-0.46,0-.92-0.09-1.35-0.16s-0.85-.13-1.25-0.2S5.62,4.91,5.27,4.82L4.46,4.59a6.35,6.35,0,0,1-1.61-.73,2.14,2.14,0,0,1-.41-0.35,1,1,0,0,1-.21-0.36,0.68,0.68,0,0,1,0-.36,0.92,0.92,0,0,1,.18-0.35,1.89,1.89,0,0,1,.37-0.34A3.84,3.84,0,0,1,3.3,1.79,7.25,7.25,0,0,1,4,1.49l0.45-.15c0.29-.09.59-0.17,0.92-0.24L5.93,1,7,0.8l1.17-.14,1.21-.1,1.25,0h1.24l1.22,0,1.18,0.09,1.11,0.13,1,0.16a13,13,0,0,1,1.69.43,5.05,5.05,0,0,1,1.14.52,1.23,1.23,0,0,1,.52.57,0.59,0.59,0,0,1-.11.57,2,2,0,0,1-.71.53A6.61,6.61,0,0,1,17.71,4c-0.32.09-.66,0.17-1,0.23" transform="translate(0 0)"/><path class="cls-3" d="M6.23,2.57a0.87,0.87,0,0,1-.32.07,0.33,0.33,0,0,1-.29-0.11,0.24,0.24,0,0,1,.1-0.27A1,1,0,0,1,6,2.1a12,12,0,0,1,4.7-.85h0.16c0.54,0,1.07,0,1.59.07s1,0.1,1.4.18a8.65,8.65,0,0,1,1.1.27,3.43,3.43,0,0,1,.75.33,0.88,0.88,0,0,1,.36.35,0.36,0.36,0,0,1,0,.14,0.37,0.37,0,0,1-.07.21,1.08,1.08,0,0,1-.41.32,3.75,3.75,0,0,1-.71.26,8.23,8.23,0,0,1-.93.19c-0.33,0-.68.09-1.05,0.11l-0.54,0h-1l-0.46,0c-0.29,0-.56-0.06-0.81-0.11A4.59,4.59,0,0,1,9.46,3.4a1.82,1.82,0,0,1-.4-0.18A0.45,0.45,0,0,1,8.88,3a0.19,0.19,0,0,1,0-.18,0.55,0.55,0,0,1,.2-0.16,1.66,1.66,0,0,1,.32-0.12l0.4-.08,0.42,0h0.61l0.42,0,0.4,0.08a1.7,1.7,0,0,1,.32.12,0.54,0.54,0,0,1,.2.16,0.18,0.18,0,0,1,0,.18,0.33,0.33,0,0,1-.08.11H12.3l0.27,0L12.83,3,13.06,3l0.19-.09a0.65,0.65,0,0,0,.14-0.1,0.31,0.31,0,0,0,.08-0.11,0.2,0.2,0,0,0,0-.12,0.33,0.33,0,0,0-.07-0.13,0.74,0.74,0,0,0-.16-0.13L13,2.17l-0.32-.11L12.29,2l-0.46-.07-0.51,0-0.55,0H10.7a12.4,12.4,0,0,0-4.46.75" transform="translate(0 0)"/></g></svg>