<svg id="Layer_1" data-name="Layer 1" xmlns="http://www.w3.org/2000/svg" xmlns:xlink="http://www.w3.org/1999/xlink" width="101.89" height="10.85" viewBox="0 0 101.89 10.85"><defs><style>.cls-1{fill:none;}.cls-2{clip-path:url(#clip-path);}.cls-3{fill:#231f20;}</style><clipPath id="clip-path" transform="translate(0 0)"><rect class="cls-1" width="101.89" height="10.85"/></clipPath></defs><title>DrakeGeneralStore</title><g class="cls-2"><path class="cls-3" d="M16.9,3.39V7.46c0.45,0,.89,0,1.34,0a1.06,1.06,0,0,0,.59-0.23,1.17,1.17,0,0,0,.44-0.88c0-.41,0-0.83,0-1.25a4.66,4.66,0,0,0,0-.64,1.13,1.13,0,0,0-1.1-1c-0.41,0-.82,0-1.23,0h0M16.23,8.06V2.77H18A2.18,2.18,0,0,1,19,3a1.61,1.61,0,0,1,1,1.35,9.74,9.74,0,0,1,0,2.15A1.69,1.69,0,0,1,18.37,8a3.78,3.78,0,0,1-.5,0H16.23" transform="translate(0 0)"/><path class="cls-3" d="M33.09,5.38l0.05,0.08L34.66,8a0.12,0.12,0,0,0,.12.07h0.7l-2-3.22,1.73-2.09H34.51a0.11,0.11,0,0,0-.07,0L32.21,5.49l-0.12.14h0V2.77H31.4v5.3h0.67V8c0-.43,0-0.87,0-1.3a0.15,0.15,0,0,1,0-.09l1-1.2" transform="translate(0 0)"/><path class="cls-3" d="M46.73,3.85a1.71,1.71,0,0,0-.56-0.75,2,2,0,0,0-1.51-.33,1.61,1.61,0,0,0-.95.47,1.87,1.87,0,0,0-.52,1.28c0,0.51,0,1,0,1.53a2.66,2.66,0,0,0,.1.8,1.65,1.65,0,0,0,.84,1,2.08,2.08,0,0,0,1.19.19,1.74,1.74,0,0,0,1.6-1.61c0-.41,0-0.82,0-1.23h-2v0.6h1.38c0,0.15,0,.3,0,0.44a1.3,1.3,0,0,1-.33.83A1.17,1.17,0,0,1,44.08,7a1.56,1.56,0,0,1-.24-0.88c0-.46,0-0.92,0-1.38a2,2,0,0,1,0-.37A1.18,1.18,0,0,1,44.3,3.6,1.2,1.2,0,0,1,46,3.89C46,4,46.07,4,46.12,4.13l0.61-.28" transform="translate(0 0)"/></g><polygon class="cls-3" points="58.9 3.4 58.9 5.1 61.16 5.1 61.16 5.68 58.9 5.68 58.9 7.44 61.55 7.44 61.55 8.05 58.23 8.05 58.23 2.79 61.55 2.79 61.55 3.4 58.9 3.4"/><g class="cls-2"><path class="cls-3" d="M63.69,3.43V5.2h1.4a1,1,0,0,0,.67-0.25,0.92,0.92,0,0,0,.22-1,0.73,0.73,0,0,0-.73-0.51c-0.51,0-1,0-1.55,0m2.94,4.68h-0.7a0.1,0.1,0,0,1-.07-0.06L65.32,6.83l-0.42-1a0.09,0.09,0,0,0-.09-0.07H63.68V8.11H63V2.84h0.05c0.75,0,1.49,0,2.24,0A1.4,1.4,0,0,1,66.66,4a1.47,1.47,0,0,1-.89,1.69l-0.21.09,1.07,2.39" transform="translate(0 0)"/><path class="cls-3" d="M83,3.32l-0.37.56c-0.15-.07-0.28-0.16-0.42-0.22a2,2,0,0,0-1.42-.11,0.73,0.73,0,0,0-.52.86,0.63,0.63,0,0,0,.4.47,4.17,4.17,0,0,0,.84.25,7.05,7.05,0,0,1,.84.22,1.19,1.19,0,0,1,.8,1.25,1.41,1.41,0,0,1-1,1.35,2.76,2.76,0,0,1-1.5.08,3.08,3.08,0,0,1-1.12-.45L79.29,7.4l0.4-.51a5.52,5.52,0,0,0,.51.33,2.22,2.22,0,0,0,1.63.19,0.81,0.81,0,0,0,.61-1A0.62,0.62,0,0,0,82.08,6a2.86,2.86,0,0,0-.81-0.24,4.56,4.56,0,0,1-1-.26,1.13,1.13,0,0,1-.71-1,1.46,1.46,0,0,1,.16-0.83A1.42,1.42,0,0,1,80.52,3a2.52,2.52,0,0,1,1.17-.12,2.39,2.39,0,0,1,.89.24c0.13,0.07.26,0.15,0.4,0.23" transform="translate(0 0)"/></g><polygon class="cls-3" points="98.58 2.78 98.58 8.03 101.89 8.03 101.89 7.43 99.24 7.43 99.24 5.67 101.5 5.67 101.5 5.09 99.24 5.09 99.24 3.39 101.89 3.39 101.89 2.78 98.58 2.78"/><g class="cls-2"><path class="cls-3" d="M22,5.13c0.51,0,1,0,1.52,0a0.84,0.84,0,0,0,.79-0.63,0.84,0.84,0,0,0-.35-1,1.15,1.15,0,0,0-.45-0.13c-0.48,0-1,0-1.44,0H22V5.13ZM21.31,2.77h2.24a1.43,1.43,0,0,1,1.36,1,1.44,1.44,0,0,1-.66,1.77c-0.12.07-.26,0.12-0.39,0.19l1.07,2.38H24.84c-0.17,0-.33,0-0.5,0a0.19,0.19,0,0,1-.23-0.15L23.2,5.81a0.12,0.12,0,0,0-.13-0.08H22V8.05H21.31V2.77Z" transform="translate(0 0)"/><path class="cls-3" d="M28.09,3.66h0l-0.9,2.61H29l-0.9-2.6m2.22,4.4H29.66A0.07,0.07,0,0,1,29.58,8L29.21,6.93a0.11,0.11,0,0,0-.12-0.09h-2a0.09,0.09,0,0,0-.11.08c-0.12.35-.25,0.7-0.36,1.06a0.11,0.11,0,0,1-.13.09h-0.6l0.23-.62,1.69-4.6a0.09,0.09,0,0,1,.11-0.08h0.42a0.1,0.1,0,0,1,.11.08L29.18,5l1.08,2.94,0,0.14" transform="translate(0 0)"/></g><polygon class="cls-3" points="36.46 8.07 39.81 8.07 39.81 7.46 37.13 7.46 37.13 5.69 39.41 5.69 39.41 5.1 37.13 5.1 37.13 3.38 39.81 3.38 39.81 2.77 36.46 2.77 36.46 8.07"/><g class="cls-2"><path class="cls-3" d="M53.61,3.95h0L53.69,4c0.8,1.35,1.68,2.64,2.52,4a0.1,0.1,0,0,0,.06,0h0.61V2.79H56.23V6.91a0.19,0.19,0,0,1-.07-0.07c-0.35-.56-0.68-1.12-1-1.68-0.49-.77-1-1.54-1.49-2.3a0.13,0.13,0,0,0-.08-0.06H52.95V8h0.66V3.95Z" transform="translate(0 0)"/></g><polygon class="cls-3" points="48.88 3.38 48.88 5.09 51.14 5.09 51.14 5.67 48.88 5.67 48.88 7.42 51.53 7.42 51.53 8.03 48.22 8.03 48.22 2.78 51.53 2.78 51.53 3.38 48.88 3.38"/><polygon class="cls-3" points="73.17 2.83 73.83 2.83 73.83 7.5 76.5 7.5 76.5 8.1 73.17 8.1 73.17 2.83"/><g class="cls-2"><path class="cls-3" d="M69.88,3.72h0L69,6.31h1.81L69.88,3.72m2.21,4.39H71.42A0.09,0.09,0,0,1,71.37,8C71.24,7.7,71.12,7.34,71,7a0.11,0.11,0,0,0-.13-0.09h-2a0.09,0.09,0,0,0-.11.08q-0.18.54-.38,1.07a0.11,0.11,0,0,1-.07.06H67.65l0.13-.35L69.55,2.9a0.09,0.09,0,0,1,.1-0.07H70.1a0.08,0.08,0,0,1,.09.06l1.28,3.5L72.06,8l0,0.09" transform="translate(0 0)"/><path class="cls-3" d="M94.23,5.14h1.29a1.81,1.81,0,0,0,.39,0,0.91,0.91,0,0,0,.53-1.37,0.82,0.82,0,0,0-.7-0.35c-0.49,0-1,0-1.46,0h0V5.14Zm0,2.9H93.56V2.78h2.14a1.52,1.52,0,0,1,1.13.45A1.38,1.38,0,0,1,97.2,4.5a1.43,1.43,0,0,1-.94,1.09l-0.17.07L97.16,8c-0.2,0-.38,0-0.57,0a0.21,0.21,0,0,1-.25-0.16c-0.3-.7-0.6-1.4-0.91-2.1a0.1,0.1,0,0,0-.06-0.05H94.23V8Z" transform="translate(0 0)"/><path class="cls-3" d="M91.57,5.46h0c0-.24,0-0.48,0-0.72a1.63,1.63,0,0,0-.12-0.64,1.17,1.17,0,0,0-1.87-.39,1.3,1.3,0,0,0-.39.93c0,0.5,0,1,0,1.49a1.56,1.56,0,0,0,.11.57A1.16,1.16,0,0,0,91,7.3a1.18,1.18,0,0,0,.61-1c0-.28,0-0.56,0-0.84m0.66,0c0,0.29,0,.58,0,0.87a2,2,0,0,1-.3,1A1.59,1.59,0,0,1,90.86,8a2,2,0,0,1-1.55-.25,1.61,1.61,0,0,1-.67-1,2.92,2.92,0,0,1-.08-0.62c0-.48,0-1,0-1.45a2.07,2.07,0,0,1,.31-1.12A1.62,1.62,0,0,1,90,2.82a2.08,2.08,0,0,1,1,.07A1.67,1.67,0,0,1,92.14,4a2.19,2.19,0,0,1,.1.71c0,0.23,0,.47,0,0.7h0Z" transform="translate(0 0)"/></g><polygon class="cls-3" points="83.98 3.46 83.98 2.89 87.58 2.89 87.58 3.45 86.11 3.45 86.11 8.05 85.45 8.05 85.45 3.46 83.98 3.46"/><g class="cls-2"><path class="cls-3" d="M7.4,7.61h3a0.19,0.19,0,0,0,0-.06V3.25h-3v-3s0,0,0,0v0H3.16v3s0,0,0,0v0h-3v0q0,2.16,0,4.32h3a0.2,0.2,0,0,1,0,.06v2.93s0,0,0,0v0H7.4v-3h0m3.15,0.18h-3v3.06H3v0s0,0,0,0V7.85s0,0,0-.06H0v0c0-.09,0-4.66,0-4.7H3V0H7.57V0s0,0,0,0v3h3v0s0,0,0,0V7.72a0.2,0.2,0,0,1,0,.07" transform="translate(0 0)"/><path class="cls-3" d="M7,3.62h3a0.3,0.3,0,0,1,0,0q0,1.78,0,3.55H7v3H3.53v-3a0.23,0.23,0,0,0,0-.06h-3s0,0,0,0q0-1.77,0-3.54h3v-3a0.17,0.17,0,0,1,0-.06H7v3a0.23,0.23,0,0,0,0,.07" transform="translate(0 0)"/></g></svg>