<svg id="Layer_1" data-name="Layer 1" xmlns="http://www.w3.org/2000/svg" xmlns:xlink="http://www.w3.org/1999/xlink" width="76.15" height="15.53" viewBox="0 0 76.15 15.53"><defs><style>.cls-1,.cls-4{fill:none;}.cls-2{clip-path:url(#clip-path);}.cls-3{fill:#231f20;}.cls-4{stroke:#231f20;stroke-miterlimit:10;stroke-width:1.67px;}</style><clipPath id="clip-path" transform="translate(0 0)"><rect class="cls-1" width="76.14" height="15.53"/></clipPath></defs><title>JennAir</title><g class="cls-2"><path class="cls-3" d="M9,6.76A3.8,3.8,0,0,1,6.44,8.21h-3c1.93-.36,3-2,4.12-3.43a3.15,3.15,0,0,1,2.57-1.4h1.55V1a0.94,0.94,0,0,0-.9-1H1A1,1,0,0,0,0,1V5.78H2.58a6.35,6.35,0,0,0,1.54,1.6,3,3,0,0,1-1.67.48C1.42,7.86,1,7.48,0,6.5v4.29a1,1,0,0,0,1,1h9.78a0.94,0.94,0,0,0,.9-1V3.89C10.56,4.43,10.3,5.46,9,6.76" transform="translate(0 0)"/></g><polygon class="cls-3" points="16.69 0.48 16.69 11.77 23.25 11.77 23.25 10.29 18.36 10.29 18.36 6.81 22.87 6.81 22.87 5.33 18.36 5.33 18.36 1.91 23.13 1.91 23.13 0.48 16.69 0.48"/><polygon class="cls-3" points="33.55 0.48 33.55 9.22 25.96 0.48 24.54 0.48 24.54 11.77 26.09 11.77 26.09 3.11 33.68 11.77 34.97 11.77 34.97 0.48 33.55 0.48"/><polygon class="cls-3" points="45.52 0.48 45.52 9.22 37.93 0.48 36.51 0.48 36.51 11.77 38.06 11.77 38.06 3.11 45.65 11.77 46.94 11.77 46.94 0.48 45.52 0.48"/><g class="cls-2"><line class="cls-4" x1="64.12" y1="11.77" x2="64.12" y2="0.48"/></g><polygon class="cls-3" points="48.35 7 48.35 8.44 51.57 8.44 52.22 7 48.35 7"/><g class="cls-2"><path class="cls-3" d="M11.41,14h0.77a1.4,1.4,0,0,0,1.42-1.52V0.5h1.67V12.11a4.21,4.21,0,0,1-.77,2.49,4,4,0,0,1-3.09.93V14Z" transform="translate(0 0)"/></g><path class="cls-3" d="M56.85,2.92l1.8,4H55.18ZM56.33,0.4L51.44,11.77h1.67l1.42-3.34h4.76l1.54,3.34h1.67l-5-11.36H56.33Z" transform="translate(0 0)"/><g class="cls-2"><path class="cls-3" d="M66.37,11.77V0.48h3.09c0.77,0,3.48.25,3.48,3.12a3,3,0,0,1-2.19,2.87l3,5.29H71.78L69.21,6.86H68v4.91H66.37ZM68,1.87V5.41h1.42a1.72,1.72,0,0,0,1.8-1.82c0-1.94-1.93-1.73-3.22-1.73" transform="translate(0 0)"/><path class="cls-3" d="M74.86,0.36a1.29,1.29,0,0,1,1.29,1.23,1.29,1.29,0,0,1-1.29,1.23A1.18,1.18,0,0,1,73.7,1.59,1.18,1.18,0,0,1,74.86.36m0,2.27a1,1,0,0,0,1-1,1,1,0,0,0-1-1,1.06,1.06,0,0,0-1,1,1.06,1.06,0,0,0,1,1M74.34,0.88H75a0.46,0.46,0,0,1,.51.4,0.42,0.42,0,0,1-.39.39L75.5,2.31H75.24L74.86,1.7H74.6V2.31H74.34V0.88ZM74.6,1.51h0.26c0.26,0,.39,0,0.39-0.23s-0.13-.22-0.39-0.22H74.6V1.51Z" transform="translate(0 0)"/></g></svg>