<svg id="Layer_1" data-name="Layer 1" xmlns="http://www.w3.org/2000/svg" xmlns:xlink="http://www.w3.org/1999/xlink" width="51.92" height="32.2" viewBox="0 0 51.92 32.2"><defs><style>.cls-1{fill:none;}.cls-2{clip-path:url(#clip-path);}.cls-3{fill:#231f20;}</style><clipPath id="clip-path" transform="translate(0 0)"><rect class="cls-1" width="51.92" height="32.2"/></clipPath></defs><title>ItalianByNight</title><g class="cls-2"><path class="cls-3" d="M0.62,32h0.1c0.4,0,.44,0,0.44-0.19V29.46c0-.1,0-0.14-0.12-0.14H0.78a1.33,1.33,0,0,0-.73.89L0,30.2l0.16-1H2.54l0.16,1-0.06,0c-0.3-.65-0.49-0.89-0.76-0.9H1.66c-0.11,0-.13,0-0.13.14v2.36C1.53,32,1.59,32,2,32H2.07v0.1H0.62V32Z" transform="translate(0 0)"/><path class="cls-3" d="M4.22,30.62c0.5,0,.79-0.13.79-0.65a0.58,0.58,0,0,0-.6-0.66H4.07c-0.21,0-.24.05-0.24,0.13v1.18H4.22ZM3.83,31.82C3.83,32,3.94,32,4.2,32H4.3v0.1H3V32H3c0.4,0,.44,0,0.44-0.23V29.5c0-.15-0.06-0.19-0.44-0.19H3v-0.1h1.5a0.85,0.85,0,0,1,1,.76,0.78,0.78,0,0,1-.84.68,0.74,0.74,0,0,1,.63.76c0,0.43.12,0.55,0.33,0.55a0.41,0.41,0,0,0,.33-0.49H6a0.6,0.6,0,0,1-.6.68,0.48,0.48,0,0,1-.55-0.38l0-.72c0-.32-0.19-0.36-0.45-0.36H3.83v1.11Z" transform="translate(0 0)"/><path class="cls-3" d="M7.2,29.74s-0.4,1-.4,1H7.55ZM6.48,31.6C6.35,31.93,6.39,32,6.85,32H7v0.1H5.91V32a0.4,0.4,0,0,0,.44-0.37l1-2.49H7.37l0.91,2.57a0.31,0.31,0,0,0,.34.28H8.73v0.1H7.37V32h0.1c0.52,0,.47-0.07.39-0.31l-0.28-.81H6.76Z" transform="translate(0 0)"/><path class="cls-3" d="M9.12,32h0.1c0.4,0,.44,0,0.44-0.19V29.46c0-.1,0-0.14-0.12-0.14H9.28a1.33,1.33,0,0,0-.73.89l-0.06,0,0.16-1H11l0.16,1-0.05,0c-0.3-.65-0.49-0.89-0.77-0.9H10.16c-0.11,0-.13,0-0.13.14v2.36C10,32,10.09,32,10.46,32h0.11v0.1H9.12V32Z" transform="translate(0 0)"/><path class="cls-3" d="M12.11,32h0.1c0.4,0,.44,0,0.44-0.19V29.46c0-.1,0-0.14-0.12-0.14H12.27a1.33,1.33,0,0,0-.73.89l-0.06,0,0.16-1H14l0.16,1-0.05,0c-0.3-.65-0.49-0.89-0.77-0.9H13.15c-0.11,0-.13,0-0.13.14v2.36C13,32,13.08,32,13.45,32h0.11v0.1H12.11V32Z" transform="translate(0 0)"/><path class="cls-3" d="M16.74,30.67c0-.91-0.27-1.4-0.94-1.4s-0.94.5-.94,1.42,0.25,1.38.94,1.38,0.94-.61.94-1.39m-2.34,0a1.4,1.4,0,1,1,1.4,1.5,1.48,1.48,0,0,1-1.4-1.5" transform="translate(0 0)"/><path class="cls-3" d="M18.49,30.62c0.5,0,.79-0.13.79-0.65a0.58,0.58,0,0,0-.6-0.66H18.35c-0.21,0-.24.05-0.24,0.13v1.18h0.39Zm-0.39,1.19c0,0.15.11,0.19,0.36,0.19h0.1v0.1H17.23V32h0.05c0.4,0,.44,0,0.44-0.23V29.5c0-.15-0.06-0.19-0.44-0.19H17.23v-0.1h1.5a0.85,0.85,0,0,1,1,.76,0.78,0.78,0,0,1-.84.68,0.74,0.74,0,0,1,.63.76c0,0.43.12,0.55,0.33,0.55a0.41,0.41,0,0,0,.33-0.49h0.1a0.6,0.6,0,0,1-.6.68,0.48,0.48,0,0,1-.55-0.38l0-.72c0-.32-0.19-0.36-0.45-0.36H18.11v1.11Z" transform="translate(0 0)"/><path class="cls-3" d="M20.27,32h0.1c0.4,0,.44,0,0.44-0.19V29.5c0-.15-0.06-0.19-0.44-0.19h-0.1v-0.1h1.45v0.1H21.61c-0.37,0-.43,0-0.43.19v2.31c0,0.16.06,0.19,0.43,0.19h0.11v0.1H20.27V32Z" transform="translate(0 0)"/><path class="cls-3" d="M23.25,29.74s-0.4,1-.4,1h0.76ZM22.53,31.6c-0.13.33-.09,0.37,0.37,0.4H23v0.1H22V32a0.4,0.4,0,0,0,.44-0.37l1-2.49h0.05l0.91,2.57a0.31,0.31,0,0,0,.34.28h0.11v0.1H23.43V32h0.1c0.52,0,.47-0.07.39-0.31l-0.28-.81H22.81Z" transform="translate(0 0)"/><path class="cls-3" d="M26.51,31.88a0.63,0.63,0,0,0-.26.22H26.2V31.16h0.07a1.24,1.24,0,0,0,1,.9,0.57,0.57,0,0,0,.63-0.59c0-.91-1.66-0.33-1.66-1.51a0.8,0.8,0,0,1,.83-0.8,1.82,1.82,0,0,1,.62.21,0.4,0.4,0,0,0,.2-0.17H28v0.86H27.92a1,1,0,0,0-.8-0.8,0.51,0.51,0,0,0-.59.54c0,0.94,1.66.33,1.66,1.52a0.86,0.86,0,0,1-.89.85,2.24,2.24,0,0,1-.79-0.27" transform="translate(0 0)"/><path class="cls-3" d="M29.57,29.74s-0.4,1-.4,1h0.76ZM28.86,31.6c-0.13.33-.09,0.37,0.37,0.4h0.13v0.1H28.29V32a0.4,0.4,0,0,0,.44-0.37l1-2.49h0.05l0.91,2.57A0.31,0.31,0,0,0,31,32H31.1v0.1H29.75V32h0.1c0.52,0,.47-0.07.39-0.31L30,30.89H29.13Z" transform="translate(0 0)"/><path class="cls-3" d="M31.35,32h0.1c0.4,0,.44,0,0.44-0.19V29.5c0-.15-0.06-0.19-0.44-0.19h-0.1v-0.1H32.8v0.1H32.68c-0.37,0-.42,0-0.42.19v2.31c0,0.16.06,0.19,0.42,0.19H32.8v0.1H31.35V32Z" transform="translate(0 0)"/><path class="cls-3" d="M33.19,29.31v-0.1h0.75l1.7,2.28V29.7c0-.28,0-0.35-0.53-0.38H35v-0.1h1.19v0.1c-0.48,0-.48.11-0.48,0.41v2.45H35.66L33.8,29.65v2c0,0.3,0,.35.57,0.38v0.1H33.2V32h0.08c0.44,0,.42-0.14.42-0.41V29.52a0.51,0.51,0,0,0-.51-0.2" transform="translate(0 0)"/><path class="cls-3" d="M37.05,32h0.1c0.4,0,.44,0,0.44-0.19V29.46c0-.1,0-0.14-0.12-0.14H37.21a1.33,1.33,0,0,0-.73.89l-0.06,0,0.16-1H39l0.16,1-0.05,0c-0.3-.65-0.49-0.89-0.77-0.9H38.09c-0.11,0-.13,0-0.13.14v2.36C38,32,38,32,38.39,32H38.5v0.1H37.05V32Z" transform="translate(0 0)"/><path class="cls-3" d="M40.44,31.67a0.35,0.35,0,0,1,.31-0.4,0.21,0.21,0,0,1,.21.21c0,0.27-.33.24-0.33,0.35a0.35,0.35,0,0,0,.38.28c0.36,0,.39-0.28.39-0.65V29.5c0-.15-0.06-0.19-0.39-0.19h-0.1v-0.1h1.25v0.1H42c-0.23,0-.28,0-0.28.19v2a0.75,0.75,0,0,1-.73.68,0.53,0.53,0,0,1-.59-0.53" transform="translate(0 0)"/><path class="cls-3" d="M44.79,30.67c0-.91-0.27-1.4-0.94-1.4s-0.94.5-.94,1.42,0.25,1.38.94,1.38,0.94-.61.94-1.39m-2.34,0a1.4,1.4,0,1,1,1.4,1.5,1.48,1.48,0,0,1-1.4-1.5" transform="translate(0 0)"/><path class="cls-3" d="M45.45,32H45.5c0.4,0,.44,0,0.44-0.19V29.5c0-.15-0.06-0.19-0.44-0.19H45.45v-0.1h1.37v0.1H46.75c-0.38,0-.43,0-0.43.19v1.11h1.4V29.51c0-.15-0.07-0.19-0.43-0.19H47.21v-0.1h1.37v0.1H48.53c-0.35,0-.44,0-0.44.19v2.32c0,0.15,0,.19.44,0.19h0.06v0.1H47.21V32h0.07c0.41,0,.43,0,0.43-0.19V30.72h-1.4v1.09c0,0.16.06,0.19,0.43,0.19h0.07v0.1H45.45V32Z" transform="translate(0 0)"/><path class="cls-3" d="M48.88,29.31v-0.1h0.75l1.7,2.28V29.7c0-.28,0-0.35-0.53-0.38H50.72v-0.1h1.19v0.1c-0.48,0-.48.11-0.48,0.41v2.45H51.36L49.5,29.65v2c0,0.3,0,.35.57,0.38v0.1H48.9V32H49c0.44,0,.42-0.14.42-0.41V29.52a0.51,0.51,0,0,0-.51-0.2" transform="translate(0 0)"/><path class="cls-3" d="M1.56,17.05v1.33H1.91a0.58,0.58,0,0,0,.71-0.66,0.59,0.59,0,0,0-.71-0.67H1.56Zm0-.73H1.88a0.55,0.55,0,0,0,.67-0.61,0.56,0.56,0,0,0-.67-0.64H1.56v1.25ZM2,19.15H0.48V14.32H2c1.19,0,1.59.52,1.59,1.28a1,1,0,0,1-1,1.07A1.1,1.1,0,0,1,3.7,17.81c0,0.84-.5,1.33-1.67,1.33" transform="translate(0 0)"/></g><polygon class="cls-3" points="2.74 19.91 2.13 21.87 1.49 19.91 0.46 19.91 1.61 23.04 1.61 24.76 2.57 24.76 2.57 23.04 3.71 19.91 2.74 19.91"/><rect class="cls-3" x="0.73" y="25.43" width="2.72" height="1.03"/><path class="cls-3" d="M37,3.46h0.08l1.64,4.14H35.36ZM35.42,0L30.32,12.59H33.4l1.07-2.72h5.15l1.1,2.72H44L38.85,0H35.42Z" transform="translate(0 0)"/><polygon class="cls-3" points="19.91 0 19.91 12.57 25.84 12.57 25.84 10.54 22.42 10.54 22.42 0 19.91 0"/><path class="cls-3" d="M14.85,3.45h0.08L15.78,8H14ZM13.48,0L10.76,12.57h2.31L13.6,9.86h2.53l0.53,2.71h2.51L16.45,0h-3Z" transform="translate(0 0)"/><polygon class="cls-3" points="49.44 0 49.44 6.63 49.36 6.63 46.65 0 44.34 0 44.34 12.59 46.67 12.59 46.67 5.25 46.75 5.25 49.87 12.59 51.77 12.59 51.77 0 49.44 0"/><polygon class="cls-3" points="3.97 0 3.97 2.03 6.36 2.03 6.36 12.57 8.86 12.57 8.86 2.03 11.31 2.03 11.31 0 3.97 0"/><rect class="cls-3" x="0.48" width="2.46" height="12.57"/><rect class="cls-3" x="26.83" width="2.46" height="12.57"/><polygon class="cls-3" points="13.65 21.6 13.65 14.32 16.37 14.32 16.37 26.46 14 26.46 8.29 18.71 8.29 26.46 5.55 26.46 5.55 14.32 8.41 14.32 13.65 21.6"/><g class="cls-2"><path class="cls-3" d="M22,20.39a6.09,6.09,0,0,1,6.27-6.3c3.58,0,5.66,1.93,5.94,5l-2.89.1a2.7,2.7,0,0,0-3-2.5c-2.05,0-3.28,1.46-3.28,3.72s1.27,3.83,3.52,3.83a3,3,0,0,0,2.93-1.87H28.54V20.24h5.74v6.22h-2.6V24.94A4,4,0,0,1,28,26.69c-3.42,0-6-2.54-6-6.3" transform="translate(0 0)"/></g><rect class="cls-3" x="18.08" y="14.32" width="2.42" height="12.15"/><polygon class="cls-3" points="35.98 26.47 35.98 14.32 38.41 14.32 38.41 19.27 40.78 19.27 40.78 14.32 43.2 14.32 43.2 26.47 40.78 26.47 40.78 21.24 38.41 21.24 38.41 26.47 35.98 26.47"/><polygon class="cls-3" points="44.7 14.32 44.7 16.28 47 16.28 47 26.47 49.43 26.47 49.43 16.28 51.8 16.28 51.8 14.32 44.7 14.32"/></svg>