<svg id="Layer_1" data-name="Layer 1" xmlns="http://www.w3.org/2000/svg" xmlns:xlink="http://www.w3.org/1999/xlink" width="80.68" height="8.09" viewBox="0 0 80.68 8.09"><defs><style>.cls-1{fill:none;}.cls-2{clip-path:url(#clip-path);}.cls-3{fill:#231f20;}</style><clipPath id="clip-path" transform="translate(0 0)"><rect class="cls-1" width="80.68" height="8.09"/></clipPath></defs><title>KitchenAid</title><g class="cls-2"><path class="cls-3" d="M20,6.77a1,1,0,0,1-1-1V4.36H20.6V3H19V1.17H15.84V3h-1V4.36h1v2c0,1,1.06,1.74,2.38,1.74a5.41,5.41,0,0,0,2.38-.51v-1a1,1,0,0,1-.61.22" transform="translate(0 0)"/></g><rect class="cls-3" x="10.74" y="3.02" width="3.12" height="4.78"/><g class="cls-2"><path class="cls-3" d="M12.31,2.32a1.4,1.4,0,0,0,1.56-1.15A1.4,1.4,0,0,0,12.31,0a1.4,1.4,0,0,0-1.56,1.15,1.4,1.4,0,0,0,1.56,1.15" transform="translate(0 0)"/><path class="cls-3" d="M41,4.69V4.52a0.77,0.77,0,1,1,1.54,0V4.69H41v0Zm0,1.12h4.4A3,3,0,0,0,45,3.92a4.09,4.09,0,0,0-3.21-1.24c-1.36,0-3.9.34-3.9,2.73s2.36,2.67,3.89,2.67c2.91,0,3.58-.68,3.58-0.68v-1a9.17,9.17,0,0,1-2.86.46C40.88,6.9,41,6,41,5.81" transform="translate(0 0)"/><path class="cls-3" d="M34.23,2.87a3.23,3.23,0,0,0-1.8.63v-3H29.3V7.8h3.12V5.48a0.77,0.77,0,0,1,1.54,0h0V7.8h2.86V5a2.46,2.46,0,0,0-2.59-2.15" transform="translate(0 0)"/><path class="cls-3" d="M51.55,2.87a3.23,3.23,0,0,0-1.8.63V3H46.62V7.8h3.12V5.48a0.77,0.77,0,0,1,1.54,0h0V7.8h2.86V5a2.46,2.46,0,0,0-2.59-2.15" transform="translate(0 0)"/></g><rect class="cls-3" x="65.56" y="3.02" width="3.12" height="4.78"/><g class="cls-2"><path class="cls-3" d="M67.12,2.32a1.4,1.4,0,0,0,1.56-1.15,1.63,1.63,0,0,0-3.12,0,1.4,1.4,0,0,0,1.56,1.15" transform="translate(0 0)"/></g><path class="cls-3" d="M58.91,3.09l0.7,1.62H58.22ZM57.58,0L58,0.92,55,7.8h1.87l0.59-1.38h2.87L60.94,7.8h3.74L61.32,0H57.58Z" transform="translate(0 0)"/><g class="cls-2"><path class="cls-3" d="M8.24,4A1.73,1.73,0,0,0,7,3L9.12,0H6.32L4.43,2.71A0.77,0.77,0,0,1,3.82,3H3.65V0H0V7.8H3.65V5.08A1.14,1.14,0,0,1,4.14,5a1.16,1.16,0,0,1,1.06.71L6.12,7.8H9.86Z" transform="translate(0 0)"/><path class="cls-3" d="M26.38,6.39c-1,0-1.87-.32-1.87-1s0.84-1,1.87-1a2.74,2.74,0,0,1,1.5.35V3.36a5,5,0,0,0-2.69-.67c-2.1,0-3.8.87-3.8,2.7s1.7,2.7,3.8,2.7a5,5,0,0,0,2.69-.67V6a2.74,2.74,0,0,1-1.5.35" transform="translate(0 0)"/><path class="cls-3" d="M73.72,6.16a0.87,0.87,0,0,1-.89-0.92,0.87,0.87,0,0,1,.89-0.92,1.21,1.21,0,0,1,.85.36V5.8a1.21,1.21,0,0,1-.85.36m0.85-5.71V3.14a3.55,3.55,0,0,0-1.75-.47c-1.8,0-3.12.83-3.12,2.57S71,7.81,72.83,7.81a3.55,3.55,0,0,0,1.75-.47V7.79H77.7V0.45H74.58Z" transform="translate(0 0)"/><path class="cls-3" d="M79.61,1H79.48V0.66h0.13a0.17,0.17,0,0,1,.2.18,0.18,0.18,0,0,1-.21.18m0.49-.2A0.39,0.39,0,0,0,79.63.44H79.2V1.69h0.28V1.21h0.09L79.9,1.71l0.29,0-0.34-.49A0.35,0.35,0,0,0,80.09.82" transform="translate(0 0)"/><path class="cls-3" d="M79.63,2a0.83,0.83,0,0,1-.85-0.89,0.85,0.85,0,1,1,1.7,0,0.83,0.83,0,0,1-.85.89m0-2A1,1,0,0,0,78.57,1.1a1.06,1.06,0,1,0,2.11,0A1,1,0,0,0,79.63,0" transform="translate(0 0)"/></g></svg>