<svg id="Layer_1" data-name="Layer 1" xmlns="http://www.w3.org/2000/svg" width="223.2" height="66.27" viewBox="0 0 223.2 66.27"><title>Logo-RedLion</title><path d="M4.16,49.82H2.56a0.11,0.11,0,0,0-.11.11c0,0.11,0,.76,0,0.76a0.11,0.11,0,0,0,.11.12H3.25a0.09,0.09,0,0,1,.09.09c0,0.09,0,2.51,0,2.51a0.09,0.09,0,0,0,.09.1H4.31a0.09,0.09,0,0,0,.08-0.1c0-.09,0-3.35,0-3.35a0.22,0.22,0,0,0-.23-0.24" transform="translate(0 0)"/><path d="M6.72,49.83H5.85a0.09,0.09,0,0,0-.09.09s0,2.41,0,2.51a0.09,0.09,0,0,1-.09.1H5a0.11,0.11,0,0,0-.12.11V53.4a0.11,0.11,0,0,0,.11.11h1.6a0.23,0.23,0,0,0,.24-0.24s0-3.26,0-3.36a0.08,0.08,0,0,0-.08-0.09" transform="translate(0 0)"/><path d="M7.59,54.44a3.82,3.82,0,0,1-2.8,1.14A3.74,3.74,0,0,1,2,54.42,3.73,3.73,0,0,1,.86,51.64,3.69,3.69,0,0,1,2,48.89a3.89,3.89,0,0,1,2.84-1.14,3.88,3.88,0,0,1,2.63,1,3.89,3.89,0,0,1,.09,5.66m0.48-6.31a4.77,4.77,0,0,0-3.19-1.24,4.77,4.77,0,0,0-3.44,1.38A4.57,4.57,0,0,0,0,51.64,4.62,4.62,0,0,0,1.41,55a4.63,4.63,0,0,0,3.37,1.42,4.7,4.7,0,0,0,3.41-1.39,4.76,4.76,0,0,0-.12-6.93" transform="translate(0 0)"/><path d="M88.72,57.06a4.61,4.61,0,1,0,4.61,4.61,4.61,4.61,0,0,0-4.61-4.61" transform="translate(0 0)"/><path d="M88.42,53.24c3.08-.87,6.63,1.07,7.42,3.52l21.6-42.7C121.59,5.7,112.95,0,112.95,0a16.75,16.75,0,0,1-1.29,7.39Z" transform="translate(0 0)"/><path d="M77.25,43.64c-1.41,3.29-4.51,6.86-8.55,5-4.23-2-2.39-6.28,1.24-13.31l5.8-11.57a7,7,0,0,1,3.2-3,5.78,5.78,0,0,1,4.39-.4c5.32,2.18.91,9.41,0.91,9.41ZM51.6,23.27s1.4-3.19,3.31-3c1.69,0.13,2,2.07,1,4.56-2.18,5.6-9.09,12.42-12.9,15.56,0.25-.71,8.6-17.08,8.6-17.08M30.72,12.82c-2.38-.95-7.35-2.36-10.46-0.14A4.69,4.69,0,0,1,23,19.21L13.29,38.36c-4.21,8.39,3.8,13.91,3.8,13.91C21,55,30.09,55.16,36,50c1.9,2.84,5.29,4.59,9.94,4.59s9.6-3.09,13.9-6.47h0a13.2,13.2,0,0,0,6.27,5.13c6.46,2.36,15.5-.16,18.84-6.67L97,22.59c4.16-8.4-4.51-14.17-4.51-14.17a16.77,16.77,0,0,1-1.29,7.4l-2.37,4.73c-0.4-3.76-4-6.91-8.17-7.33a11.94,11.94,0,0,0-11.73,5.65L59.27,38.24a14.23,14.23,0,0,0-.92,5.33c0,0.26,0,.51.07,0.75a24,24,0,0,1-4.34,3.18c-5.37,3.09-11,3.24-11.67-1.08C47,43,56.42,33.5,59.33,28.56c4.71-8,2.86-12.39-.62-14.8-3-2.08-11.58-1.71-15.28,7.6L35.48,37.06a13.19,13.19,0,0,0-1,9.17C30,48.92,28,49,26.42,49c-9.53,0-5.08-8.34-5.07-8.37s10-20.15,10.2-20.48c8.48,0.1,10-8.42,10-8.42-2.43,1.08-6,2.73-10.82,1.11" transform="translate(0 0)"/><path d="M219,16.45h1.59a0.11,0.11,0,0,0,.11-0.11c0-.11,0-0.76,0-0.76a0.11,0.11,0,0,0-.11-0.12H220a0.09,0.09,0,0,1-.09-0.09c0-.09,0-2.5,0-2.5a0.09,0.09,0,0,0-.09-0.1H218.9a0.09,0.09,0,0,0-.08.1c0,0.09,0,3.35,0,3.35a0.22,0.22,0,0,0,.23.24" transform="translate(0 0)"/><path d="M216.48,16.44h0.87a0.09,0.09,0,0,0,.09-0.09s0-2.41,0-2.51a0.09,0.09,0,0,1,.1-0.09h0.69a0.11,0.11,0,0,0,.12-0.11V12.87a0.11,0.11,0,0,0-.11-0.11h-1.6a0.23,0.23,0,0,0-.24.24s0,3.26,0,3.36a0.08,0.08,0,0,0,.08.09" transform="translate(0 0)"/><path d="M215.62,11.83a3.82,3.82,0,0,1,2.8-1.14,4,4,0,0,1,3.92,3.94,3.69,3.69,0,0,1-1.17,2.75,4,4,0,0,1-5.46.11,3.68,3.68,0,0,1-1.27-2.94,3.67,3.67,0,0,1,1.18-2.73m-0.48,6.31a4.86,4.86,0,0,0,6.63-.14,4.57,4.57,0,0,0,1.43-3.37,4.82,4.82,0,0,0-4.78-4.8A4.7,4.7,0,0,0,215,11.22a4.54,4.54,0,0,0-1.44,3.34,4.55,4.55,0,0,0,1.56,3.59" transform="translate(0 0)"/><path d="M134.48,9.21a4.61,4.61,0,1,0-4.61-4.61,4.61,4.61,0,0,0,4.61,4.61" transform="translate(0 0)"/><path d="M134.78,13c-3.08.87-6.63-1.07-7.42-3.52l-21.6,42.7c-4.15,8.37,4.49,14.06,4.49,14.06a16.75,16.75,0,0,1,1.29-7.39Z" transform="translate(0 0)"/><path d="M146,22.63c1.41-3.29,4.51-6.86,8.55-5,4.23,2,2.39,6.28-1.24,13.31l-5.8,11.57a7,7,0,0,1-3.2,3,5.78,5.78,0,0,1-4.39.4c-5.32-2.18-.91-9.41-0.91-9.41ZM171.61,43s-1.4,3.18-3.31,3c-1.69-.13-2-2.07-1-4.56,2.18-5.6,9.09-12.42,12.9-15.56-0.25.71-8.6,17.09-8.6,17.09m20.88,10.45c2.38,1,7.34,2.36,10.46.14a4.69,4.69,0,0,1-2.72-6.53l9.69-19.15c4.21-8.39-3.8-13.92-3.8-13.92-4-2.74-13-2.89-18.9,2.22-1.9-2.84-5.29-4.59-9.94-4.59s-9.6,3.09-13.9,6.47h0A13.2,13.2,0,0,0,157.08,13c-6.46-2.36-15.5.16-18.84,6.67l-12.06,24c-4.16,8.4,4.51,14.17,4.51,14.17A16.77,16.77,0,0,1,132,50.45l2.37-4.73c0.4,3.76,4,6.91,8.17,7.33a11.94,11.94,0,0,0,11.73-5.65L163.94,28a14.23,14.23,0,0,0,.92-5.33c0-.26,0-0.51-0.07-0.75a24,24,0,0,1,4.34-3.18c5.37-3.09,11-3.24,11.67,1.08-4.58,3.43-14,12.92-16.92,17.87-4.71,8-2.86,12.39.62,14.8,3,2.08,11.58,1.71,15.28-7.6l7.94-15.71a13.19,13.19,0,0,0,1-9.17c4.48-2.68,6.48-2.75,8.1-2.75,9.53,0,5.08,8.34,5.07,8.38s-10,20.15-10.2,20.48c-8.48-.1-10,8.42-10,8.42,2.43-1.08,6-2.73,10.82-1.11" transform="translate(0 0)"/></svg>