<?xml version="1.0" encoding="utf-8"?>
<!-- Generator: Adobe Illustrator 19.2.1, SVG Export Plug-In . SVG Version: 6.00 Build 0)  -->
<svg version="1.1" xmlns="http://www.w3.org/2000/svg" xmlns:xlink="http://www.w3.org/1999/xlink" x="0px" y="0px"
	 viewBox="0 0 5000 920" style="enable-background:new 0 0 5000 920;" xml:space="preserve">
<style type="text/css">
	.st0{fill:#E1E2E2;}
	.st1{fill:#A5A5A6;}
	.st2{fill:#FFFFFF;}
	.st3{fill:#48BB85;}
	.st4{fill:#CFCAC2;}
	.st5{fill:none;stroke:#000000;stroke-width:5;stroke-linecap:round;stroke-linejoin:round;stroke-miterlimit:10;}
	.st6{fill:none;}
	.st7{fill:#010101;}
</style>
<g id="Layer_2">
	<polygon class="st0" points="3337.3,107.7 3599,34.7 3644,194.7 3385.7,269.7 	"/>
	<path class="st0" d="M3475,274l319.3-95.3l36,112.3l-219.2,69.7c-12.8,4.1-19.9,17.7-15.9,30.5l36.1,116.5l-80,25.7L3475,274z"/>
	<polygon class="st0" points="3619.3,383.3 3835.3,316.3 3871.3,429.7 3654.7,499.7 	"/>
	<path class="st0" d="M3925.5,618.5l-263.7,80.9c-1,0.3-2.1,0.5-3.1,0.5c-4.5,0-8.6-2.9-10-7.4c-1.7-5.5,1.4-11.4,7-13.1l264.1-81
		l-40-139.7l-424.7,136l82.7,287.7L3964.3,754L3925.5,618.5z"/>
	<path class="st0" d="M4143.6,607c2.6-0.9,5.5,0.5,6.4,3.1l27.3,79.6l58-17.7l-93.8-297l-238,75.2l86.2,296.8l178-54.4l-27.2-79.3
		C4139.6,610.8,4141,607.9,4143.6,607z"/>
	<polygon class="st0" points="3545.7,920 3542.7,909.7 3747.7,849.7 3770.3,920 	"/>
	<polygon class="st0" points="3772,842 3795.3,920 3968,920 3930,794.3 	"/>
	<path class="st0" d="M4242,697.7l-50.3,15.6l35.5,113.2c2,6.3-1.5,13.1-7.9,15c-1.2,0.4-2.4,0.6-3.6,0.6c-5.1,0-9.8-3.3-11.4-8.4
		l-35.5-113.2L3953.7,787l39.7,133h246.3l61.3-21L4242,697.7z"/>
	<path class="st0" d="M4266.5,691.2c0,0,60-13.2,98-46.2s102.2-87.5,102.2-87.5l59.5,186.8l-172,130.5c-4.6,3.5-9.7,6.5-14.9,8.9
		l-13.3,6.1L4266.5,691.2z"/>
	<path class="st0" d="M4336.2,920l-2-4l22.6-10.8c6.6-3.1,12.8-6.9,18.6-11.2l67.2-50l10.4,33.7c0.8,2.5-0.4,5.1-2.8,6.2l-67.6,30.4
		l-9.5,5.8H4336.2z"/>
	<path class="st0" d="M4393.8,920l57.8-25.7c8.4-3.7,12.8-13.1,10.2-21.9l-10.4-36.6l82.2-61.5l41.5,145.8H4393.8z"/>
	<path class="st0" d="M4552.2,759.8l28.5,106l75.2-56.9l-7.5-15.1c-1.1-2.3-0.4-5,1.7-6.5l0.9-0.6c2.6-1.7,6.1-0.7,7.3,2.1l5.9,13.3
		l20.5-17l-61.5-82.2L4552.2,759.8z"/>
	<path class="st0" d="M4672.7,662l64.5,81l24-18c9.1-6.8,21.9-5.3,29.1,3.4l153.2,184.9l52.7-86.5l-208.5-259.2L4672.7,662z"/>
	<path class="st0" d="M4588,893l46.3-35.7l12.5,33.8c1,2.6,3.9,3.8,6.5,2.7l0,0c1.9-0.9,2.8-3,2.1-5l-13.2-38.9L4776,745.3
		L4917.3,920H4597L4588,893z"/>
	<polygon class="st0" points="3391,298 3451,280.7 3527.7,541.3 3447.3,567.3 	"/>
	<path class="st0" d="M3025.1,484.5c-0.5-1.5-2.2-2.4-3.7-1.9l-92.2,30.6l8.6,27.5l95.6-32.4L3025.1,484.5z"/>
	<path class="st0" d="M3046.8,477l8.4,24.1l133.2-44.3c11.9-3.9,24.2-6.1,36.7-6.5l73-2.2c-1-14-16.6-74.2-27.6-114.5L2909,443
		l14,48l91.3-30.2C3027.6,456.4,3042.2,463.7,3046.8,477z"/>
	<path class="st0" d="M3398.8,445l-29.1-141.3l-77.2,23.3c7.3,26.4,27.2,100.3,28.6,120.4L3398.8,445z"/>
	<path class="st0" d="M3356.5,595.9l68.9-21.9l-21.9-106.2l-78.6,2.4C3331.3,499.5,3344.9,552.5,3356.5,595.9z"/>
	<path class="st0" d="M3225.8,473.3c-10.3,0.3-20.4,2.1-30.1,5.4l-251,84l45,153.7l346.8-110.5c-8.4-31.6-27.6-99.7-34.9-134.9
		L3225.8,473.3z"/>
	<path class="st0" d="M3194.2,859.7c-2.2-6.3-3.1-12.9-2.7-19.5l1.7-30.7c0.3-5.7-0.5-11.3-2.4-16.7l-36.3-103.9l-156.8,49.5
		l51.5,176.4l43.9-13.7c0,0,0,0,0,0l10.5-3.3c2.1-0.7,4.4,0.5,5,2.6c0.7,2.1-0.5,4.4-2.6,5l-5.8,1.8l7.1,12.8h15l85.5-21.2
		L3194.2,859.7z"/>
	<polygon class="st0" points="3059.1,920 3098,920 3092.3,909.7 	"/>
	<path class="st0" d="M3515.7,889.3l-83.7-288l-67.2,21.2l16.3,62.7c3.3,12.6-3.5,25.3-15.7,29.7l-27,9.7c-1.3,0.5-2.6,0.7-3.9,0.7
		c-4.7,0-9.1-2.9-10.8-7.6c-2.2-6,0.9-12.6,6.9-14.7l27-9.7c1-0.3,1.5-1.3,1.2-2.3l-16-61.6l-180.7,57l36.3,103.7
		c2.2,6.4,3.2,13,2.8,19.7l-1.7,30.7c-0.3,5.6,0.5,11.2,2.3,16.5l21.6,62.9h195.9L3515.7,889.3z"/>
	<polygon class="st0" points="3155.4,920 3215,920 3210.3,906.4 	"/>
	<polygon class="st0" points="2297.1,596.5 2175,194 2089.4,218.9 2209.7,622.4 	"/>
	<polygon class="st0" points="1562.9,838.8 1588.1,920 1806.3,920 1762.9,779.3 	"/>
	<polygon class="st0" points="2019.2,703.1 1784.9,772.8 1830.4,920 1901.8,920 2071.6,868.2 	"/>
	<polygon class="st1" points="2461.5,547.6 2343.8,146.2 2197,187 2319.2,589.9 	"/>
	<path class="st0" d="M2824.2,782.1c-21,0-41.7-3.9-59.6-8.3l41.1,146.2h222.3l-51.9-174.4L2858.9,778
		C2847.5,780.9,2835.8,782.1,2824.2,782.1z"/>
	<path class="st0" d="M2756.6,751.2l5.8,1.5c26.2,6.8,60.1,13.7,89.7,6l116.6-32.2L2886,448l-198,58.9L2756.6,751.2z"/>
	<polygon class="st0" points="2527.4,425.2 2444.4,116.3 2365.8,139.7 2455.6,445.8 	"/>
	<polygon class="st0" points="2634.1,394.5 2547.3,85.7 2466.4,109.7 2549.5,418.8 	"/>
	<polygon class="st0" points="2880.3,423 2761.1,22.1 2569.4,79.1 2682.6,481.8 	"/>
	<polygon class="st0" points="1969.9,693.8 1848.7,288.9 1653.1,346 1778.1,750.8 	"/>
	<polygon class="st0" points="2070,787.2 2093.6,861.5 2243.4,815.8 2221.9,743.8 	"/>
	<polygon class="st0" points="2717.4,690.9 2640.8,717.9 2731.7,741.5 	"/>
	<polygon class="st0" points="2678,751.3 2709,857.5 2759.9,842 2738.9,767.2 	"/>
	<polygon class="st0" points="1980.6,920 2274.5,920 2250,837.8 	"/>
	<polygon class="st0" points="2194.3,649.8 2041.2,695.3 2063.1,764.1 2215.4,720.5 	"/>
	<path class="st0" d="M2666.7,510.5l-450.4,134l21.2,70.9l161.7-46.3c6.1-1.7,12.5,1.8,14.2,7.9c1.7,6.1-1.8,12.5-7.9,14.2
		l-161.5,46.2l21.4,71.6l353-107.7l92.8-32.7L2666.7,510.5z"/>
	<polygon class="st0" points="2652,744.6 2600,731.1 2272,831.1 2298.5,920 2505.1,920 2687,864.3 	"/>
	<polygon class="st0" points="2660.5,488.4 2640.3,416.6 2462.1,467.9 2483.6,541 	"/>
	<polygon class="st0" points="2583.6,920 2781.8,920 2766.1,864.1 	"/>
	<polygon class="st2" points="2362,126.8 2340,133.2 2343.8,146.2 2365.8,139.7 	"/>
	<polygon class="st2" points="2464.1,101 2441.9,107 2444.4,116.3 2466.4,109.7 	"/>
	<polygon class="st0" points="2067.3,225.5 1870.3,281 1923,456.8 2116.8,391.4 	"/>
	<path class="st3" d="M2056.2,541.7l5.7,17.1c19.7,5.4,74.6,32.6,83.4,37l29.6-9.9l-33.6-112.7l-52.3,13.9
		C2087.5,496.7,2080,536.2,2056.2,541.7z"/>
	<polygon class="st3" points="2162,636.6 2187.7,629 2176.6,591.7 2148.9,600.9 	"/>
	<path class="st3" d="M1997.9,511.2c0.2,0.2,24.3,24.5,52.2,25.1c10.8,0.3,19.7-8.2,26.3-25.1c5.2-13.2,6.9-26.7,6.9-26.8l0.2-2
		l56-14.9l-22.7-76.1L1923,456.8l19.9,66.4l53.8-13.3L1997.9,511.2z"/>
	<path class="st3" d="M2055.6,559.1l-5.6-16.9c-0.1,0-0.1,0-0.2,0c-26.9-0.6-49.6-20.5-55.1-25.7l-50.3,12.4l40.6,135.4l4.5-1
		C1993.8,651,2019.8,577.6,2055.6,559.1z"/>
	<path class="st3" d="M2064.1,565.8l30,91l62.1-18.5l-13.7-37.2C2134.8,597.3,2085.6,573,2064.1,565.8z"/>
	<path class="st3" d="M1994.9,666.9l-0.5,1.7l-7.5,1.6l5.1,17.1l96.4-28.7l-30.9-93.6C2021.8,584.3,1995.1,666.1,1994.9,666.9z"/>
	<polygon class="st3" points="2820.6,144.5 2901,417.3 3366,279.7 3286,10 	"/>
	<polygon class="st3" points="1478.7,567.4 1480.3,572.5 1478.7,567.4 	"/>
	<path class="st0" d="M1631.3,353.4l-89.8,27.6l42.4,119.7c2.1,6-1.1,12.6-7.1,14.6c-1.3,0.4-2.5,0.6-3.8,0.6c-4.8,0-9.2-3-10.9-7.7
		L1520,387.5l-89,26.3l47.7,153.6l99.3-31.1l8.7,26.4l-99.9,30.5l-6.4-20.7l48.7,156.8l90.6-5.1c5.3-0.3,10.1,2.8,12.1,7.7
		l22.2,55.9l102.3-30.4L1631.3,353.4z"/>
	<polygon class="st3" points="1586.7,562.7 1578,536.3 1478.7,567.4 1480.3,572.5 1486.7,593.2 	"/>
	<path class="st0" d="M1619.9,731.2l-88.8,5l25,80.6l90.9-27l-22-55.3C1624.2,732.4,1622.2,731,1619.9,731.2z"/>
	<polygon class="st0" points="1315,31 1425,391.4 1513,364 1404,5 	"/>
	<polygon class="st0" points="1595,151 1648.5,326.5 1733,300 1681,124.5 	"/>
	<polygon class="st0" points="1705,116.3 1756.1,292.5 1842.5,266.5 1790,91.5 	"/>
	<polygon class="st0" points="2056.2,116.3 2081,197.5 2170,172 2147,91.5 	"/>
	<polygon class="st4" points="1115.9,303.7 1351,233 1531.1,822.3 1285,891.7 	"/>
	<polygon class="st0" points="1289,920 1539.7,847 1559.7,920 	"/>
	<path class="st0" d="M1151.4,603.7c-1.5-3.4-3.9-6.2-7.1-8l-167-97.8L926,478.6c-4.3-1.6-6.9-5.9-6.5-10.4L923,432
		c0.3-3,1.8-5.8,4.2-7.7c2.4-1.9,5.5-2.7,8.4-2.2l45,6.7c5.3,0.8,9,5.6,8.4,10.9l-5.8,52.4l165.1,96.6c4.7,2.7,8.3,6.8,10.4,11.7
		l2.7,6.3l17.6-5.1l-81.4-294l-252.7,74l82.7,293l226-65.6L1151.4,603.7z"/>
	<path class="st0" d="M1207.2,711.9c0.7,1.6,1.9,2.8,3.3,3.6l-25.1-90.6l-14.3,4.2L1207.2,711.9z"/>
	<path class="st0" d="M979.5,436.8l-45-6.7c-0.2,0-0.3,0-0.5,0c-0.7,0-1.3,0.2-1.9,0.7c-0.7,0.5-1.1,1.3-1.2,2.1l-3.5,36.2
		c-0.1,0.9,0.5,1.8,1.4,2.2l46.8,17.6l5.5-49.9C981.2,437.9,980.5,436.9,979.5,436.8z"/>
	<path class="st0" d="M1213.1,724.7l-3.5-1c-4.4-1.3-7.9-4.4-9.8-8.6l-36.5-83.8l-229.1,66.6L997,920h196l68-22.3L1213.1,724.7z"/>
	<path class="st0" d="M889.3,895.6c5.1,2.8,9.5,6.7,13,11.4l15.9-4.7c0.7-0.2,1.2-0.6,1.5-1.2c0.3-0.6,0.4-1.3,0.2-1.9L863,712
		l-33.1,9.4l49.8,168.8L889.3,895.6z"/>
	<path class="st0" d="M926.8,904.9c-1.3,2.5-3.6,4.3-6.3,5.1l-33.9,10H976l-66.3-221.2l-39,11.1l56.9,187
		C928.4,899.6,928.1,902.4,926.8,904.9z"/>
	<polygon class="st3" points="113,867.9 129,920 256,920 231.7,835.7 	"/>
	<path class="st0" d="M470,756.6l-11.6-25.4L101,829l12,38.9l118.7-32.2L256,920h264.1l-40.8-138.5C476.8,773,473.7,764.7,470,756.6
		z"/>
	<path class="st0" d="M569.9,706.8c-15.2,0.1-30.4,2.1-45,6.1L466.2,729l11.1,24.3c3.8,8.4,7.1,17.1,9.7,26L528.5,920h87
		l-54.6-185.2c-0.6-2.1,0.6-4.3,2.7-5c2.1-0.6,4.3,0.6,5,2.7L623.8,920h13.4l-64.5-213.2C571.8,706.8,570.8,706.8,569.9,706.8z"/>
	<polygon class="st0" points="581.1,706.8 645.5,920 718.5,920 656.2,707.7 	"/>
	<path class="st0" d="M783.2,824.6l23.2,86.3l64.8-21l-50.5-171.2c-9.8-4.2-27.7-11.1-42.7-11.7v78
		C778,798.3,779.8,811.7,783.2,824.6z"/>
	<path class="st0" d="M775.5,826.7c-3.7-13.6-5.5-27.7-5.5-41.8v-78.2c-18.9-0.3-62.3-0.3-105.8-0.2L726.8,920h51.6l20.4-6.6
		L775.5,826.7z"/>
	<path class="st0" d="M871.2,916.2l22.8-6.7c-2.4-2.7-5.3-5.1-8.5-6.9l-10.2-5.6l-70.9,23h68L871.2,916.2z"/>
	<path class="st2" d="M829.9,721.5l-2.7-9.3l-7.7,2.3l1.2,4.2c4.5,2,7.3,3.4,7.3,3.4L829.9,721.5z"/>
	<polygon class="st2" points="869.5,705.8 861.8,708.2 863,712 870.7,709.8 	"/>
	<path class="st2" d="M778,704.3h-8v2.4c3.6,0,6.3,0.1,8,0.2V704.3z"/>
	<polygon class="st3" points="4735.5,745.3 4687.5,783.5 4624.2,701 4670.3,664 	"/>
</g>
<g id="Layer_3">
	<polyline class="st5" points="2093,311.7 2186.7,629 1992,687.2 	"/>
	<polyline class="st5" points="2119.7,316.7 2209.7,622.4 2660.5,488.4 2610.9,311.7 	"/>
	<polyline class="st5" points="2635,314.7 2681.3,480.7 2862.3,427 	"/>
	<polyline class="st5" points="2883.8,447.1 2687.3,503.3 2746.3,714.3 	"/>
	<polyline class="st5" points="2710.7,668 2666,509.7 2216.3,644.5 2237.5,715.4 	"/>
	<polyline class="st5" points="2214.4,719.3 2194.3,652.3 1983,714.7 	"/>
	<rect x="2449.4" y="454.6" class="st6" width="99.1" height="140.2"/>
	<g>
		<path class="st7" d="M2176.9,418.7c0.1,0.2,0.1,0.5,0,0.7c-0.1,0.2-0.3,0.3-0.5,0.4c-1.2,0.3-2.5,0.2-3.7-0.1
			c-1.3-0.3-2.5-1.1-3.6-2.2c-1.1-1.1-1.9-2.7-2.5-4.7c-0.8-2.7-0.7-5.1,0.4-7.1c1.1-2,2.9-3.5,5.4-4.4c1-0.3,1.9-0.6,2.6-0.8
			c0.7-0.2,1.6-0.4,2.6-0.7c2.6-0.6,4.9-0.3,6.9,0.8c2,1.1,3.4,3,4.2,5.8c0.6,2,0.7,3.8,0.5,5.3c-0.3,1.5-0.9,2.8-1.8,3.8
			c-0.9,1-1.9,1.7-3.1,2.1c-0.2,0.1-0.5,0.1-0.7,0c-0.2-0.1-0.3-0.3-0.4-0.5l-0.7-2.5c-0.1-0.2,0-0.4,0-0.6c0.1-0.2,0.2-0.4,0.5-0.5
			c0.9-0.4,1.5-1.2,1.9-2.2s0.4-2.2-0.1-3.7c-0.5-1.5-1.2-2.6-2.3-3.1c-1.1-0.6-2.4-0.7-3.8-0.4c-1,0.3-1.9,0.5-2.6,0.7
			c-0.7,0.2-1.6,0.5-2.6,0.8c-1.3,0.5-2.3,1.3-2.9,2.4c-0.6,1.1-0.7,2.4-0.2,3.9c0.4,1.5,1.1,2.6,2,3.2c0.9,0.6,1.8,0.9,2.8,0.8
			c0.3,0,0.5,0,0.7,0.2c0.2,0.1,0.3,0.3,0.4,0.5L2176.9,418.7z"/>
		<path class="st7" d="M2175.1,439.6c-0.2-0.1-0.4-0.3-0.4-0.5l-0.7-2.3c-0.1-0.2,0-0.4,0.1-0.7c0.1-0.2,0.3-0.4,0.5-0.4l7.8-2.3
			c1.3-0.4,2.2-1,2.7-1.8c0.5-0.8,0.6-1.8,0.3-2.9c-0.3-1.1-0.9-1.8-1.9-2.2c-0.9-0.4-2-0.4-3.2-0.1l-7.8,2.3
			c-0.2,0.1-0.4,0-0.7-0.1c-0.2-0.1-0.4-0.3-0.4-0.5l-0.7-2.3c-0.1-0.2,0-0.4,0.1-0.7c0.1-0.2,0.3-0.4,0.5-0.4l20.2-6
			c0.2-0.1,0.4,0,0.7,0.1c0.2,0.1,0.4,0.3,0.4,0.5l0.7,2.3c0.1,0.2,0,0.4-0.1,0.7c-0.1,0.2-0.3,0.4-0.5,0.4l-6.5,1.9
			c1.6,0.9,2.6,2.2,3.2,3.9c0.7,2.3,0.5,4.2-0.5,5.6c-1,1.4-2.6,2.5-4.7,3.1l-8.3,2.5C2175.5,439.7,2175.3,439.7,2175.1,439.6z"/>
		<path class="st7" d="M2191.8,439.1c0.2,0.1,0.4,0.3,0.4,0.5l0.7,2.3c0.1,0.2,0,0.4-0.1,0.7c-0.1,0.2-0.3,0.4-0.5,0.4l-7.8,2.3
			c-1.3,0.4-2.2,1-2.8,1.7c-0.5,0.8-0.6,1.7-0.3,2.9c0.3,1.1,0.9,1.8,1.8,2.2c0.9,0.4,2,0.4,3.2,0l7.8-2.3c0.2-0.1,0.4,0,0.7,0.1
			c0.2,0.1,0.4,0.3,0.4,0.5l0.7,2.3c0.1,0.2,0,0.4-0.1,0.7s-0.3,0.4-0.5,0.4l-14.3,4.3c-0.2,0.1-0.4,0-0.7-0.1
			c-0.2-0.1-0.4-0.3-0.4-0.5l-0.7-2.3c-0.1-0.2,0-0.4,0.1-0.7c0.1-0.2,0.3-0.4,0.5-0.4l0.7-0.2c-1.6-0.8-2.6-2.1-3.1-3.7
			c-0.7-2.3-0.5-4.2,0.5-5.5c1-1.4,2.6-2.4,4.8-3l8.3-2.5C2191.4,439,2191.6,439,2191.8,439.1z"/>
		<path class="st7" d="M2194.4,463.6c-0.7-0.4-1.7-0.4-2.9,0l-8,2.4c-0.2,0.1-0.4,0-0.7-0.1c-0.2-0.1-0.4-0.3-0.4-0.5l-0.7-2.3
			c-0.1-0.2,0-0.4,0.1-0.7c0.1-0.2,0.3-0.4,0.5-0.4l14.3-4.3c0.2-0.1,0.4,0,0.7,0.1c0.2,0.1,0.4,0.3,0.4,0.5l0.7,2.3
			c0.1,0.2,0,0.4-0.1,0.7s-0.3,0.4-0.5,0.4l-0.7,0.2c0.7,0.4,1.3,0.9,1.7,1.4c0.4,0.5,0.8,1.3,1.1,2.2l0.4,1.4
			c0.1,0.2,0,0.4-0.1,0.7c-0.1,0.2-0.3,0.4-0.5,0.4l-2,0.6c-0.2,0.1-0.4,0-0.7-0.1c-0.2-0.1-0.4-0.3-0.4-0.5l-0.6-2
			C2195.7,464.8,2195.1,464,2194.4,463.6z"/>
		<path class="st7" d="M2190.9,478.1c-0.4,0.9-0.4,1.8-0.2,2.7c0.3,0.9,0.6,1.6,1,1.9c0.4,0.4,0.9,0.7,1.6,0.9
			c0.3,0.1,0.6,0.2,0.8,0.3c0.2,0.1,0.3,0.3,0.4,0.5l0.7,2.3c0.1,0.2,0,0.4-0.1,0.7s-0.3,0.4-0.5,0.4c-0.7,0.2-1.5,0.1-2.5-0.2
			c-1-0.3-2-0.9-2.9-1.9c-0.9-0.9-1.6-2.2-2.1-3.8c-0.4-1.5-0.5-2.8-0.2-4.1c0.3-1.3,0.9-2.4,1.8-3.4c0.9-1,1.9-1.7,3.2-2.2
			c0.2-0.1,0.6-0.2,1.2-0.4c0.6-0.2,1-0.3,1.3-0.3c1.3-0.3,2.6-0.2,3.9,0.1c1.3,0.3,2.4,1,3.4,1.9c1,0.9,1.7,2.1,2.1,3.6
			c0.5,1.6,0.6,3.1,0.3,4.4c-0.3,1.3-0.7,2.3-1.4,3.1c-0.7,0.8-1.3,1.3-2,1.6c-0.2,0.1-0.4,0.1-0.7-0.1c-0.2-0.1-0.4-0.3-0.4-0.5
			l-0.7-2.3c-0.1-0.2,0-0.4,0.1-0.6c0.1-0.2,0.3-0.4,0.5-0.7c0.5-0.6,0.8-1.1,0.9-1.6c0.1-0.5,0.1-1.3-0.2-2.2
			c-0.3-0.9-0.8-1.7-1.6-2.2c-0.8-0.5-1.8-0.7-3-0.4c-0.2,0-0.6,0.1-1.1,0.3c-0.5,0.2-0.9,0.3-1.1,0.3
			C2192,476.6,2191.3,477.3,2190.9,478.1z"/>
		<path class="st7" d="M2195.1,507.1c-0.2-0.1-0.4-0.3-0.4-0.5l-0.7-2.3c-0.1-0.2,0-0.4,0.1-0.7c0.1-0.2,0.3-0.4,0.5-0.4l7.8-2.3
			c1.3-0.4,2.2-1,2.7-1.8c0.5-0.8,0.6-1.8,0.3-2.9c-0.3-1.1-0.9-1.8-1.9-2.2c-0.9-0.4-2-0.4-3.2-0.1l-7.8,2.3
			c-0.2,0.1-0.4,0-0.7-0.1c-0.2-0.1-0.4-0.3-0.4-0.5l-0.7-2.3c-0.1-0.2,0-0.4,0.1-0.7c0.1-0.2,0.3-0.4,0.5-0.4l20.2-6
			c0.2-0.1,0.4,0,0.7,0.1c0.2,0.1,0.4,0.3,0.4,0.5l0.7,2.3c0.1,0.2,0,0.4-0.1,0.7c-0.1,0.2-0.3,0.4-0.5,0.4l-6.5,1.9
			c1.6,0.9,2.6,2.2,3.2,3.9c0.7,2.3,0.5,4.2-0.5,5.6c-1,1.4-2.6,2.5-4.7,3.1l-8.3,2.5C2195.5,507.3,2195.3,507.2,2195.1,507.1z"/>
		<path class="st7" d="M2218.5,529.8c-0.2-0.1-0.3-0.3-0.4-0.5l-0.6-2.2c-0.1-0.3-0.1-0.6,0-0.8c0.1-0.2,0.2-0.4,0.4-0.7
			c0.5-0.5,0.8-1.2,0.9-1.9c0.2-0.8,0.1-1.7-0.3-2.8c-0.3-1.1-0.8-2-1.5-2.6c-0.7-0.6-1.4-0.8-2.2-0.6c-0.6,0.2-1,0.5-1.3,1
			c-0.2,0.5-0.3,1.1-0.3,1.9c0,0.8,0.1,2.2,0.2,4c0.2,2.6,0,4.7-0.6,6c-0.6,1.4-1.8,2.3-3.5,2.8c-1.2,0.4-2.4,0.3-3.6-0.1
			c-1.2-0.4-2.3-1.2-3.2-2.4c-1-1.2-1.7-2.7-2.2-4.5c-0.5-1.5-0.6-3-0.5-4.5c0.1-1.5,0.5-2.8,1.1-3.9c0.7-1.1,1.6-1.8,2.7-2.2
			c0.2-0.1,0.5-0.1,0.7,0c0.2,0.1,0.3,0.3,0.4,0.5l0.6,2.2c0.1,0.3,0.1,0.6,0,0.8c-0.1,0.2-0.2,0.4-0.4,0.6c-0.6,0.5-1,1.2-1.2,2
			c-0.2,0.8-0.1,1.9,0.3,3.3c0.4,1.4,1,2.4,1.6,3.2c0.7,0.8,1.5,1,2.3,0.8c0.5-0.1,0.8-0.4,1-0.9c0.2-0.4,0.3-1,0.3-1.7
			c0-0.7,0-1.7-0.1-3.1c-0.1-0.5-0.1-1.3-0.1-2.1c-0.1-2.3,0.2-4.1,0.8-5.3s1.9-2.1,3.6-2.6c1.2-0.4,2.4-0.3,3.6,0.1
			c1.2,0.4,2.2,1.2,3.1,2.2c0.9,1.1,1.6,2.4,2,3.9c0.5,1.7,0.7,3.3,0.5,4.7s-0.7,2.6-1.3,3.5c-0.7,0.9-1.4,1.5-2.3,1.8
			C2218.9,529.9,2218.7,529.9,2218.5,529.8z"/>
		<path class="st7" d="M2210.2,543.2c-0.3,0.5-0.2,1.1,0,2l0.6,1.9c0.1,0.2,0,0.4-0.1,0.7c-0.1,0.2-0.3,0.4-0.5,0.4l-2,0.6
			c-0.2,0.1-0.4,0-0.7-0.1c-0.2-0.1-0.4-0.3-0.4-0.5l-0.7-2.3c-0.6-1.9-0.5-3.6,0.1-4.9c0.6-1.3,1.9-2.2,3.8-2.8l6.6-2l-0.6-2
			c-0.1-0.2,0-0.4,0.1-0.7c0.1-0.2,0.3-0.4,0.5-0.4l2-0.6c0.2-0.1,0.4,0,0.7,0.1c0.2,0.1,0.4,0.3,0.4,0.5l0.6,2l5-1.5
			c0.2-0.1,0.4,0,0.7,0.1c0.2,0.1,0.4,0.3,0.4,0.5l0.7,2.3c0.1,0.2,0,0.4-0.1,0.7c-0.1,0.2-0.3,0.4-0.5,0.4l-5,1.5l1.2,4
			c0.1,0.2,0,0.4-0.1,0.7c-0.1,0.2-0.3,0.4-0.5,0.4l-2,0.6c-0.2,0.1-0.4,0-0.7-0.1s-0.4-0.3-0.4-0.5l-1.2-4l-6.5,1.9
			C2210.9,542.4,2210.4,542.8,2210.2,543.2z"/>
	</g>
	<g>
		<path class="st7" d="M2737.7,531.7c-0.1-0.2,0-0.4,0.1-0.7c0.1-0.2,0.3-0.4,0.5-0.4l2.2-0.6c0.2-0.1,0.4,0,0.7,0.1
			s0.4,0.3,0.4,0.5l4,13.4c0.1,0.2,0,0.4-0.1,0.7s-0.3,0.4-0.5,0.4l-13,3.9c-2.6,0.8-4.8,0.6-6.6-0.4c-1.8-1.1-3.1-3-3.9-5.7
			c-0.8-2.8-0.8-5,0-6.8c0.8-1.8,2.2-3,4.2-3.8c0.2-0.1,0.5-0.1,0.7,0s0.3,0.3,0.4,0.5l0.7,2.5c0.1,0.2,0.1,0.4,0,0.6
			c-0.1,0.2-0.2,0.3-0.3,0.4c-0.9,0.5-1.5,1.1-1.9,2c-0.4,0.9-0.4,2,0,3.3c0.4,1.4,1.1,2.4,2.1,2.9c1,0.5,2.2,0.6,3.5,0.2l9.8-2.9
			L2737.7,531.7z"/>
		<path class="st7" d="M2743.5,562.4c-0.7,1.6-2.1,2.7-4.2,3.3l-9,2.7c-0.2,0.1-0.4,0-0.7-0.1c-0.2-0.1-0.4-0.3-0.4-0.5l-0.7-2.3
			c-0.1-0.2,0-0.4,0.1-0.7c0.1-0.2,0.3-0.4,0.5-0.4l1-0.3c-0.8-0.3-1.5-0.8-2.1-1.5c-0.6-0.7-1.1-1.7-1.5-2.8
			c-0.5-1.7-0.5-3.2,0.1-4.5c0.6-1.3,1.6-2.1,3-2.5c1.4-0.4,2.6-0.2,3.7,0.5s2.1,1.9,2.9,3.6l2.3,4.8c0.8-0.2,1.3-0.7,1.5-1.3
			c0.2-0.6,0.2-1.4-0.1-2.3c-0.1-0.5-0.3-0.8-0.5-1.1c-0.2-0.3-0.5-0.5-0.9-0.7c-0.4-0.2-0.6-0.5-0.7-0.9l-0.8-2.9
			c-0.1-0.2,0-0.4,0-0.6c0.1-0.2,0.2-0.3,0.4-0.3c0.7-0.1,1.4,0.1,2.2,0.4c0.8,0.3,1.6,0.9,2.3,1.7s1.3,1.9,1.7,3.2
			C2744.3,559,2744.2,560.8,2743.5,562.4z M2735.3,562.5l-2-4c-0.4-0.8-0.8-1.3-1.2-1.6c-0.4-0.3-0.8-0.4-1.3-0.2
			c-0.4,0.1-0.7,0.4-0.8,0.9c-0.1,0.5,0,1,0.1,1.7c0.3,0.9,0.7,1.6,1.2,2.2s1.1,0.9,1.7,1.1c0.6,0.2,1.2,0.2,1.8,0L2735.3,562.5z"/>
		<path class="st7" d="M2743.5,573.9c-0.7-0.4-1.7-0.4-2.9,0l-8,2.4c-0.2,0.1-0.4,0-0.7-0.1c-0.2-0.1-0.4-0.3-0.4-0.5l-0.7-2.3
			c-0.1-0.2,0-0.4,0.1-0.7c0.1-0.2,0.3-0.4,0.5-0.4l14.3-4.3c0.2-0.1,0.4,0,0.7,0.1c0.2,0.1,0.4,0.3,0.4,0.5l0.7,2.3
			c0.1,0.2,0,0.4-0.1,0.7c-0.1,0.2-0.3,0.4-0.5,0.4l-0.7,0.2c0.7,0.4,1.3,0.9,1.7,1.4c0.4,0.5,0.8,1.3,1.1,2.2l0.4,1.4
			c0.1,0.2,0,0.4-0.1,0.7c-0.1,0.2-0.3,0.4-0.5,0.4l-2,0.6c-0.2,0.1-0.4,0-0.7-0.1c-0.2-0.1-0.4-0.3-0.4-0.5l-0.6-2
			C2744.7,575.1,2744.2,574.2,2743.5,573.9z"/>
		<path class="st7" d="M2749.1,580.2c0.1,0,0.1-0.1,0.2-0.1c0.2-0.1,0.4,0,0.7,0.1c0.2,0.1,0.4,0.3,0.4,0.5l0.7,2.3
			c0.1,0.4,0,0.9-0.4,1.2l-8.3,6.9l10.7,1.3c0.6,0.1,0.9,0.3,1,0.8l0.7,2.3c0.1,0.2,0,0.4-0.1,0.7s-0.3,0.4-0.5,0.4
			c-0.1,0-0.2,0-0.2,0l-16-2c-0.6-0.1-0.9-0.3-1.1-0.8l-0.6-2c-0.1-0.5,0-0.9,0.5-1.2L2749.1,580.2z"/>
		<path class="st7" d="M2741.2,607.4c-0.2-0.1-0.4-0.3-0.4-0.5l-0.7-2.3c-0.1-0.2,0-0.4,0.1-0.7c0.1-0.2,0.3-0.4,0.5-0.4l14.3-4.3
			c0.2-0.1,0.4,0,0.7,0.1s0.4,0.3,0.4,0.5l0.7,2.3c0.1,0.2,0,0.4-0.1,0.7c-0.1,0.2-0.3,0.4-0.5,0.4l-14.3,4.3
			C2741.6,607.5,2741.4,607.5,2741.2,607.4z M2762.6,601.2c-0.1,0.2-0.3,0.4-0.5,0.4l-2.4,0.7c-0.2,0.1-0.4,0-0.7-0.1
			s-0.4-0.3-0.4-0.5l-0.8-2.6c-0.1-0.2,0-0.4,0.1-0.7s0.3-0.4,0.5-0.4l2.4-0.7c0.2-0.1,0.4,0,0.7,0.1c0.2,0.1,0.4,0.3,0.4,0.5
			l0.8,2.6C2762.7,600.8,2762.7,601,2762.6,601.2z"/>
		<path class="st7" d="M2750.5,609.8c0.6-0.9,1.5-1.6,2.9-2c0.8-0.2,1.7-0.2,2.6,0.1c0.9,0.3,1.7,0.8,2.5,1.7
			c0.8,0.8,1.3,1.9,1.7,3.1c0.4,1.3,0.5,2.4,0.4,3.5c-0.1,1.1-0.3,2-0.8,2.7c-0.5,0.7-1,1.2-1.7,1.5c-0.2,0.1-0.4,0.1-0.7-0.1
			c-0.2-0.1-0.4-0.3-0.4-0.5l-0.7-2.4c-0.1-0.2-0.1-0.5-0.1-0.6c0-0.2,0.1-0.4,0.2-0.6c0.1-0.3,0.2-0.6,0.2-1c0-0.4-0.1-0.8-0.2-1.5
			c-0.2-0.7-0.5-1.2-0.8-1.6c-0.3-0.4-0.7-0.5-1.1-0.4c-0.3,0.1-0.5,0.3-0.6,0.5c-0.1,0.3-0.2,0.7-0.1,1.3s0.1,1.6,0.2,3.1
			c0.2,1.9-0.1,3.3-0.7,4.3c-0.6,1-1.5,1.7-2.8,2.1c-0.8,0.2-1.7,0.2-2.6-0.1s-1.8-0.9-2.5-1.8c-0.8-0.9-1.4-2-1.8-3.4
			s-0.6-2.6-0.4-3.8c0.1-1.1,0.4-2.1,0.9-2.8c0.5-0.7,1.1-1.2,1.8-1.5c0.2-0.1,0.4-0.1,0.7,0.1c0.2,0.1,0.4,0.3,0.4,0.5l0.7,2.4
			c0.1,0.2,0.1,0.4,0,0.6c0,0.2-0.1,0.4-0.2,0.6c-0.2,0.4-0.3,0.8-0.4,1.2c-0.1,0.4,0,1,0.2,1.7s0.5,1.4,0.9,1.9
			c0.4,0.5,0.8,0.7,1.2,0.6c0.3-0.1,0.4-0.2,0.5-0.5c0.1-0.3,0.1-0.6,0.1-1.1c0-0.5,0-1.3-0.1-2.4l-0.1-1.3
			C2749.7,612.1,2749.9,610.7,2750.5,609.8z"/>
		<path class="st7" d="M2769.3,646c-0.2-0.1-0.3-0.3-0.4-0.5l-0.6-2.2c-0.1-0.3-0.1-0.6,0-0.8c0.1-0.2,0.2-0.4,0.4-0.7
			c0.5-0.5,0.8-1.2,0.9-1.9c0.2-0.8,0.1-1.7-0.3-2.8c-0.3-1.1-0.8-2-1.5-2.6c-0.7-0.6-1.4-0.8-2.2-0.6c-0.6,0.2-1,0.5-1.3,1
			s-0.3,1.1-0.3,1.9c0,0.8,0.1,2.2,0.2,4c0.2,2.6,0,4.7-0.6,6c-0.6,1.4-1.8,2.3-3.5,2.8c-1.2,0.4-2.4,0.3-3.6-0.1
			c-1.2-0.4-2.3-1.2-3.2-2.4c-1-1.2-1.7-2.7-2.2-4.5c-0.5-1.5-0.6-3-0.5-4.5c0.1-1.5,0.5-2.8,1.1-3.9c0.7-1.1,1.6-1.8,2.7-2.2
			c0.2-0.1,0.5-0.1,0.7,0s0.3,0.3,0.4,0.5l0.6,2.2c0.1,0.3,0.1,0.6,0,0.8c-0.1,0.2-0.2,0.4-0.4,0.6c-0.6,0.5-1,1.2-1.2,2
			c-0.2,0.8-0.1,1.9,0.3,3.3c0.4,1.4,1,2.4,1.6,3.2c0.7,0.8,1.5,1,2.3,0.8c0.5-0.1,0.8-0.4,1-0.9c0.2-0.4,0.3-1,0.3-1.7
			c0-0.7,0-1.7-0.1-3.1c0-0.5-0.1-1.3-0.1-2.1c-0.1-2.3,0.2-4.1,0.8-5.3c0.6-1.2,1.9-2.1,3.6-2.6c1.2-0.4,2.4-0.3,3.6,0.1
			c1.2,0.4,2.2,1.2,3.1,2.2c0.9,1.1,1.6,2.4,2,3.9c0.5,1.7,0.7,3.3,0.5,4.7c-0.2,1.4-0.7,2.6-1.3,3.5c-0.7,0.9-1.4,1.5-2.3,1.8
			C2769.7,646.1,2769.5,646.1,2769.3,646z"/>
		<path class="st7" d="M2761,659.4c-0.3,0.5-0.2,1.1,0,2l0.6,1.9c0.1,0.2,0,0.4-0.1,0.7s-0.3,0.4-0.5,0.4l-2,0.6
			c-0.2,0.1-0.4,0-0.7-0.1s-0.4-0.3-0.4-0.5l-0.7-2.3c-0.6-1.9-0.5-3.6,0.1-4.9c0.6-1.3,1.9-2.2,3.8-2.8l6.6-2l-0.6-2
			c-0.1-0.2,0-0.4,0.1-0.7s0.3-0.4,0.5-0.4l2-0.6c0.2-0.1,0.4,0,0.7,0.1c0.2,0.1,0.4,0.3,0.4,0.5l0.6,2l5-1.5c0.2-0.1,0.4,0,0.7,0.1
			c0.2,0.1,0.4,0.3,0.4,0.5l0.7,2.3c0.1,0.2,0,0.4-0.1,0.7c-0.1,0.2-0.3,0.4-0.5,0.4l-5,1.5l1.2,4c0.1,0.2,0,0.4-0.1,0.7
			c-0.1,0.2-0.3,0.4-0.5,0.4l-2,0.6c-0.2,0.1-0.4,0-0.7-0.1s-0.4-0.3-0.4-0.5l-1.2-4l-6.5,1.9C2761.7,658.6,2761.2,659,2761,659.4z"
			/>
	</g>
	<g>
		<path class="st7" d="M2292.5,645.2c2,1.1,3.3,2.9,4.2,5.4c0.3,0.9,0.6,1.8,0.7,2.5c0.3,0.9,0.5,2,0.8,3.1c0.5,2.4,0.3,4.6-0.6,6.4
			l3.2,2.7c0.1,0.1,0.1,0.2,0.2,0.3l0,0.1c0.1,0.2,0,0.4-0.1,0.5s-0.2,0.2-0.4,0.3l-2.9,0.8c-0.3,0.1-0.6,0.1-0.8,0
			c-0.2-0.1-0.4-0.2-0.7-0.4l-1.4-1.1c-1,0.6-2.1,1.1-3.4,1.5c-2.9,0.8-5.3,0.6-7.3-0.5c-2-1.1-3.3-2.9-4.1-5.3
			c-0.4-1.1-0.7-2.1-0.9-3c-0.2-0.7-0.4-1.5-0.6-2.5c-0.6-2.5-0.3-4.7,0.8-6.7s3.1-3.4,6-4.2C2288.1,643.9,2290.5,644,2292.5,645.2z
			 M2283.2,650.7c-0.6,1.1-0.8,2.3-0.5,3.8c0.2,1,0.5,1.9,0.7,2.6c0.2,0.7,0.5,1.6,0.8,2.6c0.5,1.4,1.3,2.4,2.4,3
			c1.1,0.6,2.4,0.7,3.8,0.3c1.4-0.4,2.5-1.1,3.1-2.2c0.6-1.1,0.8-2.3,0.5-3.8c-0.1-0.5-0.3-1.4-0.7-2.6c-0.3-1.2-0.6-2.1-0.8-2.6
			c-0.5-1.4-1.3-2.4-2.4-3s-2.4-0.7-3.8-0.3S2283.8,649.7,2283.2,650.7z"/>
		<path class="st7" d="M2299.8,647.2c0.1-0.2,0.3-0.3,0.5-0.4l2.3-0.7c0.2-0.1,0.4,0,0.7,0.1c0.2,0.1,0.3,0.3,0.4,0.5l2.2,7.8
			c0.4,1.3,0.9,2.2,1.7,2.8c0.7,0.6,1.7,0.7,2.8,0.4c1.1-0.3,1.8-0.9,2.2-1.8s0.4-2,0.1-3.2l-2.2-7.8c-0.1-0.2,0-0.4,0.1-0.7
			c0.1-0.2,0.3-0.3,0.5-0.4l2.3-0.7c0.2-0.1,0.4,0,0.7,0.1c0.2,0.1,0.3,0.3,0.4,0.5l4,14.4c0.1,0.2,0,0.4-0.1,0.7s-0.3,0.3-0.5,0.4
			l-2.3,0.7c-0.2,0.1-0.4,0-0.7-0.1c-0.2-0.1-0.3-0.3-0.4-0.5l-0.2-0.7c-0.9,1.6-2.1,2.6-3.8,3c-2.3,0.6-4.2,0.4-5.5-0.6
			c-1.4-1.1-2.3-2.7-2.9-4.8l-2.3-8.3C2299.7,647.6,2299.7,647.4,2299.8,647.2z"/>
		<path class="st7" d="M2329.3,639.6c1.4,0.4,2.5,1.1,3.5,2.1c1,1,1.6,2.2,2,3.7l0.4,1.4c0.1,0.2,0,0.4-0.1,0.7
			c-0.1,0.2-0.3,0.3-0.5,0.4l-10.3,2.9c0.2,0.9,0.8,1.5,1.6,1.8c0.8,0.3,1.8,0.4,2.7,0.1c1.1-0.3,1.9-0.8,2.4-1.4
			c0.2-0.2,0.3-0.4,0.5-0.5c0.1-0.1,0.3-0.2,0.6-0.3l2.5-0.7c0.2-0.1,0.4,0,0.7,0.1c0.2,0.1,0.3,0.3,0.4,0.5c0.1,0.4,0,1.1-0.4,1.9
			c-0.4,0.8-1,1.6-2,2.4s-2.1,1.4-3.6,1.8c-1.5,0.4-3,0.4-4.3,0.1s-2.5-1.1-3.5-2.2c-1-1.1-1.7-2.5-2.1-4.1c-0.4-1.5-0.5-3-0.2-4.5
			c0.3-1.4,0.9-2.7,1.8-3.8c0.9-1.1,2.2-1.8,3.7-2.2S2327.9,639.2,2329.3,639.6z M2330.2,645.2c-0.8-1.8-2.2-2.5-4.2-1.9
			c-1.1,0.3-1.8,0.8-2.3,1.6c-0.4,0.7-0.6,1.5-0.5,2.3L2330.2,645.2z"/>
		<path class="st7" d="M2346.9,634.7c1.4,0.4,2.5,1.1,3.5,2.1c1,1,1.6,2.2,2,3.7l0.4,1.4c0.1,0.2,0,0.4-0.1,0.7
			c-0.1,0.2-0.3,0.3-0.5,0.4l-10.3,2.9c0.2,0.9,0.8,1.5,1.6,1.8c0.8,0.3,1.8,0.4,2.7,0.1c1.1-0.3,1.9-0.8,2.4-1.4
			c0.2-0.2,0.3-0.4,0.5-0.5c0.1-0.1,0.3-0.2,0.6-0.3l2.5-0.7c0.2-0.1,0.4,0,0.7,0.1s0.3,0.3,0.4,0.5c0.1,0.4,0,1.1-0.4,1.9
			c-0.4,0.8-1,1.6-2,2.4c-0.9,0.8-2.1,1.4-3.6,1.8c-1.5,0.4-3,0.4-4.3,0.1s-2.5-1.1-3.5-2.2c-1-1.1-1.7-2.5-2.1-4.1
			c-0.4-1.5-0.5-3-0.2-4.5c0.3-1.4,0.9-2.7,1.8-3.8c0.9-1.1,2.2-1.8,3.7-2.2C2344.1,634.3,2345.6,634.3,2346.9,634.7z M2347.9,640.3
			c-0.8-1.8-2.2-2.5-4.2-1.9c-1.1,0.3-1.8,0.8-2.3,1.6c-0.4,0.7-0.6,1.5-0.5,2.3L2347.9,640.3z"/>
		<path class="st7" d="M2372.7,643.7c-0.1,0.2-0.3,0.3-0.5,0.4l-2.3,0.7c-0.2,0.1-0.4,0-0.7-0.1c-0.2-0.1-0.3-0.3-0.4-0.5l-2.2-7.8
			c-0.4-1.3-0.9-2.2-1.7-2.7c-0.8-0.6-1.8-0.7-2.9-0.4c-1.1,0.3-1.8,0.9-2.3,1.8c-0.4,0.9-0.5,2-0.1,3.2l2.2,7.8
			c0.1,0.2,0,0.4-0.1,0.7c-0.1,0.2-0.3,0.3-0.5,0.4l-2.3,0.7c-0.2,0.1-0.4,0-0.7-0.1c-0.2-0.1-0.3-0.3-0.4-0.5l-4-14.4
			c-0.1-0.2,0-0.4,0.1-0.7c0.1-0.2,0.3-0.3,0.5-0.4l2.3-0.7c0.2-0.1,0.4,0,0.7,0.1c0.2,0.1,0.3,0.3,0.4,0.5l0.2,0.7
			c0.9-1.6,2.2-2.6,3.9-3.1c2.3-0.6,4.2-0.4,5.6,0.6c1.4,1.1,2.4,2.6,3,4.8l2.3,8.3C2372.9,643.3,2372.9,643.5,2372.7,643.7z"/>
		<path class="st7" d="M2395.8,620.7c-0.1,0.2-0.3,0.3-0.6,0.4l-2.2,0.6c-0.3,0.1-0.6,0.1-0.8,0c-0.2-0.1-0.4-0.2-0.6-0.4
			c-0.5-0.5-1.1-0.8-1.9-1c-0.8-0.2-1.7-0.1-2.8,0.2c-1.1,0.3-2,0.8-2.6,1.5c-0.6,0.7-0.8,1.4-0.6,2.1c0.2,0.6,0.5,1,0.9,1.3
			c0.5,0.2,1.1,0.4,1.9,0.4c0.8,0,2.2,0,4-0.1c2.6-0.2,4.7,0.1,6,0.8c1.4,0.7,2.3,1.8,2.8,3.5c0.3,1.2,0.3,2.4-0.2,3.6
			s-1.3,2.2-2.5,3.2c-1.2,0.9-2.7,1.6-4.5,2.2c-1.5,0.4-3.1,0.6-4.5,0.5c-1.5-0.1-2.8-0.5-3.8-1.2c-1.1-0.7-1.8-1.6-2.2-2.8
			c-0.1-0.2-0.1-0.5,0-0.7c0.1-0.2,0.3-0.3,0.6-0.4l2.2-0.6c0.3-0.1,0.6-0.1,0.8,0c0.2,0.1,0.4,0.2,0.6,0.4c0.5,0.6,1.2,1,2,1.2
			c0.8,0.2,1.9,0.1,3.3-0.3c1.4-0.4,2.4-0.9,3.2-1.6c0.8-0.7,1.1-1.5,0.8-2.3c-0.1-0.5-0.4-0.8-0.9-1c-0.4-0.2-1-0.3-1.7-0.3
			c-0.7,0-1.7,0-3.1,0.1c-0.5,0-1.3,0.1-2.1,0.1c-2.3,0.1-4.1-0.2-5.3-0.9c-1.2-0.7-2.1-1.9-2.6-3.7c-0.3-1.2-0.3-2.4,0.2-3.6
			c0.4-1.2,1.2-2.2,2.3-3.1c1.1-0.9,2.4-1.5,3.9-2c1.7-0.5,3.3-0.6,4.7-0.4c1.4,0.2,2.6,0.7,3.5,1.4s1.5,1.5,1.8,2.3
			C2395.9,620.3,2395.9,620.5,2395.8,620.7z"/>
		<path class="st7" d="M2409.1,629.3c0.5,0.3,1.1,0.3,2,0l1.9-0.5c0.2-0.1,0.4,0,0.7,0.1c0.2,0.1,0.3,0.3,0.4,0.5l0.6,2
			c0.1,0.2,0,0.4-0.1,0.7c-0.1,0.2-0.3,0.3-0.5,0.4l-2.3,0.6c-2,0.5-3.6,0.5-4.9-0.2c-1.3-0.7-2.2-2-2.7-3.8l-1.8-6.6l-2,0.6
			c-0.2,0.1-0.4,0-0.7-0.1c-0.2-0.1-0.3-0.3-0.4-0.5l-0.6-2c-0.1-0.2,0-0.4,0.1-0.7s0.3-0.3,0.5-0.4l2-0.6l-1.4-5
			c-0.1-0.2,0-0.4,0.1-0.7c0.1-0.2,0.3-0.3,0.5-0.4l2.3-0.7c0.2-0.1,0.4,0,0.7,0.1s0.3,0.3,0.4,0.5l1.4,5l4-1.1
			c0.2-0.1,0.4,0,0.7,0.1c0.2,0.1,0.3,0.3,0.4,0.5l0.6,2c0.1,0.2,0,0.4-0.1,0.7c-0.1,0.2-0.3,0.3-0.5,0.4l-4,1.1l1.8,6.5
			C2408.3,628.6,2408.6,629,2409.1,629.3z"/>
		<path class="st7" d="M2428.3,624.4l10.2-2.8c0.2-0.1,0.4,0,0.7,0.1c0.2,0.1,0.3,0.3,0.4,0.5l0.6,2.2c0.1,0.2,0,0.4-0.1,0.7
			c-0.1,0.2-0.3,0.3-0.5,0.4l-13.6,3.8c-0.2,0.1-0.4,0-0.7-0.1c-0.2-0.1-0.3-0.3-0.4-0.5l-5.5-20c-0.1-0.2,0-0.4,0.1-0.7
			c0.1-0.2,0.3-0.3,0.5-0.4l13.3-3.7c0.2-0.1,0.4,0,0.7,0.1c0.2,0.1,0.3,0.3,0.4,0.5l0.6,2.2c0.1,0.2,0,0.4-0.1,0.7
			c-0.1,0.2-0.3,0.3-0.5,0.4l-10,2.8l1.4,4.9l9.3-2.6c0.2-0.1,0.4,0,0.7,0.1c0.2,0.1,0.3,0.3,0.4,0.5l0.6,2.2c0.1,0.2,0,0.4-0.1,0.7
			s-0.3,0.3-0.5,0.4l-9.3,2.6L2428.3,624.4z"/>
	</g>
</g>
</svg>
