<svg id="Layer_1" data-name="Layer 1" xmlns="http://www.w3.org/2000/svg" viewBox="0 0 98.07 139.09"><defs><style>.cls-1{fill:#e35362;}.cls-2{fill:none;stroke:#231f20;stroke-linecap:round;stroke-linejoin:round;stroke-width:5px;}</style></defs><title>Pin</title><path class="cls-1" d="M395.83,306.36a20.52,20.52,0,1,1,16-7.76,20.46,20.46,0,0,1-16,7.76m0-67a46.52,46.52,0,0,0-44.76,59.27,34.54,34.54,0,0,0,2.7,7.2c9.54,17.47,42.05,67.62,42.05,67.62s32.51-50.15,42.05-67.62a34.68,34.68,0,0,0,2.7-7.2,46.53,46.53,0,0,0-44.76-59.27" transform="translate(-346.8 -236.83)"/><path class="cls-2" d="M395.83,306.36a20.52,20.52,0,1,1,16-7.76A20.46,20.46,0,0,1,395.83,306.36Zm0-67a46.52,46.52,0,0,0-44.76,59.27,34.54,34.54,0,0,0,2.7,7.2c9.54,17.47,42.05,67.62,42.05,67.62s32.51-50.15,42.05-67.62a34.68,34.68,0,0,0,2.7-7.2A46.53,46.53,0,0,0,395.83,239.33Z" transform="translate(-346.8 -236.83)"/></svg>